<?xml version="1.0" encoding="UTF-8" standalone="no"?>
<!DOCTYPE svg PUBLIC "-//W3C//DTD SVG 1.1//EN"
 "http://www.w3.org/Graphics/SVG/1.1/DTD/svg11.dtd">
<!-- Generated by graphviz version 2.47.1 (20210417.1919)
 -->
<!-- Title: LNode::getId Pages: 1 -->
<svg width="356pt" height="28pt"
 viewBox="0.00 0.00 356.00 28.00" xmlns="http://www.w3.org/2000/svg" xmlns:xlink="http://www.w3.org/1999/xlink">
<g id="graph0" class="graph" transform="scale(1 1) rotate(0) translate(4 24)">
<title>LNode::getId</title>
<polygon fill="white" stroke="transparent" points="-4,4 -4,-24 352,-24 352,4 -4,4"/>
<!-- Node1 -->
<g id="node1" class="node">
<title>Node1</title>
<g id="a_node1"><a xlink:title=" ">
<polygon fill="#bfbfbf" stroke="black" points="277,-0.5 277,-19.5 348,-19.5 348,-0.5 277,-0.5"/>
<text text-anchor="middle" x="312.5" y="-7.5" font-family="Helvetica,sans-Serif" font-size="10.00">LNode::getId</text>
</a>
</g>
</g>
<!-- Node2 -->
<g id="node2" class="node">
<title>Node2</title>
<g id="a_node2"><a xlink:href="classLlist.html#a7a7b59fee1d4635d6122049828560411" target="_top" xlink:title="Get the Node wher a Tag was founded.">
<polygon fill="white" stroke="black" points="164,-0.5 164,-19.5 241,-19.5 241,-0.5 164,-0.5"/>
<text text-anchor="middle" x="202.5" y="-7.5" font-family="Helvetica,sans-Serif" font-size="10.00">Llist::getNode</text>
</a>
</g>
</g>
<!-- Node1&#45;&gt;Node2 -->
<g id="edge1" class="edge">
<title>Node1&#45;&gt;Node2</title>
<path fill="none" stroke="midnightblue" d="M266.63,-10C258.17,-10 249.4,-10 241.19,-10"/>
<polygon fill="midnightblue" stroke="midnightblue" points="266.73,-13.5 276.73,-10 266.73,-6.5 266.73,-13.5"/>
</g>
<!-- Node3 -->
<g id="node3" class="node">
<title>Node3</title>
<g id="a_node3"><a xlink:href="classMemoryController.html#aa9db24d5c470a2fb527a37c13408fe63" target="_top" xlink:title="search for a Variable in the availables scopes">
<polygon fill="white" stroke="black" points="0,-0.5 0,-19.5 128,-19.5 128,-0.5 0,-0.5"/>
<text text-anchor="middle" x="64" y="-7.5" font-family="Helvetica,sans-Serif" font-size="10.00">MemoryController::search</text>
</a>
</g>
</g>
<!-- Node2&#45;&gt;Node3 -->
<g id="edge2" class="edge">
<title>Node2&#45;&gt;Node3</title>
<path fill="none" stroke="midnightblue" d="M153.68,-10C145.45,-10 136.78,-10 128.21,-10"/>
<polygon fill="midnightblue" stroke="midnightblue" points="153.84,-13.5 163.84,-10 153.84,-6.5 153.84,-13.5"/>
</g>
</g>
</svg>
