<?xml version="1.0" encoding="UTF-8" standalone="no"?>
<!DOCTYPE svg PUBLIC "-//W3C//DTD SVG 1.1//EN"
 "http://www.w3.org/Graphics/SVG/1.1/DTD/svg11.dtd">
<!-- Generated by graphviz version 2.47.1 (20210417.1919)
 -->
<!-- Title: MainWindow Pages: 1 -->
<svg width="391pt" height="486pt"
 viewBox="0.00 0.00 391.00 486.00" xmlns="http://www.w3.org/2000/svg" xmlns:xlink="http://www.w3.org/1999/xlink">
<g id="graph0" class="graph" transform="scale(1 1) rotate(0) translate(4 482)">
<title>MainWindow</title>
<polygon fill="white" stroke="transparent" points="-4,4 -4,-482 387,-482 387,4 -4,4"/>
<!-- Node1 -->
<g id="node1" class="node">
<title>Node1</title>
<g id="a_node1"><a xlink:title=" ">
<polygon fill="#bfbfbf" stroke="black" points="106.5,-0.5 106.5,-90.5 237.5,-90.5 237.5,-0.5 106.5,-0.5"/>
<text text-anchor="middle" x="172" y="-78.5" font-family="Helvetica,sans-Serif" font-size="10.00">MainWindow</text>
<polyline fill="none" stroke="black" points="106.5,-71.5 237.5,-71.5 "/>
<text text-anchor="middle" x="172" y="-59.5" font-family="Helvetica,sans-Serif" font-size="10.00"> </text>
<polyline fill="none" stroke="black" points="106.5,-52.5 237.5,-52.5 "/>
<text text-anchor="start" x="114.5" y="-40.5" font-family="Helvetica,sans-Serif" font-size="10.00">+ MainWindow()</text>
<text text-anchor="start" x="114.5" y="-29.5" font-family="Helvetica,sans-Serif" font-size="10.00">+ ~MainWindow()</text>
<text text-anchor="start" x="114.5" y="-18.5" font-family="Helvetica,sans-Serif" font-size="10.00">&#45; on_runbtn_clicked()</text>
<text text-anchor="start" x="114.5" y="-7.5" font-family="Helvetica,sans-Serif" font-size="10.00">&#45; on_nextLinebtn_clicked()</text>
</a>
</g>
</g>
<!-- Node2 -->
<g id="node2" class="node">
<title>Node2</title>
<g id="a_node2"><a xlink:title=" ">
<polygon fill="white" stroke="#bfbfbf" points="0,-160.5 0,-217.5 80,-217.5 80,-160.5 0,-160.5"/>
<text text-anchor="middle" x="40" y="-205.5" font-family="Helvetica,sans-Serif" font-size="10.00">QMainWindow</text>
<polyline fill="none" stroke="#bfbfbf" points="0,-198.5 80,-198.5 "/>
<text text-anchor="middle" x="40" y="-186.5" font-family="Helvetica,sans-Serif" font-size="10.00"> </text>
<polyline fill="none" stroke="#bfbfbf" points="0,-179.5 80,-179.5 "/>
<text text-anchor="middle" x="40" y="-167.5" font-family="Helvetica,sans-Serif" font-size="10.00"> </text>
</a>
</g>
</g>
<!-- Node2&#45;&gt;Node1 -->
<g id="edge1" class="edge">
<title>Node2&#45;&gt;Node1</title>
<path fill="none" stroke="midnightblue" d="M72.98,-152.64C90.47,-133.9 112.12,-110.69 130.72,-90.75"/>
<polygon fill="none" stroke="midnightblue" points="70.03,-150.68 65.76,-160.38 75.14,-155.46 70.03,-150.68"/>
</g>
<!-- Node3 -->
<g id="node3" class="node">
<title>Node3</title>
<g id="a_node3"><a xlink:href="classJson__parser.html" target="_top" xlink:title=" ">
<polygon fill="white" stroke="black" points="98.5,-160.5 98.5,-217.5 167.5,-217.5 167.5,-160.5 98.5,-160.5"/>
<text text-anchor="middle" x="133" y="-205.5" font-family="Helvetica,sans-Serif" font-size="10.00">Json_parser</text>
<polyline fill="none" stroke="black" points="98.5,-198.5 167.5,-198.5 "/>
<text text-anchor="middle" x="133" y="-186.5" font-family="Helvetica,sans-Serif" font-size="10.00"> </text>
<polyline fill="none" stroke="black" points="98.5,-179.5 167.5,-179.5 "/>
<text text-anchor="start" x="106.5" y="-167.5" font-family="Helvetica,sans-Serif" font-size="10.00">+ qt_json()</text>
</a>
</g>
</g>
<!-- Node3&#45;&gt;Node1 -->
<g id="edge2" class="edge">
<title>Node3&#45;&gt;Node1</title>
<path fill="none" stroke="#404040" d="M139.1,-160.45C142.61,-145.21 147.25,-125.98 152,-109 152.6,-106.87 153.22,-104.71 153.85,-102.52"/>
<polygon fill="none" stroke="#404040" points="153.93,-102.26 151.83,-95.36 157.39,-90.76 159.49,-97.66 153.93,-102.26"/>
<text text-anchor="middle" x="171" y="-112" font-family="Helvetica,sans-Serif" font-size="10.00"> +Parser</text>
</g>
<!-- Node4 -->
<g id="node4" class="node">
<title>Node4</title>
<g id="a_node4"><a xlink:href="classUi_1_1MainWindow.html" target="_top" xlink:title=" ">
<polygon fill="white" stroke="black" points="185.5,-160.5 185.5,-217.5 272.5,-217.5 272.5,-160.5 185.5,-160.5"/>
<text text-anchor="middle" x="229" y="-205.5" font-family="Helvetica,sans-Serif" font-size="10.00">Ui::MainWindow</text>
<polyline fill="none" stroke="black" points="185.5,-198.5 272.5,-198.5 "/>
<text text-anchor="middle" x="229" y="-186.5" font-family="Helvetica,sans-Serif" font-size="10.00"> </text>
<polyline fill="none" stroke="black" points="185.5,-179.5 272.5,-179.5 "/>
<text text-anchor="middle" x="229" y="-167.5" font-family="Helvetica,sans-Serif" font-size="10.00"> </text>
</a>
</g>
</g>
<!-- Node4&#45;&gt;Node1 -->
<g id="edge3" class="edge">
<title>Node4&#45;&gt;Node1</title>
<path fill="none" stroke="#404040" d="M217.87,-160.38C211.18,-143.76 202.42,-122.02 194.35,-101.98"/>
<polygon fill="none" stroke="#404040" points="194.31,-101.89 188.36,-97.81 189.83,-90.75 195.78,-94.83 194.31,-101.89"/>
<text text-anchor="middle" x="208" y="-112" font-family="Helvetica,sans-Serif" font-size="10.00"> &#45;ui</text>
</g>
<!-- Node5 -->
<g id="node5" class="node">
<title>Node5</title>
<g id="a_node5"><a xlink:href="classUi__MainWindow.html" target="_top" xlink:title=" ">
<polygon fill="white" stroke="black" points="184.5,-277.5 184.5,-477.5 273.5,-477.5 273.5,-277.5 184.5,-277.5"/>
<text text-anchor="middle" x="229" y="-465.5" font-family="Helvetica,sans-Serif" font-size="10.00">Ui_MainWindow</text>
<polyline fill="none" stroke="black" points="184.5,-458.5 273.5,-458.5 "/>
<text text-anchor="start" x="192.5" y="-446.5" font-family="Helvetica,sans-Serif" font-size="10.00">+ centralWidget</text>
<text text-anchor="start" x="192.5" y="-435.5" font-family="Helvetica,sans-Serif" font-size="10.00">+ RLVlabel</text>
<text text-anchor="start" x="192.5" y="-424.5" font-family="Helvetica,sans-Serif" font-size="10.00">+ runbtn</text>
<text text-anchor="start" x="192.5" y="-413.5" font-family="Helvetica,sans-Serif" font-size="10.00">+ nextLinebtn</text>
<text text-anchor="start" x="192.5" y="-402.5" font-family="Helvetica,sans-Serif" font-size="10.00">+ AppLlabel</text>
<text text-anchor="start" x="192.5" y="-391.5" font-family="Helvetica,sans-Serif" font-size="10.00">+ clearbtn</text>
<text text-anchor="start" x="192.5" y="-380.5" font-family="Helvetica,sans-Serif" font-size="10.00">+ directionlabel</text>
<text text-anchor="start" x="192.5" y="-369.5" font-family="Helvetica,sans-Serif" font-size="10.00">+ valuelabel</text>
<text text-anchor="start" x="192.5" y="-358.5" font-family="Helvetica,sans-Serif" font-size="10.00">+ namelabel</text>
<text text-anchor="start" x="192.5" y="-347.5" font-family="Helvetica,sans-Serif" font-size="10.00">+ label</text>
<text text-anchor="start" x="192.5" y="-336.5" font-family="Helvetica,sans-Serif" font-size="10.00">+ stdoutCode</text>
<text text-anchor="start" x="192.5" y="-325.5" font-family="Helvetica,sans-Serif" font-size="10.00">+ terminal</text>
<text text-anchor="start" x="192.5" y="-314.5" font-family="Helvetica,sans-Serif" font-size="10.00">+ ApplicationLog</text>
<polyline fill="none" stroke="black" points="184.5,-307.5 273.5,-307.5 "/>
<text text-anchor="start" x="192.5" y="-295.5" font-family="Helvetica,sans-Serif" font-size="10.00">+ setupUi()</text>
<text text-anchor="start" x="192.5" y="-284.5" font-family="Helvetica,sans-Serif" font-size="10.00">+ retranslateUi()</text>
</a>
</g>
</g>
<!-- Node5&#45;&gt;Node4 -->
<g id="edge4" class="edge">
<title>Node5&#45;&gt;Node4</title>
<path fill="none" stroke="midnightblue" d="M229,-267.02C229,-248.74 229,-231.32 229,-217.68"/>
<polygon fill="none" stroke="midnightblue" points="225.5,-267.24 229,-277.24 232.5,-267.24 225.5,-267.24"/>
</g>
<!-- Node6 -->
<g id="node6" class="node">
<title>Node6</title>
<g id="a_node6"><a xlink:href="classSocket__Client.html" target="_top" xlink:title=" ">
<polygon fill="white" stroke="black" points="291,-138.5 291,-239.5 383,-239.5 383,-138.5 291,-138.5"/>
<text text-anchor="middle" x="337" y="-227.5" font-family="Helvetica,sans-Serif" font-size="10.00">Socket_Client</text>
<polyline fill="none" stroke="black" points="291,-220.5 383,-220.5 "/>
<text text-anchor="start" x="299" y="-208.5" font-family="Helvetica,sans-Serif" font-size="10.00">+ context</text>
<text text-anchor="start" x="299" y="-197.5" font-family="Helvetica,sans-Serif" font-size="10.00">+ type</text>
<text text-anchor="start" x="299" y="-186.5" font-family="Helvetica,sans-Serif" font-size="10.00">+ socket</text>
<polyline fill="none" stroke="black" points="291,-179.5 383,-179.5 "/>
<text text-anchor="start" x="299" y="-167.5" font-family="Helvetica,sans-Serif" font-size="10.00">+ Socket_Client()</text>
<text text-anchor="start" x="299" y="-156.5" font-family="Helvetica,sans-Serif" font-size="10.00">+ Init()</text>
<text text-anchor="start" x="299" y="-145.5" font-family="Helvetica,sans-Serif" font-size="10.00">+ Comunicatte()</text>
</a>
</g>
</g>
<!-- Node6&#45;&gt;Node1 -->
<g id="edge5" class="edge">
<title>Node6&#45;&gt;Node1</title>
<path fill="none" stroke="#404040" d="M290.92,-145.84C287.91,-143.17 284.92,-140.54 282,-138 267.1,-125.04 250.84,-111.31 235.51,-98.53"/>
<polygon fill="none" stroke="#404040" points="235.34,-98.38 228.17,-97.62 226.11,-90.71 233.28,-91.47 235.34,-98.38"/>
<text text-anchor="middle" x="278" y="-112" font-family="Helvetica,sans-Serif" font-size="10.00"> +Socket</text>
</g>
</g>
</svg>
