<?xml version="1.0" encoding="UTF-8" standalone="no"?>
<!DOCTYPE svg PUBLIC "-//W3C//DTD SVG 1.1//EN"
 "http://www.w3.org/Graphics/SVG/1.1/DTD/svg11.dtd">
<!-- Generated by graphviz version 2.47.1 (20210417.1919)
 -->
<!-- Title: MemoryController Pages: 1 -->
<!--zoomable 1217 -->
<svg id="main" version="1.1" xmlns="http://www.w3.org/2000/svg" xmlns:xlink="http://www.w3.org/1999/xlink" xml:space="preserve" onload="init(evt)">
<style type="text/css"><![CDATA[
.edge:hover path { stroke: red; }
.edge:hover polygon { stroke: red; fill: red; }
]]></style>
<script type="text/javascript"><![CDATA[
var edges = document.getElementsByTagName('g');
if (edges && edges.length) {
  for (var i=0;i<edges.length;i++) {
    if (edges[i].id.substr(0,4)=='edge') {
      edges[i].setAttribute('class','edge');
    }
  }
}
]]></script>
        <defs>
                <circle id="rim" cx="0" cy="0" r="7"/>
                <circle id="rim2" cx="0" cy="0" r="3.5"/>
                <g id="zoomPlus">
                        <use xlink:href="#rim" fill="#404040">
                                <set attributeName="fill" to="#808080" begin="zoomplus.mouseover" end="zoomplus.mouseout"/>
                        </use>
                        <path d="M-4,0h8M0,-4v8" fill="none" stroke="white" stroke-width="1.5" pointer-events="none"/>
                </g>
                <g id="zoomMin">
                        <use xlink:href="#rim" fill="#404040">
                                <set attributeName="fill" to="#808080" begin="zoomminus.mouseover" end="zoomminus.mouseout"/>
                        </use>
                        <path d="M-4,0h8" fill="none" stroke="white" stroke-width="1.5" pointer-events="none"/>
                </g>
                <g id="dirArrow">
                        <path fill="none" stroke="white" stroke-width="1.5" d="M0,-3.0v7 M-2.5,-0.5L0,-3.0L2.5,-0.5"/>
                </g>
               <g id="resetDef">
                       <use xlink:href="#rim2" fill="#404040">
                               <set attributeName="fill" to="#808080" begin="reset.mouseover" end="reset.mouseout"/>
                       </use>
               </g>
        </defs>

<script type="text/javascript">
var viewWidth = 209;
var viewHeight = 1217;
var sectionId = 'dynsection-0';
</script>
<script xlink:href="svgpan.js"/>
<svg id="graph" class="graph">
<g id="viewport">
<title>MemoryController</title>
<polygon fill="white" stroke="transparent" points="-4,4 -4,-1213 205,-1213 205,4 -4,4"/>
<!-- Node1 -->
<g id="node1" class="node">
<title>Node1</title>
<g id="a_node1"><a xlink:title=" ">
<polygon fill="#bfbfbf" stroke="black" points="1,-0.5 1,-288.5 109,-288.5 109,-0.5 1,-0.5"/>
<text text-anchor="middle" x="55" y="-276.5" font-family="Helvetica,sans-Serif" font-size="10.00">MemoryController</text>
<polyline fill="none" stroke="black" points="1,-269.5 109,-269.5 "/>
<text text-anchor="start" x="9" y="-257.5" font-family="Helvetica,sans-Serif" font-size="10.00">+ size</text>
<text text-anchor="start" x="9" y="-246.5" font-family="Helvetica,sans-Serif" font-size="10.00">&#45; ptr_start</text>
<text text-anchor="start" x="9" y="-235.5" font-family="Helvetica,sans-Serif" font-size="10.00">&#45; ptr_End</text>
<text text-anchor="start" x="9" y="-224.5" font-family="Helvetica,sans-Serif" font-size="10.00">&#45; ptr_actual</text>
<polyline fill="none" stroke="black" points="1,-217.5 109,-217.5 "/>
<text text-anchor="start" x="9" y="-205.5" font-family="Helvetica,sans-Serif" font-size="10.00">+ getPtrActual()</text>
<text text-anchor="start" x="9" y="-194.5" font-family="Helvetica,sans-Serif" font-size="10.00">+ operator new()</text>
<text text-anchor="start" x="9" y="-183.5" font-family="Helvetica,sans-Serif" font-size="10.00">+ operator delete()</text>
<text text-anchor="start" x="9" y="-172.5" font-family="Helvetica,sans-Serif" font-size="10.00">+ MemoryController()</text>
<text text-anchor="start" x="9" y="-161.5" font-family="Helvetica,sans-Serif" font-size="10.00">+ new_scope()</text>
<text text-anchor="start" x="9" y="-150.5" font-family="Helvetica,sans-Serif" font-size="10.00">+ define_ints()</text>
<text text-anchor="start" x="9" y="-139.5" font-family="Helvetica,sans-Serif" font-size="10.00">+ define_chars()</text>
<text text-anchor="start" x="9" y="-128.5" font-family="Helvetica,sans-Serif" font-size="10.00">+ define_floats()</text>
<text text-anchor="start" x="9" y="-117.5" font-family="Helvetica,sans-Serif" font-size="10.00">+ define_structs()</text>
<text text-anchor="start" x="9" y="-106.5" font-family="Helvetica,sans-Serif" font-size="10.00">+ define_references()</text>
<text text-anchor="start" x="9" y="-95.5" font-family="Helvetica,sans-Serif" font-size="10.00">+ define_longs()</text>
<text text-anchor="start" x="9" y="-84.5" font-family="Helvetica,sans-Serif" font-size="10.00">+ define_doubles()</text>
<text text-anchor="start" x="9" y="-73.5" font-family="Helvetica,sans-Serif" font-size="10.00">+ testing_scope()</text>
<text text-anchor="start" x="9" y="-62.5" font-family="Helvetica,sans-Serif" font-size="10.00">+ increment_ptr()</text>
<text text-anchor="start" x="9" y="-51.5" font-family="Helvetica,sans-Serif" font-size="10.00">+ getMainScope()</text>
<text text-anchor="start" x="9" y="-40.5" font-family="Helvetica,sans-Serif" font-size="10.00">+ search()</text>
<text text-anchor="start" x="9" y="-29.5" font-family="Helvetica,sans-Serif" font-size="10.00">+ Unscope()</text>
<text text-anchor="start" x="9" y="-18.5" font-family="Helvetica,sans-Serif" font-size="10.00">+ getActualScope()</text>
<text text-anchor="start" x="9" y="-7.5" font-family="Helvetica,sans-Serif" font-size="10.00">+ setActualScope()</text>
</a>
</g>
</g>
<!-- Node1&#45;&gt;Node1 -->
<g id="edge1" class="edge">
<title>Node1&#45;&gt;Node1</title>
<path fill="none" stroke="#404040" d="M109.01,-175.32C119.53,-171.74 127,-161.46 127,-144.5 127,-133.9 124.08,-125.91 119.32,-120.53"/>
<polygon fill="none" stroke="#404040" points="119,-120.32 111.79,-120.34 109.01,-113.68 116.22,-113.67 119,-120.32"/>
<text text-anchor="middle" x="138" y="-142" font-family="Helvetica,sans-Serif" font-size="10.00"> &#45;self</text>
</g>
<!-- Node2 -->
<g id="node2" class="node">
<title>Node2</title>
<g id="a_node2"><a xlink:href="classScope.html" target="_top" xlink:title=" ">
<polygon fill="white" stroke="black" points="0,-347.5 0,-679.5 110,-679.5 110,-347.5 0,-347.5"/>
<text text-anchor="middle" x="55" y="-667.5" font-family="Helvetica,sans-Serif" font-size="10.00">Scope</text>
<polyline fill="none" stroke="black" points="0,-660.5 110,-660.5 "/>
<text text-anchor="start" x="8" y="-648.5" font-family="Helvetica,sans-Serif" font-size="10.00">&#45; type</text>
<polyline fill="none" stroke="black" points="0,-641.5 110,-641.5 "/>
<text text-anchor="start" x="8" y="-629.5" font-family="Helvetica,sans-Serif" font-size="10.00">+ getType()</text>
<text text-anchor="start" x="8" y="-618.5" font-family="Helvetica,sans-Serif" font-size="10.00">+ getId()</text>
<text text-anchor="start" x="8" y="-607.5" font-family="Helvetica,sans-Serif" font-size="10.00">+ setType()</text>
<text text-anchor="start" x="8" y="-596.5" font-family="Helvetica,sans-Serif" font-size="10.00">+ setId()</text>
<text text-anchor="start" x="8" y="-585.5" font-family="Helvetica,sans-Serif" font-size="10.00">+ setInts()</text>
<text text-anchor="start" x="8" y="-574.5" font-family="Helvetica,sans-Serif" font-size="10.00">+ setChars()</text>
<text text-anchor="start" x="8" y="-563.5" font-family="Helvetica,sans-Serif" font-size="10.00">+ setFloats()</text>
<text text-anchor="start" x="8" y="-552.5" font-family="Helvetica,sans-Serif" font-size="10.00">+ setStructs()</text>
<text text-anchor="start" x="8" y="-541.5" font-family="Helvetica,sans-Serif" font-size="10.00">+ setReferences()</text>
<text text-anchor="start" x="8" y="-530.5" font-family="Helvetica,sans-Serif" font-size="10.00">+ setLongs()</text>
<text text-anchor="start" x="8" y="-519.5" font-family="Helvetica,sans-Serif" font-size="10.00">+ setDoubles()</text>
<text text-anchor="start" x="8" y="-508.5" font-family="Helvetica,sans-Serif" font-size="10.00">+ getInts()</text>
<text text-anchor="start" x="8" y="-497.5" font-family="Helvetica,sans-Serif" font-size="10.00">+ getChars()</text>
<text text-anchor="start" x="8" y="-486.5" font-family="Helvetica,sans-Serif" font-size="10.00">+ getFloats()</text>
<text text-anchor="start" x="8" y="-475.5" font-family="Helvetica,sans-Serif" font-size="10.00">+ getStructs()</text>
<text text-anchor="start" x="8" y="-464.5" font-family="Helvetica,sans-Serif" font-size="10.00">+ getReferences()</text>
<text text-anchor="start" x="8" y="-453.5" font-family="Helvetica,sans-Serif" font-size="10.00">+ getLongs()</text>
<text text-anchor="start" x="8" y="-442.5" font-family="Helvetica,sans-Serif" font-size="10.00">+ getDoubles()</text>
<text text-anchor="start" x="8" y="-431.5" font-family="Helvetica,sans-Serif" font-size="10.00">+ getNextScope()</text>
<text text-anchor="start" x="8" y="-420.5" font-family="Helvetica,sans-Serif" font-size="10.00">+ setNextScope()</text>
<text text-anchor="start" x="8" y="-409.5" font-family="Helvetica,sans-Serif" font-size="10.00">+ getPreviousScope()</text>
<text text-anchor="start" x="8" y="-398.5" font-family="Helvetica,sans-Serif" font-size="10.00">+ setPreviousScope()</text>
<text text-anchor="start" x="8" y="-387.5" font-family="Helvetica,sans-Serif" font-size="10.00">+ Scope()</text>
<text text-anchor="start" x="8" y="-376.5" font-family="Helvetica,sans-Serif" font-size="10.00">+ Search()</text>
<text text-anchor="start" x="8" y="-365.5" font-family="Helvetica,sans-Serif" font-size="10.00">+ GetJson()</text>
<text text-anchor="start" x="8" y="-354.5" font-family="Helvetica,sans-Serif" font-size="10.00">+ Delete()</text>
</a>
</g>
</g>
<!-- Node2&#45;&gt;Node1 -->
<g id="edge2" class="edge">
<title>Node2&#45;&gt;Node1</title>
<path fill="none" stroke="#404040" d="M55,-347.25C55,-331.79 55,-316.15 55,-300.78"/>
<polygon fill="none" stroke="#404040" points="55,-300.53 51,-294.53 55,-288.53 59,-294.53 55,-300.53"/>
<text text-anchor="middle" x="88.5" y="-321" font-family="Helvetica,sans-Serif" font-size="10.00"> &#45;Actual_Scope</text>
<text text-anchor="middle" x="88.5" y="-310" font-family="Helvetica,sans-Serif" font-size="10.00">&#45;Main_Scope</text>
</g>
<!-- Node2&#45;&gt;Node2 -->
<g id="edge6" class="edge">
<title>Node2&#45;&gt;Node2</title>
<path fill="none" stroke="#404040" d="M110.07,-548.13C120.57,-543.99 128,-532.45 128,-513.5 128,-501.36 124.95,-492.26 120,-486.2"/>
<polygon fill="none" stroke="#404040" points="119.72,-486 112.52,-485.65 110.07,-478.87 117.28,-479.21 119.72,-486"/>
<text text-anchor="middle" x="164.5" y="-516.5" font-family="Helvetica,sans-Serif" font-size="10.00"> &#45;Next_Scope</text>
<text text-anchor="middle" x="164.5" y="-505.5" font-family="Helvetica,sans-Serif" font-size="10.00">&#45;Previous_Scope</text>
</g>
<!-- Node3 -->
<g id="node3" class="node">
<title>Node3</title>
<g id="a_node3"><a xlink:href="classLlist.html" target="_top" xlink:title=" ">
<polygon fill="white" stroke="black" points="21,-804.5 21,-916.5 89,-916.5 89,-804.5 21,-804.5"/>
<text text-anchor="middle" x="55" y="-904.5" font-family="Helvetica,sans-Serif" font-size="10.00">Llist</text>
<polyline fill="none" stroke="black" points="21,-897.5 89,-897.5 "/>
<text text-anchor="middle" x="55" y="-885.5" font-family="Helvetica,sans-Serif" font-size="10.00"> </text>
<polyline fill="none" stroke="black" points="21,-878.5 89,-878.5 "/>
<text text-anchor="start" x="29" y="-866.5" font-family="Helvetica,sans-Serif" font-size="10.00">+ Llist()</text>
<text text-anchor="start" x="29" y="-855.5" font-family="Helvetica,sans-Serif" font-size="10.00">+ getFirst()</text>
<text text-anchor="start" x="29" y="-844.5" font-family="Helvetica,sans-Serif" font-size="10.00">+ setFirst()</text>
<text text-anchor="start" x="29" y="-833.5" font-family="Helvetica,sans-Serif" font-size="10.00">+ search()</text>
<text text-anchor="start" x="29" y="-822.5" font-family="Helvetica,sans-Serif" font-size="10.00">+ getNode()</text>
<text text-anchor="start" x="29" y="-811.5" font-family="Helvetica,sans-Serif" font-size="10.00">+ LJson()</text>
</a>
</g>
</g>
<!-- Node3&#45;&gt;Node2 -->
<g id="edge3" class="edge">
<title>Node3&#45;&gt;Node2</title>
<path fill="none" stroke="#404040" d="M55,-804.45C55,-773.46 55,-732.83 55,-691.84"/>
<polygon fill="none" stroke="#404040" points="55,-691.7 51,-685.7 55,-679.7 59,-685.7 55,-691.7"/>
<text text-anchor="middle" x="79.5" y="-778" font-family="Helvetica,sans-Serif" font-size="10.00"> &#45;chars</text>
<text text-anchor="middle" x="79.5" y="-767" font-family="Helvetica,sans-Serif" font-size="10.00">&#45;doubles</text>
<text text-anchor="middle" x="79.5" y="-756" font-family="Helvetica,sans-Serif" font-size="10.00">&#45;floats</text>
<text text-anchor="middle" x="79.5" y="-745" font-family="Helvetica,sans-Serif" font-size="10.00">&#45;id</text>
<text text-anchor="middle" x="79.5" y="-734" font-family="Helvetica,sans-Serif" font-size="10.00">&#45;ints</text>
<text text-anchor="middle" x="79.5" y="-723" font-family="Helvetica,sans-Serif" font-size="10.00">&#45;longs</text>
<text text-anchor="middle" x="79.5" y="-712" font-family="Helvetica,sans-Serif" font-size="10.00">&#45;references</text>
<text text-anchor="middle" x="79.5" y="-701" font-family="Helvetica,sans-Serif" font-size="10.00">&#45;structs</text>
</g>
<!-- Node4 -->
<g id="node4" class="node">
<title>Node4</title>
<g id="a_node4"><a xlink:href="classLNode.html" target="_top" xlink:title=" ">
<polygon fill="white" stroke="black" points="7,-964.5 7,-1208.5 103,-1208.5 103,-964.5 7,-964.5"/>
<text text-anchor="middle" x="55" y="-1196.5" font-family="Helvetica,sans-Serif" font-size="10.00">LNode</text>
<polyline fill="none" stroke="black" points="7,-1189.5 103,-1189.5 "/>
<text text-anchor="start" x="15" y="-1177.5" font-family="Helvetica,sans-Serif" font-size="10.00">&#45; id</text>
<text text-anchor="start" x="15" y="-1166.5" font-family="Helvetica,sans-Serif" font-size="10.00">&#45; references</text>
<text text-anchor="start" x="15" y="-1155.5" font-family="Helvetica,sans-Serif" font-size="10.00">&#45; value</text>
<text text-anchor="start" x="15" y="-1144.5" font-family="Helvetica,sans-Serif" font-size="10.00">&#45; type_string</text>
<polyline fill="none" stroke="black" points="7,-1137.5 103,-1137.5 "/>
<text text-anchor="start" x="15" y="-1125.5" font-family="Helvetica,sans-Serif" font-size="10.00">+ LNode()</text>
<text text-anchor="start" x="15" y="-1114.5" font-family="Helvetica,sans-Serif" font-size="10.00">+ getId()</text>
<text text-anchor="start" x="15" y="-1103.5" font-family="Helvetica,sans-Serif" font-size="10.00">+ setId()</text>
<text text-anchor="start" x="15" y="-1092.5" font-family="Helvetica,sans-Serif" font-size="10.00">+ getReferences()</text>
<text text-anchor="start" x="15" y="-1081.5" font-family="Helvetica,sans-Serif" font-size="10.00">+ setReferences()</text>
<text text-anchor="start" x="15" y="-1070.5" font-family="Helvetica,sans-Serif" font-size="10.00">+ getValue()</text>
<text text-anchor="start" x="15" y="-1059.5" font-family="Helvetica,sans-Serif" font-size="10.00">+ setValue()</text>
<text text-anchor="start" x="15" y="-1048.5" font-family="Helvetica,sans-Serif" font-size="10.00">+ getNext()</text>
<text text-anchor="start" x="15" y="-1037.5" font-family="Helvetica,sans-Serif" font-size="10.00">+ setNext()</text>
<text text-anchor="start" x="15" y="-1026.5" font-family="Helvetica,sans-Serif" font-size="10.00">+ search()</text>
<text text-anchor="start" x="15" y="-1015.5" font-family="Helvetica,sans-Serif" font-size="10.00">+ getTypeString()</text>
<text text-anchor="start" x="15" y="-1004.5" font-family="Helvetica,sans-Serif" font-size="10.00">+ setTypeString()</text>
<text text-anchor="start" x="15" y="-993.5" font-family="Helvetica,sans-Serif" font-size="10.00">+ getJson()</text>
<text text-anchor="start" x="15" y="-982.5" font-family="Helvetica,sans-Serif" font-size="10.00">+ operator new()</text>
<text text-anchor="start" x="15" y="-971.5" font-family="Helvetica,sans-Serif" font-size="10.00">+ operator delete()</text>
</a>
</g>
</g>
<!-- Node4&#45;&gt;Node3 -->
<g id="edge4" class="edge">
<title>Node4&#45;&gt;Node3</title>
<path fill="none" stroke="#404040" d="M55,-964.32C55,-952.06 55,-939.94 55,-928.57"/>
<polygon fill="none" stroke="#404040" points="55,-928.54 51,-922.54 55,-916.54 59,-922.54 55,-928.54"/>
<text text-anchor="middle" x="68" y="-938" font-family="Helvetica,sans-Serif" font-size="10.00"> &#45;First</text>
</g>
<!-- Node4&#45;&gt;Node4 -->
<g id="edge5" class="edge">
<title>Node4&#45;&gt;Node4</title>
<path fill="none" stroke="#404040" d="M103.05,-1113.07C113.46,-1110.47 121,-1101.61 121,-1086.5 121,-1077.29 118.2,-1070.4 113.66,-1065.84"/>
<polygon fill="none" stroke="#404040" points="113.54,-1065.78 106.35,-1066.35 103.05,-1059.93 110.24,-1059.36 113.54,-1065.78"/>
<text text-anchor="middle" x="133.5" y="-1084" font-family="Helvetica,sans-Serif" font-size="10.00"> &#45;next</text>
</g>
</g>
</svg>
        <g id="navigator" transform="translate(0 0)" fill="#404254">
                <rect fill="#f2f5e9" fill-opacity="0.5" stroke="#606060" stroke-width=".5" x="0" y="0" width="60" height="60"/>
                <use id="zoomplus" xlink:href="#zoomPlus" x="17" y="9" onmousedown="handleZoom(evt,'in')"/>
                <use id="zoomminus" xlink:href="#zoomMin" x="42" y="9" onmousedown="handleZoom(evt,'out')"/>
                <use id="reset" xlink:href="#resetDef" x="30" y="36" onmousedown="handleReset()"/>
                <g id="arrowUp" xlink:href="#dirArrow" transform="translate(30 24)" onmousedown="handlePan(0,-1)">
                  <use xlink:href="#rim" fill="#404040">
                        <set attributeName="fill" to="#808080" begin="arrowUp.mouseover" end="arrowUp.mouseout"/>
                  </use>
                  <path fill="none" stroke="white" stroke-width="1.5" d="M0,-3.0v7 M-2.5,-0.5L0,-3.0L2.5,-0.5"/>
                </g>
                <g id="arrowRight" xlink:href="#dirArrow" transform="rotate(90) translate(36 -43)" onmousedown="handlePan(1,0)">
                  <use xlink:href="#rim" fill="#404040">
                        <set attributeName="fill" to="#808080" begin="arrowRight.mouseover" end="arrowRight.mouseout"/>
                  </use>
                  <path fill="none" stroke="white" stroke-width="1.5" d="M0,-3.0v7 M-2.5,-0.5L0,-3.0L2.5,-0.5"/>
                </g>
                <g id="arrowDown" xlink:href="#dirArrow" transform="rotate(180) translate(-30 -48)" onmousedown="handlePan(0,1)">
                  <use xlink:href="#rim" fill="#404040">
                        <set attributeName="fill" to="#808080" begin="arrowDown.mouseover" end="arrowDown.mouseout"/>
                  </use>
                  <path fill="none" stroke="white" stroke-width="1.5" d="M0,-3.0v7 M-2.5,-0.5L0,-3.0L2.5,-0.5"/>
                </g>
                <g id="arrowLeft" xlink:href="#dirArrow" transform="rotate(270) translate(-36 17)" onmousedown="handlePan(-1,0)">
                  <use xlink:href="#rim" fill="#404040">
                        <set attributeName="fill" to="#808080" begin="arrowLeft.mouseover" end="arrowLeft.mouseout"/>
                  </use>
                  <path fill="none" stroke="white" stroke-width="1.5" d="M0,-3.0v7 M-2.5,-0.5L0,-3.0L2.5,-0.5"/>
                </g>
        </g>
        <svg viewBox="0 0 15 15" width="100%" height="30px" preserveAspectRatio="xMaxYMin meet">
         <g id="arrow_out" transform="scale(0.3 0.3)">
          <a xlink:href="classMemoryController__coll__graph_org.svg" target="_base">
           <rect id="button" ry="5" rx="5" y="6" x="6" height="38" width="38"
                fill="#f2f5e9" fill-opacity="0.5" stroke="#606060" stroke-width="1.0"/>
           <path id="arrow"
             d="M 11.500037,31.436501 C 11.940474,20.09759 22.043105,11.32322 32.158766,21.979434 L 37.068811,17.246167 C 37.068811,17.246167 37.088388,32 37.088388,32 L 22.160133,31.978069 C 22.160133,31.978069 26.997745,27.140456 26.997745,27.140456 C 18.528582,18.264221 13.291696,25.230495 11.500037,31.436501 z"
             style="fill:#404040;"/>
          </a>
         </g>
        </svg>
</svg>
