<?xml version="1.0" encoding="UTF-8" standalone="no"?>
<!DOCTYPE svg PUBLIC "-//W3C//DTD SVG 1.1//EN"
 "http://www.w3.org/Graphics/SVG/1.1/DTD/svg11.dtd">
<!-- Generated by graphviz version 2.47.1 (20210417.1919)
 -->
<!-- Title: Llist::setFirst Pages: 1 -->
<svg width="437pt" height="380pt"
 viewBox="0.00 0.00 437.00 379.50" xmlns="http://www.w3.org/2000/svg" xmlns:xlink="http://www.w3.org/1999/xlink">
<g id="graph0" class="graph" transform="scale(1 1) rotate(0) translate(4 375.5)">
<title>Llist::setFirst</title>
<polygon fill="white" stroke="transparent" points="-4,4 -4,-375.5 433,-375.5 433,4 -4,4"/>
<!-- Node1 -->
<g id="node1" class="node">
<title>Node1</title>
<g id="a_node1"><a xlink:title="place a LNode in the first position">
<polygon fill="#bfbfbf" stroke="black" points="355,-182.5 355,-201.5 429,-201.5 429,-182.5 355,-182.5"/>
<text text-anchor="middle" x="392" y="-189.5" font-family="Helvetica,sans-Serif" font-size="10.00">Llist::setFirst</text>
</a>
</g>
</g>
<!-- Node2 -->
<g id="node2" class="node">
<title>Node2</title>
<g id="a_node2"><a xlink:href="classMemoryController.html#abda69812911e33a1295109173c3915a0" target="_top" xlink:title=" ">
<polygon fill="white" stroke="black" points="183.5,-341 183.5,-371 308.5,-371 308.5,-341 183.5,-341"/>
<text text-anchor="start" x="191.5" y="-359" font-family="Helvetica,sans-Serif" font-size="10.00">MemoryController::define</text>
<text text-anchor="middle" x="246" y="-348" font-family="Helvetica,sans-Serif" font-size="10.00">_chars</text>
</a>
</g>
</g>
<!-- Node1&#45;&gt;Node2 -->
<g id="edge1" class="edge">
<title>Node1&#45;&gt;Node2</title>
<path fill="none" stroke="midnightblue" d="M386.1,-211.49C377.55,-241.6 357.07,-299.36 319,-332 315,-335.43 310.49,-338.37 305.73,-340.9"/>
<polygon fill="midnightblue" stroke="midnightblue" points="389.51,-212.31 388.72,-201.74 382.75,-210.49 389.51,-212.31"/>
</g>
<!-- Node3 -->
<g id="node3" class="node">
<title>Node3</title>
<g id="a_node3"><a xlink:href="classMemoryController.html#aeca27ac53358ef654308b6a90de54bc1" target="_top" xlink:title=" ">
<polygon fill="white" stroke="black" points="183.5,-292 183.5,-322 308.5,-322 308.5,-292 183.5,-292"/>
<text text-anchor="start" x="191.5" y="-310" font-family="Helvetica,sans-Serif" font-size="10.00">MemoryController::define</text>
<text text-anchor="middle" x="246" y="-299" font-family="Helvetica,sans-Serif" font-size="10.00">_doubles</text>
</a>
</g>
</g>
<!-- Node1&#45;&gt;Node3 -->
<g id="edge2" class="edge">
<title>Node1&#45;&gt;Node3</title>
<path fill="none" stroke="midnightblue" d="M380.85,-210.49C368.69,-231 346.48,-263.73 319,-283 314.15,-286.4 308.77,-289.35 303.21,-291.9"/>
<polygon fill="midnightblue" stroke="midnightblue" points="383.91,-212.18 385.85,-201.76 377.84,-208.7 383.91,-212.18"/>
</g>
<!-- Node4 -->
<g id="node4" class="node">
<title>Node4</title>
<g id="a_node4"><a xlink:href="classMemoryController.html#aeddc3c48a7e39b5bcfb4c2e23549b8d6" target="_top" xlink:title=" ">
<polygon fill="white" stroke="black" points="183.5,-243 183.5,-273 308.5,-273 308.5,-243 183.5,-243"/>
<text text-anchor="start" x="191.5" y="-261" font-family="Helvetica,sans-Serif" font-size="10.00">MemoryController::define</text>
<text text-anchor="middle" x="246" y="-250" font-family="Helvetica,sans-Serif" font-size="10.00">_floats</text>
</a>
</g>
</g>
<!-- Node1&#45;&gt;Node4 -->
<g id="edge3" class="edge">
<title>Node1&#45;&gt;Node4</title>
<path fill="none" stroke="midnightblue" d="M367.17,-207.04C353.42,-215.34 335.6,-225.47 319,-233 311.17,-236.55 302.67,-239.91 294.35,-242.95"/>
<polygon fill="midnightblue" stroke="midnightblue" points="369.28,-209.85 375.98,-201.64 365.62,-203.88 369.28,-209.85"/>
</g>
<!-- Node5 -->
<g id="node5" class="node">
<title>Node5</title>
<g id="a_node5"><a xlink:href="classMemoryController.html#ab48b3de5ed7f68eec61b77343f747a55" target="_top" xlink:title=" ">
<polygon fill="white" stroke="black" points="173,-204.5 173,-223.5 319,-223.5 319,-204.5 173,-204.5"/>
<text text-anchor="middle" x="246" y="-211.5" font-family="Helvetica,sans-Serif" font-size="10.00">MemoryController::define_ints</text>
</a>
</g>
</g>
<!-- Node1&#45;&gt;Node5 -->
<g id="edge4" class="edge">
<title>Node1&#45;&gt;Node5</title>
<path fill="none" stroke="midnightblue" d="M344.65,-199.08C333.42,-200.8 321.22,-202.66 309.38,-204.47"/>
<polygon fill="midnightblue" stroke="midnightblue" points="345.31,-202.52 354.66,-197.55 344.25,-195.6 345.31,-202.52"/>
</g>
<!-- Node6 -->
<g id="node6" class="node">
<title>Node6</title>
<g id="a_node6"><a xlink:href="classMemoryController.html#a0790a9877e34915f7062dcbe96ba3194" target="_top" xlink:title=" ">
<polygon fill="white" stroke="black" points="183.5,-155 183.5,-185 308.5,-185 308.5,-155 183.5,-155"/>
<text text-anchor="start" x="191.5" y="-173" font-family="Helvetica,sans-Serif" font-size="10.00">MemoryController::define</text>
<text text-anchor="middle" x="246" y="-162" font-family="Helvetica,sans-Serif" font-size="10.00">_longs</text>
</a>
</g>
</g>
<!-- Node1&#45;&gt;Node6 -->
<g id="edge5" class="edge">
<title>Node1&#45;&gt;Node6</title>
<path fill="none" stroke="midnightblue" d="M344.46,-184.89C333.01,-183.14 320.58,-181.24 308.54,-179.4"/>
<polygon fill="midnightblue" stroke="midnightblue" points="344.25,-188.4 354.66,-186.45 345.31,-181.48 344.25,-188.4"/>
</g>
<!-- Node7 -->
<g id="node7" class="node">
<title>Node7</title>
<g id="a_node7"><a xlink:href="classMemoryController.html#ab6f3b66e7918f9690c8b703333879c3f" target="_top" xlink:title=" ">
<polygon fill="white" stroke="black" points="183.5,-106 183.5,-136 308.5,-136 308.5,-106 183.5,-106"/>
<text text-anchor="start" x="191.5" y="-124" font-family="Helvetica,sans-Serif" font-size="10.00">MemoryController::define</text>
<text text-anchor="middle" x="246" y="-113" font-family="Helvetica,sans-Serif" font-size="10.00">_references</text>
</a>
</g>
</g>
<!-- Node1&#45;&gt;Node7 -->
<g id="edge6" class="edge">
<title>Node1&#45;&gt;Node7</title>
<path fill="none" stroke="midnightblue" d="M369.63,-176.46C355.69,-166.81 336.85,-154.65 319,-146 311.5,-142.36 303.33,-139 295.27,-136"/>
<polygon fill="midnightblue" stroke="midnightblue" points="367.82,-179.47 378.01,-182.37 371.86,-173.75 367.82,-179.47"/>
</g>
<!-- Node8 -->
<g id="node8" class="node">
<title>Node8</title>
<g id="a_node8"><a xlink:href="classMemoryController.html#ac480227d61b289e5a6f3914e3467803d" target="_top" xlink:title=" ">
<polygon fill="white" stroke="black" points="183.5,-57 183.5,-87 308.5,-87 308.5,-57 183.5,-57"/>
<text text-anchor="start" x="191.5" y="-75" font-family="Helvetica,sans-Serif" font-size="10.00">MemoryController::define</text>
<text text-anchor="middle" x="246" y="-64" font-family="Helvetica,sans-Serif" font-size="10.00">_structs</text>
</a>
</g>
</g>
<!-- Node1&#45;&gt;Node8 -->
<g id="edge7" class="edge">
<title>Node1&#45;&gt;Node8</title>
<path fill="none" stroke="midnightblue" d="M381.37,-173.41C369.44,-152.1 347.19,-117.47 319,-97 313.75,-93.19 307.88,-89.92 301.81,-87.13"/>
<polygon fill="midnightblue" stroke="midnightblue" points="378.41,-175.3 386.25,-182.43 384.57,-171.97 378.41,-175.3"/>
</g>
<!-- Node9 -->
<g id="node9" class="node">
<title>Node9</title>
<g id="a_node9"><a xlink:href="classScope.html#a148b2d8124ad1c29d8b62a3c2cdb1a51" target="_top" xlink:title=" ">
<polygon fill="white" stroke="black" points="207,-0.5 207,-19.5 285,-19.5 285,-0.5 207,-0.5"/>
<text text-anchor="middle" x="246" y="-7.5" font-family="Helvetica,sans-Serif" font-size="10.00">Scope::Delete</text>
</a>
</g>
</g>
<!-- Node1&#45;&gt;Node9 -->
<g id="edge8" class="edge">
<title>Node1&#45;&gt;Node9</title>
<path fill="none" stroke="midnightblue" d="M385.57,-172.7C376.3,-142.73 354.86,-84.66 319,-48 306.55,-35.27 288.91,-25.87 274.21,-19.6"/>
<polygon fill="midnightblue" stroke="midnightblue" points="382.24,-173.78 388.44,-182.38 388.95,-171.79 382.24,-173.78"/>
</g>
<!-- Node9&#45;&gt;Node9 -->
<g id="edge9" class="edge">
<title>Node9&#45;&gt;Node9</title>
<path fill="none" stroke="midnightblue" d="M273.25,-28.65C272.11,-33.94 263.03,-38 246,-38 220.05,-38 212.55,-28.57 223.5,-19.76"/>
<polygon fill="midnightblue" stroke="midnightblue" points="276.3,-26.93 268.5,-19.76 270.12,-30.23 276.3,-26.93"/>
</g>
<!-- Node10 -->
<g id="node10" class="node">
<title>Node10</title>
<g id="a_node10"><a xlink:href="classMemoryController.html#a09dd944c90a90b721b7f52addc6aa7ba" target="_top" xlink:title="Close the actual escope.">
<polygon fill="white" stroke="black" points="0,-0.5 0,-19.5 137,-19.5 137,-0.5 0,-0.5"/>
<text text-anchor="middle" x="68.5" y="-7.5" font-family="Helvetica,sans-Serif" font-size="10.00">MemoryController::Unscope</text>
</a>
</g>
</g>
<!-- Node9&#45;&gt;Node10 -->
<g id="edge10" class="edge">
<title>Node9&#45;&gt;Node10</title>
<path fill="none" stroke="midnightblue" d="M196.76,-10C178.38,-10 157.08,-10 137.23,-10"/>
<polygon fill="midnightblue" stroke="midnightblue" points="196.92,-13.5 206.92,-10 196.92,-6.5 196.92,-13.5"/>
</g>
</g>
</svg>
