<?xml version="1.0" encoding="UTF-8" standalone="no"?>
<!DOCTYPE svg PUBLIC "-//W3C//DTD SVG 1.1//EN"
 "http://www.w3.org/Graphics/SVG/1.1/DTD/svg11.dtd">
<!-- Generated by graphviz version 2.47.1 (20210417.1919)
 -->
<!-- Title: MemoryController::define_ints Pages: 1 -->
<svg width="271pt" height="84pt"
 viewBox="0.00 0.00 271.00 84.00" xmlns="http://www.w3.org/2000/svg" xmlns:xlink="http://www.w3.org/1999/xlink">
<g id="graph0" class="graph" transform="scale(1 1) rotate(0) translate(4 80)">
<title>MemoryController::define_ints</title>
<polygon fill="white" stroke="transparent" points="-4,4 -4,-80 267,-80 267,4 -4,4"/>
<!-- Node1 -->
<g id="node1" class="node">
<title>Node1</title>
<g id="a_node1"><a xlink:title=" ">
<polygon fill="#bfbfbf" stroke="black" points="0,-19.5 0,-38.5 146,-38.5 146,-19.5 0,-19.5"/>
<text text-anchor="middle" x="73" y="-26.5" font-family="Helvetica,sans-Serif" font-size="10.00">MemoryController::define_ints</text>
</a>
</g>
</g>
<!-- Node2 -->
<g id="node2" class="node">
<title>Node2</title>
<g id="a_node2"><a xlink:href="classScope.html#aff36e72e3ebf8936f2081713f8db9992" target="_top" xlink:title="brief int he actual scope and previous scopes for a variable">
<polygon fill="white" stroke="black" points="182,-38.5 182,-57.5 263,-57.5 263,-38.5 182,-38.5"/>
<text text-anchor="middle" x="222.5" y="-45.5" font-family="Helvetica,sans-Serif" font-size="10.00">Scope::Search</text>
</a>
</g>
</g>
<!-- Node1&#45;&gt;Node2 -->
<g id="edge1" class="edge">
<title>Node1&#45;&gt;Node2</title>
<path fill="none" stroke="midnightblue" d="M146.02,-38.28C154.66,-39.39 163.33,-40.51 171.56,-41.57"/>
<polygon fill="midnightblue" stroke="midnightblue" points="171.34,-45.07 181.71,-42.87 172.23,-38.12 171.34,-45.07"/>
</g>
<!-- Node3 -->
<g id="node3" class="node">
<title>Node3</title>
<g id="a_node3"><a xlink:href="classLlist.html#aa3c43d2b455ba74835342a64d4909ed8" target="_top" xlink:title="place a LNode in the first position">
<polygon fill="white" stroke="black" points="185.5,-0.5 185.5,-19.5 259.5,-19.5 259.5,-0.5 185.5,-0.5"/>
<text text-anchor="middle" x="222.5" y="-7.5" font-family="Helvetica,sans-Serif" font-size="10.00">Llist::setFirst</text>
</a>
</g>
</g>
<!-- Node1&#45;&gt;Node3 -->
<g id="edge3" class="edge">
<title>Node1&#45;&gt;Node3</title>
<path fill="none" stroke="midnightblue" d="M146.02,-19.72C155.9,-18.45 165.83,-17.17 175.08,-15.98"/>
<polygon fill="midnightblue" stroke="midnightblue" points="175.74,-19.42 185.21,-14.67 174.85,-12.48 175.74,-19.42"/>
</g>
<!-- Node2&#45;&gt;Node2 -->
<g id="edge2" class="edge">
<title>Node2&#45;&gt;Node2</title>
<path fill="none" stroke="midnightblue" d="M199.69,-57.76C188.59,-66.57 196.2,-76 222.5,-76 239.76,-76 248.97,-71.94 250.13,-66.65"/>
<polygon fill="midnightblue" stroke="midnightblue" points="253.15,-64.89 245.31,-57.76 246.99,-68.22 253.15,-64.89"/>
</g>
</g>
</svg>
