<?xml version="1.0" encoding="UTF-8" standalone="no"?>
<!DOCTYPE svg PUBLIC "-//W3C//DTD SVG 1.1//EN"
 "http://www.w3.org/Graphics/SVG/1.1/DTD/svg11.dtd">
<!-- Generated by graphviz version 2.47.1 (20210417.1919)
 -->
<!-- Title: LNode::search Pages: 1 -->
<svg width="228pt" height="104pt"
 viewBox="0.00 0.00 228.00 104.00" xmlns="http://www.w3.org/2000/svg" xmlns:xlink="http://www.w3.org/1999/xlink">
<g id="graph0" class="graph" transform="scale(1 1) rotate(0) translate(4 100)">
<title>LNode::search</title>
<polygon fill="white" stroke="transparent" points="-4,4 -4,-100 224,-100 224,4 -4,4"/>
<!-- Node1 -->
<g id="node1" class="node">
<title>Node1</title>
<g id="a_node1"><a xlink:title="Recursive function that search for a tag.">
<polygon fill="#bfbfbf" stroke="black" points="140,-38.5 140,-57.5 220,-57.5 220,-38.5 140,-38.5"/>
<text text-anchor="middle" x="180" y="-45.5" font-family="Helvetica,sans-Serif" font-size="10.00">LNode::search</text>
</a>
</g>
</g>
<!-- Node1&#45;&gt;Node1 -->
<g id="edge3" class="edge">
<title>Node1&#45;&gt;Node1</title>
<path fill="none" stroke="midnightblue" d="M203.81,-67.03C202.51,-72.13 194.57,-76 180,-76 157.25,-76 150.67,-66.57 160.27,-57.76"/>
<polygon fill="midnightblue" stroke="midnightblue" points="206.96,-65.5 199.73,-57.76 200.55,-68.32 206.96,-65.5"/>
</g>
<!-- Node2 -->
<g id="node2" class="node">
<title>Node2</title>
<g id="a_node2"><a xlink:href="classParser.html#ad548d6c7d52e8147b3c2067b2696c681" target="_top" xlink:title="function to assign a value to a variable by it tag">
<polygon fill="white" stroke="black" points="11.5,-76.5 11.5,-95.5 92.5,-95.5 92.5,-76.5 11.5,-76.5"/>
<text text-anchor="middle" x="52" y="-83.5" font-family="Helvetica,sans-Serif" font-size="10.00">Parser::Assign</text>
</a>
</g>
</g>
<!-- Node1&#45;&gt;Node2 -->
<g id="edge1" class="edge">
<title>Node1&#45;&gt;Node2</title>
<path fill="none" stroke="midnightblue" d="M137.44,-60.54C120.29,-65.7 100.75,-71.6 84.78,-76.41"/>
<polygon fill="midnightblue" stroke="midnightblue" points="138.64,-63.83 147.2,-57.59 136.62,-57.13 138.64,-63.83"/>
</g>
<!-- Node3 -->
<g id="node3" class="node">
<title>Node3</title>
<g id="a_node3"><a xlink:href="classParser.html#aa515a5cb14d30596b5b280b977fa79d4" target="_top" xlink:title="get the LNode of a objet property or a variable">
<polygon fill="white" stroke="black" points="0,-38.5 0,-57.5 104,-57.5 104,-38.5 0,-38.5"/>
<text text-anchor="middle" x="52" y="-45.5" font-family="Helvetica,sans-Serif" font-size="10.00">Parser::Aux_Assign</text>
</a>
</g>
</g>
<!-- Node1&#45;&gt;Node3 -->
<g id="edge2" class="edge">
<title>Node1&#45;&gt;Node3</title>
<path fill="none" stroke="midnightblue" d="M129.79,-48C121.4,-48 112.66,-48 104.21,-48"/>
<polygon fill="midnightblue" stroke="midnightblue" points="129.82,-51.5 139.82,-48 129.82,-44.5 129.82,-51.5"/>
</g>
<!-- Node4 -->
<g id="node4" class="node">
<title>Node4</title>
<g id="a_node4"><a xlink:href="classLlist.html#a748343b1dd0ca1c02eaf900af63577db" target="_top" xlink:title="Recursive function that search for a tag and return the type of the variable with this tag.">
<polygon fill="white" stroke="black" points="17,-0.5 17,-19.5 87,-19.5 87,-0.5 17,-0.5"/>
<text text-anchor="middle" x="52" y="-7.5" font-family="Helvetica,sans-Serif" font-size="10.00">Llist::search</text>
</a>
</g>
</g>
<!-- Node1&#45;&gt;Node4 -->
<g id="edge4" class="edge">
<title>Node1&#45;&gt;Node4</title>
<path fill="none" stroke="midnightblue" d="M137.44,-35.46C120.29,-30.3 100.75,-24.4 84.78,-19.59"/>
<polygon fill="midnightblue" stroke="midnightblue" points="136.62,-38.87 147.2,-38.41 138.64,-32.17 136.62,-38.87"/>
</g>
</g>
</svg>
