<?xml version="1.0" encoding="UTF-8" standalone="no"?>
<!DOCTYPE svg PUBLIC "-//W3C//DTD SVG 1.1//EN"
 "http://www.w3.org/Graphics/SVG/1.1/DTD/svg11.dtd">
<!-- Generated by graphviz version 2.47.1 (20210417.1919)
 -->
<!-- Title: MainWindow Pages: 1 -->
<svg width="139pt" height="215pt"
 viewBox="0.00 0.00 139.00 215.00" xmlns="http://www.w3.org/2000/svg" xmlns:xlink="http://www.w3.org/1999/xlink">
<g id="graph0" class="graph" transform="scale(1 1) rotate(0) translate(4 211)">
<title>MainWindow</title>
<polygon fill="white" stroke="transparent" points="-4,4 -4,-211 135,-211 135,4 -4,4"/>
<!-- Node1 -->
<g id="node1" class="node">
<title>Node1</title>
<g id="a_node1"><a xlink:title=" ">
<polygon fill="#bfbfbf" stroke="black" points="0,-0.5 0,-112.5 131,-112.5 131,-0.5 0,-0.5"/>
<text text-anchor="middle" x="65.5" y="-100.5" font-family="Helvetica,sans-Serif" font-size="10.00">MainWindow</text>
<polyline fill="none" stroke="black" points="0,-93.5 131,-93.5 "/>
<text text-anchor="start" x="8" y="-81.5" font-family="Helvetica,sans-Serif" font-size="10.00">+ Socket</text>
<text text-anchor="start" x="8" y="-70.5" font-family="Helvetica,sans-Serif" font-size="10.00">+ Parser</text>
<text text-anchor="start" x="8" y="-59.5" font-family="Helvetica,sans-Serif" font-size="10.00">&#45; ui</text>
<polyline fill="none" stroke="black" points="0,-52.5 131,-52.5 "/>
<text text-anchor="start" x="8" y="-40.5" font-family="Helvetica,sans-Serif" font-size="10.00">+ MainWindow()</text>
<text text-anchor="start" x="8" y="-29.5" font-family="Helvetica,sans-Serif" font-size="10.00">+ ~MainWindow()</text>
<text text-anchor="start" x="8" y="-18.5" font-family="Helvetica,sans-Serif" font-size="10.00">&#45; on_runbtn_clicked()</text>
<text text-anchor="start" x="8" y="-7.5" font-family="Helvetica,sans-Serif" font-size="10.00">&#45; on_nextLinebtn_clicked()</text>
</a>
</g>
</g>
<!-- Node2 -->
<g id="node2" class="node">
<title>Node2</title>
<g id="a_node2"><a xlink:title=" ">
<polygon fill="white" stroke="#bfbfbf" points="25.5,-149.5 25.5,-206.5 105.5,-206.5 105.5,-149.5 25.5,-149.5"/>
<text text-anchor="middle" x="65.5" y="-194.5" font-family="Helvetica,sans-Serif" font-size="10.00">QMainWindow</text>
<polyline fill="none" stroke="#bfbfbf" points="25.5,-187.5 105.5,-187.5 "/>
<text text-anchor="middle" x="65.5" y="-175.5" font-family="Helvetica,sans-Serif" font-size="10.00"> </text>
<polyline fill="none" stroke="#bfbfbf" points="25.5,-168.5 105.5,-168.5 "/>
<text text-anchor="middle" x="65.5" y="-156.5" font-family="Helvetica,sans-Serif" font-size="10.00"> </text>
</a>
</g>
</g>
<!-- Node2&#45;&gt;Node1 -->
<g id="edge1" class="edge">
<title>Node2&#45;&gt;Node1</title>
<path fill="none" stroke="midnightblue" d="M65.5,-139.11C65.5,-130.75 65.5,-121.73 65.5,-112.83"/>
<polygon fill="none" stroke="midnightblue" points="62,-139.28 65.5,-149.28 69,-139.28 62,-139.28"/>
</g>
</g>
</svg>
