<?xml version="1.0" encoding="UTF-8" standalone="no"?>
<!DOCTYPE svg PUBLIC "-//W3C//DTD SVG 1.1//EN"
 "http://www.w3.org/Graphics/SVG/1.1/DTD/svg11.dtd">
<!-- Generated by graphviz version 2.47.1 (20210417.1919)
 -->
<!-- Title: Scope::getType Pages: 1 -->
<svg width="257pt" height="104pt"
 viewBox="0.00 0.00 257.00 104.00" xmlns="http://www.w3.org/2000/svg" xmlns:xlink="http://www.w3.org/1999/xlink">
<g id="graph0" class="graph" transform="scale(1 1) rotate(0) translate(4 100)">
<title>Scope::getType</title>
<polygon fill="white" stroke="transparent" points="-4,4 -4,-100 253,-100 253,4 -4,4"/>
<!-- Node1 -->
<g id="node1" class="node">
<title>Node1</title>
<g id="a_node1"><a xlink:title=" ">
<polygon fill="#bfbfbf" stroke="black" points="164,-38.5 164,-57.5 249,-57.5 249,-38.5 164,-38.5"/>
<text text-anchor="middle" x="206.5" y="-45.5" font-family="Helvetica,sans-Serif" font-size="10.00">Scope::getType</text>
</a>
</g>
</g>
<!-- Node2 -->
<g id="node2" class="node">
<title>Node2</title>
<g id="a_node2"><a xlink:href="classParser.html#ad548d6c7d52e8147b3c2067b2696c681" target="_top" xlink:title="function to assign a value to a variable by it tag">
<polygon fill="white" stroke="black" points="23.5,-76.5 23.5,-95.5 104.5,-95.5 104.5,-76.5 23.5,-76.5"/>
<text text-anchor="middle" x="64" y="-83.5" font-family="Helvetica,sans-Serif" font-size="10.00">Parser::Assign</text>
</a>
</g>
</g>
<!-- Node1&#45;&gt;Node2 -->
<g id="edge1" class="edge">
<title>Node1&#45;&gt;Node2</title>
<path fill="none" stroke="midnightblue" d="M160.22,-60.25C140.86,-65.48 118.58,-71.51 100.44,-76.41"/>
<polygon fill="midnightblue" stroke="midnightblue" points="161.31,-63.58 170.05,-57.59 159.48,-56.82 161.31,-63.58"/>
</g>
<!-- Node3 -->
<g id="node3" class="node">
<title>Node3</title>
<g id="a_node3"><a xlink:href="classParser.html#aa515a5cb14d30596b5b280b977fa79d4" target="_top" xlink:title="get the LNode of a objet property or a variable">
<polygon fill="white" stroke="black" points="12,-38.5 12,-57.5 116,-57.5 116,-38.5 12,-38.5"/>
<text text-anchor="middle" x="64" y="-45.5" font-family="Helvetica,sans-Serif" font-size="10.00">Parser::Aux_Assign</text>
</a>
</g>
</g>
<!-- Node1&#45;&gt;Node3 -->
<g id="edge2" class="edge">
<title>Node1&#45;&gt;Node3</title>
<path fill="none" stroke="midnightblue" d="M153.64,-48C141.37,-48 128.3,-48 116.06,-48"/>
<polygon fill="midnightblue" stroke="midnightblue" points="153.73,-51.5 163.73,-48 153.73,-44.5 153.73,-51.5"/>
</g>
<!-- Node4 -->
<g id="node4" class="node">
<title>Node4</title>
<g id="a_node4"><a xlink:href="classMemoryController.html#aa9db24d5c470a2fb527a37c13408fe63" target="_top" xlink:title="search for a Variable in the availables scopes">
<polygon fill="white" stroke="black" points="0,-0.5 0,-19.5 128,-19.5 128,-0.5 0,-0.5"/>
<text text-anchor="middle" x="64" y="-7.5" font-family="Helvetica,sans-Serif" font-size="10.00">MemoryController::search</text>
</a>
</g>
</g>
<!-- Node1&#45;&gt;Node4 -->
<g id="edge3" class="edge">
<title>Node1&#45;&gt;Node4</title>
<path fill="none" stroke="midnightblue" d="M160.22,-35.75C140.86,-30.52 118.58,-24.49 100.44,-19.59"/>
<polygon fill="midnightblue" stroke="midnightblue" points="159.48,-39.18 170.05,-38.41 161.31,-32.42 159.48,-39.18"/>
</g>
</g>
</svg>
