<?xml version="1.0" encoding="UTF-8" standalone="no"?>
<!DOCTYPE svg PUBLIC "-//W3C//DTD SVG 1.1//EN"
 "http://www.w3.org/Graphics/SVG/1.1/DTD/svg11.dtd">
<!-- Generated by graphviz version 2.47.1 (20210417.1919)
 -->
<!-- Title: Scope::getChars Pages: 1 -->
<svg width="261pt" height="78pt"
 viewBox="0.00 0.00 261.00 77.50" xmlns="http://www.w3.org/2000/svg" xmlns:xlink="http://www.w3.org/1999/xlink">
<g id="graph0" class="graph" transform="scale(1 1) rotate(0) translate(4 73.5)">
<title>Scope::getChars</title>
<polygon fill="white" stroke="transparent" points="-4,4 -4,-73.5 257,-73.5 257,4 -4,4"/>
<!-- Node1 -->
<g id="node1" class="node">
<title>Node1</title>
<g id="a_node1"><a xlink:title=" ">
<polygon fill="#bfbfbf" stroke="black" points="164,-22.5 164,-41.5 253,-41.5 253,-22.5 164,-22.5"/>
<text text-anchor="middle" x="208.5" y="-29.5" font-family="Helvetica,sans-Serif" font-size="10.00">Scope::getChars</text>
</a>
</g>
</g>
<!-- Node2 -->
<g id="node2" class="node">
<title>Node2</title>
<g id="a_node2"><a xlink:href="classMemoryController.html#abda69812911e33a1295109173c3915a0" target="_top" xlink:title=" ">
<polygon fill="white" stroke="black" points="1.5,-39 1.5,-69 126.5,-69 126.5,-39 1.5,-39"/>
<text text-anchor="start" x="9.5" y="-57" font-family="Helvetica,sans-Serif" font-size="10.00">MemoryController::define</text>
<text text-anchor="middle" x="64" y="-46" font-family="Helvetica,sans-Serif" font-size="10.00">_chars</text>
</a>
</g>
</g>
<!-- Node1&#45;&gt;Node2 -->
<g id="edge1" class="edge">
<title>Node1&#45;&gt;Node2</title>
<path fill="none" stroke="midnightblue" d="M154.07,-40.25C145.11,-41.63 135.76,-43.08 126.62,-44.49"/>
<polygon fill="midnightblue" stroke="midnightblue" points="154.62,-43.71 163.97,-38.72 153.55,-36.79 154.62,-43.71"/>
</g>
<!-- Node3 -->
<g id="node3" class="node">
<title>Node3</title>
<g id="a_node3"><a xlink:href="classMemoryController.html#aa9db24d5c470a2fb527a37c13408fe63" target="_top" xlink:title="search for a Variable in the availables scopes">
<polygon fill="white" stroke="black" points="0,-0.5 0,-19.5 128,-19.5 128,-0.5 0,-0.5"/>
<text text-anchor="middle" x="64" y="-7.5" font-family="Helvetica,sans-Serif" font-size="10.00">MemoryController::search</text>
</a>
</g>
</g>
<!-- Node1&#45;&gt;Node3 -->
<g id="edge2" class="edge">
<title>Node1&#45;&gt;Node3</title>
<path fill="none" stroke="midnightblue" d="M154.07,-23.75C145.11,-22.37 135.76,-20.92 126.62,-19.51"/>
<polygon fill="midnightblue" stroke="midnightblue" points="153.55,-27.21 163.97,-25.28 154.62,-20.29 153.55,-27.21"/>
</g>
</g>
</svg>
