<?xml version="1.0" encoding="UTF-8" standalone="no"?>
<!DOCTYPE svg PUBLIC "-//W3C//DTD SVG 1.1//EN"
 "http://www.w3.org/Graphics/SVG/1.1/DTD/svg11.dtd">
<!-- Generated by graphviz version 2.47.1 (20210417.1919)
 -->
<!-- Title: Scope::getDoubles Pages: 1 -->
<svg width="271pt" height="78pt"
 viewBox="0.00 0.00 271.00 77.50" xmlns="http://www.w3.org/2000/svg" xmlns:xlink="http://www.w3.org/1999/xlink">
<g id="graph0" class="graph" transform="scale(1 1) rotate(0) translate(4 73.5)">
<title>Scope::getDoubles</title>
<polygon fill="white" stroke="transparent" points="-4,4 -4,-73.5 267,-73.5 267,4 -4,4"/>
<!-- Node1 -->
<g id="node1" class="node">
<title>Node1</title>
<g id="a_node1"><a xlink:title=" ">
<polygon fill="#bfbfbf" stroke="black" points="164,-22.5 164,-41.5 263,-41.5 263,-22.5 164,-22.5"/>
<text text-anchor="middle" x="213.5" y="-29.5" font-family="Helvetica,sans-Serif" font-size="10.00">Scope::getDoubles</text>
</a>
</g>
</g>
<!-- Node2 -->
<g id="node2" class="node">
<title>Node2</title>
<g id="a_node2"><a xlink:href="classMemoryController.html#aeca27ac53358ef654308b6a90de54bc1" target="_top" xlink:title=" ">
<polygon fill="white" stroke="black" points="1.5,-39 1.5,-69 126.5,-69 126.5,-39 1.5,-39"/>
<text text-anchor="start" x="9.5" y="-57" font-family="Helvetica,sans-Serif" font-size="10.00">MemoryController::define</text>
<text text-anchor="middle" x="64" y="-46" font-family="Helvetica,sans-Serif" font-size="10.00">_doubles</text>
</a>
</g>
</g>
<!-- Node1&#45;&gt;Node2 -->
<g id="edge1" class="edge">
<title>Node1&#45;&gt;Node2</title>
<path fill="none" stroke="midnightblue" d="M153.83,-40.75C144.86,-42.09 135.57,-43.47 126.54,-44.82"/>
<polygon fill="midnightblue" stroke="midnightblue" points="154.42,-44.2 163.79,-39.26 153.39,-37.28 154.42,-44.2"/>
</g>
<!-- Node3 -->
<g id="node3" class="node">
<title>Node3</title>
<g id="a_node3"><a xlink:href="classMemoryController.html#aa9db24d5c470a2fb527a37c13408fe63" target="_top" xlink:title="search for a Variable in the availables scopes">
<polygon fill="white" stroke="black" points="0,-0.5 0,-19.5 128,-19.5 128,-0.5 0,-0.5"/>
<text text-anchor="middle" x="64" y="-7.5" font-family="Helvetica,sans-Serif" font-size="10.00">MemoryController::search</text>
</a>
</g>
</g>
<!-- Node1&#45;&gt;Node3 -->
<g id="edge2" class="edge">
<title>Node1&#45;&gt;Node3</title>
<path fill="none" stroke="midnightblue" d="M153.7,-23.23C145.29,-21.98 136.61,-20.68 128.12,-19.41"/>
<polygon fill="midnightblue" stroke="midnightblue" points="153.39,-26.72 163.79,-24.74 154.42,-19.8 153.39,-26.72"/>
</g>
</g>
</svg>
