<?xml version="1.0" encoding="UTF-8" standalone="no"?>
<!DOCTYPE svg PUBLIC "-//W3C//DTD SVG 1.1//EN"
 "http://www.w3.org/Graphics/SVG/1.1/DTD/svg11.dtd">
<!-- Generated by graphviz version 2.47.1 (20210417.1919)
 -->
<!-- Title: Llist::search Pages: 1 -->
<svg width="194pt" height="46pt"
 viewBox="0.00 0.00 194.00 46.00" xmlns="http://www.w3.org/2000/svg" xmlns:xlink="http://www.w3.org/1999/xlink">
<g id="graph0" class="graph" transform="scale(1 1) rotate(0) translate(4 42)">
<title>Llist::search</title>
<polygon fill="white" stroke="transparent" points="-4,4 -4,-42 190,-42 190,4 -4,4"/>
<!-- Node1 -->
<g id="node1" class="node">
<title>Node1</title>
<g id="a_node1"><a xlink:title="Recursive function that search for a tag and return the type of the variable with this tag.">
<polygon fill="#bfbfbf" stroke="black" points="0,-0.5 0,-19.5 70,-19.5 70,-0.5 0,-0.5"/>
<text text-anchor="middle" x="35" y="-7.5" font-family="Helvetica,sans-Serif" font-size="10.00">Llist::search</text>
</a>
</g>
</g>
<!-- Node2 -->
<g id="node2" class="node">
<title>Node2</title>
<g id="a_node2"><a xlink:href="classLNode.html#a3f81929e609e22bcd9a787e633fa3356" target="_top" xlink:title="Recursive function that search for a tag.">
<polygon fill="white" stroke="black" points="106,-0.5 106,-19.5 186,-19.5 186,-0.5 106,-0.5"/>
<text text-anchor="middle" x="146" y="-7.5" font-family="Helvetica,sans-Serif" font-size="10.00">LNode::search</text>
</a>
</g>
</g>
<!-- Node1&#45;&gt;Node2 -->
<g id="edge1" class="edge">
<title>Node1&#45;&gt;Node2</title>
<path fill="none" stroke="midnightblue" d="M70.19,-10C78.36,-10 87.23,-10 95.92,-10"/>
<polygon fill="midnightblue" stroke="midnightblue" points="95.99,-13.5 105.99,-10 95.99,-6.5 95.99,-13.5"/>
</g>
<!-- Node2&#45;&gt;Node2 -->
<g id="edge2" class="edge">
<title>Node2&#45;&gt;Node2</title>
<path fill="none" stroke="midnightblue" d="M129.05,-19.76C120.8,-28.57 126.45,-38 146,-38 158.22,-38 165.01,-34.31 166.37,-29.4"/>
<polygon fill="midnightblue" stroke="midnightblue" points="169.59,-28.01 162.95,-19.76 162.99,-30.35 169.59,-28.01"/>
</g>
</g>
</svg>
