<?xml version="1.0" encoding="UTF-8" standalone="no"?>
<!DOCTYPE svg PUBLIC "-//W3C//DTD SVG 1.1//EN"
 "http://www.w3.org/Graphics/SVG/1.1/DTD/svg11.dtd">
<!-- Generated by graphviz version 2.47.1 (20210417.1919)
 -->
<!-- Title: LNode::getValue Pages: 1 -->
<!--zoomable 216 -->
<svg id="main" version="1.1" xmlns="http://www.w3.org/2000/svg" xmlns:xlink="http://www.w3.org/1999/xlink" xml:space="preserve" onload="init(evt)">
<style type="text/css"><![CDATA[
.edge:hover path { stroke: red; }
.edge:hover polygon { stroke: red; fill: red; }
]]></style>
<script type="text/javascript"><![CDATA[
var edges = document.getElementsByTagName('g');
if (edges && edges.length) {
  for (var i=0;i<edges.length;i++) {
    if (edges[i].id.substr(0,4)=='edge') {
      edges[i].setAttribute('class','edge');
    }
  }
}
]]></script>
        <defs>
                <circle id="rim" cx="0" cy="0" r="7"/>
                <circle id="rim2" cx="0" cy="0" r="3.5"/>
                <g id="zoomPlus">
                        <use xlink:href="#rim" fill="#404040">
                                <set attributeName="fill" to="#808080" begin="zoomplus.mouseover" end="zoomplus.mouseout"/>
                        </use>
                        <path d="M-4,0h8M0,-4v8" fill="none" stroke="white" stroke-width="1.5" pointer-events="none"/>
                </g>
                <g id="zoomMin">
                        <use xlink:href="#rim" fill="#404040">
                                <set attributeName="fill" to="#808080" begin="zoomminus.mouseover" end="zoomminus.mouseout"/>
                        </use>
                        <path d="M-4,0h8" fill="none" stroke="white" stroke-width="1.5" pointer-events="none"/>
                </g>
                <g id="dirArrow">
                        <path fill="none" stroke="white" stroke-width="1.5" d="M0,-3.0v7 M-2.5,-0.5L0,-3.0L2.5,-0.5"/>
                </g>
               <g id="resetDef">
                       <use xlink:href="#rim2" fill="#404040">
                               <set attributeName="fill" to="#808080" begin="reset.mouseover" end="reset.mouseout"/>
                       </use>
               </g>
        </defs>

<script type="text/javascript">
var viewWidth = 547;
var viewHeight = 216;
var sectionId = 'dynsection-7';
</script>
<script xlink:href="svgpan.js"/>
<svg id="graph" class="graph">
<g id="viewport">
<title>LNode::getValue</title>
<polygon fill="white" stroke="transparent" points="-4,4 -4,-212 543,-212 543,4 -4,4"/>
<!-- Node1 -->
<g id="node1" class="node">
<title>Node1</title>
<g id="a_node1"><a xlink:title=" ">
<polygon fill="#bfbfbf" stroke="black" points="450,-94.5 450,-113.5 539,-113.5 539,-94.5 450,-94.5"/>
<text text-anchor="middle" x="494.5" y="-101.5" font-family="Helvetica,sans-Serif" font-size="10.00">LNode::getValue</text>
</a>
</g>
</g>
<!-- Node2 -->
<g id="node2" class="node">
<title>Node2</title>
<g id="a_node2"><a xlink:href="classParser.html#ad548d6c7d52e8147b3c2067b2696c681" target="_top" xlink:title="function to assign a value to a variable by it tag">
<polygon fill="white" stroke="black" points="314,-188.5 314,-207.5 395,-207.5 395,-188.5 314,-188.5"/>
<text text-anchor="middle" x="354.5" y="-195.5" font-family="Helvetica,sans-Serif" font-size="10.00">Parser::Assign</text>
</a>
</g>
</g>
<!-- Node1&#45;&gt;Node2 -->
<g id="edge1" class="edge">
<title>Node1&#45;&gt;Node2</title>
<path fill="none" stroke="midnightblue" d="M478.92,-121.71C464.15,-138.6 439.85,-163.67 414,-179 407.66,-182.76 400.49,-185.87 393.4,-188.41"/>
<polygon fill="midnightblue" stroke="midnightblue" points="481.9,-123.6 485.73,-113.72 476.58,-119.06 481.9,-123.6"/>
</g>
<!-- Node3 -->
<g id="node3" class="node">
<title>Node3</title>
<g id="a_node3"><a xlink:href="classParser.html#aa515a5cb14d30596b5b280b977fa79d4" target="_top" xlink:title="get the LNode of a objet property or a variable">
<polygon fill="white" stroke="black" points="302.5,-150.5 302.5,-169.5 406.5,-169.5 406.5,-150.5 302.5,-150.5"/>
<text text-anchor="middle" x="354.5" y="-157.5" font-family="Helvetica,sans-Serif" font-size="10.00">Parser::Aux_Assign</text>
</a>
</g>
</g>
<!-- Node1&#45;&gt;Node3 -->
<g id="edge2" class="edge">
<title>Node1&#45;&gt;Node3</title>
<path fill="none" stroke="midnightblue" d="M465.25,-118.17C450.22,-125.45 431.32,-134.19 414,-141 405.45,-144.36 396.05,-147.61 387.32,-150.44"/>
<polygon fill="midnightblue" stroke="midnightblue" points="467.07,-121.18 474.51,-113.64 463.99,-114.89 467.07,-121.18"/>
</g>
<!-- Node4 -->
<g id="node4" class="node">
<title>Node4</title>
<g id="a_node4"><a xlink:href="classScope.html#a148b2d8124ad1c29d8b62a3c2cdb1a51" target="_top" xlink:title=" ">
<polygon fill="white" stroke="black" points="315.5,-94.5 315.5,-113.5 393.5,-113.5 393.5,-94.5 315.5,-94.5"/>
<text text-anchor="middle" x="354.5" y="-101.5" font-family="Helvetica,sans-Serif" font-size="10.00">Scope::Delete</text>
</a>
</g>
</g>
<!-- Node1&#45;&gt;Node4 -->
<g id="edge3" class="edge">
<title>Node1&#45;&gt;Node4</title>
<path fill="none" stroke="midnightblue" d="M439.47,-104C424.19,-104 407.89,-104 393.76,-104"/>
<polygon fill="midnightblue" stroke="midnightblue" points="439.84,-107.5 449.84,-104 439.84,-100.5 439.84,-107.5"/>
</g>
<!-- Node6 -->
<g id="node6" class="node">
<title>Node6</title>
<g id="a_node6"><a xlink:href="classLNode.html#ae3ee65209772ae7cea01d820fb2c3fa3" target="_top" xlink:title=" ">
<polygon fill="white" stroke="black" points="312.5,-38.5 312.5,-57.5 396.5,-57.5 396.5,-38.5 312.5,-38.5"/>
<text text-anchor="middle" x="354.5" y="-45.5" font-family="Helvetica,sans-Serif" font-size="10.00">LNode::getJson</text>
</a>
</g>
</g>
<!-- Node1&#45;&gt;Node6 -->
<g id="edge6" class="edge">
<title>Node1&#45;&gt;Node6</title>
<path fill="none" stroke="midnightblue" d="M460.28,-90.52C435.15,-80.32 401.26,-66.57 378.91,-57.5"/>
<polygon fill="midnightblue" stroke="midnightblue" points="459.19,-93.86 469.78,-94.37 461.83,-87.37 459.19,-93.86"/>
</g>
<!-- Node9 -->
<g id="node9" class="node">
<title>Node9</title>
<g id="a_node9"><a xlink:href="classParser.html#aac62076a1f7b18fa223bf0f04d5e4d8c" target="_top" xlink:title=" ">
<polygon fill="white" stroke="black" points="295,-0.5 295,-19.5 414,-19.5 414,-0.5 295,-0.5"/>
<text text-anchor="middle" x="354.5" y="-7.5" font-family="Helvetica,sans-Serif" font-size="10.00">Parser::Instruction_Aux</text>
</a>
</g>
</g>
<!-- Node1&#45;&gt;Node9 -->
<g id="edge12" class="edge">
<title>Node1&#45;&gt;Node9</title>
<path fill="none" stroke="midnightblue" d="M478.92,-86.29C464.15,-69.4 439.85,-44.33 414,-29 407.66,-25.24 400.49,-22.13 393.4,-19.59"/>
<polygon fill="midnightblue" stroke="midnightblue" points="476.58,-88.94 485.73,-94.28 481.9,-84.4 476.58,-88.94"/>
</g>
<!-- Node4&#45;&gt;Node4 -->
<g id="edge4" class="edge">
<title>Node4&#45;&gt;Node4</title>
<path fill="none" stroke="midnightblue" d="M380.54,-123.03C379.12,-128.13 370.44,-132 354.5,-132 329.62,-132 322.42,-122.57 332.92,-113.76"/>
<polygon fill="midnightblue" stroke="midnightblue" points="383.57,-121.25 376.08,-113.76 377.26,-124.29 383.57,-121.25"/>
</g>
<!-- Node5 -->
<g id="node5" class="node">
<title>Node5</title>
<g id="a_node5"><a xlink:href="classMemoryController.html#a09dd944c90a90b721b7f52addc6aa7ba" target="_top" xlink:title="Close the actual escope.">
<polygon fill="white" stroke="black" points="122,-94.5 122,-113.5 259,-113.5 259,-94.5 122,-94.5"/>
<text text-anchor="middle" x="190.5" y="-101.5" font-family="Helvetica,sans-Serif" font-size="10.00">MemoryController::Unscope</text>
</a>
</g>
</g>
<!-- Node4&#45;&gt;Node5 -->
<g id="edge5" class="edge">
<title>Node4&#45;&gt;Node5</title>
<path fill="none" stroke="midnightblue" d="M304.94,-104C290.53,-104 274.48,-104 259.09,-104"/>
<polygon fill="midnightblue" stroke="midnightblue" points="305.11,-107.5 315.11,-104 305.11,-100.5 305.11,-107.5"/>
</g>
<!-- Node6&#45;&gt;Node6 -->
<g id="edge7" class="edge">
<title>Node6&#45;&gt;Node6</title>
<path fill="none" stroke="midnightblue" d="M380.54,-67.03C379.12,-72.13 370.44,-76 354.5,-76 329.62,-76 322.42,-66.57 332.92,-57.76"/>
<polygon fill="midnightblue" stroke="midnightblue" points="383.57,-65.25 376.08,-57.76 377.26,-68.29 383.57,-65.25"/>
</g>
<!-- Node7 -->
<g id="node7" class="node">
<title>Node7</title>
<g id="a_node7"><a xlink:href="classLlist.html#a19d60464af021d658fed2696e7940f19" target="_top" xlink:title=" ">
<polygon fill="white" stroke="black" points="157.5,-47.5 157.5,-66.5 223.5,-66.5 223.5,-47.5 157.5,-47.5"/>
<text text-anchor="middle" x="190.5" y="-54.5" font-family="Helvetica,sans-Serif" font-size="10.00">Llist::LJson</text>
</a>
</g>
</g>
<!-- Node6&#45;&gt;Node7 -->
<g id="edge8" class="edge">
<title>Node6&#45;&gt;Node7</title>
<path fill="none" stroke="midnightblue" d="M302.21,-50.85C276.41,-52.28 245.96,-53.97 223.52,-55.22"/>
<polygon fill="midnightblue" stroke="midnightblue" points="302.41,-54.34 312.2,-50.29 302.02,-47.35 302.41,-54.34"/>
</g>
<!-- Node8 -->
<g id="node8" class="node">
<title>Node8</title>
<g id="a_node8"><a xlink:href="classScope.html#ab7e68bd73690095c5358f643fe606959" target="_top" xlink:title="Create a string with the info of the Scope.">
<polygon fill="white" stroke="black" points="0,-28.5 0,-47.5 86,-47.5 86,-28.5 0,-28.5"/>
<text text-anchor="middle" x="43" y="-35.5" font-family="Helvetica,sans-Serif" font-size="10.00">Scope::GetJson</text>
</a>
</g>
</g>
<!-- Node7&#45;&gt;Node8 -->
<g id="edge9" class="edge">
<title>Node7&#45;&gt;Node8</title>
<path fill="none" stroke="midnightblue" d="M147.23,-51.48C128.02,-48.97 105.35,-46.01 86.15,-43.5"/>
<polygon fill="midnightblue" stroke="midnightblue" points="146.84,-54.96 157.21,-52.78 147.75,-48.02 146.84,-54.96"/>
</g>
<!-- Node8&#45;&gt;Node6 -->
<g id="edge10" class="edge">
<title>Node8&#45;&gt;Node6</title>
<path fill="none" stroke="midnightblue" d="M96.13,-36.47C139.7,-35.55 203.44,-35.07 259,-38 276.46,-38.92 295.67,-40.79 312.18,-42.67"/>
<polygon fill="midnightblue" stroke="midnightblue" points="95.97,-32.97 86.06,-36.69 96.13,-39.97 95.97,-32.97"/>
</g>
<!-- Node8&#45;&gt;Node8 -->
<g id="edge11" class="edge">
<title>Node8&#45;&gt;Node8</title>
<path fill="none" stroke="midnightblue" d="M70.25,-56.65C69.11,-61.94 60.03,-66 43,-66 17.05,-66 9.55,-56.57 20.5,-47.76"/>
<polygon fill="midnightblue" stroke="midnightblue" points="73.3,-54.93 65.5,-47.76 67.12,-58.23 73.3,-54.93"/>
</g>
</g>
</svg>
        <g id="navigator" transform="translate(0 0)" fill="#404254">
                <rect fill="#f2f5e9" fill-opacity="0.5" stroke="#606060" stroke-width=".5" x="0" y="0" width="60" height="60"/>
                <use id="zoomplus" xlink:href="#zoomPlus" x="17" y="9" onmousedown="handleZoom(evt,'in')"/>
                <use id="zoomminus" xlink:href="#zoomMin" x="42" y="9" onmousedown="handleZoom(evt,'out')"/>
                <use id="reset" xlink:href="#resetDef" x="30" y="36" onmousedown="handleReset()"/>
                <g id="arrowUp" xlink:href="#dirArrow" transform="translate(30 24)" onmousedown="handlePan(0,-1)">
                  <use xlink:href="#rim" fill="#404040">
                        <set attributeName="fill" to="#808080" begin="arrowUp.mouseover" end="arrowUp.mouseout"/>
                  </use>
                  <path fill="none" stroke="white" stroke-width="1.5" d="M0,-3.0v7 M-2.5,-0.5L0,-3.0L2.5,-0.5"/>
                </g>
                <g id="arrowRight" xlink:href="#dirArrow" transform="rotate(90) translate(36 -43)" onmousedown="handlePan(1,0)">
                  <use xlink:href="#rim" fill="#404040">
                        <set attributeName="fill" to="#808080" begin="arrowRight.mouseover" end="arrowRight.mouseout"/>
                  </use>
                  <path fill="none" stroke="white" stroke-width="1.5" d="M0,-3.0v7 M-2.5,-0.5L0,-3.0L2.5,-0.5"/>
                </g>
                <g id="arrowDown" xlink:href="#dirArrow" transform="rotate(180) translate(-30 -48)" onmousedown="handlePan(0,1)">
                  <use xlink:href="#rim" fill="#404040">
                        <set attributeName="fill" to="#808080" begin="arrowDown.mouseover" end="arrowDown.mouseout"/>
                  </use>
                  <path fill="none" stroke="white" stroke-width="1.5" d="M0,-3.0v7 M-2.5,-0.5L0,-3.0L2.5,-0.5"/>
                </g>
                <g id="arrowLeft" xlink:href="#dirArrow" transform="rotate(270) translate(-36 17)" onmousedown="handlePan(-1,0)">
                  <use xlink:href="#rim" fill="#404040">
                        <set attributeName="fill" to="#808080" begin="arrowLeft.mouseover" end="arrowLeft.mouseout"/>
                  </use>
                  <path fill="none" stroke="white" stroke-width="1.5" d="M0,-3.0v7 M-2.5,-0.5L0,-3.0L2.5,-0.5"/>
                </g>
        </g>
        <svg viewBox="0 0 15 15" width="100%" height="30px" preserveAspectRatio="xMaxYMin meet">
         <g id="arrow_out" transform="scale(0.3 0.3)">
          <a xlink:href="classLNode_a2b94043203b531a2ca1a38f22a24f9a4_icgraph_org.svg" target="_base">
           <rect id="button" ry="5" rx="5" y="6" x="6" height="38" width="38"
                fill="#f2f5e9" fill-opacity="0.5" stroke="#606060" stroke-width="1.0"/>
           <path id="arrow"
             d="M 11.500037,31.436501 C 11.940474,20.09759 22.043105,11.32322 32.158766,21.979434 L 37.068811,17.246167 C 37.068811,17.246167 37.088388,32 37.088388,32 L 22.160133,31.978069 C 22.160133,31.978069 26.997745,27.140456 26.997745,27.140456 C 18.528582,18.264221 13.291696,25.230495 11.500037,31.436501 z"
             style="fill:#404040;"/>
          </a>
         </g>
        </svg>
</svg>
