<?xml version="1.0" encoding="UTF-8" standalone="no"?>
<!DOCTYPE svg PUBLIC "-//W3C//DTD SVG 1.1//EN"
 "http://www.w3.org/Graphics/SVG/1.1/DTD/svg11.dtd">
<!-- Generated by graphviz version 2.47.1 (20210417.1919)
 -->
<!-- Title: LNode::setNext Pages: 1 -->
<svg width="612pt" height="388pt"
 viewBox="0.00 0.00 612.00 387.50" xmlns="http://www.w3.org/2000/svg" xmlns:xlink="http://www.w3.org/1999/xlink">
<g id="graph0" class="graph" transform="scale(1 1) rotate(0) translate(4 383.5)">
<title>LNode::setNext</title>
<polygon fill="white" stroke="transparent" points="-4,4 -4,-383.5 608,-383.5 608,4 -4,4"/>
<!-- Node1 -->
<g id="node1" class="node">
<title>Node1</title>
<g id="a_node1"><a xlink:title=" ">
<polygon fill="#bfbfbf" stroke="black" points="520,-133.5 520,-152.5 604,-152.5 604,-133.5 520,-133.5"/>
<text text-anchor="middle" x="562" y="-140.5" font-family="Helvetica,sans-Serif" font-size="10.00">LNode::setNext</text>
</a>
</g>
</g>
<!-- Node2 -->
<g id="node2" class="node">
<title>Node2</title>
<g id="a_node2"><a xlink:href="classGcollector.html#a45ba2e9e2467df8105f45fc055b1ed2d" target="_top" xlink:title=" ">
<polygon fill="white" stroke="black" points="366.5,-266.5 366.5,-285.5 472.5,-285.5 472.5,-266.5 366.5,-266.5"/>
<text text-anchor="middle" x="419.5" y="-273.5" font-family="Helvetica,sans-Serif" font-size="10.00">Gcollector::setChars</text>
</a>
</g>
</g>
<!-- Node1&#45;&gt;Node2 -->
<g id="edge1" class="edge">
<title>Node1&#45;&gt;Node2</title>
<path fill="none" stroke="midnightblue" d="M553.19,-161.86C541.74,-187.23 518,-232.02 484,-257 478.71,-260.88 472.63,-263.98 466.38,-266.45"/>
<polygon fill="midnightblue" stroke="midnightblue" points="556.45,-163.16 557.22,-152.59 550.03,-160.37 556.45,-163.16"/>
</g>
<!-- Node3 -->
<g id="node3" class="node">
<title>Node3</title>
<g id="a_node3"><a xlink:href="classGcollector.html#a574599a981a2ee62cb98f13d322ae2f6" target="_top" xlink:title=" ">
<polygon fill="white" stroke="black" points="361.5,-228.5 361.5,-247.5 477.5,-247.5 477.5,-228.5 361.5,-228.5"/>
<text text-anchor="middle" x="419.5" y="-235.5" font-family="Helvetica,sans-Serif" font-size="10.00">Gcollector::setDoubles</text>
</a>
</g>
</g>
<!-- Node1&#45;&gt;Node3 -->
<g id="edge2" class="edge">
<title>Node1&#45;&gt;Node3</title>
<path fill="none" stroke="midnightblue" d="M547.34,-160.83C533.25,-178.07 509.73,-203.76 484,-219 477.56,-222.81 470.3,-225.91 463.05,-228.42"/>
<polygon fill="midnightblue" stroke="midnightblue" points="550.34,-162.69 553.82,-152.69 544.86,-158.34 550.34,-162.69"/>
</g>
<!-- Node4 -->
<g id="node4" class="node">
<title>Node4</title>
<g id="a_node4"><a xlink:href="classLlist.html#aa3c43d2b455ba74835342a64d4909ed8" target="_top" xlink:title="place a LNode in the first position">
<polygon fill="white" stroke="black" points="382.5,-190.5 382.5,-209.5 456.5,-209.5 456.5,-190.5 382.5,-190.5"/>
<text text-anchor="middle" x="419.5" y="-197.5" font-family="Helvetica,sans-Serif" font-size="10.00">Llist::setFirst</text>
</a>
</g>
</g>
<!-- Node1&#45;&gt;Node4 -->
<g id="edge3" class="edge">
<title>Node1&#45;&gt;Node4</title>
<path fill="none" stroke="midnightblue" d="M534.66,-157.37C520.01,-165.01 501.3,-174.2 484,-181 475.11,-184.49 465.31,-187.72 456.13,-190.48"/>
<polygon fill="midnightblue" stroke="midnightblue" points="536.44,-160.39 543.64,-152.61 533.17,-154.2 536.44,-160.39"/>
</g>
<!-- Node14 -->
<g id="node14" class="node">
<title>Node14</title>
<g id="a_node14"><a xlink:href="classGcollector.html#a073db2dc3f944fcdee8fa543e521ed3e" target="_top" xlink:title=" ">
<polygon fill="white" stroke="black" points="366,-152.5 366,-171.5 473,-171.5 473,-152.5 366,-152.5"/>
<text text-anchor="middle" x="419.5" y="-159.5" font-family="Helvetica,sans-Serif" font-size="10.00">Gcollector::setFloats</text>
</a>
</g>
</g>
<!-- Node1&#45;&gt;Node14 -->
<g id="edge14" class="edge">
<title>Node1&#45;&gt;Node14</title>
<path fill="none" stroke="midnightblue" d="M509.74,-149.93C497.81,-151.55 485.08,-153.27 473.09,-154.89"/>
<polygon fill="midnightblue" stroke="midnightblue" points="510.54,-153.36 519.98,-148.55 509.61,-146.42 510.54,-153.36"/>
</g>
<!-- Node15 -->
<g id="node15" class="node">
<title>Node15</title>
<g id="a_node15"><a xlink:href="classGcollector.html#af7dad535c537ff1e558f3038b710108a" target="_top" xlink:title=" ">
<polygon fill="white" stroke="black" points="371.5,-114.5 371.5,-133.5 467.5,-133.5 467.5,-114.5 371.5,-114.5"/>
<text text-anchor="middle" x="419.5" y="-121.5" font-family="Helvetica,sans-Serif" font-size="10.00">Gcollector::setInts</text>
</a>
</g>
</g>
<!-- Node1&#45;&gt;Node15 -->
<g id="edge15" class="edge">
<title>Node1&#45;&gt;Node15</title>
<path fill="none" stroke="midnightblue" d="M509.68,-136.06C495.89,-134.2 481.05,-132.19 467.5,-130.36"/>
<polygon fill="midnightblue" stroke="midnightblue" points="509.61,-139.58 519.98,-137.45 510.54,-132.64 509.61,-139.58"/>
</g>
<!-- Node16 -->
<g id="node16" class="node">
<title>Node16</title>
<g id="a_node16"><a xlink:href="classGcollector.html#a71497a41379c3db9de91d14e4c1c68ab" target="_top" xlink:title=" ">
<polygon fill="white" stroke="black" points="366,-76.5 366,-95.5 473,-95.5 473,-76.5 366,-76.5"/>
<text text-anchor="middle" x="419.5" y="-83.5" font-family="Helvetica,sans-Serif" font-size="10.00">Gcollector::setLongs</text>
</a>
</g>
</g>
<!-- Node1&#45;&gt;Node16 -->
<g id="edge16" class="edge">
<title>Node1&#45;&gt;Node16</title>
<path fill="none" stroke="midnightblue" d="M534.66,-128.63C520.01,-120.99 501.3,-111.8 484,-105 475.11,-101.51 465.31,-98.28 456.13,-95.52"/>
<polygon fill="midnightblue" stroke="midnightblue" points="533.17,-131.8 543.64,-133.39 536.44,-125.61 533.17,-131.8"/>
</g>
<!-- Node17 -->
<g id="node17" class="node">
<title>Node17</title>
<g id="a_node17"><a xlink:href="classGcollector.html#ad7ee1a5ebd947620111732a5369688f1" target="_top" xlink:title=" ">
<polygon fill="white" stroke="black" points="355,-38.5 355,-57.5 484,-57.5 484,-38.5 355,-38.5"/>
<text text-anchor="middle" x="419.5" y="-45.5" font-family="Helvetica,sans-Serif" font-size="10.00">Gcollector::setReferences</text>
</a>
</g>
</g>
<!-- Node1&#45;&gt;Node17 -->
<g id="edge17" class="edge">
<title>Node1&#45;&gt;Node17</title>
<path fill="none" stroke="midnightblue" d="M547.34,-125.17C533.25,-107.93 509.73,-82.24 484,-67 477.56,-63.19 470.3,-60.09 463.05,-57.58"/>
<polygon fill="midnightblue" stroke="midnightblue" points="544.86,-127.66 553.82,-133.31 550.34,-123.31 544.86,-127.66"/>
</g>
<!-- Node18 -->
<g id="node18" class="node">
<title>Node18</title>
<g id="a_node18"><a xlink:href="classGcollector.html#a940b9db6517975bfa22ed16c920be91a" target="_top" xlink:title=" ">
<polygon fill="white" stroke="black" points="363.5,-0.5 363.5,-19.5 475.5,-19.5 475.5,-0.5 363.5,-0.5"/>
<text text-anchor="middle" x="419.5" y="-7.5" font-family="Helvetica,sans-Serif" font-size="10.00">Gcollector::setStructs</text>
</a>
</g>
</g>
<!-- Node1&#45;&gt;Node18 -->
<g id="edge18" class="edge">
<title>Node1&#45;&gt;Node18</title>
<path fill="none" stroke="midnightblue" d="M553.19,-124.14C541.74,-98.77 518,-53.98 484,-29 478.71,-25.12 472.63,-22.02 466.38,-19.55"/>
<polygon fill="midnightblue" stroke="midnightblue" points="550.03,-125.63 557.22,-133.41 556.45,-122.84 550.03,-125.63"/>
</g>
<!-- Node5 -->
<g id="node5" class="node">
<title>Node5</title>
<g id="a_node5"><a xlink:href="classMemoryController.html#abda69812911e33a1295109173c3915a0" target="_top" xlink:title=" ">
<polygon fill="white" stroke="black" points="183.5,-349 183.5,-379 308.5,-379 308.5,-349 183.5,-349"/>
<text text-anchor="start" x="191.5" y="-367" font-family="Helvetica,sans-Serif" font-size="10.00">MemoryController::define</text>
<text text-anchor="middle" x="246" y="-356" font-family="Helvetica,sans-Serif" font-size="10.00">_chars</text>
</a>
</g>
</g>
<!-- Node4&#45;&gt;Node5 -->
<g id="edge4" class="edge">
<title>Node4&#45;&gt;Node5</title>
<path fill="none" stroke="midnightblue" d="M372.56,-207.7C366.05,-210.42 359.92,-214.08 355,-219 315.36,-258.7 358.02,-299.69 319,-340 315.7,-343.41 311.91,-346.33 307.82,-348.84"/>
<polygon fill="midnightblue" stroke="midnightblue" points="373.94,-210.93 382.26,-204.36 371.66,-204.31 373.94,-210.93"/>
</g>
<!-- Node6 -->
<g id="node6" class="node">
<title>Node6</title>
<g id="a_node6"><a xlink:href="classMemoryController.html#aeca27ac53358ef654308b6a90de54bc1" target="_top" xlink:title=" ">
<polygon fill="white" stroke="black" points="183.5,-300 183.5,-330 308.5,-330 308.5,-300 183.5,-300"/>
<text text-anchor="start" x="191.5" y="-318" font-family="Helvetica,sans-Serif" font-size="10.00">MemoryController::define</text>
<text text-anchor="middle" x="246" y="-307" font-family="Helvetica,sans-Serif" font-size="10.00">_doubles</text>
</a>
</g>
</g>
<!-- Node4&#45;&gt;Node6 -->
<g id="edge5" class="edge">
<title>Node4&#45;&gt;Node6</title>
<path fill="none" stroke="midnightblue" d="M372.84,-208.66C366.4,-211.25 360.21,-214.62 355,-219 327.61,-242.02 346.03,-267.56 319,-291 315.02,-294.45 310.52,-297.41 305.77,-299.95"/>
<polygon fill="midnightblue" stroke="midnightblue" points="374.04,-211.95 382.37,-205.39 371.77,-205.33 374.04,-211.95"/>
</g>
<!-- Node7 -->
<g id="node7" class="node">
<title>Node7</title>
<g id="a_node7"><a xlink:href="classMemoryController.html#aeddc3c48a7e39b5bcfb4c2e23549b8d6" target="_top" xlink:title=" ">
<polygon fill="white" stroke="black" points="183.5,-251 183.5,-281 308.5,-281 308.5,-251 183.5,-251"/>
<text text-anchor="start" x="191.5" y="-269" font-family="Helvetica,sans-Serif" font-size="10.00">MemoryController::define</text>
<text text-anchor="middle" x="246" y="-258" font-family="Helvetica,sans-Serif" font-size="10.00">_floats</text>
</a>
</g>
</g>
<!-- Node4&#45;&gt;Node7 -->
<g id="edge6" class="edge">
<title>Node4&#45;&gt;Node7</title>
<path fill="none" stroke="midnightblue" d="M372.39,-212.26C366.45,-214.28 360.52,-216.54 355,-219 337.88,-226.64 335.95,-232.99 319,-241 311.46,-244.56 303.27,-247.88 295.21,-250.87"/>
<polygon fill="midnightblue" stroke="midnightblue" points="373.86,-215.46 382.31,-209.07 371.72,-208.8 373.86,-215.46"/>
</g>
<!-- Node8 -->
<g id="node8" class="node">
<title>Node8</title>
<g id="a_node8"><a xlink:href="classMemoryController.html#ab48b3de5ed7f68eec61b77343f747a55" target="_top" xlink:title=" ">
<polygon fill="white" stroke="black" points="173,-212.5 173,-231.5 319,-231.5 319,-212.5 173,-212.5"/>
<text text-anchor="middle" x="246" y="-219.5" font-family="Helvetica,sans-Serif" font-size="10.00">MemoryController::define_ints</text>
</a>
</g>
</g>
<!-- Node4&#45;&gt;Node8 -->
<g id="edge7" class="edge">
<title>Node4&#45;&gt;Node8</title>
<path fill="none" stroke="midnightblue" d="M371.86,-205.98C355.67,-208.06 337.11,-210.44 319.34,-212.72"/>
<polygon fill="midnightblue" stroke="midnightblue" points="372.66,-209.41 382.13,-204.67 371.77,-202.47 372.66,-209.41"/>
</g>
<!-- Node9 -->
<g id="node9" class="node">
<title>Node9</title>
<g id="a_node9"><a xlink:href="classMemoryController.html#a0790a9877e34915f7062dcbe96ba3194" target="_top" xlink:title=" ">
<polygon fill="white" stroke="black" points="183.5,-163 183.5,-193 308.5,-193 308.5,-163 183.5,-163"/>
<text text-anchor="start" x="191.5" y="-181" font-family="Helvetica,sans-Serif" font-size="10.00">MemoryController::define</text>
<text text-anchor="middle" x="246" y="-170" font-family="Helvetica,sans-Serif" font-size="10.00">_longs</text>
</a>
</g>
</g>
<!-- Node4&#45;&gt;Node9 -->
<g id="edge8" class="edge">
<title>Node4&#45;&gt;Node9</title>
<path fill="none" stroke="midnightblue" d="M371.98,-194.03C352.47,-191.53 329.52,-188.59 308.64,-185.91"/>
<polygon fill="midnightblue" stroke="midnightblue" points="371.77,-197.53 382.13,-195.33 372.66,-190.59 371.77,-197.53"/>
</g>
<!-- Node10 -->
<g id="node10" class="node">
<title>Node10</title>
<g id="a_node10"><a xlink:href="classMemoryController.html#ab6f3b66e7918f9690c8b703333879c3f" target="_top" xlink:title=" ">
<polygon fill="white" stroke="black" points="183.5,-114 183.5,-144 308.5,-144 308.5,-114 183.5,-114"/>
<text text-anchor="start" x="191.5" y="-132" font-family="Helvetica,sans-Serif" font-size="10.00">MemoryController::define</text>
<text text-anchor="middle" x="246" y="-121" font-family="Helvetica,sans-Serif" font-size="10.00">_references</text>
</a>
</g>
</g>
<!-- Node4&#45;&gt;Node10 -->
<g id="edge9" class="edge">
<title>Node4&#45;&gt;Node10</title>
<path fill="none" stroke="midnightblue" d="M372.81,-188.46C366.69,-186.3 360.6,-183.82 355,-181 337.14,-171.99 336.66,-163.39 319,-154 312.11,-150.33 304.57,-147.03 297.04,-144.12"/>
<polygon fill="midnightblue" stroke="midnightblue" points="371.79,-191.81 382.38,-191.59 373.96,-185.16 371.79,-191.81"/>
</g>
<!-- Node11 -->
<g id="node11" class="node">
<title>Node11</title>
<g id="a_node11"><a xlink:href="classMemoryController.html#ac480227d61b289e5a6f3914e3467803d" target="_top" xlink:title=" ">
<polygon fill="white" stroke="black" points="183.5,-65 183.5,-95 308.5,-95 308.5,-65 183.5,-65"/>
<text text-anchor="start" x="191.5" y="-83" font-family="Helvetica,sans-Serif" font-size="10.00">MemoryController::define</text>
<text text-anchor="middle" x="246" y="-72" font-family="Helvetica,sans-Serif" font-size="10.00">_structs</text>
</a>
</g>
</g>
<!-- Node4&#45;&gt;Node11 -->
<g id="edge10" class="edge">
<title>Node4&#45;&gt;Node11</title>
<path fill="none" stroke="midnightblue" d="M372.75,-191.44C366.33,-188.83 360.16,-185.43 355,-181 326.65,-156.65 346.82,-129.96 319,-105 314.67,-101.11 309.7,-97.82 304.43,-95.04"/>
<polygon fill="midnightblue" stroke="midnightblue" points="371.68,-194.77 382.28,-194.72 373.96,-188.15 371.68,-194.77"/>
</g>
<!-- Node12 -->
<g id="node12" class="node">
<title>Node12</title>
<g id="a_node12"><a xlink:href="classScope.html#a148b2d8124ad1c29d8b62a3c2cdb1a51" target="_top" xlink:title=" ">
<polygon fill="white" stroke="black" points="207,-8.5 207,-27.5 285,-27.5 285,-8.5 207,-8.5"/>
<text text-anchor="middle" x="246" y="-15.5" font-family="Helvetica,sans-Serif" font-size="10.00">Scope::Delete</text>
</a>
</g>
</g>
<!-- Node4&#45;&gt;Node12 -->
<g id="edge11" class="edge">
<title>Node4&#45;&gt;Node12</title>
<path fill="none" stroke="midnightblue" d="M372.51,-192.34C366.01,-189.62 359.89,-185.95 355,-181 314.07,-139.56 355.95,-100.02 319,-55 308.57,-42.29 292.63,-33.47 278.4,-27.64"/>
<polygon fill="midnightblue" stroke="midnightblue" points="371.61,-195.74 382.21,-195.69 373.89,-189.12 371.61,-195.74"/>
</g>
<!-- Node12&#45;&gt;Node12 -->
<g id="edge12" class="edge">
<title>Node12&#45;&gt;Node12</title>
<path fill="none" stroke="midnightblue" d="M278.19,-36.27C277.27,-41.74 266.54,-46 246,-46 215.43,-46 206.59,-36.57 219.49,-27.76"/>
<polygon fill="midnightblue" stroke="midnightblue" points="280.97,-34.14 272.51,-27.76 275.14,-38.02 280.97,-34.14"/>
</g>
<!-- Node13 -->
<g id="node13" class="node">
<title>Node13</title>
<g id="a_node13"><a xlink:href="classMemoryController.html#a09dd944c90a90b721b7f52addc6aa7ba" target="_top" xlink:title="Close the actual escope.">
<polygon fill="white" stroke="black" points="0,-8.5 0,-27.5 137,-27.5 137,-8.5 0,-8.5"/>
<text text-anchor="middle" x="68.5" y="-15.5" font-family="Helvetica,sans-Serif" font-size="10.00">MemoryController::Unscope</text>
</a>
</g>
</g>
<!-- Node12&#45;&gt;Node13 -->
<g id="edge13" class="edge">
<title>Node12&#45;&gt;Node13</title>
<path fill="none" stroke="midnightblue" d="M196.76,-18C178.38,-18 157.08,-18 137.23,-18"/>
<polygon fill="midnightblue" stroke="midnightblue" points="196.92,-21.5 206.92,-18 196.92,-14.5 196.92,-21.5"/>
</g>
</g>
</svg>
