<?xml version="1.0" encoding="UTF-8" standalone="no"?>
<!DOCTYPE svg PUBLIC "-//W3C//DTD SVG 1.1//EN"
 "http://www.w3.org/Graphics/SVG/1.1/DTD/svg11.dtd">
<!-- Generated by graphviz version 2.47.1 (20210417.1919)
 -->
<!-- Title: Parser::Assign Pages: 1 -->
<svg width="206pt" height="102pt"
 viewBox="0.00 0.00 206.00 102.00" xmlns="http://www.w3.org/2000/svg" xmlns:xlink="http://www.w3.org/1999/xlink">
<g id="graph0" class="graph" transform="scale(1 1) rotate(0) translate(4 98)">
<title>Parser::Assign</title>
<polygon fill="white" stroke="transparent" points="-4,4 -4,-98 202,-98 202,4 -4,4"/>
<!-- Node1 -->
<g id="node1" class="node">
<title>Node1</title>
<g id="a_node1"><a xlink:title="function to assign a value to a variable by it tag">
<polygon fill="#bfbfbf" stroke="black" points="0,-28.5 0,-47.5 81,-47.5 81,-28.5 0,-28.5"/>
<text text-anchor="middle" x="40.5" y="-35.5" font-family="Helvetica,sans-Serif" font-size="10.00">Parser::Assign</text>
</a>
</g>
</g>
<!-- Node2 -->
<g id="node2" class="node">
<title>Node2</title>
<g id="a_node2"><a xlink:href="classLNode.html#a3f81929e609e22bcd9a787e633fa3356" target="_top" xlink:title="Recursive function that search for a tag.">
<polygon fill="white" stroke="black" points="117.5,-56.5 117.5,-75.5 197.5,-75.5 197.5,-56.5 117.5,-56.5"/>
<text text-anchor="middle" x="157.5" y="-63.5" font-family="Helvetica,sans-Serif" font-size="10.00">LNode::search</text>
</a>
</g>
</g>
<!-- Node1&#45;&gt;Node2 -->
<g id="edge1" class="edge">
<title>Node1&#45;&gt;Node2</title>
<path fill="none" stroke="midnightblue" d="M80.75,-47.56C89.36,-49.65 98.57,-51.9 107.5,-54.07"/>
<polygon fill="midnightblue" stroke="midnightblue" points="106.88,-57.52 117.42,-56.49 108.53,-50.72 106.88,-57.52"/>
</g>
<!-- Node3 -->
<g id="node3" class="node">
<title>Node3</title>
<g id="a_node3"><a xlink:href="classScope.html#aff36e72e3ebf8936f2081713f8db9992" target="_top" xlink:title="brief int he actual scope and previous scopes for a variable">
<polygon fill="white" stroke="black" points="117,-0.5 117,-19.5 198,-19.5 198,-0.5 117,-0.5"/>
<text text-anchor="middle" x="157.5" y="-7.5" font-family="Helvetica,sans-Serif" font-size="10.00">Scope::Search</text>
</a>
</g>
</g>
<!-- Node1&#45;&gt;Node3 -->
<g id="edge3" class="edge">
<title>Node1&#45;&gt;Node3</title>
<path fill="none" stroke="midnightblue" d="M80.75,-28.44C89.36,-26.35 98.57,-24.1 107.5,-21.93"/>
<polygon fill="midnightblue" stroke="midnightblue" points="108.53,-25.28 117.42,-19.51 106.88,-18.48 108.53,-25.28"/>
</g>
<!-- Node2&#45;&gt;Node2 -->
<g id="edge2" class="edge">
<title>Node2&#45;&gt;Node2</title>
<path fill="none" stroke="midnightblue" d="M139.62,-75.76C130.92,-84.57 136.88,-94 157.5,-94 170.39,-94 177.55,-90.31 178.98,-85.4"/>
<polygon fill="midnightblue" stroke="midnightblue" points="182.16,-83.9 175.38,-75.76 175.6,-86.35 182.16,-83.9"/>
</g>
<!-- Node3&#45;&gt;Node3 -->
<g id="edge4" class="edge">
<title>Node3&#45;&gt;Node3</title>
<path fill="none" stroke="midnightblue" d="M139.62,-19.76C130.92,-28.57 136.88,-38 157.5,-38 170.39,-38 177.55,-34.31 178.98,-29.4"/>
<polygon fill="midnightblue" stroke="midnightblue" points="182.16,-27.9 175.38,-19.76 175.6,-30.35 182.16,-27.9"/>
</g>
</g>
</svg>
