<?xml version="1.0" encoding="UTF-8" standalone="no"?>
<!DOCTYPE svg PUBLIC "-//W3C//DTD SVG 1.1//EN"
 "http://www.w3.org/Graphics/SVG/1.1/DTD/svg11.dtd">
<!-- Generated by graphviz version 2.47.1 (20210417.1919)
 -->
<!-- Title: MemoryController::Unscope Pages: 1 -->
<svg width="589pt" height="306pt"
 viewBox="0.00 0.00 589.00 306.00" xmlns="http://www.w3.org/2000/svg" xmlns:xlink="http://www.w3.org/1999/xlink">
<g id="graph0" class="graph" transform="scale(1 1) rotate(0) translate(4 302)">
<title>MemoryController::Unscope</title>
<polygon fill="white" stroke="transparent" points="-4,4 -4,-302 585,-302 585,4 -4,4"/>
<!-- Node1 -->
<g id="node1" class="node">
<title>Node1</title>
<g id="a_node1"><a xlink:title="Close the actual escope.">
<polygon fill="#bfbfbf" stroke="black" points="0,-164.5 0,-183.5 137,-183.5 137,-164.5 0,-164.5"/>
<text text-anchor="middle" x="68.5" y="-171.5" font-family="Helvetica,sans-Serif" font-size="10.00">MemoryController::Unscope</text>
</a>
</g>
</g>
<!-- Node2 -->
<g id="node2" class="node">
<title>Node2</title>
<g id="a_node2"><a xlink:href="classScope.html#a148b2d8124ad1c29d8b62a3c2cdb1a51" target="_top" xlink:title=" ">
<polygon fill="white" stroke="black" points="190,-164.5 190,-183.5 268,-183.5 268,-164.5 190,-164.5"/>
<text text-anchor="middle" x="229" y="-171.5" font-family="Helvetica,sans-Serif" font-size="10.00">Scope::Delete</text>
</a>
</g>
</g>
<!-- Node1&#45;&gt;Node2 -->
<g id="edge1" class="edge">
<title>Node1&#45;&gt;Node2</title>
<path fill="none" stroke="midnightblue" d="M137.18,-174C151.39,-174 166.1,-174 179.44,-174"/>
<polygon fill="midnightblue" stroke="midnightblue" points="179.81,-177.5 189.81,-174 179.81,-170.5 179.81,-177.5"/>
</g>
<!-- Node6 -->
<g id="node6" class="node">
<title>Node6</title>
<g id="a_node6"><a xlink:href="classScope.html#a5922c2d56d10de17fda50502e05e49fc" target="_top" xlink:title=" ">
<polygon fill="white" stroke="black" points="327,-278.5 327,-297.5 455,-297.5 455,-278.5 327,-278.5"/>
<text text-anchor="middle" x="391" y="-285.5" font-family="Helvetica,sans-Serif" font-size="10.00">Scope::getPreviousScope</text>
</a>
</g>
</g>
<!-- Node1&#45;&gt;Node6 -->
<g id="edge12" class="edge">
<title>Node1&#45;&gt;Node6</title>
<path fill="none" stroke="midnightblue" d="M92.82,-183.64C136.93,-201.68 235.79,-241.24 321,-269 328.15,-271.33 335.77,-273.62 343.24,-275.75"/>
<polygon fill="midnightblue" stroke="midnightblue" points="342.36,-279.14 352.93,-278.47 344.24,-272.4 342.36,-279.14"/>
</g>
<!-- Node12 -->
<g id="node12" class="node">
<title>Node12</title>
<g id="a_node12"><a xlink:href="classScope.html#a5cc37443e670589c3c5a502fd75eb22a" target="_top" xlink:title=" ">
<polygon fill="white" stroke="black" points="173,-126.5 173,-145.5 285,-145.5 285,-126.5 173,-126.5"/>
<text text-anchor="middle" x="229" y="-133.5" font-family="Helvetica,sans-Serif" font-size="10.00">Scope::setNextScope</text>
</a>
</g>
</g>
<!-- Node1&#45;&gt;Node12 -->
<g id="edge13" class="edge">
<title>Node1&#45;&gt;Node12</title>
<path fill="none" stroke="midnightblue" d="M109.5,-164.41C130.41,-159.4 156.21,-153.21 178.39,-147.89"/>
<polygon fill="midnightblue" stroke="midnightblue" points="179.38,-151.26 188.29,-145.52 177.75,-144.45 179.38,-151.26"/>
</g>
<!-- Node2&#45;&gt;Node2 -->
<g id="edge2" class="edge">
<title>Node2&#45;&gt;Node2</title>
<path fill="none" stroke="midnightblue" d="M204.34,-183.76C192.34,-192.57 200.56,-202 229,-202 248.11,-202 258.09,-197.74 258.94,-192.27"/>
<polygon fill="midnightblue" stroke="midnightblue" points="261.9,-190.41 253.66,-183.76 255.95,-194.1 261.9,-190.41"/>
</g>
<!-- Node3 -->
<g id="node3" class="node">
<title>Node3</title>
<g id="a_node3"><a xlink:href="classLlist.html#a56b4490f30b47ba0d812976ba345d24b" target="_top" xlink:title=" ">
<polygon fill="white" stroke="black" points="354,-240.5 354,-259.5 428,-259.5 428,-240.5 354,-240.5"/>
<text text-anchor="middle" x="391" y="-247.5" font-family="Helvetica,sans-Serif" font-size="10.00">Llist::getFirst</text>
</a>
</g>
</g>
<!-- Node2&#45;&gt;Node3 -->
<g id="edge3" class="edge">
<title>Node2&#45;&gt;Node3</title>
<path fill="none" stroke="midnightblue" d="M242.6,-183.57C259.58,-196.06 291.13,-217.87 321,-231 328.28,-234.2 336.23,-236.99 344.06,-239.37"/>
<polygon fill="midnightblue" stroke="midnightblue" points="343.28,-242.78 353.86,-242.17 345.2,-236.05 343.28,-242.78"/>
</g>
<!-- Node4 -->
<g id="node4" class="node">
<title>Node4</title>
<g id="a_node4"><a xlink:href="classLNode.html#ad910b1e5417b9e879e448d7d85976d46" target="_top" xlink:title=" ">
<polygon fill="white" stroke="black" points="349,-202.5 349,-221.5 433,-221.5 433,-202.5 349,-202.5"/>
<text text-anchor="middle" x="391" y="-209.5" font-family="Helvetica,sans-Serif" font-size="10.00">LNode::getNext</text>
</a>
</g>
</g>
<!-- Node2&#45;&gt;Node4 -->
<g id="edge4" class="edge">
<title>Node2&#45;&gt;Node4</title>
<path fill="none" stroke="midnightblue" d="M268.32,-183.1C289.75,-188.19 316.7,-194.59 339.79,-200.07"/>
<polygon fill="midnightblue" stroke="midnightblue" points="339.22,-203.54 349.76,-202.44 340.84,-196.73 339.22,-203.54"/>
</g>
<!-- Node5 -->
<g id="node5" class="node">
<title>Node5</title>
<g id="a_node5"><a xlink:href="classScope.html#a2a3d51cd40fd9ea8d183aa311c08c9f5" target="_top" xlink:title=" ">
<polygon fill="white" stroke="black" points="335,-164.5 335,-183.5 447,-183.5 447,-164.5 335,-164.5"/>
<text text-anchor="middle" x="391" y="-171.5" font-family="Helvetica,sans-Serif" font-size="10.00">Scope::getNextScope</text>
</a>
</g>
</g>
<!-- Node2&#45;&gt;Node5 -->
<g id="edge5" class="edge">
<title>Node2&#45;&gt;Node5</title>
<path fill="none" stroke="midnightblue" d="M268.32,-174C285.17,-174 305.44,-174 324.56,-174"/>
<polygon fill="midnightblue" stroke="midnightblue" points="324.74,-177.5 334.74,-174 324.74,-170.5 324.74,-177.5"/>
</g>
<!-- Node2&#45;&gt;Node6 -->
<g id="edge6" class="edge">
<title>Node2&#45;&gt;Node6</title>
<path fill="none" stroke="midnightblue" d="M236.52,-183.73C249.97,-203.01 282.75,-246.19 321,-269 324.66,-271.18 328.58,-273.12 332.62,-274.85"/>
<polygon fill="midnightblue" stroke="midnightblue" points="331.63,-278.21 342.22,-278.48 334.11,-271.66 331.63,-278.21"/>
</g>
<!-- Node7 -->
<g id="node7" class="node">
<title>Node7</title>
<g id="a_node7"><a xlink:href="classLNode.html#a2b94043203b531a2ca1a38f22a24f9a4" target="_top" xlink:title=" ">
<polygon fill="white" stroke="black" points="346.5,-126.5 346.5,-145.5 435.5,-145.5 435.5,-126.5 346.5,-126.5"/>
<text text-anchor="middle" x="391" y="-133.5" font-family="Helvetica,sans-Serif" font-size="10.00">LNode::getValue</text>
</a>
</g>
</g>
<!-- Node2&#45;&gt;Node7 -->
<g id="edge7" class="edge">
<title>Node2&#45;&gt;Node7</title>
<path fill="none" stroke="midnightblue" d="M268.32,-164.9C289.75,-159.81 316.7,-153.41 339.79,-147.93"/>
<polygon fill="midnightblue" stroke="midnightblue" points="340.84,-151.27 349.76,-145.56 339.22,-144.46 340.84,-151.27"/>
</g>
<!-- Node8 -->
<g id="node8" class="node">
<title>Node8</title>
<g id="a_node8"><a xlink:href="classMemoryController.html#a83822d8c9e1fa00395a3d276071d28c3" target="_top" xlink:title=" ">
<polygon fill="white" stroke="black" points="321,-77 321,-107 461,-107 461,-77 321,-77"/>
<text text-anchor="start" x="329" y="-95" font-family="Helvetica,sans-Serif" font-size="10.00">MemoryController::setActual</text>
<text text-anchor="middle" x="391" y="-84" font-family="Helvetica,sans-Serif" font-size="10.00">Scope</text>
</a>
</g>
</g>
<!-- Node2&#45;&gt;Node8 -->
<g id="edge8" class="edge">
<title>Node2&#45;&gt;Node8</title>
<path fill="none" stroke="midnightblue" d="M265.79,-164.44C272.44,-161.9 279.14,-158.78 285,-155 304.55,-142.4 301.54,-129.75 321,-117 324.06,-115 327.3,-113.13 330.64,-111.39"/>
<polygon fill="midnightblue" stroke="midnightblue" points="332.14,-114.55 339.66,-107.09 329.13,-108.23 332.14,-114.55"/>
</g>
<!-- Node9 -->
<g id="node9" class="node">
<title>Node9</title>
<g id="a_node9"><a xlink:href="classLlist.html#aa3c43d2b455ba74835342a64d4909ed8" target="_top" xlink:title="place a LNode in the first position">
<polygon fill="white" stroke="black" points="354,-38.5 354,-57.5 428,-57.5 428,-38.5 354,-38.5"/>
<text text-anchor="middle" x="391" y="-45.5" font-family="Helvetica,sans-Serif" font-size="10.00">Llist::setFirst</text>
</a>
</g>
</g>
<!-- Node2&#45;&gt;Node9 -->
<g id="edge9" class="edge">
<title>Node2&#45;&gt;Node9</title>
<path fill="none" stroke="midnightblue" d="M268.18,-165.57C274.32,-162.94 280.22,-159.5 285,-155 315.46,-126.31 289.83,-95.92 321,-68 327.62,-62.08 335.89,-57.9 344.39,-54.96"/>
<polygon fill="midnightblue" stroke="midnightblue" points="345.39,-58.31 354,-52.13 343.42,-51.59 345.39,-58.31"/>
</g>
<!-- Node11 -->
<g id="node11" class="node">
<title>Node11</title>
<g id="a_node11"><a xlink:href="classScope.html#af26793615be8b26b66d2536595449926" target="_top" xlink:title=" ">
<polygon fill="white" stroke="black" points="327,-0.5 327,-19.5 455,-19.5 455,-0.5 327,-0.5"/>
<text text-anchor="middle" x="391" y="-7.5" font-family="Helvetica,sans-Serif" font-size="10.00">Scope::setPreviousScope</text>
</a>
</g>
</g>
<!-- Node2&#45;&gt;Node11 -->
<g id="edge11" class="edge">
<title>Node2&#45;&gt;Node11</title>
<path fill="none" stroke="midnightblue" d="M268.06,-166.26C274.36,-163.56 280.35,-159.91 285,-155 325.05,-112.71 279.62,-69.98 321,-29 322.46,-27.56 324.01,-26.22 325.65,-24.99"/>
<polygon fill="midnightblue" stroke="midnightblue" points="327.72,-27.82 334.41,-19.59 324.06,-21.86 327.72,-27.82"/>
</g>
<!-- Node10 -->
<g id="node10" class="node">
<title>Node10</title>
<g id="a_node10"><a xlink:href="classLNode.html#adcffea823f003647df103ddb98a2828b" target="_top" xlink:title=" ">
<polygon fill="white" stroke="black" points="497,-38.5 497,-57.5 581,-57.5 581,-38.5 497,-38.5"/>
<text text-anchor="middle" x="539" y="-45.5" font-family="Helvetica,sans-Serif" font-size="10.00">LNode::setNext</text>
</a>
</g>
</g>
<!-- Node9&#45;&gt;Node10 -->
<g id="edge10" class="edge">
<title>Node9&#45;&gt;Node10</title>
<path fill="none" stroke="midnightblue" d="M428.09,-48C445.77,-48 467.37,-48 486.73,-48"/>
<polygon fill="midnightblue" stroke="midnightblue" points="486.91,-51.5 496.91,-48 486.91,-44.5 486.91,-51.5"/>
</g>
</g>
</svg>
