<?xml version="1.0" encoding="UTF-8" standalone="no"?>
<!DOCTYPE svg PUBLIC "-//W3C//DTD SVG 1.1//EN"
 "http://www.w3.org/Graphics/SVG/1.1/DTD/svg11.dtd">
<!-- Generated by graphviz version 2.47.1 (20210417.1919)
 -->
<!-- Title: Scope::setNextScope Pages: 1 -->
<svg width="293pt" height="78pt"
 viewBox="0.00 0.00 293.00 77.50" xmlns="http://www.w3.org/2000/svg" xmlns:xlink="http://www.w3.org/1999/xlink">
<g id="graph0" class="graph" transform="scale(1 1) rotate(0) translate(4 73.5)">
<title>Scope::setNextScope</title>
<polygon fill="white" stroke="transparent" points="-4,4 -4,-73.5 289,-73.5 289,4 -4,4"/>
<!-- Node1 -->
<g id="node1" class="node">
<title>Node1</title>
<g id="a_node1"><a xlink:title=" ">
<polygon fill="#bfbfbf" stroke="black" points="173,-22.5 173,-41.5 285,-41.5 285,-22.5 173,-22.5"/>
<text text-anchor="middle" x="229" y="-29.5" font-family="Helvetica,sans-Serif" font-size="10.00">Scope::setNextScope</text>
</a>
</g>
</g>
<!-- Node2 -->
<g id="node2" class="node">
<title>Node2</title>
<g id="a_node2"><a xlink:href="classMemoryController.html#a657e39ec6023aff17baea20bdbe26b1f" target="_top" xlink:title=" ">
<polygon fill="white" stroke="black" points="10.5,-39 10.5,-69 126.5,-69 126.5,-39 10.5,-39"/>
<text text-anchor="start" x="18.5" y="-57" font-family="Helvetica,sans-Serif" font-size="10.00">MemoryController::new</text>
<text text-anchor="middle" x="68.5" y="-46" font-family="Helvetica,sans-Serif" font-size="10.00">_scope</text>
</a>
</g>
</g>
<!-- Node1&#45;&gt;Node2 -->
<g id="edge1" class="edge">
<title>Node1&#45;&gt;Node2</title>
<path fill="none" stroke="midnightblue" d="M162.63,-41.07C150.65,-42.74 138.23,-44.46 126.52,-46.09"/>
<polygon fill="midnightblue" stroke="midnightblue" points="163.14,-44.54 172.56,-39.69 162.18,-37.6 163.14,-44.54"/>
</g>
<!-- Node3 -->
<g id="node3" class="node">
<title>Node3</title>
<g id="a_node3"><a xlink:href="classMemoryController.html#a09dd944c90a90b721b7f52addc6aa7ba" target="_top" xlink:title="Close the actual escope.">
<polygon fill="white" stroke="black" points="0,-0.5 0,-19.5 137,-19.5 137,-0.5 0,-0.5"/>
<text text-anchor="middle" x="68.5" y="-7.5" font-family="Helvetica,sans-Serif" font-size="10.00">MemoryController::Unscope</text>
</a>
</g>
</g>
<!-- Node1&#45;&gt;Node3 -->
<g id="edge2" class="edge">
<title>Node1&#45;&gt;Node3</title>
<path fill="none" stroke="midnightblue" d="M162.5,-22.91C154.14,-21.75 145.57,-20.56 137.18,-19.39"/>
<polygon fill="midnightblue" stroke="midnightblue" points="162.18,-26.4 172.56,-24.31 163.14,-19.46 162.18,-26.4"/>
</g>
</g>
</svg>
