<?xml version="1.0" encoding="UTF-8" standalone="no"?>
<!DOCTYPE svg PUBLIC "-//W3C//DTD SVG 1.1//EN"
 "http://www.w3.org/Graphics/SVG/1.1/DTD/svg11.dtd">
<!-- Generated by graphviz version 2.47.1 (20210417.1919)
 -->
<!-- Title: Parser::Aux_Assign Pages: 1 -->
<svg width="229pt" height="102pt"
 viewBox="0.00 0.00 229.00 102.00" xmlns="http://www.w3.org/2000/svg" xmlns:xlink="http://www.w3.org/1999/xlink">
<g id="graph0" class="graph" transform="scale(1 1) rotate(0) translate(4 98)">
<title>Parser::Aux_Assign</title>
<polygon fill="white" stroke="transparent" points="-4,4 -4,-98 225,-98 225,4 -4,4"/>
<!-- Node1 -->
<g id="node1" class="node">
<title>Node1</title>
<g id="a_node1"><a xlink:title="get the LNode of a objet property or a variable">
<polygon fill="#bfbfbf" stroke="black" points="0,-28.5 0,-47.5 104,-47.5 104,-28.5 0,-28.5"/>
<text text-anchor="middle" x="52" y="-35.5" font-family="Helvetica,sans-Serif" font-size="10.00">Parser::Aux_Assign</text>
</a>
</g>
</g>
<!-- Node2 -->
<g id="node2" class="node">
<title>Node2</title>
<g id="a_node2"><a xlink:href="classLNode.html#a3f81929e609e22bcd9a787e633fa3356" target="_top" xlink:title="Recursive function that search for a tag.">
<polygon fill="white" stroke="black" points="140.5,-56.5 140.5,-75.5 220.5,-75.5 220.5,-56.5 140.5,-56.5"/>
<text text-anchor="middle" x="180.5" y="-63.5" font-family="Helvetica,sans-Serif" font-size="10.00">LNode::search</text>
</a>
</g>
</g>
<!-- Node1&#45;&gt;Node2 -->
<g id="edge1" class="edge">
<title>Node1&#45;&gt;Node2</title>
<path fill="none" stroke="midnightblue" d="M96.18,-47.56C107.14,-49.98 119,-52.61 130.23,-55.1"/>
<polygon fill="midnightblue" stroke="midnightblue" points="129.82,-58.59 140.34,-57.33 131.33,-51.75 129.82,-58.59"/>
</g>
<!-- Node3 -->
<g id="node3" class="node">
<title>Node3</title>
<g id="a_node3"><a xlink:href="classScope.html#aff36e72e3ebf8936f2081713f8db9992" target="_top" xlink:title="brief int he actual scope and previous scopes for a variable">
<polygon fill="white" stroke="black" points="140,-0.5 140,-19.5 221,-19.5 221,-0.5 140,-0.5"/>
<text text-anchor="middle" x="180.5" y="-7.5" font-family="Helvetica,sans-Serif" font-size="10.00">Scope::Search</text>
</a>
</g>
</g>
<!-- Node1&#45;&gt;Node3 -->
<g id="edge3" class="edge">
<title>Node1&#45;&gt;Node3</title>
<path fill="none" stroke="midnightblue" d="M96.18,-28.44C107.03,-26.04 118.76,-23.44 129.9,-20.98"/>
<polygon fill="midnightblue" stroke="midnightblue" points="130.91,-24.34 139.92,-18.76 129.4,-17.51 130.91,-24.34"/>
</g>
<!-- Node2&#45;&gt;Node2 -->
<g id="edge2" class="edge">
<title>Node2&#45;&gt;Node2</title>
<path fill="none" stroke="midnightblue" d="M160.77,-75.76C151.17,-84.57 157.75,-94 180.5,-94 195.07,-94 203.01,-90.13 204.31,-85.03"/>
<polygon fill="midnightblue" stroke="midnightblue" points="207.46,-83.5 200.23,-75.76 201.05,-86.32 207.46,-83.5"/>
</g>
<!-- Node3&#45;&gt;Node3 -->
<g id="edge4" class="edge">
<title>Node3&#45;&gt;Node3</title>
<path fill="none" stroke="midnightblue" d="M160.77,-19.76C151.17,-28.57 157.75,-38 180.5,-38 195.07,-38 203.01,-34.13 204.31,-29.03"/>
<polygon fill="midnightblue" stroke="midnightblue" points="207.46,-27.5 200.23,-19.76 201.05,-30.32 207.46,-27.5"/>
</g>
</g>
</svg>
