<?xml version="1.0" encoding="UTF-8" standalone="no"?>
<!DOCTYPE svg PUBLIC "-//W3C//DTD SVG 1.1//EN"
 "http://www.w3.org/Graphics/SVG/1.1/DTD/svg11.dtd">
<!-- Generated by graphviz version 2.47.1 (20210417.1919)
 -->
<!-- Title: LNode::getNext Pages: 1 -->
<svg width="439pt" height="411pt"
 viewBox="0.00 0.00 439.00 410.50" xmlns="http://www.w3.org/2000/svg" xmlns:xlink="http://www.w3.org/1999/xlink">
<g id="graph0" class="graph" transform="scale(1 1) rotate(0) translate(4 406.5)">
<title>LNode::getNext</title>
<polygon fill="white" stroke="transparent" points="-4,4 -4,-406.5 435,-406.5 435,4 -4,4"/>
<!-- Node1 -->
<g id="node1" class="node">
<title>Node1</title>
<g id="a_node1"><a xlink:title=" ">
<polygon fill="#bfbfbf" stroke="black" points="347,-187 347,-206 431,-206 431,-187 347,-187"/>
<text text-anchor="middle" x="389" y="-194" font-family="Helvetica,sans-Serif" font-size="10.00">LNode::getNext</text>
</a>
</g>
</g>
<!-- Node2 -->
<g id="node2" class="node">
<title>Node2</title>
<g id="a_node2"><a xlink:href="classScope.html#a148b2d8124ad1c29d8b62a3c2cdb1a51" target="_top" xlink:title=" ">
<polygon fill="white" stroke="black" points="207.5,-365 207.5,-384 285.5,-384 285.5,-365 207.5,-365"/>
<text text-anchor="middle" x="246.5" y="-372" font-family="Helvetica,sans-Serif" font-size="10.00">Scope::Delete</text>
</a>
</g>
</g>
<!-- Node1&#45;&gt;Node2 -->
<g id="edge1" class="edge">
<title>Node1&#45;&gt;Node2</title>
<path fill="none" stroke="midnightblue" d="M382.86,-215.79C373.55,-247.33 351.04,-310.15 311,-347.5 302.77,-355.18 292.02,-360.86 281.71,-364.98"/>
<polygon fill="midnightblue" stroke="midnightblue" points="386.27,-216.61 385.61,-206.03 379.53,-214.71 386.27,-216.61"/>
</g>
<!-- Node4 -->
<g id="node4" class="node">
<title>Node4</title>
<g id="a_node4"><a xlink:href="classGcollector.html#a8fe574a656c3f15b6d75db57124218fb" target="_top" xlink:title=" ">
<polygon fill="white" stroke="black" points="193.5,-319 193.5,-338 299.5,-338 299.5,-319 193.5,-319"/>
<text text-anchor="middle" x="246.5" y="-326" font-family="Helvetica,sans-Serif" font-size="10.00">Gcollector::getChars</text>
</a>
</g>
</g>
<!-- Node1&#45;&gt;Node4 -->
<g id="edge4" class="edge">
<title>Node1&#45;&gt;Node4</title>
<path fill="none" stroke="midnightblue" d="M377.94,-215.2C365.02,-237.75 340.67,-275.57 311,-299.5 300.72,-307.79 287.68,-314.28 276.1,-319"/>
<polygon fill="midnightblue" stroke="midnightblue" points="381.09,-216.73 382.91,-206.29 374.98,-213.32 381.09,-216.73"/>
</g>
<!-- Node6 -->
<g id="node6" class="node">
<title>Node6</title>
<g id="a_node6"><a xlink:href="classGcollector.html#a9a13ab92e829f4e51f54b849d447b993" target="_top" xlink:title=" ">
<polygon fill="white" stroke="black" points="188.5,-271 188.5,-290 304.5,-290 304.5,-271 188.5,-271"/>
<text text-anchor="middle" x="246.5" y="-278" font-family="Helvetica,sans-Serif" font-size="10.00">Gcollector::getDoubles</text>
</a>
</g>
</g>
<!-- Node1&#45;&gt;Node6 -->
<g id="edge6" class="edge">
<title>Node1&#45;&gt;Node6</title>
<path fill="none" stroke="midnightblue" d="M368.81,-212.7C353.74,-224.92 331.88,-241.56 311,-253.5 299.25,-260.22 285.5,-266.27 273.81,-270.93"/>
<polygon fill="midnightblue" stroke="midnightblue" points="371.35,-215.14 376.84,-206.08 366.9,-209.74 371.35,-215.14"/>
</g>
<!-- Node8 -->
<g id="node8" class="node">
<title>Node8</title>
<g id="a_node8"><a xlink:href="classGcollector.html#a4fb93ef033675e0dddb758343f5b5bef" target="_top" xlink:title=" ">
<polygon fill="white" stroke="black" points="193,-225 193,-244 300,-244 300,-225 193,-225"/>
<text text-anchor="middle" x="246.5" y="-232" font-family="Helvetica,sans-Serif" font-size="10.00">Gcollector::getFloats</text>
</a>
</g>
</g>
<!-- Node1&#45;&gt;Node8 -->
<g id="edge8" class="edge">
<title>Node1&#45;&gt;Node8</title>
<path fill="none" stroke="midnightblue" d="M342.72,-208.75C323.36,-213.98 301.08,-220.01 282.94,-224.91"/>
<polygon fill="midnightblue" stroke="midnightblue" points="343.81,-212.08 352.55,-206.09 341.98,-205.32 343.81,-212.08"/>
</g>
<!-- Node9 -->
<g id="node9" class="node">
<title>Node9</title>
<g id="a_node9"><a xlink:href="classGcollector.html#a809f8b27ffc48ee935c4290a1d08b25b" target="_top" xlink:title=" ">
<polygon fill="white" stroke="black" points="198.5,-187 198.5,-206 294.5,-206 294.5,-187 198.5,-187"/>
<text text-anchor="middle" x="246.5" y="-194" font-family="Helvetica,sans-Serif" font-size="10.00">Gcollector::getInts</text>
</a>
</g>
</g>
<!-- Node1&#45;&gt;Node9 -->
<g id="edge9" class="edge">
<title>Node1&#45;&gt;Node9</title>
<path fill="none" stroke="midnightblue" d="M336.68,-196.5C322.89,-196.5 308.05,-196.5 294.5,-196.5"/>
<polygon fill="midnightblue" stroke="midnightblue" points="336.98,-200 346.98,-196.5 336.98,-193 336.98,-200"/>
</g>
<!-- Node12 -->
<g id="node12" class="node">
<title>Node12</title>
<g id="a_node12"><a xlink:href="classGcollector.html#aa95c00471aa523fb517825d3a168fc9d" target="_top" xlink:title=" ">
<polygon fill="white" stroke="black" points="193,-146 193,-165 300,-165 300,-146 193,-146"/>
<text text-anchor="middle" x="246.5" y="-153" font-family="Helvetica,sans-Serif" font-size="10.00">Gcollector::getLongs</text>
</a>
</g>
</g>
<!-- Node1&#45;&gt;Node12 -->
<g id="edge12" class="edge">
<title>Node1&#45;&gt;Node12</title>
<path fill="none" stroke="midnightblue" d="M345.8,-184.18C324.84,-178.07 299.91,-170.79 280.4,-165.1"/>
<polygon fill="midnightblue" stroke="midnightblue" points="344.83,-187.55 355.41,-186.99 346.79,-180.83 344.83,-187.55"/>
</g>
<!-- Node14 -->
<g id="node14" class="node">
<title>Node14</title>
<g id="a_node14"><a xlink:href="classLlist.html#a7a7b59fee1d4635d6122049828560411" target="_top" xlink:title="Get the Node wher a Tag was founded.">
<polygon fill="white" stroke="black" points="208,-103 208,-122 285,-122 285,-103 208,-103"/>
<text text-anchor="middle" x="246.5" y="-110" font-family="Helvetica,sans-Serif" font-size="10.00">Llist::getNode</text>
</a>
</g>
</g>
<!-- Node1&#45;&gt;Node14 -->
<g id="edge14" class="edge">
<title>Node1&#45;&gt;Node14</title>
<path fill="none" stroke="midnightblue" d="M370.28,-180.16C355.34,-167.04 332.94,-148.82 311,-136.5 300.83,-130.79 289.03,-125.9 278.38,-122.06"/>
<polygon fill="midnightblue" stroke="midnightblue" points="367.98,-182.8 377.76,-186.86 372.64,-177.58 367.98,-182.8"/>
</g>
<!-- Node16 -->
<g id="node16" class="node">
<title>Node16</title>
<g id="a_node16"><a xlink:href="classGcollector.html#a3cc0a0ff3f1239816caf012eb71da4d4" target="_top" xlink:title=" ">
<polygon fill="white" stroke="black" points="182,-58 182,-77 311,-77 311,-58 182,-58"/>
<text text-anchor="middle" x="246.5" y="-65" font-family="Helvetica,sans-Serif" font-size="10.00">Gcollector::getReferences</text>
</a>
</g>
</g>
<!-- Node1&#45;&gt;Node16 -->
<g id="edge16" class="edge">
<title>Node1&#45;&gt;Node16</title>
<path fill="none" stroke="midnightblue" d="M378.29,-177.94C365.58,-155.25 341.3,-116.95 311,-93.5 301.96,-86.5 290.77,-81.09 280.31,-77.07"/>
<polygon fill="midnightblue" stroke="midnightblue" points="375.31,-179.78 383.16,-186.9 381.46,-176.44 375.31,-179.78"/>
</g>
<!-- Node18 -->
<g id="node18" class="node">
<title>Node18</title>
<g id="a_node18"><a xlink:href="classGcollector.html#a8875dbf09ec93a7978e6028d1c5940d5" target="_top" xlink:title=" ">
<polygon fill="white" stroke="black" points="190.5,-15 190.5,-34 302.5,-34 302.5,-15 190.5,-15"/>
<text text-anchor="middle" x="246.5" y="-22" font-family="Helvetica,sans-Serif" font-size="10.00">Gcollector::getStructs</text>
</a>
</g>
</g>
<!-- Node1&#45;&gt;Node18 -->
<g id="edge18" class="edge">
<title>Node1&#45;&gt;Node18</title>
<path fill="none" stroke="midnightblue" d="M382.79,-176.96C373.48,-145.64 351.1,-84.11 311,-48.5 303.95,-42.24 295.11,-37.55 286.28,-34.06"/>
<polygon fill="midnightblue" stroke="midnightblue" points="379.45,-178.02 385.54,-186.68 386.18,-176.11 379.45,-178.02"/>
</g>
<!-- Node2&#45;&gt;Node2 -->
<g id="edge2" class="edge">
<title>Node2&#45;&gt;Node2</title>
<path fill="none" stroke="midnightblue" d="M273.01,-393.15C271.9,-398.44 263.06,-402.5 246.5,-402.5 221.26,-402.5 213.97,-393.07 224.61,-384.26"/>
<polygon fill="midnightblue" stroke="midnightblue" points="276.1,-391.52 268.39,-384.26 269.89,-394.74 276.1,-391.52"/>
</g>
<!-- Node3 -->
<g id="node3" class="node">
<title>Node3</title>
<g id="a_node3"><a xlink:href="classMemoryController.html#a09dd944c90a90b721b7f52addc6aa7ba" target="_top" xlink:title="Close the actual escope.">
<polygon fill="white" stroke="black" points="4.5,-373 4.5,-392 141.5,-392 141.5,-373 4.5,-373"/>
<text text-anchor="middle" x="73" y="-380" font-family="Helvetica,sans-Serif" font-size="10.00">MemoryController::Unscope</text>
</a>
</g>
</g>
<!-- Node2&#45;&gt;Node3 -->
<g id="edge3" class="edge">
<title>Node2&#45;&gt;Node3</title>
<path fill="none" stroke="midnightblue" d="M197.08,-376.76C179.87,-377.56 160.16,-378.48 141.64,-379.34"/>
<polygon fill="midnightblue" stroke="midnightblue" points="197.61,-380.24 207.44,-376.28 197.29,-373.25 197.61,-380.24"/>
</g>
<!-- Node5 -->
<g id="node5" class="node">
<title>Node5</title>
<g id="a_node5"><a xlink:href="classMemoryController.html#abda69812911e33a1295109173c3915a0" target="_top" xlink:title=" ">
<polygon fill="white" stroke="black" points="10.5,-323.5 10.5,-353.5 135.5,-353.5 135.5,-323.5 10.5,-323.5"/>
<text text-anchor="start" x="18.5" y="-341.5" font-family="Helvetica,sans-Serif" font-size="10.00">MemoryController::define</text>
<text text-anchor="middle" x="73" y="-330.5" font-family="Helvetica,sans-Serif" font-size="10.00">_chars</text>
</a>
</g>
</g>
<!-- Node4&#45;&gt;Node5 -->
<g id="edge5" class="edge">
<title>Node4&#45;&gt;Node5</title>
<path fill="none" stroke="midnightblue" d="M182.7,-332.16C167.37,-333.06 150.98,-334.01 135.7,-334.9"/>
<polygon fill="midnightblue" stroke="midnightblue" points="183.33,-335.63 193.11,-331.55 182.93,-328.64 183.33,-335.63"/>
</g>
<!-- Node7 -->
<g id="node7" class="node">
<title>Node7</title>
<g id="a_node7"><a xlink:href="classMemoryController.html#aeca27ac53358ef654308b6a90de54bc1" target="_top" xlink:title=" ">
<polygon fill="white" stroke="black" points="10.5,-274.5 10.5,-304.5 135.5,-304.5 135.5,-274.5 10.5,-274.5"/>
<text text-anchor="start" x="18.5" y="-292.5" font-family="Helvetica,sans-Serif" font-size="10.00">MemoryController::define</text>
<text text-anchor="middle" x="73" y="-281.5" font-family="Helvetica,sans-Serif" font-size="10.00">_doubles</text>
</a>
</g>
</g>
<!-- Node6&#45;&gt;Node7 -->
<g id="edge7" class="edge">
<title>Node6&#45;&gt;Node7</title>
<path fill="none" stroke="midnightblue" d="M178.29,-284.03C164.21,-284.77 149.43,-285.54 135.57,-286.27"/>
<polygon fill="midnightblue" stroke="midnightblue" points="178.59,-287.52 188.39,-283.5 178.22,-280.53 178.59,-287.52"/>
</g>
<!-- Node10 -->
<g id="node10" class="node">
<title>Node10</title>
<g id="a_node10"><a xlink:href="classMemoryController.html#aeddc3c48a7e39b5bcfb4c2e23549b8d6" target="_top" xlink:title=" ">
<polygon fill="white" stroke="black" points="10.5,-225.5 10.5,-255.5 135.5,-255.5 135.5,-225.5 10.5,-225.5"/>
<text text-anchor="start" x="18.5" y="-243.5" font-family="Helvetica,sans-Serif" font-size="10.00">MemoryController::define</text>
<text text-anchor="middle" x="73" y="-232.5" font-family="Helvetica,sans-Serif" font-size="10.00">_floats</text>
</a>
</g>
</g>
<!-- Node9&#45;&gt;Node10 -->
<g id="edge10" class="edge">
<title>Node9&#45;&gt;Node10</title>
<path fill="none" stroke="midnightblue" d="M198.35,-208.6C178.06,-213.8 154.14,-219.94 132.72,-225.43"/>
<polygon fill="midnightblue" stroke="midnightblue" points="199.47,-211.92 208.29,-206.05 197.73,-205.14 199.47,-211.92"/>
</g>
<!-- Node11 -->
<g id="node11" class="node">
<title>Node11</title>
<g id="a_node11"><a xlink:href="classMemoryController.html#ab48b3de5ed7f68eec61b77343f747a55" target="_top" xlink:title=" ">
<polygon fill="white" stroke="black" points="0,-187 0,-206 146,-206 146,-187 0,-187"/>
<text text-anchor="middle" x="73" y="-194" font-family="Helvetica,sans-Serif" font-size="10.00">MemoryController::define_ints</text>
</a>
</g>
</g>
<!-- Node9&#45;&gt;Node11 -->
<g id="edge11" class="edge">
<title>Node9&#45;&gt;Node11</title>
<path fill="none" stroke="midnightblue" d="M188.14,-196.5C174.71,-196.5 160.23,-196.5 146.24,-196.5"/>
<polygon fill="midnightblue" stroke="midnightblue" points="188.18,-200 198.18,-196.5 188.18,-193 188.18,-200"/>
</g>
<!-- Node13 -->
<g id="node13" class="node">
<title>Node13</title>
<g id="a_node13"><a xlink:href="classMemoryController.html#a0790a9877e34915f7062dcbe96ba3194" target="_top" xlink:title=" ">
<polygon fill="white" stroke="black" points="10.5,-137.5 10.5,-167.5 135.5,-167.5 135.5,-137.5 10.5,-137.5"/>
<text text-anchor="start" x="18.5" y="-155.5" font-family="Helvetica,sans-Serif" font-size="10.00">MemoryController::define</text>
<text text-anchor="middle" x="73" y="-144.5" font-family="Helvetica,sans-Serif" font-size="10.00">_longs</text>
</a>
</g>
</g>
<!-- Node12&#45;&gt;Node13 -->
<g id="edge13" class="edge">
<title>Node12&#45;&gt;Node13</title>
<path fill="none" stroke="midnightblue" d="M182.3,-154.39C167.08,-154.13 150.85,-153.84 135.7,-153.58"/>
<polygon fill="midnightblue" stroke="midnightblue" points="182.59,-157.9 192.64,-154.58 182.71,-150.9 182.59,-157.9"/>
</g>
<!-- Node15 -->
<g id="node15" class="node">
<title>Node15</title>
<g id="a_node15"><a xlink:href="classMemoryController.html#aa9db24d5c470a2fb527a37c13408fe63" target="_top" xlink:title="search for a Variable in the availables scopes">
<polygon fill="white" stroke="black" points="9,-99 9,-118 137,-118 137,-99 9,-99"/>
<text text-anchor="middle" x="73" y="-106" font-family="Helvetica,sans-Serif" font-size="10.00">MemoryController::search</text>
</a>
</g>
</g>
<!-- Node14&#45;&gt;Node15 -->
<g id="edge15" class="edge">
<title>Node14&#45;&gt;Node15</title>
<path fill="none" stroke="midnightblue" d="M197.78,-111.39C179.02,-110.95 157.21,-110.44 137.17,-109.97"/>
<polygon fill="midnightblue" stroke="midnightblue" points="197.78,-114.89 207.86,-111.62 197.95,-107.89 197.78,-114.89"/>
</g>
<!-- Node17 -->
<g id="node17" class="node">
<title>Node17</title>
<g id="a_node17"><a xlink:href="classMemoryController.html#ab6f3b66e7918f9690c8b703333879c3f" target="_top" xlink:title=" ">
<polygon fill="white" stroke="black" points="10.5,-49.5 10.5,-79.5 135.5,-79.5 135.5,-49.5 10.5,-49.5"/>
<text text-anchor="start" x="18.5" y="-67.5" font-family="Helvetica,sans-Serif" font-size="10.00">MemoryController::define</text>
<text text-anchor="middle" x="73" y="-56.5" font-family="Helvetica,sans-Serif" font-size="10.00">_references</text>
</a>
</g>
</g>
<!-- Node16&#45;&gt;Node17 -->
<g id="edge17" class="edge">
<title>Node16&#45;&gt;Node17</title>
<path fill="none" stroke="midnightblue" d="M171.29,-66.2C159.39,-65.99 147.2,-65.78 135.64,-65.58"/>
<polygon fill="midnightblue" stroke="midnightblue" points="171.58,-69.71 181.64,-66.38 171.7,-62.71 171.58,-69.71"/>
</g>
<!-- Node19 -->
<g id="node19" class="node">
<title>Node19</title>
<g id="a_node19"><a xlink:href="classMemoryController.html#ac480227d61b289e5a6f3914e3467803d" target="_top" xlink:title=" ">
<polygon fill="white" stroke="black" points="10.5,-0.5 10.5,-30.5 135.5,-30.5 135.5,-0.5 10.5,-0.5"/>
<text text-anchor="start" x="18.5" y="-18.5" font-family="Helvetica,sans-Serif" font-size="10.00">MemoryController::define</text>
<text text-anchor="middle" x="73" y="-7.5" font-family="Helvetica,sans-Serif" font-size="10.00">_structs</text>
</a>
</g>
</g>
<!-- Node18&#45;&gt;Node19 -->
<g id="edge19" class="edge">
<title>Node18&#45;&gt;Node19</title>
<path fill="none" stroke="midnightblue" d="M179.88,-21.06C165.36,-20.29 150.01,-19.49 135.65,-18.74"/>
<polygon fill="midnightblue" stroke="midnightblue" points="180.12,-24.57 190.29,-21.6 180.49,-17.58 180.12,-24.57"/>
</g>
</g>
</svg>
