<?xml version="1.0" encoding="UTF-8" standalone="no"?>
<!DOCTYPE svg PUBLIC "-//W3C//DTD SVG 1.1//EN"
 "http://www.w3.org/Graphics/SVG/1.1/DTD/svg11.dtd">
<!-- Generated by graphviz version 2.47.1 (20210417.1919)
 -->
<!-- Title: Scope::getId Pages: 1 -->
<svg width="261pt" height="323pt"
 viewBox="0.00 0.00 261.00 323.00" xmlns="http://www.w3.org/2000/svg" xmlns:xlink="http://www.w3.org/1999/xlink">
<g id="graph0" class="graph" transform="scale(1 1) rotate(0) translate(4 319)">
<title>Scope::getId</title>
<polygon fill="white" stroke="transparent" points="-4,4 -4,-319 257,-319 257,4 -4,4"/>
<!-- Node1 -->
<g id="node1" class="node">
<title>Node1</title>
<g id="a_node1"><a xlink:title=" ">
<polygon fill="#bfbfbf" stroke="black" points="182,-148 182,-167 253,-167 253,-148 182,-148"/>
<text text-anchor="middle" x="217.5" y="-155" font-family="Helvetica,sans-Serif" font-size="10.00">Scope::getId</text>
</a>
</g>
</g>
<!-- Node2 -->
<g id="node2" class="node">
<title>Node2</title>
<g id="a_node2"><a xlink:href="classMemoryController.html#abda69812911e33a1295109173c3915a0" target="_top" xlink:title=" ">
<polygon fill="white" stroke="black" points="10.5,-284.5 10.5,-314.5 135.5,-314.5 135.5,-284.5 10.5,-284.5"/>
<text text-anchor="start" x="18.5" y="-302.5" font-family="Helvetica,sans-Serif" font-size="10.00">MemoryController::define</text>
<text text-anchor="middle" x="73" y="-291.5" font-family="Helvetica,sans-Serif" font-size="10.00">_chars</text>
</a>
</g>
</g>
<!-- Node1&#45;&gt;Node2 -->
<g id="edge1" class="edge">
<title>Node1&#45;&gt;Node2</title>
<path fill="none" stroke="midnightblue" d="M210,-176.48C200.15,-202.48 179.02,-248.96 146,-275.5 141.69,-278.97 136.85,-281.94 131.78,-284.49"/>
<polygon fill="midnightblue" stroke="midnightblue" points="213.32,-177.6 213.43,-167.01 206.73,-175.22 213.32,-177.6"/>
</g>
<!-- Node3 -->
<g id="node3" class="node">
<title>Node3</title>
<g id="a_node3"><a xlink:href="classMemoryController.html#aeca27ac53358ef654308b6a90de54bc1" target="_top" xlink:title=" ">
<polygon fill="white" stroke="black" points="10.5,-235.5 10.5,-265.5 135.5,-265.5 135.5,-235.5 10.5,-235.5"/>
<text text-anchor="start" x="18.5" y="-253.5" font-family="Helvetica,sans-Serif" font-size="10.00">MemoryController::define</text>
<text text-anchor="middle" x="73" y="-242.5" font-family="Helvetica,sans-Serif" font-size="10.00">_doubles</text>
</a>
</g>
</g>
<!-- Node1&#45;&gt;Node3 -->
<g id="edge2" class="edge">
<title>Node1&#45;&gt;Node3</title>
<path fill="none" stroke="midnightblue" d="M202.45,-175.22C189.33,-190.7 168.45,-212.79 146,-226.5 140.49,-229.86 134.45,-232.82 128.29,-235.4"/>
<polygon fill="midnightblue" stroke="midnightblue" points="205.24,-177.33 208.9,-167.39 199.84,-172.88 205.24,-177.33"/>
</g>
<!-- Node4 -->
<g id="node4" class="node">
<title>Node4</title>
<g id="a_node4"><a xlink:href="classMemoryController.html#aeddc3c48a7e39b5bcfb4c2e23549b8d6" target="_top" xlink:title=" ">
<polygon fill="white" stroke="black" points="10.5,-186.5 10.5,-216.5 135.5,-216.5 135.5,-186.5 10.5,-186.5"/>
<text text-anchor="start" x="18.5" y="-204.5" font-family="Helvetica,sans-Serif" font-size="10.00">MemoryController::define</text>
<text text-anchor="middle" x="73" y="-193.5" font-family="Helvetica,sans-Serif" font-size="10.00">_floats</text>
</a>
</g>
</g>
<!-- Node1&#45;&gt;Node4 -->
<g id="edge3" class="edge">
<title>Node1&#45;&gt;Node4</title>
<path fill="none" stroke="midnightblue" d="M175.7,-170.1C159.2,-175.19 140.02,-181.12 122.79,-186.43"/>
<polygon fill="midnightblue" stroke="midnightblue" points="177.06,-173.34 185.58,-167.05 174.99,-166.65 177.06,-173.34"/>
</g>
<!-- Node5 -->
<g id="node5" class="node">
<title>Node5</title>
<g id="a_node5"><a xlink:href="classMemoryController.html#ab48b3de5ed7f68eec61b77343f747a55" target="_top" xlink:title=" ">
<polygon fill="white" stroke="black" points="0,-148 0,-167 146,-167 146,-148 0,-148"/>
<text text-anchor="middle" x="73" y="-155" font-family="Helvetica,sans-Serif" font-size="10.00">MemoryController::define_ints</text>
</a>
</g>
</g>
<!-- Node1&#45;&gt;Node5 -->
<g id="edge4" class="edge">
<title>Node1&#45;&gt;Node5</title>
<path fill="none" stroke="midnightblue" d="M171.39,-157.5C163.34,-157.5 154.77,-157.5 146.18,-157.5"/>
<polygon fill="midnightblue" stroke="midnightblue" points="171.64,-161 181.64,-157.5 171.64,-154 171.64,-161"/>
</g>
<!-- Node6 -->
<g id="node6" class="node">
<title>Node6</title>
<g id="a_node6"><a xlink:href="classMemoryController.html#a0790a9877e34915f7062dcbe96ba3194" target="_top" xlink:title=" ">
<polygon fill="white" stroke="black" points="10.5,-98.5 10.5,-128.5 135.5,-128.5 135.5,-98.5 10.5,-98.5"/>
<text text-anchor="start" x="18.5" y="-116.5" font-family="Helvetica,sans-Serif" font-size="10.00">MemoryController::define</text>
<text text-anchor="middle" x="73" y="-105.5" font-family="Helvetica,sans-Serif" font-size="10.00">_longs</text>
</a>
</g>
</g>
<!-- Node1&#45;&gt;Node6 -->
<g id="edge5" class="edge">
<title>Node1&#45;&gt;Node6</title>
<path fill="none" stroke="midnightblue" d="M175.7,-144.9C159.2,-139.81 140.02,-133.88 122.79,-128.57"/>
<polygon fill="midnightblue" stroke="midnightblue" points="174.99,-148.35 185.58,-147.95 177.06,-141.66 174.99,-148.35"/>
</g>
<!-- Node7 -->
<g id="node7" class="node">
<title>Node7</title>
<g id="a_node7"><a xlink:href="classMemoryController.html#ab6f3b66e7918f9690c8b703333879c3f" target="_top" xlink:title=" ">
<polygon fill="white" stroke="black" points="10.5,-49.5 10.5,-79.5 135.5,-79.5 135.5,-49.5 10.5,-49.5"/>
<text text-anchor="start" x="18.5" y="-67.5" font-family="Helvetica,sans-Serif" font-size="10.00">MemoryController::define</text>
<text text-anchor="middle" x="73" y="-56.5" font-family="Helvetica,sans-Serif" font-size="10.00">_references</text>
</a>
</g>
</g>
<!-- Node1&#45;&gt;Node7 -->
<g id="edge6" class="edge">
<title>Node1&#45;&gt;Node7</title>
<path fill="none" stroke="midnightblue" d="M202.36,-140.11C189.18,-124.91 168.25,-103.17 146,-89.5 139.91,-85.76 133.19,-82.49 126.37,-79.65"/>
<polygon fill="midnightblue" stroke="midnightblue" points="199.72,-142.41 208.84,-147.8 205.07,-137.9 199.72,-142.41"/>
</g>
<!-- Node8 -->
<g id="node8" class="node">
<title>Node8</title>
<g id="a_node8"><a xlink:href="classMemoryController.html#ac480227d61b289e5a6f3914e3467803d" target="_top" xlink:title=" ">
<polygon fill="white" stroke="black" points="10.5,-0.5 10.5,-30.5 135.5,-30.5 135.5,-0.5 10.5,-0.5"/>
<text text-anchor="start" x="18.5" y="-18.5" font-family="Helvetica,sans-Serif" font-size="10.00">MemoryController::define</text>
<text text-anchor="middle" x="73" y="-7.5" font-family="Helvetica,sans-Serif" font-size="10.00">_structs</text>
</a>
</g>
</g>
<!-- Node1&#45;&gt;Node8 -->
<g id="edge7" class="edge">
<title>Node1&#45;&gt;Node8</title>
<path fill="none" stroke="midnightblue" d="M209.76,-138.36C199.74,-112.57 178.54,-66.89 146,-40.5 141.27,-36.67 135.92,-33.4 130.32,-30.63"/>
<polygon fill="midnightblue" stroke="midnightblue" points="206.5,-139.62 213.26,-147.78 213.06,-137.18 206.5,-139.62"/>
</g>
</g>
</svg>
