<?xml version="1.0" encoding="UTF-8" standalone="no"?>
<!DOCTYPE svg PUBLIC "-//W3C//DTD SVG 1.1//EN"
 "http://www.w3.org/Graphics/SVG/1.1/DTD/svg11.dtd">
<!-- Generated by graphviz version 2.47.1 (20210417.1919)
 -->
<!-- Title: Scope::getNextScope Pages: 1 -->
<svg width="517pt" height="121pt"
 viewBox="0.00 0.00 517.00 121.00" xmlns="http://www.w3.org/2000/svg" xmlns:xlink="http://www.w3.org/1999/xlink">
<g id="graph0" class="graph" transform="scale(1 1) rotate(0) translate(4 117)">
<title>Scope::getNextScope</title>
<polygon fill="white" stroke="transparent" points="-4,4 -4,-117 513,-117 513,4 -4,4"/>
<!-- Node1 -->
<g id="node1" class="node">
<title>Node1</title>
<g id="a_node1"><a xlink:title=" ">
<polygon fill="#bfbfbf" stroke="black" points="397,-47.5 397,-66.5 509,-66.5 509,-47.5 397,-47.5"/>
<text text-anchor="middle" x="453" y="-54.5" font-family="Helvetica,sans-Serif" font-size="10.00">Scope::getNextScope</text>
</a>
</g>
</g>
<!-- Node2 -->
<g id="node2" class="node">
<title>Node2</title>
<g id="a_node2"><a xlink:href="classScope.html#a148b2d8124ad1c29d8b62a3c2cdb1a51" target="_top" xlink:title=" ">
<polygon fill="white" stroke="black" points="279,-75.5 279,-94.5 357,-94.5 357,-75.5 279,-75.5"/>
<text text-anchor="middle" x="318" y="-82.5" font-family="Helvetica,sans-Serif" font-size="10.00">Scope::Delete</text>
</a>
</g>
</g>
<!-- Node1&#45;&gt;Node2 -->
<g id="edge1" class="edge">
<title>Node1&#45;&gt;Node2</title>
<path fill="none" stroke="midnightblue" d="M396.6,-68.66C383.31,-71.46 369.42,-74.39 357.12,-76.98"/>
<polygon fill="midnightblue" stroke="midnightblue" points="397.54,-72.04 406.6,-66.56 396.09,-65.19 397.54,-72.04"/>
</g>
<!-- Node4 -->
<g id="node4" class="node">
<title>Node4</title>
<g id="a_node4"><a xlink:href="classScope.html#ab7e68bd73690095c5358f643fe606959" target="_top" xlink:title="Create a string with the info of the Scope.">
<polygon fill="white" stroke="black" points="275,-19.5 275,-38.5 361,-38.5 361,-19.5 275,-19.5"/>
<text text-anchor="middle" x="318" y="-26.5" font-family="Helvetica,sans-Serif" font-size="10.00">Scope::GetJson</text>
</a>
</g>
</g>
<!-- Node1&#45;&gt;Node4 -->
<g id="edge4" class="edge">
<title>Node1&#45;&gt;Node4</title>
<path fill="none" stroke="midnightblue" d="M396.73,-45.37C384.81,-42.85 372.39,-40.24 361.06,-37.86"/>
<polygon fill="midnightblue" stroke="midnightblue" points="396.09,-48.81 406.6,-47.44 397.54,-41.96 396.09,-48.81"/>
</g>
<!-- Node2&#45;&gt;Node2 -->
<g id="edge2" class="edge">
<title>Node2&#45;&gt;Node2</title>
<path fill="none" stroke="midnightblue" d="M342.93,-104.03C341.57,-109.13 333.26,-113 318,-113 294.18,-113 287.3,-103.57 297.35,-94.76"/>
<polygon fill="midnightblue" stroke="midnightblue" points="346.02,-102.37 338.65,-94.76 339.66,-105.3 346.02,-102.37"/>
</g>
<!-- Node3 -->
<g id="node3" class="node">
<title>Node3</title>
<g id="a_node3"><a xlink:href="classMemoryController.html#a09dd944c90a90b721b7f52addc6aa7ba" target="_top" xlink:title="Close the actual escope.">
<polygon fill="white" stroke="black" points="102,-75.5 102,-94.5 239,-94.5 239,-75.5 102,-75.5"/>
<text text-anchor="middle" x="170.5" y="-82.5" font-family="Helvetica,sans-Serif" font-size="10.00">MemoryController::Unscope</text>
</a>
</g>
</g>
<!-- Node2&#45;&gt;Node3 -->
<g id="edge3" class="edge">
<title>Node2&#45;&gt;Node3</title>
<path fill="none" stroke="midnightblue" d="M268.72,-85C259.2,-85 249.04,-85 239.02,-85"/>
<polygon fill="midnightblue" stroke="midnightblue" points="268.77,-88.5 278.77,-85 268.77,-81.5 268.77,-88.5"/>
</g>
<!-- Node4&#45;&gt;Node4 -->
<g id="edge9" class="edge">
<title>Node4&#45;&gt;Node4</title>
<path fill="none" stroke="midnightblue" d="M342.93,-48.03C341.57,-53.13 333.26,-57 318,-57 294.18,-57 287.3,-47.57 297.35,-38.76"/>
<polygon fill="midnightblue" stroke="midnightblue" points="346.02,-46.37 338.65,-38.76 339.66,-49.3 346.02,-46.37"/>
</g>
<!-- Node5 -->
<g id="node5" class="node">
<title>Node5</title>
<g id="a_node5"><a xlink:href="classLNode.html#ae3ee65209772ae7cea01d820fb2c3fa3" target="_top" xlink:title=" ">
<polygon fill="white" stroke="black" points="128.5,-19.5 128.5,-38.5 212.5,-38.5 212.5,-19.5 128.5,-19.5"/>
<text text-anchor="middle" x="170.5" y="-26.5" font-family="Helvetica,sans-Serif" font-size="10.00">LNode::getJson</text>
</a>
</g>
</g>
<!-- Node4&#45;&gt;Node5 -->
<g id="edge5" class="edge">
<title>Node4&#45;&gt;Node5</title>
<path fill="none" stroke="midnightblue" d="M264.59,-29C247.63,-29 229.05,-29 212.99,-29"/>
<polygon fill="midnightblue" stroke="midnightblue" points="264.92,-32.5 274.92,-29 264.92,-25.5 264.92,-32.5"/>
</g>
<!-- Node5&#45;&gt;Node5 -->
<g id="edge6" class="edge">
<title>Node5&#45;&gt;Node5</title>
<path fill="none" stroke="midnightblue" d="M195.8,-48.03C194.42,-53.13 185.99,-57 170.5,-57 146.33,-57 139.34,-47.57 149.54,-38.76"/>
<polygon fill="midnightblue" stroke="midnightblue" points="198.87,-46.33 191.46,-38.76 192.53,-49.3 198.87,-46.33"/>
</g>
<!-- Node6 -->
<g id="node6" class="node">
<title>Node6</title>
<g id="a_node6"><a xlink:href="classLlist.html#a19d60464af021d658fed2696e7940f19" target="_top" xlink:title=" ">
<polygon fill="white" stroke="black" points="0,-0.5 0,-19.5 66,-19.5 66,-0.5 0,-0.5"/>
<text text-anchor="middle" x="33" y="-7.5" font-family="Helvetica,sans-Serif" font-size="10.00">Llist::LJson</text>
</a>
</g>
</g>
<!-- Node5&#45;&gt;Node6 -->
<g id="edge7" class="edge">
<title>Node5&#45;&gt;Node6</title>
<path fill="none" stroke="midnightblue" d="M118.4,-21.84C100.92,-19.38 81.86,-16.71 66.28,-14.53"/>
<polygon fill="midnightblue" stroke="midnightblue" points="118.09,-25.33 128.48,-23.25 119.06,-18.39 118.09,-25.33"/>
</g>
<!-- Node6&#45;&gt;Node4 -->
<g id="edge8" class="edge">
<title>Node6&#45;&gt;Node4</title>
<path fill="none" stroke="midnightblue" d="M76.14,-7.08C117.7,-4.88 182.97,-3.27 239,-10 254.5,-11.86 271.37,-15.73 285.44,-19.49"/>
<polygon fill="midnightblue" stroke="midnightblue" points="75.89,-3.59 66.1,-7.64 76.28,-10.57 75.89,-3.59"/>
</g>
</g>
</svg>
