<?xml version="1.0" encoding="UTF-8" standalone="no"?>
<!DOCTYPE svg PUBLIC "-//W3C//DTD SVG 1.1//EN"
 "http://www.w3.org/Graphics/SVG/1.1/DTD/svg11.dtd">
<!-- Generated by graphviz version 2.47.1 (20210417.1919)
 -->
<!-- Title: LNode::getJson Pages: 1 -->
<svg width="316pt" height="47pt"
 viewBox="0.00 0.00 316.00 47.00" xmlns="http://www.w3.org/2000/svg" xmlns:xlink="http://www.w3.org/1999/xlink">
<g id="graph0" class="graph" transform="scale(1 1) rotate(0) translate(4 43)">
<title>LNode::getJson</title>
<polygon fill="white" stroke="transparent" points="-4,4 -4,-43 312,-43 312,4 -4,4"/>
<!-- Node1 -->
<g id="node1" class="node">
<title>Node1</title>
<g id="a_node1"><a xlink:title=" ">
<polygon fill="#bfbfbf" stroke="black" points="224,-0.5 224,-19.5 308,-19.5 308,-0.5 224,-0.5"/>
<text text-anchor="middle" x="266" y="-7.5" font-family="Helvetica,sans-Serif" font-size="10.00">LNode::getJson</text>
</a>
</g>
</g>
<!-- Node1&#45;&gt;Node1 -->
<g id="edge1" class="edge">
<title>Node1&#45;&gt;Node1</title>
<path fill="none" stroke="midnightblue" d="M286.37,-29.4C285.01,-34.31 278.22,-38 266,-38 246.45,-38 240.8,-28.57 249.05,-19.76"/>
<polygon fill="midnightblue" stroke="midnightblue" points="289.59,-28.01 282.95,-19.76 282.99,-30.35 289.59,-28.01"/>
</g>
<!-- Node2 -->
<g id="node2" class="node">
<title>Node2</title>
<g id="a_node2"><a xlink:href="classLlist.html#a19d60464af021d658fed2696e7940f19" target="_top" xlink:title=" ">
<polygon fill="white" stroke="black" points="122,-19.5 122,-38.5 188,-38.5 188,-19.5 122,-19.5"/>
<text text-anchor="middle" x="155" y="-26.5" font-family="Helvetica,sans-Serif" font-size="10.00">Llist::LJson</text>
</a>
</g>
</g>
<!-- Node1&#45;&gt;Node2 -->
<g id="edge2" class="edge">
<title>Node1&#45;&gt;Node2</title>
<path fill="none" stroke="midnightblue" d="M213.66,-18.95C204.95,-20.47 196.13,-22.01 188.09,-23.41"/>
<polygon fill="midnightblue" stroke="midnightblue" points="214.54,-22.35 223.79,-17.18 213.34,-15.45 214.54,-22.35"/>
</g>
<!-- Node3 -->
<g id="node3" class="node">
<title>Node3</title>
<g id="a_node3"><a xlink:href="classScope.html#ab7e68bd73690095c5358f643fe606959" target="_top" xlink:title="Create a string with the info of the Scope.">
<polygon fill="white" stroke="black" points="0,-0.5 0,-19.5 86,-19.5 86,-0.5 0,-0.5"/>
<text text-anchor="middle" x="43" y="-7.5" font-family="Helvetica,sans-Serif" font-size="10.00">Scope::GetJson</text>
</a>
</g>
</g>
<!-- Node2&#45;&gt;Node3 -->
<g id="edge3" class="edge">
<title>Node2&#45;&gt;Node3</title>
<path fill="none" stroke="midnightblue" d="M111.88,-21.73C103.46,-20.27 94.61,-18.74 86.18,-17.29"/>
<polygon fill="midnightblue" stroke="midnightblue" points="111.44,-25.2 121.89,-23.45 112.63,-18.3 111.44,-25.2"/>
</g>
<!-- Node3&#45;&gt;Node1 -->
<g id="edge4" class="edge">
<title>Node3&#45;&gt;Node1</title>
<path fill="none" stroke="midnightblue" d="M96.45,-10C135.47,-10 187.97,-10 223.95,-10"/>
<polygon fill="midnightblue" stroke="midnightblue" points="96.34,-6.5 86.34,-10 96.34,-13.5 96.34,-6.5"/>
</g>
<!-- Node3&#45;&gt;Node3 -->
<g id="edge5" class="edge">
<title>Node3&#45;&gt;Node3</title>
<path fill="none" stroke="midnightblue" d="M63.74,-29.4C62.35,-34.31 55.44,-38 43,-38 23.09,-38 17.34,-28.57 25.74,-19.76"/>
<polygon fill="midnightblue" stroke="midnightblue" points="66.95,-27.98 60.26,-19.76 60.36,-30.35 66.95,-27.98"/>
</g>
</g>
</svg>
