<?xml version="1.0" encoding="UTF-8" standalone="no"?>
<!DOCTYPE svg PUBLIC "-//W3C//DTD SVG 1.1//EN"
 "http://www.w3.org/Graphics/SVG/1.1/DTD/svg11.dtd">
<!-- Generated by graphviz version 2.47.1 (20210417.1919)
 -->
<!-- Title: MemoryController::testing_scope Pages: 1 -->
<svg width="318pt" height="372pt"
 viewBox="0.00 0.00 318.00 372.00" xmlns="http://www.w3.org/2000/svg" xmlns:xlink="http://www.w3.org/1999/xlink">
<g id="graph0" class="graph" transform="scale(1 1) rotate(0) translate(4 368)">
<title>MemoryController::testing_scope</title>
<polygon fill="white" stroke="transparent" points="-4,4 -4,-368 314,-368 314,4 -4,4"/>
<!-- Node1 -->
<g id="node1" class="node">
<title>Node1</title>
<g id="a_node1"><a xlink:title=" ">
<polygon fill="#bfbfbf" stroke="black" points="182,-169.5 182,-199.5 310,-199.5 310,-169.5 182,-169.5"/>
<text text-anchor="start" x="190" y="-187.5" font-family="Helvetica,sans-Serif" font-size="10.00">MemoryController::testing</text>
<text text-anchor="middle" x="246" y="-176.5" font-family="Helvetica,sans-Serif" font-size="10.00">_scope</text>
</a>
</g>
</g>
<!-- Node2 -->
<g id="node2" class="node">
<title>Node2</title>
<g id="a_node2"><a xlink:href="classMemoryController.html#abda69812911e33a1295109173c3915a0" target="_top" xlink:title=" ">
<polygon fill="white" stroke="black" points="10.5,-333.5 10.5,-363.5 135.5,-363.5 135.5,-333.5 10.5,-333.5"/>
<text text-anchor="start" x="18.5" y="-351.5" font-family="Helvetica,sans-Serif" font-size="10.00">MemoryController::define</text>
<text text-anchor="middle" x="73" y="-340.5" font-family="Helvetica,sans-Serif" font-size="10.00">_chars</text>
</a>
</g>
</g>
<!-- Node1&#45;&gt;Node2 -->
<g id="edge1" class="edge">
<title>Node1&#45;&gt;Node2</title>
<path fill="none" stroke="midnightblue" d="M233.88,-208.81C218.43,-239.95 187.63,-293.6 146,-324.5 141.34,-327.96 136.16,-330.93 130.77,-333.49"/>
<polygon fill="midnightblue" stroke="midnightblue" points="237.15,-210.07 238.35,-199.54 230.85,-207.03 237.15,-210.07"/>
</g>
<!-- Node3 -->
<g id="node3" class="node">
<title>Node3</title>
<g id="a_node3"><a xlink:href="classMemoryController.html#aeca27ac53358ef654308b6a90de54bc1" target="_top" xlink:title=" ">
<polygon fill="white" stroke="black" points="10.5,-284.5 10.5,-314.5 135.5,-314.5 135.5,-284.5 10.5,-284.5"/>
<text text-anchor="start" x="18.5" y="-302.5" font-family="Helvetica,sans-Serif" font-size="10.00">MemoryController::define</text>
<text text-anchor="middle" x="73" y="-291.5" font-family="Helvetica,sans-Serif" font-size="10.00">_doubles</text>
</a>
</g>
</g>
<!-- Node1&#45;&gt;Node3 -->
<g id="edge2" class="edge">
<title>Node1&#45;&gt;Node3</title>
<path fill="none" stroke="midnightblue" d="M225.3,-207.44C206.7,-227.84 177.07,-257.19 146,-275.5 140.32,-278.84 134.12,-281.8 127.81,-284.39"/>
<polygon fill="midnightblue" stroke="midnightblue" points="228.05,-209.62 232.11,-199.84 222.83,-204.95 228.05,-209.62"/>
</g>
<!-- Node4 -->
<g id="node4" class="node">
<title>Node4</title>
<g id="a_node4"><a xlink:href="classMemoryController.html#aeddc3c48a7e39b5bcfb4c2e23549b8d6" target="_top" xlink:title=" ">
<polygon fill="white" stroke="black" points="10.5,-235.5 10.5,-265.5 135.5,-265.5 135.5,-235.5 10.5,-235.5"/>
<text text-anchor="start" x="18.5" y="-253.5" font-family="Helvetica,sans-Serif" font-size="10.00">MemoryController::define</text>
<text text-anchor="middle" x="73" y="-242.5" font-family="Helvetica,sans-Serif" font-size="10.00">_floats</text>
</a>
</g>
</g>
<!-- Node1&#45;&gt;Node4 -->
<g id="edge3" class="edge">
<title>Node1&#45;&gt;Node4</title>
<path fill="none" stroke="midnightblue" d="M200.29,-203.67C183.37,-210.75 163.88,-218.7 146,-225.5 137.22,-228.84 127.77,-232.25 118.7,-235.43"/>
<polygon fill="midnightblue" stroke="midnightblue" points="202.06,-206.72 209.92,-199.61 199.34,-200.27 202.06,-206.72"/>
</g>
<!-- Node5 -->
<g id="node5" class="node">
<title>Node5</title>
<g id="a_node5"><a xlink:href="classMemoryController.html#ab48b3de5ed7f68eec61b77343f747a55" target="_top" xlink:title=" ">
<polygon fill="white" stroke="black" points="0,-197 0,-216 146,-216 146,-197 0,-197"/>
<text text-anchor="middle" x="73" y="-204" font-family="Helvetica,sans-Serif" font-size="10.00">MemoryController::define_ints</text>
</a>
</g>
</g>
<!-- Node1&#45;&gt;Node5 -->
<g id="edge4" class="edge">
<title>Node1&#45;&gt;Node5</title>
<path fill="none" stroke="midnightblue" d="M171.62,-193.94C163.18,-195.03 154.58,-196.13 146.16,-197.22"/>
<polygon fill="midnightblue" stroke="midnightblue" points="172.34,-197.38 181.81,-192.63 171.45,-190.43 172.34,-197.38"/>
</g>
<!-- Node6 -->
<g id="node6" class="node">
<title>Node6</title>
<g id="a_node6"><a xlink:href="classMemoryController.html#a0790a9877e34915f7062dcbe96ba3194" target="_top" xlink:title=" ">
<polygon fill="white" stroke="black" points="10.5,-147.5 10.5,-177.5 135.5,-177.5 135.5,-147.5 10.5,-147.5"/>
<text text-anchor="start" x="18.5" y="-165.5" font-family="Helvetica,sans-Serif" font-size="10.00">MemoryController::define</text>
<text text-anchor="middle" x="73" y="-154.5" font-family="Helvetica,sans-Serif" font-size="10.00">_longs</text>
</a>
</g>
</g>
<!-- Node1&#45;&gt;Node6 -->
<g id="edge5" class="edge">
<title>Node1&#45;&gt;Node6</title>
<path fill="none" stroke="midnightblue" d="M171.76,-175.08C159.68,-173.52 147.26,-171.93 135.51,-170.41"/>
<polygon fill="midnightblue" stroke="midnightblue" points="171.45,-178.57 181.81,-176.37 172.34,-171.62 171.45,-178.57"/>
</g>
<!-- Node7 -->
<g id="node7" class="node">
<title>Node7</title>
<g id="a_node7"><a xlink:href="classMemoryController.html#ab6f3b66e7918f9690c8b703333879c3f" target="_top" xlink:title=" ">
<polygon fill="white" stroke="black" points="10.5,-98.5 10.5,-128.5 135.5,-128.5 135.5,-98.5 10.5,-98.5"/>
<text text-anchor="start" x="18.5" y="-116.5" font-family="Helvetica,sans-Serif" font-size="10.00">MemoryController::define</text>
<text text-anchor="middle" x="73" y="-105.5" font-family="Helvetica,sans-Serif" font-size="10.00">_references</text>
</a>
</g>
</g>
<!-- Node1&#45;&gt;Node7 -->
<g id="edge6" class="edge">
<title>Node1&#45;&gt;Node7</title>
<path fill="none" stroke="midnightblue" d="M205.54,-165.06C187.57,-156.48 165.9,-146.55 146,-138.5 137.54,-135.07 128.41,-131.68 119.58,-128.55"/>
<polygon fill="midnightblue" stroke="midnightblue" points="204.05,-168.22 214.58,-169.4 207.08,-161.91 204.05,-168.22"/>
</g>
<!-- Node8 -->
<g id="node8" class="node">
<title>Node8</title>
<g id="a_node8"><a xlink:href="classMemoryController.html#ac480227d61b289e5a6f3914e3467803d" target="_top" xlink:title=" ">
<polygon fill="white" stroke="black" points="10.5,-49.5 10.5,-79.5 135.5,-79.5 135.5,-49.5 10.5,-49.5"/>
<text text-anchor="start" x="18.5" y="-67.5" font-family="Helvetica,sans-Serif" font-size="10.00">MemoryController::define</text>
<text text-anchor="middle" x="73" y="-56.5" font-family="Helvetica,sans-Serif" font-size="10.00">_structs</text>
</a>
</g>
</g>
<!-- Node1&#45;&gt;Node8 -->
<g id="edge7" class="edge">
<title>Node1&#45;&gt;Node8</title>
<path fill="none" stroke="midnightblue" d="M226.33,-161.61C207.88,-140.32 177.88,-109.03 146,-89.5 139.79,-85.7 132.93,-82.38 125.98,-79.5"/>
<polygon fill="midnightblue" stroke="midnightblue" points="223.66,-163.88 232.81,-169.23 229,-159.35 223.66,-163.88"/>
</g>
<!-- Node9 -->
<g id="node9" class="node">
<title>Node9</title>
<g id="a_node9"><a xlink:href="classMemoryController.html#a657e39ec6023aff17baea20bdbe26b1f" target="_top" xlink:title=" ">
<polygon fill="white" stroke="black" points="15,-0.5 15,-30.5 131,-30.5 131,-0.5 15,-0.5"/>
<text text-anchor="start" x="23" y="-18.5" font-family="Helvetica,sans-Serif" font-size="10.00">MemoryController::new</text>
<text text-anchor="middle" x="73" y="-7.5" font-family="Helvetica,sans-Serif" font-size="10.00">_scope</text>
</a>
</g>
</g>
<!-- Node1&#45;&gt;Node9 -->
<g id="edge8" class="edge">
<title>Node1&#45;&gt;Node9</title>
<path fill="none" stroke="midnightblue" d="M234.19,-159.99C218.95,-128.1 188.2,-72.67 146,-40.5 140.95,-36.65 135.26,-33.36 129.35,-30.57"/>
<polygon fill="midnightblue" stroke="midnightblue" points="231.03,-161.49 238.42,-169.08 237.38,-158.54 231.03,-161.49"/>
</g>
</g>
</svg>
