<?xml version="1.0" encoding="UTF-8" standalone="no"?>
<!DOCTYPE svg PUBLIC "-//W3C//DTD SVG 1.1//EN"
 "http://www.w3.org/Graphics/SVG/1.1/DTD/svg11.dtd">
<!-- Generated by graphviz version 2.47.1 (20210417.1919)
 -->
<!-- Title: Llist::LJson Pages: 1 -->
<svg width="467pt" height="93pt"
 viewBox="0.00 0.00 467.00 93.00" xmlns="http://www.w3.org/2000/svg" xmlns:xlink="http://www.w3.org/1999/xlink">
<g id="graph0" class="graph" transform="scale(1 1) rotate(0) translate(4 89)">
<title>Llist::LJson</title>
<polygon fill="white" stroke="transparent" points="-4,4 -4,-89 463,-89 463,4 -4,4"/>
<!-- Node1 -->
<g id="node1" class="node">
<title>Node1</title>
<g id="a_node1"><a xlink:title=" ">
<polygon fill="#bfbfbf" stroke="black" points="0,-28.5 0,-47.5 66,-47.5 66,-28.5 0,-28.5"/>
<text text-anchor="middle" x="33" y="-35.5" font-family="Helvetica,sans-Serif" font-size="10.00">Llist::LJson</text>
</a>
</g>
</g>
<!-- Node2 -->
<g id="node2" class="node">
<title>Node2</title>
<g id="a_node2"><a xlink:href="classLNode.html#ae3ee65209772ae7cea01d820fb2c3fa3" target="_top" xlink:title=" ">
<polygon fill="white" stroke="black" points="102,-0.5 102,-19.5 186,-19.5 186,-0.5 102,-0.5"/>
<text text-anchor="middle" x="144" y="-7.5" font-family="Helvetica,sans-Serif" font-size="10.00">LNode::getJson</text>
</a>
</g>
</g>
<!-- Node1&#45;&gt;Node2 -->
<g id="edge1" class="edge">
<title>Node1&#45;&gt;Node2</title>
<path fill="none" stroke="midnightblue" d="M66.11,-29.75C75.44,-27.35 85.82,-24.69 95.87,-22.11"/>
<polygon fill="midnightblue" stroke="midnightblue" points="96.93,-25.45 105.75,-19.57 95.19,-18.67 96.93,-25.45"/>
</g>
<!-- Node2&#45;&gt;Node2 -->
<g id="edge2" class="edge">
<title>Node2&#45;&gt;Node2</title>
<path fill="none" stroke="midnightblue" d="M127.05,-19.76C118.8,-28.57 124.45,-38 144,-38 156.22,-38 163.01,-34.31 164.37,-29.4"/>
<polygon fill="midnightblue" stroke="midnightblue" points="167.59,-28.01 160.95,-19.76 160.99,-30.35 167.59,-28.01"/>
</g>
<!-- Node3 -->
<g id="node3" class="node">
<title>Node3</title>
<g id="a_node3"><a xlink:href="classScope.html#ab7e68bd73690095c5358f643fe606959" target="_top" xlink:title="Create a string with the info of the Scope.">
<polygon fill="white" stroke="black" points="223.5,-47.5 223.5,-66.5 309.5,-66.5 309.5,-47.5 223.5,-47.5"/>
<text text-anchor="middle" x="266.5" y="-54.5" font-family="Helvetica,sans-Serif" font-size="10.00">Scope::GetJson</text>
</a>
</g>
</g>
<!-- Node2&#45;&gt;Node3 -->
<g id="edge3" class="edge">
<title>Node2&#45;&gt;Node3</title>
<path fill="none" stroke="midnightblue" d="M169.38,-19.51C187.15,-26.44 211.46,-35.92 231.19,-43.62"/>
<polygon fill="midnightblue" stroke="midnightblue" points="230.15,-46.97 240.74,-47.34 232.69,-40.45 230.15,-46.97"/>
</g>
<!-- Node5 -->
<g id="node5" class="node">
<title>Node5</title>
<g id="a_node5"><a xlink:href="classLNode.html#a2b94043203b531a2ca1a38f22a24f9a4" target="_top" xlink:title=" ">
<polygon fill="white" stroke="black" points="222,-0.5 222,-19.5 311,-19.5 311,-0.5 222,-0.5"/>
<text text-anchor="middle" x="266.5" y="-7.5" font-family="Helvetica,sans-Serif" font-size="10.00">LNode::getValue</text>
</a>
</g>
</g>
<!-- Node2&#45;&gt;Node5 -->
<g id="edge7" class="edge">
<title>Node2&#45;&gt;Node5</title>
<path fill="none" stroke="midnightblue" d="M186.13,-10C194.28,-10 202.94,-10 211.44,-10"/>
<polygon fill="midnightblue" stroke="midnightblue" points="211.67,-13.5 221.67,-10 211.67,-6.5 211.67,-13.5"/>
</g>
<!-- Node3&#45;&gt;Node1 -->
<g id="edge6" class="edge">
<title>Node3&#45;&gt;Node1</title>
<path fill="none" stroke="midnightblue" d="M223.43,-55.24C190.37,-53.67 143.19,-50.98 102,-47 93.66,-46.19 84.76,-45.15 76.25,-44.06"/>
<polygon fill="midnightblue" stroke="midnightblue" points="76.49,-40.56 66.12,-42.72 75.57,-47.5 76.49,-40.56"/>
</g>
<!-- Node3&#45;&gt;Node3 -->
<g id="edge4" class="edge">
<title>Node3&#45;&gt;Node3</title>
<path fill="none" stroke="midnightblue" d="M247.7,-66.76C238.55,-75.57 244.82,-85 266.5,-85 280.39,-85 287.96,-81.13 289.19,-76.03"/>
<polygon fill="midnightblue" stroke="midnightblue" points="292.4,-74.62 285.3,-66.76 285.94,-77.33 292.4,-74.62"/>
</g>
<!-- Node4 -->
<g id="node4" class="node">
<title>Node4</title>
<g id="a_node4"><a xlink:href="classScope.html#a2a3d51cd40fd9ea8d183aa311c08c9f5" target="_top" xlink:title=" ">
<polygon fill="white" stroke="black" points="347,-47.5 347,-66.5 459,-66.5 459,-47.5 347,-47.5"/>
<text text-anchor="middle" x="403" y="-54.5" font-family="Helvetica,sans-Serif" font-size="10.00">Scope::getNextScope</text>
</a>
</g>
</g>
<!-- Node3&#45;&gt;Node4 -->
<g id="edge5" class="edge">
<title>Node3&#45;&gt;Node4</title>
<path fill="none" stroke="midnightblue" d="M309.69,-57C318.2,-57 327.33,-57 336.42,-57"/>
<polygon fill="midnightblue" stroke="midnightblue" points="336.63,-60.5 346.63,-57 336.63,-53.5 336.63,-60.5"/>
</g>
</g>
</svg>
