<?xml version="1.0" encoding="UTF-8" standalone="no"?>
<!DOCTYPE svg PUBLIC "-//W3C//DTD SVG 1.1//EN"
 "http://www.w3.org/Graphics/SVG/1.1/DTD/svg11.dtd">
<!-- Generated by graphviz version 2.47.1 (20210417.1919)
 -->
<!-- Title: Scope::Delete Pages: 1 -->
<svg width="196pt" height="46pt"
 viewBox="0.00 0.00 196.00 46.00" xmlns="http://www.w3.org/2000/svg" xmlns:xlink="http://www.w3.org/1999/xlink">
<g id="graph0" class="graph" transform="scale(1 1) rotate(0) translate(4 42)">
<title>Scope::Delete</title>
<polygon fill="white" stroke="transparent" points="-4,4 -4,-42 192,-42 192,4 -4,4"/>
<!-- Node1 -->
<g id="node1" class="node">
<title>Node1</title>
<g id="a_node1"><a xlink:title=" ">
<polygon fill="#bfbfbf" stroke="black" points="0,-0.5 0,-19.5 78,-19.5 78,-0.5 0,-0.5"/>
<text text-anchor="middle" x="39" y="-7.5" font-family="Helvetica,sans-Serif" font-size="10.00">Scope::Delete</text>
</a>
</g>
</g>
<!-- Node1&#45;&gt;Node1 -->
<g id="edge1" class="edge">
<title>Node1&#45;&gt;Node1</title>
<path fill="none" stroke="midnightblue" d="M21.74,-19.76C13.34,-28.57 19.09,-38 39,-38 51.44,-38 58.35,-34.31 59.74,-29.4"/>
<polygon fill="midnightblue" stroke="midnightblue" points="62.95,-27.98 56.26,-19.76 56.36,-30.35 62.95,-27.98"/>
</g>
<!-- Node2 -->
<g id="node2" class="node">
<title>Node2</title>
<g id="a_node2"><a xlink:href="classLlist.html#aa3c43d2b455ba74835342a64d4909ed8" target="_top" xlink:title="place a LNode in the first position">
<polygon fill="white" stroke="black" points="114,-0.5 114,-19.5 188,-19.5 188,-0.5 114,-0.5"/>
<text text-anchor="middle" x="151" y="-7.5" font-family="Helvetica,sans-Serif" font-size="10.00">Llist::setFirst</text>
</a>
</g>
</g>
<!-- Node1&#45;&gt;Node2 -->
<g id="edge2" class="edge">
<title>Node1&#45;&gt;Node2</title>
<path fill="none" stroke="midnightblue" d="M78.16,-10C86.37,-10 95.13,-10 103.61,-10"/>
<polygon fill="midnightblue" stroke="midnightblue" points="103.75,-13.5 113.75,-10 103.75,-6.5 103.75,-13.5"/>
</g>
</g>
</svg>
