<?xml version="1.0" encoding="UTF-8" standalone="no"?>
<!DOCTYPE svg PUBLIC "-//W3C//DTD SVG 1.1//EN"
 "http://www.w3.org/Graphics/SVG/1.1/DTD/svg11.dtd">
<!-- Generated by graphviz version 2.47.1 (20210417.1919)
 -->
<!-- Title: MemoryController::define_structs Pages: 1 -->
<svg width="250pt" height="84pt"
 viewBox="0.00 0.00 250.00 84.00" xmlns="http://www.w3.org/2000/svg" xmlns:xlink="http://www.w3.org/1999/xlink">
<g id="graph0" class="graph" transform="scale(1 1) rotate(0) translate(4 80)">
<title>MemoryController::define_structs</title>
<polygon fill="white" stroke="transparent" points="-4,4 -4,-80 246,-80 246,4 -4,4"/>
<!-- Node1 -->
<g id="node1" class="node">
<title>Node1</title>
<g id="a_node1"><a xlink:title=" ">
<polygon fill="#bfbfbf" stroke="black" points="0,-14 0,-44 125,-44 125,-14 0,-14"/>
<text text-anchor="start" x="8" y="-32" font-family="Helvetica,sans-Serif" font-size="10.00">MemoryController::define</text>
<text text-anchor="middle" x="62.5" y="-21" font-family="Helvetica,sans-Serif" font-size="10.00">_structs</text>
</a>
</g>
</g>
<!-- Node2 -->
<g id="node2" class="node">
<title>Node2</title>
<g id="a_node2"><a xlink:href="classScope.html#aff36e72e3ebf8936f2081713f8db9992" target="_top" xlink:title="brief int he actual scope and previous scopes for a variable">
<polygon fill="white" stroke="black" points="161,-38.5 161,-57.5 242,-57.5 242,-38.5 161,-38.5"/>
<text text-anchor="middle" x="201.5" y="-45.5" font-family="Helvetica,sans-Serif" font-size="10.00">Scope::Search</text>
</a>
</g>
</g>
<!-- Node1&#45;&gt;Node2 -->
<g id="edge1" class="edge">
<title>Node1&#45;&gt;Node2</title>
<path fill="none" stroke="midnightblue" d="M125.19,-37.56C133.77,-38.75 142.5,-39.96 150.82,-41.11"/>
<polygon fill="midnightblue" stroke="midnightblue" points="150.36,-44.58 160.74,-42.49 151.32,-37.65 150.36,-44.58"/>
</g>
<!-- Node3 -->
<g id="node3" class="node">
<title>Node3</title>
<g id="a_node3"><a xlink:href="classLlist.html#aa3c43d2b455ba74835342a64d4909ed8" target="_top" xlink:title="place a LNode in the first position">
<polygon fill="white" stroke="black" points="164.5,-0.5 164.5,-19.5 238.5,-19.5 238.5,-0.5 164.5,-0.5"/>
<text text-anchor="middle" x="201.5" y="-7.5" font-family="Helvetica,sans-Serif" font-size="10.00">Llist::setFirst</text>
</a>
</g>
</g>
<!-- Node1&#45;&gt;Node3 -->
<g id="edge3" class="edge">
<title>Node1&#45;&gt;Node3</title>
<path fill="none" stroke="midnightblue" d="M125.19,-20.44C134.89,-19.1 144.77,-17.73 154.05,-16.44"/>
<polygon fill="midnightblue" stroke="midnightblue" points="154.81,-19.87 164.23,-15.03 153.85,-12.94 154.81,-19.87"/>
</g>
<!-- Node2&#45;&gt;Node2 -->
<g id="edge2" class="edge">
<title>Node2&#45;&gt;Node2</title>
<path fill="none" stroke="midnightblue" d="M180.23,-57.76C169.88,-66.57 176.97,-76 201.5,-76 217.21,-76 225.77,-72.13 227.17,-67.03"/>
<polygon fill="midnightblue" stroke="midnightblue" points="230.22,-65.29 222.77,-57.76 223.89,-68.29 230.22,-65.29"/>
</g>
</g>
</svg>
