<?xml version="1.0" encoding="UTF-8" standalone="no"?>
<!DOCTYPE svg PUBLIC "-//W3C//DTD SVG 1.1//EN"
 "http://www.w3.org/Graphics/SVG/1.1/DTD/svg11.dtd">
<!-- Generated by graphviz version 2.47.1 (20210417.1919)
 -->
<!-- Title: Scope::getPreviousScope Pages: 1 -->
<svg width="423pt" height="65pt"
 viewBox="0.00 0.00 423.00 65.00" xmlns="http://www.w3.org/2000/svg" xmlns:xlink="http://www.w3.org/1999/xlink">
<g id="graph0" class="graph" transform="scale(1 1) rotate(0) translate(4 61)">
<title>Scope::getPreviousScope</title>
<polygon fill="white" stroke="transparent" points="-4,4 -4,-61 419,-61 419,4 -4,4"/>
<!-- Node1 -->
<g id="node1" class="node">
<title>Node1</title>
<g id="a_node1"><a xlink:title=" ">
<polygon fill="#bfbfbf" stroke="black" points="287,-0.5 287,-19.5 415,-19.5 415,-0.5 287,-0.5"/>
<text text-anchor="middle" x="351" y="-7.5" font-family="Helvetica,sans-Serif" font-size="10.00">Scope::getPreviousScope</text>
</a>
</g>
</g>
<!-- Node2 -->
<g id="node2" class="node">
<title>Node2</title>
<g id="a_node2"><a xlink:href="classScope.html#a148b2d8124ad1c29d8b62a3c2cdb1a51" target="_top" xlink:title=" ">
<polygon fill="white" stroke="black" points="173,-19.5 173,-38.5 251,-38.5 251,-19.5 173,-19.5"/>
<text text-anchor="middle" x="212" y="-26.5" font-family="Helvetica,sans-Serif" font-size="10.00">Scope::Delete</text>
</a>
</g>
</g>
<!-- Node1&#45;&gt;Node2 -->
<g id="edge1" class="edge">
<title>Node1&#45;&gt;Node2</title>
<path fill="none" stroke="midnightblue" d="M276.69,-20.17C267.82,-21.4 259.06,-22.61 251.01,-23.73"/>
<polygon fill="midnightblue" stroke="midnightblue" points="277.29,-23.62 286.71,-18.78 276.33,-16.68 277.29,-23.62"/>
</g>
<!-- Node3 -->
<g id="node3" class="node">
<title>Node3</title>
<g id="a_node3"><a xlink:href="classMemoryController.html#a09dd944c90a90b721b7f52addc6aa7ba" target="_top" xlink:title="Close the actual escope.">
<polygon fill="white" stroke="black" points="0,-0.5 0,-19.5 137,-19.5 137,-0.5 0,-0.5"/>
<text text-anchor="middle" x="68.5" y="-7.5" font-family="Helvetica,sans-Serif" font-size="10.00">MemoryController::Unscope</text>
</a>
</g>
</g>
<!-- Node1&#45;&gt;Node3 -->
<g id="edge4" class="edge">
<title>Node1&#45;&gt;Node3</title>
<path fill="none" stroke="midnightblue" d="M276.57,-10C233.53,-10 179.53,-10 137.47,-10"/>
<polygon fill="midnightblue" stroke="midnightblue" points="276.7,-13.5 286.7,-10 276.7,-6.5 276.7,-13.5"/>
</g>
<!-- Node2&#45;&gt;Node2 -->
<g id="edge2" class="edge">
<title>Node2&#45;&gt;Node2</title>
<path fill="none" stroke="midnightblue" d="M237.67,-48.03C236.27,-53.13 227.71,-57 212,-57 187.47,-57 180.38,-47.57 190.73,-38.76"/>
<polygon fill="midnightblue" stroke="midnightblue" points="240.72,-46.29 233.27,-38.76 234.39,-49.29 240.72,-46.29"/>
</g>
<!-- Node2&#45;&gt;Node3 -->
<g id="edge3" class="edge">
<title>Node2&#45;&gt;Node3</title>
<path fill="none" stroke="midnightblue" d="M162.63,-22.5C154.45,-21.41 145.83,-20.25 137.27,-19.1"/>
<polygon fill="midnightblue" stroke="midnightblue" points="162.33,-26 172.71,-23.86 163.26,-19.06 162.33,-26"/>
</g>
</g>
</svg>
