<?xml version="1.0" encoding="UTF-8" standalone="no"?>
<!DOCTYPE svg PUBLIC "-//W3C//DTD SVG 1.1//EN"
 "http://www.w3.org/Graphics/SVG/1.1/DTD/svg11.dtd">
<!-- Generated by graphviz version 2.47.1 (20210417.1919)
 -->
<!-- Title: Llist::LJson Pages: 1 -->
<svg width="316pt" height="65pt"
 viewBox="0.00 0.00 316.00 65.00" xmlns="http://www.w3.org/2000/svg" xmlns:xlink="http://www.w3.org/1999/xlink">
<g id="graph0" class="graph" transform="scale(1 1) rotate(0) translate(4 61)">
<title>Llist::LJson</title>
<polygon fill="white" stroke="transparent" points="-4,4 -4,-61 312,-61 312,4 -4,4"/>
<!-- Node1 -->
<g id="node1" class="node">
<title>Node1</title>
<g id="a_node1"><a xlink:title=" ">
<polygon fill="#bfbfbf" stroke="black" points="242,-0.5 242,-19.5 308,-19.5 308,-0.5 242,-0.5"/>
<text text-anchor="middle" x="275" y="-7.5" font-family="Helvetica,sans-Serif" font-size="10.00">Llist::LJson</text>
</a>
</g>
</g>
<!-- Node2 -->
<g id="node2" class="node">
<title>Node2</title>
<g id="a_node2"><a xlink:href="classScope.html#ab7e68bd73690095c5358f643fe606959" target="_top" xlink:title="Create a string with the info of the Scope.">
<polygon fill="white" stroke="black" points="120,-19.5 120,-38.5 206,-38.5 206,-19.5 120,-19.5"/>
<text text-anchor="middle" x="163" y="-26.5" font-family="Helvetica,sans-Serif" font-size="10.00">Scope::GetJson</text>
</a>
</g>
</g>
<!-- Node1&#45;&gt;Node2 -->
<g id="edge1" class="edge">
<title>Node1&#45;&gt;Node2</title>
<path fill="none" stroke="midnightblue" d="M231.88,-17.27C223.46,-18.73 214.61,-20.26 206.18,-21.71"/>
<polygon fill="midnightblue" stroke="midnightblue" points="232.63,-20.7 241.89,-15.55 231.44,-13.8 232.63,-20.7"/>
</g>
<!-- Node2&#45;&gt;Node2 -->
<g id="edge5" class="edge">
<title>Node2&#45;&gt;Node2</title>
<path fill="none" stroke="midnightblue" d="M183.74,-48.4C182.35,-53.31 175.44,-57 163,-57 143.09,-57 137.34,-47.57 145.74,-38.76"/>
<polygon fill="midnightblue" stroke="midnightblue" points="186.95,-46.98 180.26,-38.76 180.36,-49.35 186.95,-46.98"/>
</g>
<!-- Node3 -->
<g id="node3" class="node">
<title>Node3</title>
<g id="a_node3"><a xlink:href="classLNode.html#ae3ee65209772ae7cea01d820fb2c3fa3" target="_top" xlink:title=" ">
<polygon fill="white" stroke="black" points="0,-0.5 0,-19.5 84,-19.5 84,-0.5 0,-0.5"/>
<text text-anchor="middle" x="42" y="-7.5" font-family="Helvetica,sans-Serif" font-size="10.00">LNode::getJson</text>
</a>
</g>
</g>
<!-- Node2&#45;&gt;Node3 -->
<g id="edge2" class="edge">
<title>Node2&#45;&gt;Node3</title>
<path fill="none" stroke="midnightblue" d="M109.56,-20.63C101.12,-19.28 92.49,-17.9 84.35,-16.6"/>
<polygon fill="midnightblue" stroke="midnightblue" points="109.28,-24.13 119.71,-22.25 110.39,-17.21 109.28,-24.13"/>
</g>
<!-- Node3&#45;&gt;Node1 -->
<g id="edge4" class="edge">
<title>Node3&#45;&gt;Node1</title>
<path fill="none" stroke="midnightblue" d="M94.37,-10C139.48,-10 203.7,-10 241.88,-10"/>
<polygon fill="midnightblue" stroke="midnightblue" points="94.2,-6.5 84.2,-10 94.2,-13.5 94.2,-6.5"/>
</g>
<!-- Node3&#45;&gt;Node3 -->
<g id="edge3" class="edge">
<title>Node3&#45;&gt;Node3</title>
<path fill="none" stroke="midnightblue" d="M64.32,-29.03C63.1,-34.13 55.66,-38 42,-38 20.67,-38 14.51,-28.57 23.5,-19.76"/>
<polygon fill="midnightblue" stroke="midnightblue" points="67.55,-27.67 60.5,-19.76 61.07,-30.34 67.55,-27.67"/>
</g>
</g>
</svg>
