<?xml version="1.0" encoding="UTF-8" standalone="no"?>
<!DOCTYPE svg PUBLIC "-//W3C//DTD SVG 1.1//EN"
 "http://www.w3.org/Graphics/SVG/1.1/DTD/svg11.dtd">
<!-- Generated by graphviz version 2.47.1 (20210417.1919)
 -->
<!-- Title: Parser Pages: 1 -->
<svg width="211pt" height="1421pt"
 viewBox="0.00 0.00 210.50 1421.00" xmlns="http://www.w3.org/2000/svg" xmlns:xlink="http://www.w3.org/1999/xlink">
<g id="graph0" class="graph" transform="scale(1 1) rotate(0) translate(4 1417)">
<title>Parser</title>
<polygon fill="white" stroke="transparent" points="-4,4 -4,-1417 206.5,-1417 206.5,4 -4,4"/>
<!-- Node1 -->
<g id="node1" class="node">
<title>Node1</title>
<g id="a_node1"><a xlink:title=" ">
<polygon fill="#bfbfbf" stroke="black" points="0,-0.5 0,-156.5 113,-156.5 113,-0.5 0,-0.5"/>
<text text-anchor="middle" x="56.5" y="-144.5" font-family="Helvetica,sans-Serif" font-size="10.00">Parser</text>
<polyline fill="none" stroke="black" points="0,-137.5 113,-137.5 "/>
<text text-anchor="start" x="8" y="-125.5" font-family="Helvetica,sans-Serif" font-size="10.00">+ logg</text>
<text text-anchor="start" x="8" y="-114.5" font-family="Helvetica,sans-Serif" font-size="10.00">+ out</text>
<polyline fill="none" stroke="black" points="0,-107.5 113,-107.5 "/>
<text text-anchor="start" x="8" y="-95.5" font-family="Helvetica,sans-Serif" font-size="10.00">+ Parser()</text>
<text text-anchor="start" x="8" y="-84.5" font-family="Helvetica,sans-Serif" font-size="10.00">+ Define()</text>
<text text-anchor="start" x="8" y="-73.5" font-family="Helvetica,sans-Serif" font-size="10.00">+ Assign()</text>
<text text-anchor="start" x="8" y="-62.5" font-family="Helvetica,sans-Serif" font-size="10.00">+ Aux_Assign()</text>
<text text-anchor="start" x="8" y="-51.5" font-family="Helvetica,sans-Serif" font-size="10.00">+ Extract_instruction()</text>
<text text-anchor="start" x="8" y="-40.5" font-family="Helvetica,sans-Serif" font-size="10.00">+ Instruction_Aux()</text>
<text text-anchor="start" x="8" y="-29.5" font-family="Helvetica,sans-Serif" font-size="10.00">+ Generate_Json()</text>
<text text-anchor="start" x="8" y="-18.5" font-family="Helvetica,sans-Serif" font-size="10.00">+ get_Parser()</text>
<text text-anchor="start" x="8" y="-7.5" font-family="Helvetica,sans-Serif" font-size="10.00">+ GetLastScope()</text>
</a>
</g>
</g>
<!-- Node1&#45;&gt;Node1 -->
<g id="edge8" class="edge">
<title>Node1&#45;&gt;Node1</title>
<path fill="none" stroke="#404040" d="M113.03,-96.64C123.57,-94.41 131,-88.36 131,-78.5 131,-72.8 128.52,-68.37 124.38,-65.22"/>
<polygon fill="none" stroke="#404040" points="124.06,-65.08 116.97,-66.4 113.03,-60.36 120.12,-59.04 124.06,-65.08"/>
<text text-anchor="middle" x="143.5" y="-76" font-family="Helvetica,sans-Serif" font-size="10.00"> +self</text>
</g>
<!-- Node2 -->
<g id="node2" class="node">
<title>Node2</title>
<g id="a_node2"><a xlink:href="classMemoryController.html" target="_top" xlink:title=" ">
<polygon fill="white" stroke="black" points="2.5,-204.5 2.5,-492.5 110.5,-492.5 110.5,-204.5 2.5,-204.5"/>
<text text-anchor="middle" x="56.5" y="-480.5" font-family="Helvetica,sans-Serif" font-size="10.00">MemoryController</text>
<polyline fill="none" stroke="black" points="2.5,-473.5 110.5,-473.5 "/>
<text text-anchor="start" x="10.5" y="-461.5" font-family="Helvetica,sans-Serif" font-size="10.00">+ size</text>
<text text-anchor="start" x="10.5" y="-450.5" font-family="Helvetica,sans-Serif" font-size="10.00">&#45; ptr_start</text>
<text text-anchor="start" x="10.5" y="-439.5" font-family="Helvetica,sans-Serif" font-size="10.00">&#45; ptr_End</text>
<text text-anchor="start" x="10.5" y="-428.5" font-family="Helvetica,sans-Serif" font-size="10.00">&#45; ptr_actual</text>
<polyline fill="none" stroke="black" points="2.5,-421.5 110.5,-421.5 "/>
<text text-anchor="start" x="10.5" y="-409.5" font-family="Helvetica,sans-Serif" font-size="10.00">+ getPtrActual()</text>
<text text-anchor="start" x="10.5" y="-398.5" font-family="Helvetica,sans-Serif" font-size="10.00">+ operator new()</text>
<text text-anchor="start" x="10.5" y="-387.5" font-family="Helvetica,sans-Serif" font-size="10.00">+ operator delete()</text>
<text text-anchor="start" x="10.5" y="-376.5" font-family="Helvetica,sans-Serif" font-size="10.00">+ MemoryController()</text>
<text text-anchor="start" x="10.5" y="-365.5" font-family="Helvetica,sans-Serif" font-size="10.00">+ new_scope()</text>
<text text-anchor="start" x="10.5" y="-354.5" font-family="Helvetica,sans-Serif" font-size="10.00">+ define_ints()</text>
<text text-anchor="start" x="10.5" y="-343.5" font-family="Helvetica,sans-Serif" font-size="10.00">+ define_chars()</text>
<text text-anchor="start" x="10.5" y="-332.5" font-family="Helvetica,sans-Serif" font-size="10.00">+ define_floats()</text>
<text text-anchor="start" x="10.5" y="-321.5" font-family="Helvetica,sans-Serif" font-size="10.00">+ define_structs()</text>
<text text-anchor="start" x="10.5" y="-310.5" font-family="Helvetica,sans-Serif" font-size="10.00">+ define_references()</text>
<text text-anchor="start" x="10.5" y="-299.5" font-family="Helvetica,sans-Serif" font-size="10.00">+ define_longs()</text>
<text text-anchor="start" x="10.5" y="-288.5" font-family="Helvetica,sans-Serif" font-size="10.00">+ define_doubles()</text>
<text text-anchor="start" x="10.5" y="-277.5" font-family="Helvetica,sans-Serif" font-size="10.00">+ testing_scope()</text>
<text text-anchor="start" x="10.5" y="-266.5" font-family="Helvetica,sans-Serif" font-size="10.00">+ increment_ptr()</text>
<text text-anchor="start" x="10.5" y="-255.5" font-family="Helvetica,sans-Serif" font-size="10.00">+ getMainScope()</text>
<text text-anchor="start" x="10.5" y="-244.5" font-family="Helvetica,sans-Serif" font-size="10.00">+ search()</text>
<text text-anchor="start" x="10.5" y="-233.5" font-family="Helvetica,sans-Serif" font-size="10.00">+ Unscope()</text>
<text text-anchor="start" x="10.5" y="-222.5" font-family="Helvetica,sans-Serif" font-size="10.00">+ getActualScope()</text>
<text text-anchor="start" x="10.5" y="-211.5" font-family="Helvetica,sans-Serif" font-size="10.00">+ setActualScope()</text>
</a>
</g>
</g>
<!-- Node2&#45;&gt;Node1 -->
<g id="edge1" class="edge">
<title>Node2&#45;&gt;Node1</title>
<path fill="none" stroke="#404040" d="M56.5,-204.48C56.5,-192.39 56.5,-180.39 56.5,-168.9"/>
<polygon fill="none" stroke="#404040" points="56.5,-168.63 52.5,-162.63 56.5,-156.63 60.5,-162.63 56.5,-168.63"/>
<text text-anchor="middle" x="82" y="-178" font-family="Helvetica,sans-Serif" font-size="10.00"> +Controller</text>
</g>
<!-- Node2&#45;&gt;Node2 -->
<g id="edge2" class="edge">
<title>Node2&#45;&gt;Node2</title>
<path fill="none" stroke="#404040" d="M110.51,-378.6C121.03,-375.1 128.5,-365.07 128.5,-348.5 128.5,-338.14 125.58,-330.34 120.82,-325.09"/>
<polygon fill="none" stroke="#404040" points="120.58,-324.93 113.37,-325.02 110.51,-318.4 117.72,-318.31 120.58,-324.93"/>
<text text-anchor="middle" x="139.5" y="-346" font-family="Helvetica,sans-Serif" font-size="10.00"> &#45;self</text>
</g>
<!-- Node3 -->
<g id="node3" class="node">
<title>Node3</title>
<g id="a_node3"><a xlink:href="classScope.html" target="_top" xlink:title=" ">
<polygon fill="white" stroke="black" points="1.5,-551.5 1.5,-883.5 111.5,-883.5 111.5,-551.5 1.5,-551.5"/>
<text text-anchor="middle" x="56.5" y="-871.5" font-family="Helvetica,sans-Serif" font-size="10.00">Scope</text>
<polyline fill="none" stroke="black" points="1.5,-864.5 111.5,-864.5 "/>
<text text-anchor="start" x="9.5" y="-852.5" font-family="Helvetica,sans-Serif" font-size="10.00">&#45; type</text>
<polyline fill="none" stroke="black" points="1.5,-845.5 111.5,-845.5 "/>
<text text-anchor="start" x="9.5" y="-833.5" font-family="Helvetica,sans-Serif" font-size="10.00">+ getType()</text>
<text text-anchor="start" x="9.5" y="-822.5" font-family="Helvetica,sans-Serif" font-size="10.00">+ getId()</text>
<text text-anchor="start" x="9.5" y="-811.5" font-family="Helvetica,sans-Serif" font-size="10.00">+ setType()</text>
<text text-anchor="start" x="9.5" y="-800.5" font-family="Helvetica,sans-Serif" font-size="10.00">+ setId()</text>
<text text-anchor="start" x="9.5" y="-789.5" font-family="Helvetica,sans-Serif" font-size="10.00">+ setInts()</text>
<text text-anchor="start" x="9.5" y="-778.5" font-family="Helvetica,sans-Serif" font-size="10.00">+ setChars()</text>
<text text-anchor="start" x="9.5" y="-767.5" font-family="Helvetica,sans-Serif" font-size="10.00">+ setFloats()</text>
<text text-anchor="start" x="9.5" y="-756.5" font-family="Helvetica,sans-Serif" font-size="10.00">+ setStructs()</text>
<text text-anchor="start" x="9.5" y="-745.5" font-family="Helvetica,sans-Serif" font-size="10.00">+ setReferences()</text>
<text text-anchor="start" x="9.5" y="-734.5" font-family="Helvetica,sans-Serif" font-size="10.00">+ setLongs()</text>
<text text-anchor="start" x="9.5" y="-723.5" font-family="Helvetica,sans-Serif" font-size="10.00">+ setDoubles()</text>
<text text-anchor="start" x="9.5" y="-712.5" font-family="Helvetica,sans-Serif" font-size="10.00">+ getInts()</text>
<text text-anchor="start" x="9.5" y="-701.5" font-family="Helvetica,sans-Serif" font-size="10.00">+ getChars()</text>
<text text-anchor="start" x="9.5" y="-690.5" font-family="Helvetica,sans-Serif" font-size="10.00">+ getFloats()</text>
<text text-anchor="start" x="9.5" y="-679.5" font-family="Helvetica,sans-Serif" font-size="10.00">+ getStructs()</text>
<text text-anchor="start" x="9.5" y="-668.5" font-family="Helvetica,sans-Serif" font-size="10.00">+ getReferences()</text>
<text text-anchor="start" x="9.5" y="-657.5" font-family="Helvetica,sans-Serif" font-size="10.00">+ getLongs()</text>
<text text-anchor="start" x="9.5" y="-646.5" font-family="Helvetica,sans-Serif" font-size="10.00">+ getDoubles()</text>
<text text-anchor="start" x="9.5" y="-635.5" font-family="Helvetica,sans-Serif" font-size="10.00">+ getNextScope()</text>
<text text-anchor="start" x="9.5" y="-624.5" font-family="Helvetica,sans-Serif" font-size="10.00">+ setNextScope()</text>
<text text-anchor="start" x="9.5" y="-613.5" font-family="Helvetica,sans-Serif" font-size="10.00">+ getPreviousScope()</text>
<text text-anchor="start" x="9.5" y="-602.5" font-family="Helvetica,sans-Serif" font-size="10.00">+ setPreviousScope()</text>
<text text-anchor="start" x="9.5" y="-591.5" font-family="Helvetica,sans-Serif" font-size="10.00">+ Scope()</text>
<text text-anchor="start" x="9.5" y="-580.5" font-family="Helvetica,sans-Serif" font-size="10.00">+ Search()</text>
<text text-anchor="start" x="9.5" y="-569.5" font-family="Helvetica,sans-Serif" font-size="10.00">+ GetJson()</text>
<text text-anchor="start" x="9.5" y="-558.5" font-family="Helvetica,sans-Serif" font-size="10.00">+ Delete()</text>
</a>
</g>
</g>
<!-- Node3&#45;&gt;Node2 -->
<g id="edge3" class="edge">
<title>Node3&#45;&gt;Node2</title>
<path fill="none" stroke="#404040" d="M56.5,-551.25C56.5,-535.79 56.5,-520.15 56.5,-504.78"/>
<polygon fill="none" stroke="#404040" points="56.5,-504.53 52.5,-498.53 56.5,-492.53 60.5,-498.53 56.5,-504.53"/>
<text text-anchor="middle" x="90" y="-525" font-family="Helvetica,sans-Serif" font-size="10.00"> &#45;Actual_Scope</text>
<text text-anchor="middle" x="90" y="-514" font-family="Helvetica,sans-Serif" font-size="10.00">&#45;Main_Scope</text>
</g>
<!-- Node3&#45;&gt;Node3 -->
<g id="edge7" class="edge">
<title>Node3&#45;&gt;Node3</title>
<path fill="none" stroke="#404040" d="M111.57,-752.13C122.07,-747.99 129.5,-736.45 129.5,-717.5 129.5,-705.36 126.45,-696.26 121.5,-690.2"/>
<polygon fill="none" stroke="#404040" points="121.22,-690 114.02,-689.65 111.57,-682.87 118.78,-683.21 121.22,-690"/>
<text text-anchor="middle" x="166" y="-720.5" font-family="Helvetica,sans-Serif" font-size="10.00"> &#45;Next_Scope</text>
<text text-anchor="middle" x="166" y="-709.5" font-family="Helvetica,sans-Serif" font-size="10.00">&#45;Previous_Scope</text>
</g>
<!-- Node4 -->
<g id="node4" class="node">
<title>Node4</title>
<g id="a_node4"><a xlink:href="classLlist.html" target="_top" xlink:title=" ">
<polygon fill="white" stroke="black" points="22.5,-1008.5 22.5,-1120.5 90.5,-1120.5 90.5,-1008.5 22.5,-1008.5"/>
<text text-anchor="middle" x="56.5" y="-1108.5" font-family="Helvetica,sans-Serif" font-size="10.00">Llist</text>
<polyline fill="none" stroke="black" points="22.5,-1101.5 90.5,-1101.5 "/>
<text text-anchor="middle" x="56.5" y="-1089.5" font-family="Helvetica,sans-Serif" font-size="10.00"> </text>
<polyline fill="none" stroke="black" points="22.5,-1082.5 90.5,-1082.5 "/>
<text text-anchor="start" x="30.5" y="-1070.5" font-family="Helvetica,sans-Serif" font-size="10.00">+ Llist()</text>
<text text-anchor="start" x="30.5" y="-1059.5" font-family="Helvetica,sans-Serif" font-size="10.00">+ getFirst()</text>
<text text-anchor="start" x="30.5" y="-1048.5" font-family="Helvetica,sans-Serif" font-size="10.00">+ setFirst()</text>
<text text-anchor="start" x="30.5" y="-1037.5" font-family="Helvetica,sans-Serif" font-size="10.00">+ search()</text>
<text text-anchor="start" x="30.5" y="-1026.5" font-family="Helvetica,sans-Serif" font-size="10.00">+ getNode()</text>
<text text-anchor="start" x="30.5" y="-1015.5" font-family="Helvetica,sans-Serif" font-size="10.00">+ LJson()</text>
</a>
</g>
</g>
<!-- Node4&#45;&gt;Node3 -->
<g id="edge4" class="edge">
<title>Node4&#45;&gt;Node3</title>
<path fill="none" stroke="#404040" d="M56.5,-1008.45C56.5,-977.46 56.5,-936.83 56.5,-895.84"/>
<polygon fill="none" stroke="#404040" points="56.5,-895.7 52.5,-889.7 56.5,-883.7 60.5,-889.7 56.5,-895.7"/>
<text text-anchor="middle" x="81" y="-982" font-family="Helvetica,sans-Serif" font-size="10.00"> &#45;chars</text>
<text text-anchor="middle" x="81" y="-971" font-family="Helvetica,sans-Serif" font-size="10.00">&#45;doubles</text>
<text text-anchor="middle" x="81" y="-960" font-family="Helvetica,sans-Serif" font-size="10.00">&#45;floats</text>
<text text-anchor="middle" x="81" y="-949" font-family="Helvetica,sans-Serif" font-size="10.00">&#45;id</text>
<text text-anchor="middle" x="81" y="-938" font-family="Helvetica,sans-Serif" font-size="10.00">&#45;ints</text>
<text text-anchor="middle" x="81" y="-927" font-family="Helvetica,sans-Serif" font-size="10.00">&#45;longs</text>
<text text-anchor="middle" x="81" y="-916" font-family="Helvetica,sans-Serif" font-size="10.00">&#45;references</text>
<text text-anchor="middle" x="81" y="-905" font-family="Helvetica,sans-Serif" font-size="10.00">&#45;structs</text>
</g>
<!-- Node5 -->
<g id="node5" class="node">
<title>Node5</title>
<g id="a_node5"><a xlink:href="classLNode.html" target="_top" xlink:title=" ">
<polygon fill="white" stroke="black" points="8.5,-1168.5 8.5,-1412.5 104.5,-1412.5 104.5,-1168.5 8.5,-1168.5"/>
<text text-anchor="middle" x="56.5" y="-1400.5" font-family="Helvetica,sans-Serif" font-size="10.00">LNode</text>
<polyline fill="none" stroke="black" points="8.5,-1393.5 104.5,-1393.5 "/>
<text text-anchor="start" x="16.5" y="-1381.5" font-family="Helvetica,sans-Serif" font-size="10.00">&#45; id</text>
<text text-anchor="start" x="16.5" y="-1370.5" font-family="Helvetica,sans-Serif" font-size="10.00">&#45; references</text>
<text text-anchor="start" x="16.5" y="-1359.5" font-family="Helvetica,sans-Serif" font-size="10.00">&#45; value</text>
<text text-anchor="start" x="16.5" y="-1348.5" font-family="Helvetica,sans-Serif" font-size="10.00">&#45; type_string</text>
<polyline fill="none" stroke="black" points="8.5,-1341.5 104.5,-1341.5 "/>
<text text-anchor="start" x="16.5" y="-1329.5" font-family="Helvetica,sans-Serif" font-size="10.00">+ LNode()</text>
<text text-anchor="start" x="16.5" y="-1318.5" font-family="Helvetica,sans-Serif" font-size="10.00">+ getId()</text>
<text text-anchor="start" x="16.5" y="-1307.5" font-family="Helvetica,sans-Serif" font-size="10.00">+ setId()</text>
<text text-anchor="start" x="16.5" y="-1296.5" font-family="Helvetica,sans-Serif" font-size="10.00">+ getReferences()</text>
<text text-anchor="start" x="16.5" y="-1285.5" font-family="Helvetica,sans-Serif" font-size="10.00">+ setReferences()</text>
<text text-anchor="start" x="16.5" y="-1274.5" font-family="Helvetica,sans-Serif" font-size="10.00">+ getValue()</text>
<text text-anchor="start" x="16.5" y="-1263.5" font-family="Helvetica,sans-Serif" font-size="10.00">+ setValue()</text>
<text text-anchor="start" x="16.5" y="-1252.5" font-family="Helvetica,sans-Serif" font-size="10.00">+ getNext()</text>
<text text-anchor="start" x="16.5" y="-1241.5" font-family="Helvetica,sans-Serif" font-size="10.00">+ setNext()</text>
<text text-anchor="start" x="16.5" y="-1230.5" font-family="Helvetica,sans-Serif" font-size="10.00">+ search()</text>
<text text-anchor="start" x="16.5" y="-1219.5" font-family="Helvetica,sans-Serif" font-size="10.00">+ getTypeString()</text>
<text text-anchor="start" x="16.5" y="-1208.5" font-family="Helvetica,sans-Serif" font-size="10.00">+ setTypeString()</text>
<text text-anchor="start" x="16.5" y="-1197.5" font-family="Helvetica,sans-Serif" font-size="10.00">+ getJson()</text>
<text text-anchor="start" x="16.5" y="-1186.5" font-family="Helvetica,sans-Serif" font-size="10.00">+ operator new()</text>
<text text-anchor="start" x="16.5" y="-1175.5" font-family="Helvetica,sans-Serif" font-size="10.00">+ operator delete()</text>
</a>
</g>
</g>
<!-- Node5&#45;&gt;Node4 -->
<g id="edge5" class="edge">
<title>Node5&#45;&gt;Node4</title>
<path fill="none" stroke="#404040" d="M56.5,-1168.32C56.5,-1156.06 56.5,-1143.94 56.5,-1132.57"/>
<polygon fill="none" stroke="#404040" points="56.5,-1132.54 52.5,-1126.54 56.5,-1120.54 60.5,-1126.54 56.5,-1132.54"/>
<text text-anchor="middle" x="69.5" y="-1142" font-family="Helvetica,sans-Serif" font-size="10.00"> &#45;First</text>
</g>
<!-- Node5&#45;&gt;Node5 -->
<g id="edge6" class="edge">
<title>Node5&#45;&gt;Node5</title>
<path fill="none" stroke="#404040" d="M104.55,-1317.07C114.96,-1314.47 122.5,-1305.61 122.5,-1290.5 122.5,-1281.29 119.7,-1274.4 115.16,-1269.84"/>
<polygon fill="none" stroke="#404040" points="115.04,-1269.78 107.85,-1270.35 104.55,-1263.93 111.74,-1263.36 115.04,-1269.78"/>
<text text-anchor="middle" x="135" y="-1288" font-family="Helvetica,sans-Serif" font-size="10.00"> &#45;next</text>
</g>
</g>
</svg>
