<?xml version="1.0" encoding="UTF-8" standalone="no"?>
<!DOCTYPE svg PUBLIC "-//W3C//DTD SVG 1.1//EN"
 "http://www.w3.org/Graphics/SVG/1.1/DTD/svg11.dtd">
<!-- Generated by graphviz version 2.47.1 (20210417.1919)
 -->
<!-- Title: LNode::getJson Pages: 1 -->
<svg width="365pt" height="103pt"
 viewBox="0.00 0.00 365.00 103.00" xmlns="http://www.w3.org/2000/svg" xmlns:xlink="http://www.w3.org/1999/xlink">
<g id="graph0" class="graph" transform="scale(1 1) rotate(0) translate(4 99)">
<title>LNode::getJson</title>
<polygon fill="white" stroke="transparent" points="-4,4 -4,-99 361,-99 361,4 -4,4"/>
<!-- Node1 -->
<g id="node1" class="node">
<title>Node1</title>
<g id="a_node1"><a xlink:title=" ">
<polygon fill="#bfbfbf" stroke="black" points="0,-19.5 0,-38.5 84,-38.5 84,-19.5 0,-19.5"/>
<text text-anchor="middle" x="42" y="-26.5" font-family="Helvetica,sans-Serif" font-size="10.00">LNode::getJson</text>
</a>
</g>
</g>
<!-- Node1&#45;&gt;Node1 -->
<g id="edge1" class="edge">
<title>Node1&#45;&gt;Node1</title>
<path fill="none" stroke="midnightblue" d="M23.2,-38.76C14.05,-47.57 20.32,-57 42,-57 55.89,-57 63.46,-53.13 64.69,-48.03"/>
<polygon fill="midnightblue" stroke="midnightblue" points="67.9,-46.62 60.8,-38.76 61.44,-49.33 67.9,-46.62"/>
</g>
<!-- Node2 -->
<g id="node2" class="node">
<title>Node2</title>
<g id="a_node2"><a xlink:href="classScope.html#ab7e68bd73690095c5358f643fe606959" target="_top" xlink:title="Create a string with the info of the Scope.">
<polygon fill="white" stroke="black" points="121.5,-57.5 121.5,-76.5 207.5,-76.5 207.5,-57.5 121.5,-57.5"/>
<text text-anchor="middle" x="164.5" y="-64.5" font-family="Helvetica,sans-Serif" font-size="10.00">Scope::GetJson</text>
</a>
</g>
</g>
<!-- Node1&#45;&gt;Node2 -->
<g id="edge2" class="edge">
<title>Node1&#45;&gt;Node2</title>
<path fill="none" stroke="midnightblue" d="M73.41,-38.59C88.53,-43.36 107.02,-49.19 123.3,-54.32"/>
<polygon fill="midnightblue" stroke="midnightblue" points="122.51,-57.74 133.1,-57.41 124.62,-51.07 122.51,-57.74"/>
</g>
<!-- Node5 -->
<g id="node5" class="node">
<title>Node5</title>
<g id="a_node5"><a xlink:href="classLNode.html#a2b94043203b531a2ca1a38f22a24f9a4" target="_top" xlink:title=" ">
<polygon fill="white" stroke="black" points="120,-19.5 120,-38.5 209,-38.5 209,-19.5 120,-19.5"/>
<text text-anchor="middle" x="164.5" y="-26.5" font-family="Helvetica,sans-Serif" font-size="10.00">LNode::getValue</text>
</a>
</g>
</g>
<!-- Node1&#45;&gt;Node5 -->
<g id="edge7" class="edge">
<title>Node1&#45;&gt;Node5</title>
<path fill="none" stroke="midnightblue" d="M84.13,-29C92.28,-29 100.94,-29 109.44,-29"/>
<polygon fill="midnightblue" stroke="midnightblue" points="109.67,-32.5 119.67,-29 109.67,-25.5 109.67,-32.5"/>
</g>
<!-- Node2&#45;&gt;Node2 -->
<g id="edge3" class="edge">
<title>Node2&#45;&gt;Node2</title>
<path fill="none" stroke="midnightblue" d="M145.7,-76.76C136.55,-85.57 142.82,-95 164.5,-95 178.39,-95 185.96,-91.13 187.19,-86.03"/>
<polygon fill="midnightblue" stroke="midnightblue" points="190.4,-84.62 183.3,-76.76 183.94,-87.33 190.4,-84.62"/>
</g>
<!-- Node3 -->
<g id="node3" class="node">
<title>Node3</title>
<g id="a_node3"><a xlink:href="classScope.html#a2a3d51cd40fd9ea8d183aa311c08c9f5" target="_top" xlink:title=" ">
<polygon fill="white" stroke="black" points="245,-57.5 245,-76.5 357,-76.5 357,-57.5 245,-57.5"/>
<text text-anchor="middle" x="301" y="-64.5" font-family="Helvetica,sans-Serif" font-size="10.00">Scope::getNextScope</text>
</a>
</g>
</g>
<!-- Node2&#45;&gt;Node3 -->
<g id="edge4" class="edge">
<title>Node2&#45;&gt;Node3</title>
<path fill="none" stroke="midnightblue" d="M207.69,-67C216.2,-67 225.33,-67 234.42,-67"/>
<polygon fill="midnightblue" stroke="midnightblue" points="234.63,-70.5 244.63,-67 234.63,-63.5 234.63,-70.5"/>
</g>
<!-- Node4 -->
<g id="node4" class="node">
<title>Node4</title>
<g id="a_node4"><a xlink:href="classLlist.html#a19d60464af021d658fed2696e7940f19" target="_top" xlink:title=" ">
<polygon fill="white" stroke="black" points="268,-0.5 268,-19.5 334,-19.5 334,-0.5 268,-0.5"/>
<text text-anchor="middle" x="301" y="-7.5" font-family="Helvetica,sans-Serif" font-size="10.00">Llist::LJson</text>
</a>
</g>
</g>
<!-- Node2&#45;&gt;Node4 -->
<g id="edge5" class="edge">
<title>Node2&#45;&gt;Node4</title>
<path fill="none" stroke="midnightblue" d="M188.01,-57.46C209.93,-48.17 243.45,-33.96 268.11,-23.51"/>
<polygon fill="midnightblue" stroke="midnightblue" points="269.57,-26.7 277.41,-19.57 266.84,-20.25 269.57,-26.7"/>
</g>
<!-- Node4&#45;&gt;Node1 -->
<g id="edge6" class="edge">
<title>Node4&#45;&gt;Node1</title>
<path fill="none" stroke="midnightblue" d="M267.99,-7.68C231.89,-5.6 171.5,-3.74 120,-10 108.16,-11.44 95.52,-14.08 83.97,-16.94"/>
<polygon fill="midnightblue" stroke="midnightblue" points="82.95,-13.59 74.15,-19.49 84.71,-20.37 82.95,-13.59"/>
</g>
</g>
</svg>
