<?xml version="1.0" encoding="UTF-8" standalone="no"?>
<!DOCTYPE svg PUBLIC "-//W3C//DTD SVG 1.1//EN"
 "http://www.w3.org/Graphics/SVG/1.1/DTD/svg11.dtd">
<!-- Generated by graphviz version 2.47.1 (20210417.1919)
 -->
<!-- Title: MemoryController::search Pages: 1 -->
<svg width="253pt" height="84pt"
 viewBox="0.00 0.00 253.00 84.00" xmlns="http://www.w3.org/2000/svg" xmlns:xlink="http://www.w3.org/1999/xlink">
<g id="graph0" class="graph" transform="scale(1 1) rotate(0) translate(4 80)">
<title>MemoryController::search</title>
<polygon fill="white" stroke="transparent" points="-4,4 -4,-80 249,-80 249,4 -4,4"/>
<!-- Node1 -->
<g id="node1" class="node">
<title>Node1</title>
<g id="a_node1"><a xlink:title="search for a Variable in the availables scopes">
<polygon fill="#bfbfbf" stroke="black" points="0,-28.5 0,-47.5 128,-47.5 128,-28.5 0,-28.5"/>
<text text-anchor="middle" x="64" y="-35.5" font-family="Helvetica,sans-Serif" font-size="10.00">MemoryController::search</text>
</a>
</g>
</g>
<!-- Node2 -->
<g id="node2" class="node">
<title>Node2</title>
<g id="a_node2"><a xlink:href="classLlist.html#a7a7b59fee1d4635d6122049828560411" target="_top" xlink:title="Get the Node wher a Tag was founded.">
<polygon fill="white" stroke="black" points="166,-56.5 166,-75.5 243,-75.5 243,-56.5 166,-56.5"/>
<text text-anchor="middle" x="204.5" y="-63.5" font-family="Helvetica,sans-Serif" font-size="10.00">Llist::getNode</text>
</a>
</g>
</g>
<!-- Node1&#45;&gt;Node2 -->
<g id="edge1" class="edge">
<title>Node1&#45;&gt;Node2</title>
<path fill="none" stroke="midnightblue" d="M112.28,-47.56C126.28,-50.39 141.61,-53.49 155.65,-56.33"/>
<polygon fill="midnightblue" stroke="midnightblue" points="155.1,-59.79 165.6,-58.34 156.49,-52.93 155.1,-59.79"/>
</g>
<!-- Node3 -->
<g id="node3" class="node">
<title>Node3</title>
<g id="a_node3"><a xlink:href="classScope.html#aff36e72e3ebf8936f2081713f8db9992" target="_top" xlink:title="brief int he actual scope and previous scopes for a variable">
<polygon fill="white" stroke="black" points="164,-0.5 164,-19.5 245,-19.5 245,-0.5 164,-0.5"/>
<text text-anchor="middle" x="204.5" y="-7.5" font-family="Helvetica,sans-Serif" font-size="10.00">Scope::Search</text>
</a>
</g>
</g>
<!-- Node1&#45;&gt;Node3 -->
<g id="edge2" class="edge">
<title>Node1&#45;&gt;Node3</title>
<path fill="none" stroke="midnightblue" d="M112.28,-28.44C125.64,-25.74 140.22,-22.79 153.73,-20.06"/>
<polygon fill="midnightblue" stroke="midnightblue" points="154.7,-23.44 163.81,-18.02 153.31,-16.58 154.7,-23.44"/>
</g>
<!-- Node3&#45;&gt;Node3 -->
<g id="edge3" class="edge">
<title>Node3&#45;&gt;Node3</title>
<path fill="none" stroke="midnightblue" d="M182.92,-19.76C172.42,-28.57 179.62,-38 204.5,-38 220.44,-38 229.12,-34.13 230.54,-29.03"/>
<polygon fill="midnightblue" stroke="midnightblue" points="233.57,-27.25 226.08,-19.76 227.26,-30.29 233.57,-27.25"/>
</g>
</g>
</svg>
