<?xml version="1.0" encoding="UTF-8" standalone="no"?>
<!DOCTYPE svg PUBLIC "-//W3C//DTD SVG 1.1//EN"
 "http://www.w3.org/Graphics/SVG/1.1/DTD/svg11.dtd">
<!-- Generated by graphviz version 2.47.1 (20210417.1919)
 -->
<!-- Title: LNode::getReferences Pages: 1 -->
<svg width="261pt" height="66pt"
 viewBox="0.00 0.00 261.00 66.00" xmlns="http://www.w3.org/2000/svg" xmlns:xlink="http://www.w3.org/1999/xlink">
<g id="graph0" class="graph" transform="scale(1 1) rotate(0) translate(4 62)">
<title>LNode::getReferences</title>
<polygon fill="white" stroke="transparent" points="-4,4 -4,-62 257,-62 257,4 -4,4"/>
<!-- Node1 -->
<g id="node1" class="node">
<title>Node1</title>
<g id="a_node1"><a xlink:title=" ">
<polygon fill="#bfbfbf" stroke="black" points="140,-19.5 140,-38.5 253,-38.5 253,-19.5 140,-19.5"/>
<text text-anchor="middle" x="196.5" y="-26.5" font-family="Helvetica,sans-Serif" font-size="10.00">LNode::getReferences</text>
</a>
</g>
</g>
<!-- Node2 -->
<g id="node2" class="node">
<title>Node2</title>
<g id="a_node2"><a xlink:href="classParser.html#ad548d6c7d52e8147b3c2067b2696c681" target="_top" xlink:title="function to assign a value to a variable by it tag">
<polygon fill="white" stroke="black" points="11.5,-38.5 11.5,-57.5 92.5,-57.5 92.5,-38.5 11.5,-38.5"/>
<text text-anchor="middle" x="52" y="-45.5" font-family="Helvetica,sans-Serif" font-size="10.00">Parser::Assign</text>
</a>
</g>
</g>
<!-- Node1&#45;&gt;Node2 -->
<g id="edge1" class="edge">
<title>Node1&#45;&gt;Node2</title>
<path fill="none" stroke="midnightblue" d="M129.89,-37.75C117.19,-39.44 104.25,-41.17 92.7,-42.71"/>
<polygon fill="midnightblue" stroke="midnightblue" points="130.55,-41.19 140,-36.4 129.62,-34.25 130.55,-41.19"/>
</g>
<!-- Node3 -->
<g id="node3" class="node">
<title>Node3</title>
<g id="a_node3"><a xlink:href="classParser.html#aa515a5cb14d30596b5b280b977fa79d4" target="_top" xlink:title="get the LNode of a objet property or a variable">
<polygon fill="white" stroke="black" points="0,-0.5 0,-19.5 104,-19.5 104,-0.5 0,-0.5"/>
<text text-anchor="middle" x="52" y="-7.5" font-family="Helvetica,sans-Serif" font-size="10.00">Parser::Aux_Assign</text>
</a>
</g>
</g>
<!-- Node1&#45;&gt;Node3 -->
<g id="edge2" class="edge">
<title>Node1&#45;&gt;Node3</title>
<path fill="none" stroke="midnightblue" d="M130,-20.27C121.41,-19.12 112.7,-17.96 104.39,-16.85"/>
<polygon fill="midnightblue" stroke="midnightblue" points="129.62,-23.75 140,-21.6 130.55,-16.81 129.62,-23.75"/>
</g>
</g>
</svg>
