<?xml version="1.0" encoding="UTF-8" standalone="no"?>
<!DOCTYPE svg PUBLIC "-//W3C//DTD SVG 1.1//EN"
 "http://www.w3.org/Graphics/SVG/1.1/DTD/svg11.dtd">
<!-- Generated by graphviz version 2.47.1 (20210417.1919)
 -->
<!-- Title: LNode::getTypeString Pages: 1 -->
<svg width="273pt" height="66pt"
 viewBox="0.00 0.00 273.00 66.00" xmlns="http://www.w3.org/2000/svg" xmlns:xlink="http://www.w3.org/1999/xlink">
<g id="graph0" class="graph" transform="scale(1 1) rotate(0) translate(4 62)">
<title>LNode::getTypeString</title>
<polygon fill="white" stroke="transparent" points="-4,4 -4,-62 269,-62 269,4 -4,4"/>
<!-- Node1 -->
<g id="node1" class="node">
<title>Node1</title>
<g id="a_node1"><a xlink:title=" ">
<polygon fill="#bfbfbf" stroke="black" points="155,-19.5 155,-38.5 265,-38.5 265,-19.5 155,-19.5"/>
<text text-anchor="middle" x="210" y="-26.5" font-family="Helvetica,sans-Serif" font-size="10.00">LNode::getTypeString</text>
</a>
</g>
</g>
<!-- Node2 -->
<g id="node2" class="node">
<title>Node2</title>
<g id="a_node2"><a xlink:href="classParser.html#ad548d6c7d52e8147b3c2067b2696c681" target="_top" xlink:title="function to assign a value to a variable by it tag">
<polygon fill="white" stroke="black" points="19,-38.5 19,-57.5 100,-57.5 100,-38.5 19,-38.5"/>
<text text-anchor="middle" x="59.5" y="-45.5" font-family="Helvetica,sans-Serif" font-size="10.00">Parser::Assign</text>
</a>
</g>
</g>
<!-- Node1&#45;&gt;Node2 -->
<g id="edge1" class="edge">
<title>Node1&#45;&gt;Node2</title>
<path fill="none" stroke="midnightblue" d="M144.65,-37.23C129.57,-39.16 113.93,-41.16 100.29,-42.91"/>
<polygon fill="midnightblue" stroke="midnightblue" points="145.49,-40.65 154.97,-35.91 144.6,-33.71 145.49,-40.65"/>
</g>
<!-- Node3 -->
<g id="node3" class="node">
<title>Node3</title>
<g id="a_node3"><a xlink:href="classParser.html#aac62076a1f7b18fa223bf0f04d5e4d8c" target="_top" xlink:title=" ">
<polygon fill="white" stroke="black" points="0,-0.5 0,-19.5 119,-19.5 119,-0.5 0,-0.5"/>
<text text-anchor="middle" x="59.5" y="-7.5" font-family="Helvetica,sans-Serif" font-size="10.00">Parser::Instruction_Aux</text>
</a>
</g>
</g>
<!-- Node1&#45;&gt;Node3 -->
<g id="edge2" class="edge">
<title>Node1&#45;&gt;Node3</title>
<path fill="none" stroke="midnightblue" d="M144.96,-20.81C136.33,-19.7 127.52,-18.58 119,-17.49"/>
<polygon fill="midnightblue" stroke="midnightblue" points="144.6,-24.29 154.97,-22.09 145.49,-17.35 144.6,-24.29"/>
</g>
</g>
</svg>
