<?xml version="1.0" encoding="UTF-8" standalone="no"?>
<!DOCTYPE svg PUBLIC "-//W3C//DTD SVG 1.1//EN"
 "http://www.w3.org/Graphics/SVG/1.1/DTD/svg11.dtd">
<!-- Generated by graphviz version 2.47.1 (20210417.1919)
 -->
<!-- Title: Scope::Search Pages: 1 -->
<svg width="271pt" height="438pt"
 viewBox="0.00 0.00 271.00 438.00" xmlns="http://www.w3.org/2000/svg" xmlns:xlink="http://www.w3.org/1999/xlink">
<g id="graph0" class="graph" transform="scale(1 1) rotate(0) translate(4 434)">
<title>Scope::Search</title>
<polygon fill="white" stroke="transparent" points="-4,4 -4,-434 267,-434 267,4 -4,4"/>
<!-- Node1 -->
<g id="node1" class="node">
<title>Node1</title>
<g id="a_node1"><a xlink:title="brief int he actual scope and previous scopes for a variable">
<polygon fill="#bfbfbf" stroke="black" points="182,-208.5 182,-227.5 263,-227.5 263,-208.5 182,-208.5"/>
<text text-anchor="middle" x="222.5" y="-215.5" font-family="Helvetica,sans-Serif" font-size="10.00">Scope::Search</text>
</a>
</g>
</g>
<!-- Node1&#45;&gt;Node1 -->
<g id="edge10" class="edge">
<title>Node1&#45;&gt;Node1</title>
<path fill="none" stroke="midnightblue" d="M250.13,-236.65C248.97,-241.94 239.76,-246 222.5,-246 196.2,-246 188.59,-236.57 199.69,-227.76"/>
<polygon fill="midnightblue" stroke="midnightblue" points="253.15,-234.89 245.31,-227.76 246.99,-238.22 253.15,-234.89"/>
</g>
<!-- Node2 -->
<g id="node2" class="node">
<title>Node2</title>
<g id="a_node2"><a xlink:href="classParser.html#ad548d6c7d52e8147b3c2067b2696c681" target="_top" xlink:title="function to assign a value to a variable by it tag">
<polygon fill="white" stroke="black" points="32.5,-410.5 32.5,-429.5 113.5,-429.5 113.5,-410.5 32.5,-410.5"/>
<text text-anchor="middle" x="73" y="-417.5" font-family="Helvetica,sans-Serif" font-size="10.00">Parser::Assign</text>
</a>
</g>
</g>
<!-- Node1&#45;&gt;Node2 -->
<g id="edge1" class="edge">
<title>Node1&#45;&gt;Node2</title>
<path fill="none" stroke="midnightblue" d="M219.11,-237.84C213.49,-275.46 195.93,-357.32 146,-401 137.05,-408.83 125.23,-413.49 113.77,-416.24"/>
<polygon fill="midnightblue" stroke="midnightblue" points="222.61,-238.06 220.49,-227.67 215.67,-237.11 222.61,-238.06"/>
</g>
<!-- Node3 -->
<g id="node3" class="node">
<title>Node3</title>
<g id="a_node3"><a xlink:href="classParser.html#aa515a5cb14d30596b5b280b977fa79d4" target="_top" xlink:title="get the LNode of a objet property or a variable">
<polygon fill="white" stroke="black" points="21,-372.5 21,-391.5 125,-391.5 125,-372.5 21,-372.5"/>
<text text-anchor="middle" x="73" y="-379.5" font-family="Helvetica,sans-Serif" font-size="10.00">Parser::Aux_Assign</text>
</a>
</g>
</g>
<!-- Node1&#45;&gt;Node3 -->
<g id="edge2" class="edge">
<title>Node1&#45;&gt;Node3</title>
<path fill="none" stroke="midnightblue" d="M216.79,-237.62C208.22,-268.98 187.05,-330.19 146,-363 139.94,-367.84 132.77,-371.46 125.33,-374.16"/>
<polygon fill="midnightblue" stroke="midnightblue" points="220.19,-238.43 219.3,-227.87 213.42,-236.68 220.19,-238.43"/>
</g>
<!-- Node4 -->
<g id="node4" class="node">
<title>Node4</title>
<g id="a_node4"><a xlink:href="classMemoryController.html#abda69812911e33a1295109173c3915a0" target="_top" xlink:title=" ">
<polygon fill="white" stroke="black" points="10.5,-323 10.5,-353 135.5,-353 135.5,-323 10.5,-323"/>
<text text-anchor="start" x="18.5" y="-341" font-family="Helvetica,sans-Serif" font-size="10.00">MemoryController::define</text>
<text text-anchor="middle" x="73" y="-330" font-family="Helvetica,sans-Serif" font-size="10.00">_chars</text>
</a>
</g>
</g>
<!-- Node1&#45;&gt;Node4 -->
<g id="edge3" class="edge">
<title>Node1&#45;&gt;Node4</title>
<path fill="none" stroke="midnightblue" d="M211.44,-236.54C198.85,-258.11 175.33,-293.37 146,-314 141.15,-317.41 135.78,-320.37 130.22,-322.92"/>
<polygon fill="midnightblue" stroke="midnightblue" points="214.57,-238.13 216.44,-227.7 208.47,-234.69 214.57,-238.13"/>
</g>
<!-- Node5 -->
<g id="node5" class="node">
<title>Node5</title>
<g id="a_node5"><a xlink:href="classMemoryController.html#aeca27ac53358ef654308b6a90de54bc1" target="_top" xlink:title=" ">
<polygon fill="white" stroke="black" points="10.5,-274 10.5,-304 135.5,-304 135.5,-274 10.5,-274"/>
<text text-anchor="start" x="18.5" y="-292" font-family="Helvetica,sans-Serif" font-size="10.00">MemoryController::define</text>
<text text-anchor="middle" x="73" y="-281" font-family="Helvetica,sans-Serif" font-size="10.00">_doubles</text>
</a>
</g>
</g>
<!-- Node1&#45;&gt;Node5 -->
<g id="edge4" class="edge">
<title>Node1&#45;&gt;Node5</title>
<path fill="none" stroke="midnightblue" d="M199.75,-233.45C185.07,-243.4 164.98,-256.08 146,-265 139.08,-268.25 131.61,-271.26 124.17,-273.97"/>
<polygon fill="midnightblue" stroke="midnightblue" points="201.89,-236.23 208.14,-227.67 197.92,-230.47 201.89,-236.23"/>
</g>
<!-- Node6 -->
<g id="node6" class="node">
<title>Node6</title>
<g id="a_node6"><a xlink:href="classMemoryController.html#aeddc3c48a7e39b5bcfb4c2e23549b8d6" target="_top" xlink:title=" ">
<polygon fill="white" stroke="black" points="10.5,-225 10.5,-255 135.5,-255 135.5,-225 10.5,-225"/>
<text text-anchor="start" x="18.5" y="-243" font-family="Helvetica,sans-Serif" font-size="10.00">MemoryController::define</text>
<text text-anchor="middle" x="73" y="-232" font-family="Helvetica,sans-Serif" font-size="10.00">_floats</text>
</a>
</g>
</g>
<!-- Node1&#45;&gt;Node6 -->
<g id="edge5" class="edge">
<title>Node1&#45;&gt;Node6</title>
<path fill="none" stroke="midnightblue" d="M171.98,-225.39C160.31,-227.13 147.73,-229 135.59,-230.81"/>
<polygon fill="midnightblue" stroke="midnightblue" points="172.6,-228.83 181.97,-223.9 171.57,-221.91 172.6,-228.83"/>
</g>
<!-- Node7 -->
<g id="node7" class="node">
<title>Node7</title>
<g id="a_node7"><a xlink:href="classMemoryController.html#ab48b3de5ed7f68eec61b77343f747a55" target="_top" xlink:title=" ">
<polygon fill="white" stroke="black" points="0,-186.5 0,-205.5 146,-205.5 146,-186.5 0,-186.5"/>
<text text-anchor="middle" x="73" y="-193.5" font-family="Helvetica,sans-Serif" font-size="10.00">MemoryController::define_ints</text>
</a>
</g>
</g>
<!-- Node1&#45;&gt;Node7 -->
<g id="edge6" class="edge">
<title>Node1&#45;&gt;Node7</title>
<path fill="none" stroke="midnightblue" d="M171.8,-210.59C160.9,-208.96 149.22,-207.22 137.85,-205.52"/>
<polygon fill="midnightblue" stroke="midnightblue" points="171.57,-214.09 181.97,-212.1 172.6,-207.17 171.57,-214.09"/>
</g>
<!-- Node8 -->
<g id="node8" class="node">
<title>Node8</title>
<g id="a_node8"><a xlink:href="classMemoryController.html#a0790a9877e34915f7062dcbe96ba3194" target="_top" xlink:title=" ">
<polygon fill="white" stroke="black" points="10.5,-137 10.5,-167 135.5,-167 135.5,-137 10.5,-137"/>
<text text-anchor="start" x="18.5" y="-155" font-family="Helvetica,sans-Serif" font-size="10.00">MemoryController::define</text>
<text text-anchor="middle" x="73" y="-144" font-family="Helvetica,sans-Serif" font-size="10.00">_longs</text>
</a>
</g>
</g>
<!-- Node1&#45;&gt;Node8 -->
<g id="edge7" class="edge">
<title>Node1&#45;&gt;Node8</title>
<path fill="none" stroke="midnightblue" d="M196.84,-203.28C182.33,-194.96 163.46,-184.71 146,-177 138.01,-173.47 129.36,-170.1 120.91,-167.04"/>
<polygon fill="midnightblue" stroke="midnightblue" points="195.28,-206.42 205.68,-208.42 198.8,-200.37 195.28,-206.42"/>
</g>
<!-- Node9 -->
<g id="node9" class="node">
<title>Node9</title>
<g id="a_node9"><a xlink:href="classMemoryController.html#ab6f3b66e7918f9690c8b703333879c3f" target="_top" xlink:title=" ">
<polygon fill="white" stroke="black" points="10.5,-88 10.5,-118 135.5,-118 135.5,-88 10.5,-88"/>
<text text-anchor="start" x="18.5" y="-106" font-family="Helvetica,sans-Serif" font-size="10.00">MemoryController::define</text>
<text text-anchor="middle" x="73" y="-95" font-family="Helvetica,sans-Serif" font-size="10.00">_references</text>
</a>
</g>
</g>
<!-- Node1&#45;&gt;Node9 -->
<g id="edge8" class="edge">
<title>Node1&#45;&gt;Node9</title>
<path fill="none" stroke="midnightblue" d="M210.55,-199.8C197.52,-179.59 173.98,-147.28 146,-128 140.44,-124.17 134.24,-120.87 127.88,-118.05"/>
<polygon fill="midnightblue" stroke="midnightblue" points="207.65,-201.77 215.92,-208.39 213.59,-198.06 207.65,-201.77"/>
</g>
<!-- Node10 -->
<g id="node10" class="node">
<title>Node10</title>
<g id="a_node10"><a xlink:href="classMemoryController.html#ac480227d61b289e5a6f3914e3467803d" target="_top" xlink:title=" ">
<polygon fill="white" stroke="black" points="10.5,-39 10.5,-69 135.5,-69 135.5,-39 10.5,-39"/>
<text text-anchor="start" x="18.5" y="-57" font-family="Helvetica,sans-Serif" font-size="10.00">MemoryController::define</text>
<text text-anchor="middle" x="73" y="-46" font-family="Helvetica,sans-Serif" font-size="10.00">_structs</text>
</a>
</g>
</g>
<!-- Node1&#45;&gt;Node10 -->
<g id="edge9" class="edge">
<title>Node1&#45;&gt;Node10</title>
<path fill="none" stroke="midnightblue" d="M216,-198.7C206.55,-168.87 184.42,-111.6 146,-79 141.46,-75.15 136.29,-71.88 130.86,-69.1"/>
<polygon fill="midnightblue" stroke="midnightblue" points="212.68,-199.79 218.92,-208.35 219.38,-197.77 212.68,-199.79"/>
</g>
<!-- Node11 -->
<g id="node11" class="node">
<title>Node11</title>
<g id="a_node11"><a xlink:href="classMemoryController.html#aa9db24d5c470a2fb527a37c13408fe63" target="_top" xlink:title="search for a Variable in the availables scopes">
<polygon fill="white" stroke="black" points="9,-0.5 9,-19.5 137,-19.5 137,-0.5 9,-0.5"/>
<text text-anchor="middle" x="73" y="-7.5" font-family="Helvetica,sans-Serif" font-size="10.00">MemoryController::search</text>
</a>
</g>
</g>
<!-- Node1&#45;&gt;Node11 -->
<g id="edge11" class="edge">
<title>Node1&#45;&gt;Node11</title>
<path fill="none" stroke="midnightblue" d="M219.23,-197.69C213.82,-159.16 196.6,-75.27 146,-30 141.17,-25.67 135.47,-22.28 129.44,-19.61"/>
<polygon fill="midnightblue" stroke="midnightblue" points="215.82,-198.62 220.55,-208.1 222.76,-197.74 215.82,-198.62"/>
</g>
</g>
</svg>
