<?xml version="1.0" encoding="UTF-8" standalone="no"?>
<!DOCTYPE svg PUBLIC "-//W3C//DTD SVG 1.1//EN"
 "http://www.w3.org/Graphics/SVG/1.1/DTD/svg11.dtd">
<!-- Generated by graphviz version 2.47.1 (20210417.1919)
 -->
<!-- Title: InterfaceC!/Interface Pages: 1 -->
<svg width="286pt" height="167pt"
 viewBox="0.00 0.00 286.00 167.00" xmlns="http://www.w3.org/2000/svg" xmlns:xlink="http://www.w3.org/1999/xlink">
<g id="graph0" class="graph" transform="scale(1 1) rotate(0) translate(4 163)">
<title>InterfaceC!/Interface</title>
<polygon fill="white" stroke="transparent" points="-4,4 -4,-163 282,-163 282,4 -4,4"/>
<g id="clust1" class="cluster">
<title>clusterdir_07ded03c3fb1d1a294a57272e69f6af2</title>
<g id="a_clust1"><a xlink:href="dir_07ded03c3fb1d1a294a57272e69f6af2.html" target="_top" xlink:title="InterfaceC!">
<polygon fill="#ddddee" stroke="black" points="8,-8 8,-151 270,-151 270,-8 8,-8"/>
<text text-anchor="middle" x="139" y="-139" font-family="Helvetica,sans-Serif" font-size="10.00">InterfaceC!</text>
</a>
</g>
</g>
<!-- dir_713a7753754e964bec62806af71d5fab -->
<g id="node1" class="node">
<title>dir_713a7753754e964bec62806af71d5fab</title>
<g id="a_node1"><a xlink:href="dir_713a7753754e964bec62806af71d5fab.html" target="_top" xlink:title="build&#45;Interface&#45;Desktop_Qt_5_9_1_GCC_64bit&#45;Debug">
<polygon fill="none" stroke="black" points="262,-124 16,-124 16,-88 262,-88 262,-124"/>
<text text-anchor="middle" x="139" y="-103.5" font-family="Helvetica,sans-Serif" font-size="10.00">build&#45;Interface&#45;Desktop_Qt_5_9_1_GCC_64bit&#45;Debug</text>
</a>
</g>
</g>
<!-- dir_70f903116db36c649a67dcd820686096 -->
<g id="node2" class="node">
<title>dir_70f903116db36c649a67dcd820686096</title>
<g id="a_node2"><a xlink:href="dir_70f903116db36c649a67dcd820686096.html" target="_top" xlink:title="Interface">
<polygon fill="#eeeeff" stroke="black" points="166,-52 112,-52 112,-16 166,-16 166,-52"/>
<text text-anchor="middle" x="139" y="-31.5" font-family="Helvetica,sans-Serif" font-size="10.00">Interface</text>
</a>
</g>
</g>
<!-- dir_713a7753754e964bec62806af71d5fab&#45;&gt;dir_70f903116db36c649a67dcd820686096 -->
<g id="edge1" class="edge">
<title>dir_713a7753754e964bec62806af71d5fab&#45;&gt;dir_70f903116db36c649a67dcd820686096</title>
<path fill="none" stroke="black" d="M133.08,-87.7C132.29,-79.98 132.06,-70.71 132.4,-62.11"/>
<polygon fill="black" stroke="black" points="135.9,-62.32 133.1,-52.1 128.92,-61.84 135.9,-62.32"/>
<g id="a_edge1&#45;headlabel"><a xlink:href="dir_000009_000010.html" target="_top" xlink:title="1">
<text text-anchor="middle" x="138.48" y="-63.61" font-family="Helvetica,sans-Serif" font-size="10.00">1</text>
</a>
</g>
</g>
<!-- dir_70f903116db36c649a67dcd820686096&#45;&gt;dir_713a7753754e964bec62806af71d5fab -->
<g id="edge2" class="edge">
<title>dir_70f903116db36c649a67dcd820686096&#45;&gt;dir_713a7753754e964bec62806af71d5fab</title>
<path fill="none" stroke="black" d="M144.9,-52.1C145.7,-59.79 145.94,-69.05 145.6,-77.67"/>
<polygon fill="black" stroke="black" points="142.11,-77.48 144.92,-87.7 149.09,-77.96 142.11,-77.48"/>
<g id="a_edge2&#45;headlabel"><a xlink:href="dir_000010_000009.html" target="_top" xlink:title="1">
<text text-anchor="middle" x="139.52" y="-71.2" font-family="Helvetica,sans-Serif" font-size="10.00">1</text>
</a>
</g>
</g>
</g>
</svg>
