<?xml version="1.0" encoding="UTF-8" standalone="no"?>
<!DOCTYPE svg PUBLIC "-//W3C//DTD SVG 1.1//EN"
 "http://www.w3.org/Graphics/SVG/1.1/DTD/svg11.dtd">
<!-- Generated by graphviz version 2.47.1 (20210417.1919)
 -->
<!-- Title: Server/Gcollector.cpp Pages: 1 -->
<!--zoomable 375 -->
<svg id="main" version="1.1" xmlns="http://www.w3.org/2000/svg" xmlns:xlink="http://www.w3.org/1999/xlink" xml:space="preserve" onload="init(evt)">
<style type="text/css"><![CDATA[
.edge:hover path { stroke: red; }
.edge:hover polygon { stroke: red; fill: red; }
]]></style>
<script type="text/javascript"><![CDATA[
var edges = document.getElementsByTagName('g');
if (edges && edges.length) {
  for (var i=0;i<edges.length;i++) {
    if (edges[i].id.substr(0,4)=='edge') {
      edges[i].setAttribute('class','edge');
    }
  }
}
]]></script>
        <defs>
                <circle id="rim" cx="0" cy="0" r="7"/>
                <circle id="rim2" cx="0" cy="0" r="3.5"/>
                <g id="zoomPlus">
                        <use xlink:href="#rim" fill="#404040">
                                <set attributeName="fill" to="#808080" begin="zoomplus.mouseover" end="zoomplus.mouseout"/>
                        </use>
                        <path d="M-4,0h8M0,-4v8" fill="none" stroke="white" stroke-width="1.5" pointer-events="none"/>
                </g>
                <g id="zoomMin">
                        <use xlink:href="#rim" fill="#404040">
                                <set attributeName="fill" to="#808080" begin="zoomminus.mouseover" end="zoomminus.mouseout"/>
                        </use>
                        <path d="M-4,0h8" fill="none" stroke="white" stroke-width="1.5" pointer-events="none"/>
                </g>
                <g id="dirArrow">
                        <path fill="none" stroke="white" stroke-width="1.5" d="M0,-3.0v7 M-2.5,-0.5L0,-3.0L2.5,-0.5"/>
                </g>
               <g id="resetDef">
                       <use xlink:href="#rim2" fill="#404040">
                               <set attributeName="fill" to="#808080" begin="reset.mouseover" end="reset.mouseout"/>
                       </use>
               </g>
        </defs>

<script type="text/javascript">
var viewWidth = 1382;
var viewHeight = 375;
var sectionId = 'dynsection-0';
</script>
<script xlink:href="svgpan.js"/>
<svg id="graph" class="graph">
<g id="viewport">
<title>Server/Gcollector.cpp</title>
<polygon fill="white" stroke="transparent" points="-4,4 -4,-371 1378,-371 1378,4 -4,4"/>
<!-- Node1 -->
<g id="node1" class="node">
<title>Node1</title>
<g id="a_node1"><a xlink:title=" ">
<polygon fill="#bfbfbf" stroke="black" points="435,-347.5 435,-366.5 545,-366.5 545,-347.5 435,-347.5"/>
<text text-anchor="middle" x="490" y="-354.5" font-family="Helvetica,sans-Serif" font-size="10.00">Server/Gcollector.cpp</text>
</a>
</g>
</g>
<!-- Node2 -->
<g id="node2" class="node">
<title>Node2</title>
<g id="a_node2"><a xlink:title=" ">
<polygon fill="white" stroke="#bfbfbf" points="154.5,-168.5 154.5,-187.5 197.5,-187.5 197.5,-168.5 154.5,-168.5"/>
<text text-anchor="middle" x="176" y="-175.5" font-family="Helvetica,sans-Serif" font-size="10.00">cstdio</text>
</a>
</g>
</g>
<!-- Node1&#45;&gt;Node2 -->
<g id="edge1" class="edge">
<title>Node1&#45;&gt;Node2</title>
<path fill="none" stroke="midnightblue" d="M434.84,-352.12C369.94,-346.55 267.2,-334.3 237,-311 200.29,-282.69 184.86,-227.08 179.07,-197.9"/>
<polygon fill="midnightblue" stroke="midnightblue" points="182.47,-197.02 177.24,-187.8 175.58,-198.26 182.47,-197.02"/>
</g>
<!-- Node3 -->
<g id="node3" class="node">
<title>Node3</title>
<g id="a_node3"><a xlink:href="Gcollector_8h.html" target="_top" xlink:title=" ">
<polygon fill="white" stroke="black" points="28.5,-168.5 28.5,-187.5 97.5,-187.5 97.5,-168.5 28.5,-168.5"/>
<text text-anchor="middle" x="63" y="-175.5" font-family="Helvetica,sans-Serif" font-size="10.00">Gcollector.h</text>
</a>
</g>
</g>
<!-- Node1&#45;&gt;Node3 -->
<g id="edge2" class="edge">
<title>Node1&#45;&gt;Node3</title>
<path fill="none" stroke="midnightblue" d="M434.86,-356.3C342.27,-355.7 160.88,-349.48 112,-311 76.56,-283.1 66.75,-226.85 64.04,-197.61"/>
<polygon fill="midnightblue" stroke="midnightblue" points="67.52,-197.23 63.29,-187.52 60.54,-197.75 67.52,-197.23"/>
</g>
<!-- Node4 -->
<g id="node4" class="node">
<title>Node4</title>
<g id="a_node4"><a xlink:href="LNode_8h.html" target="_top" xlink:title=" ">
<polygon fill="white" stroke="black" points="73.5,-56.5 73.5,-75.5 126.5,-75.5 126.5,-56.5 73.5,-56.5"/>
<text text-anchor="middle" x="100" y="-63.5" font-family="Helvetica,sans-Serif" font-size="10.00">LNode.h</text>
</a>
</g>
</g>
<!-- Node1&#45;&gt;Node4 -->
<g id="edge7" class="edge">
<title>Node1&#45;&gt;Node4</title>
<path fill="none" stroke="midnightblue" d="M434.68,-354.12C338.4,-350.14 144.43,-338.86 83,-311 37.45,-290.34 0,-285.02 0,-235 0,-235 0,-235 0,-177 0,-132.98 44.38,-98.8 74.01,-80.87"/>
<polygon fill="midnightblue" stroke="midnightblue" points="76.14,-83.68 83.04,-75.64 72.63,-77.63 76.14,-83.68"/>
</g>
<!-- Node6 -->
<g id="node6" class="node">
<title>Node6</title>
<g id="a_node6"><a xlink:href="Llist_8h.html" target="_top" xlink:title=" ">
<polygon fill="white" stroke="black" points="162.5,-112.5 162.5,-131.5 205.5,-131.5 205.5,-112.5 162.5,-112.5"/>
<text text-anchor="middle" x="184" y="-119.5" font-family="Helvetica,sans-Serif" font-size="10.00">Llist.h</text>
</a>
</g>
</g>
<!-- Node1&#45;&gt;Node6 -->
<g id="edge8" class="edge">
<title>Node1&#45;&gt;Node6</title>
<path fill="none" stroke="midnightblue" d="M434.72,-353.13C362.86,-348.41 242.35,-336.82 207,-311 157.56,-274.89 159.16,-247.56 145,-188 142.94,-179.35 141.89,-176.33 145,-168 149.17,-156.81 157.52,-146.56 165.42,-138.68"/>
<polygon fill="midnightblue" stroke="midnightblue" points="168.06,-141 173.01,-131.63 163.3,-135.87 168.06,-141"/>
</g>
<!-- Node7 -->
<g id="node7" class="node">
<title>Node7</title>
<g id="a_node7"><a xlink:href="Parser_8h.html" target="_top" xlink:title=" ">
<polygon fill="white" stroke="black" points="245.5,-286 245.5,-305 298.5,-305 298.5,-286 245.5,-286"/>
<text text-anchor="middle" x="272" y="-293" font-family="Helvetica,sans-Serif" font-size="10.00">Parser.h</text>
</a>
</g>
</g>
<!-- Node1&#45;&gt;Node7 -->
<g id="edge9" class="edge">
<title>Node1&#45;&gt;Node7</title>
<path fill="none" stroke="midnightblue" d="M448.33,-347.45C411.14,-339.4 355.39,-326.32 308,-311 305.86,-310.31 303.67,-309.55 301.48,-308.76"/>
<polygon fill="midnightblue" stroke="midnightblue" points="302.59,-305.44 292,-305.13 300.09,-311.98 302.59,-305.44"/>
</g>
<!-- Node12 -->
<g id="node12" class="node">
<title>Node12</title>
<g id="a_node12"><a xlink:title=" ">
<polygon fill="white" stroke="#bfbfbf" points="316.5,-286 316.5,-305 421.5,-305 421.5,-286 316.5,-286"/>
<text text-anchor="middle" x="369" y="-293" font-family="Helvetica,sans-Serif" font-size="10.00">boost/date_time.hpp</text>
</a>
</g>
</g>
<!-- Node1&#45;&gt;Node12 -->
<g id="edge20" class="edge">
<title>Node1&#45;&gt;Node12</title>
<path fill="none" stroke="midnightblue" d="M472.66,-347.48C452.45,-337.53 418.81,-320.99 395.36,-309.46"/>
<polygon fill="midnightblue" stroke="midnightblue" points="396.82,-306.28 386.3,-305.01 393.73,-312.56 396.82,-306.28"/>
</g>
<!-- Node13 -->
<g id="node13" class="node">
<title>Node13</title>
<g id="a_node13"><a xlink:title=" ">
<polygon fill="white" stroke="#bfbfbf" points="440,-286 440,-305 540,-305 540,-286 440,-286"/>
<text text-anchor="middle" x="490" y="-293" font-family="Helvetica,sans-Serif" font-size="10.00">boost/log/trivial.hpp</text>
</a>
</g>
</g>
<!-- Node1&#45;&gt;Node13 -->
<g id="edge21" class="edge">
<title>Node1&#45;&gt;Node13</title>
<path fill="none" stroke="midnightblue" d="M490,-347.48C490,-339.08 490,-325.98 490,-315.16"/>
<polygon fill="midnightblue" stroke="midnightblue" points="493.5,-315.01 490,-305.01 486.5,-315.01 493.5,-315.01"/>
</g>
<!-- Node14 -->
<g id="node14" class="node">
<title>Node14</title>
<g id="a_node14"><a xlink:title=" ">
<polygon fill="white" stroke="#bfbfbf" points="558,-280.5 558,-310.5 668,-310.5 668,-280.5 558,-280.5"/>
<text text-anchor="start" x="566" y="-298.5" font-family="Helvetica,sans-Serif" font-size="10.00">boost/log/utility/setup</text>
<text text-anchor="middle" x="613" y="-287.5" font-family="Helvetica,sans-Serif" font-size="10.00">/file.hpp</text>
</a>
</g>
</g>
<!-- Node1&#45;&gt;Node14 -->
<g id="edge22" class="edge">
<title>Node1&#45;&gt;Node14</title>
<path fill="none" stroke="midnightblue" d="M507.62,-347.48C525.06,-339.04 552.32,-325.86 574.74,-315.01"/>
<polygon fill="midnightblue" stroke="midnightblue" points="576.53,-318.03 584.01,-310.52 573.49,-311.73 576.53,-318.03"/>
</g>
<!-- Node15 -->
<g id="node15" class="node">
<title>Node15</title>
<g id="a_node15"><a xlink:title=" ">
<polygon fill="white" stroke="#bfbfbf" points="686.5,-286 686.5,-305 817.5,-305 817.5,-286 686.5,-286"/>
<text text-anchor="middle" x="752" y="-293" font-family="Helvetica,sans-Serif" font-size="10.00">boost/log/expressions.hpp</text>
</a>
</g>
</g>
<!-- Node1&#45;&gt;Node15 -->
<g id="edge23" class="edge">
<title>Node1&#45;&gt;Node15</title>
<path fill="none" stroke="midnightblue" d="M527.54,-347.48C574.23,-336.87 653.98,-318.76 704.78,-307.22"/>
<polygon fill="midnightblue" stroke="midnightblue" points="705.55,-310.64 714.53,-305.01 704,-303.81 705.55,-310.64"/>
</g>
<!-- Node16 -->
<g id="node16" class="node">
<title>Node16</title>
<g id="a_node16"><a xlink:title=" ">
<polygon fill="white" stroke="#bfbfbf" points="836,-286 836,-305 978,-305 978,-286 836,-286"/>
<text text-anchor="middle" x="907" y="-293" font-family="Helvetica,sans-Serif" font-size="10.00">boost/log/sources/logger.hpp</text>
</a>
</g>
</g>
<!-- Node1&#45;&gt;Node16 -->
<g id="edge24" class="edge">
<title>Node1&#45;&gt;Node16</title>
<path fill="none" stroke="midnightblue" d="M545.28,-349.42C612.13,-341.28 728.02,-326.57 827,-311 835.03,-309.74 843.49,-308.31 851.79,-306.85"/>
<polygon fill="midnightblue" stroke="midnightblue" points="852.56,-310.27 861.79,-305.07 851.33,-303.38 852.56,-310.27"/>
</g>
<!-- Node17 -->
<g id="node17" class="node">
<title>Node17</title>
<g id="a_node17"><a xlink:title=" ">
<polygon fill="white" stroke="#bfbfbf" points="996.5,-286 996.5,-305 1093.5,-305 1093.5,-286 996.5,-286"/>
<text text-anchor="middle" x="1045" y="-293" font-family="Helvetica,sans-Serif" font-size="10.00">boost/log/core.hpp</text>
</a>
</g>
</g>
<!-- Node1&#45;&gt;Node17 -->
<g id="edge25" class="edge">
<title>Node1&#45;&gt;Node17</title>
<path fill="none" stroke="midnightblue" d="M545.15,-353.79C637.23,-349.49 827.9,-337.92 987,-311 992.77,-310.02 998.81,-308.77 1004.72,-307.42"/>
<polygon fill="midnightblue" stroke="midnightblue" points="1005.58,-310.81 1014.48,-305.07 1003.94,-304.01 1005.58,-310.81"/>
</g>
<!-- Node18 -->
<g id="node18" class="node">
<title>Node18</title>
<g id="a_node18"><a xlink:title=" ">
<polygon fill="white" stroke="#bfbfbf" points="1112,-280.5 1112,-310.5 1234,-310.5 1234,-280.5 1112,-280.5"/>
<text text-anchor="start" x="1120" y="-298.5" font-family="Helvetica,sans-Serif" font-size="10.00">boost/log/utility/setup</text>
<text text-anchor="middle" x="1173" y="-287.5" font-family="Helvetica,sans-Serif" font-size="10.00">/common_attributes.hpp</text>
</a>
</g>
</g>
<!-- Node1&#45;&gt;Node18 -->
<g id="edge26" class="edge">
<title>Node1&#45;&gt;Node18</title>
<path fill="none" stroke="midnightblue" d="M545.21,-354.37C651.24,-350.71 890.86,-339.91 1101.97,-311.02"/>
<polygon fill="midnightblue" stroke="midnightblue" points="1102.57,-314.47 1112,-309.63 1101.61,-307.53 1102.57,-314.47"/>
</g>
<!-- Node19 -->
<g id="node19" class="node">
<title>Node19</title>
<g id="a_node19"><a xlink:title=" ">
<polygon fill="white" stroke="#bfbfbf" points="1252,-280.5 1252,-310.5 1374,-310.5 1374,-280.5 1252,-280.5"/>
<text text-anchor="start" x="1260" y="-298.5" font-family="Helvetica,sans-Serif" font-size="10.00">boost/log/sources/global</text>
<text text-anchor="middle" x="1313" y="-287.5" font-family="Helvetica,sans-Serif" font-size="10.00">_logger_storage.hpp</text>
</a>
</g>
</g>
<!-- Node1&#45;&gt;Node19 -->
<g id="edge27" class="edge">
<title>Node1&#45;&gt;Node19</title>
<path fill="none" stroke="midnightblue" d="M545.06,-355.43C668.23,-353.57 975.42,-345.67 1241.39,-311.08"/>
<polygon fill="midnightblue" stroke="midnightblue" points="1242.17,-314.51 1251.63,-309.74 1241.25,-307.57 1242.17,-314.51"/>
</g>
<!-- Node3&#45;&gt;Node4 -->
<g id="edge3" class="edge">
<title>Node3&#45;&gt;Node4</title>
<path fill="none" stroke="midnightblue" d="M65.9,-168.37C71.9,-150.54 85.77,-109.3 93.85,-85.27"/>
<polygon fill="midnightblue" stroke="midnightblue" points="97.24,-86.19 97.11,-75.59 90.6,-83.95 97.24,-86.19"/>
</g>
<!-- Node3&#45;&gt;Node6 -->
<g id="edge5" class="edge">
<title>Node3&#45;&gt;Node6</title>
<path fill="none" stroke="midnightblue" d="M82.17,-168.44C101.91,-159.64 132.89,-145.81 155.49,-135.72"/>
<polygon fill="midnightblue" stroke="midnightblue" points="157.21,-138.79 164.92,-131.52 154.36,-132.4 157.21,-138.79"/>
</g>
<!-- Node5 -->
<g id="node5" class="node">
<title>Node5</title>
<g id="a_node5"><a xlink:title=" ">
<polygon fill="white" stroke="#bfbfbf" points="79.5,-0.5 79.5,-19.5 120.5,-19.5 120.5,-0.5 79.5,-0.5"/>
<text text-anchor="middle" x="100" y="-7.5" font-family="Helvetica,sans-Serif" font-size="10.00">string</text>
</a>
</g>
</g>
<!-- Node4&#45;&gt;Node5 -->
<g id="edge4" class="edge">
<title>Node4&#45;&gt;Node5</title>
<path fill="none" stroke="midnightblue" d="M100,-56.08C100,-49.01 100,-38.86 100,-29.99"/>
<polygon fill="midnightblue" stroke="midnightblue" points="103.5,-29.75 100,-19.75 96.5,-29.75 103.5,-29.75"/>
</g>
<!-- Node6&#45;&gt;Node4 -->
<g id="edge6" class="edge">
<title>Node6&#45;&gt;Node4</title>
<path fill="none" stroke="midnightblue" d="M170.5,-112.32C157.4,-103.9 137.29,-90.97 121.89,-81.07"/>
<polygon fill="midnightblue" stroke="midnightblue" points="123.77,-78.12 113.46,-75.65 119.98,-84.01 123.77,-78.12"/>
</g>
<!-- Node7&#45;&gt;Node4 -->
<g id="edge11" class="edge">
<title>Node7&#45;&gt;Node4</title>
<path fill="none" stroke="midnightblue" d="M292.45,-285.93C297.5,-283.91 302.92,-281.81 308,-280 406.51,-244.81 579.63,-250.25 515,-168 467.96,-108.14 229.39,-79.33 136.8,-70.27"/>
<polygon fill="midnightblue" stroke="midnightblue" points="137.05,-66.78 126.77,-69.31 136.39,-73.74 137.05,-66.78"/>
</g>
<!-- Node7&#45;&gt;Node6 -->
<g id="edge10" class="edge">
<title>Node7&#45;&gt;Node6</title>
<path fill="none" stroke="midnightblue" d="M292,-285.85C346.49,-262.21 493.89,-197.61 500,-188 504.77,-180.5 505.83,-174.71 500,-168 463.47,-125.9 289.21,-122.18 216.25,-122.51"/>
<polygon fill="midnightblue" stroke="midnightblue" points="215.82,-119.02 205.84,-122.59 215.87,-126.02 215.82,-119.02"/>
</g>
<!-- Node8 -->
<g id="node8" class="node">
<title>Node8</title>
<g id="a_node8"><a xlink:href="MemoryController_8h.html" target="_top" xlink:title=" ">
<polygon fill="white" stroke="black" points="230.5,-224.5 230.5,-243.5 331.5,-243.5 331.5,-224.5 230.5,-224.5"/>
<text text-anchor="middle" x="281" y="-231.5" font-family="Helvetica,sans-Serif" font-size="10.00">MemoryController.h</text>
</a>
</g>
</g>
<!-- Node7&#45;&gt;Node8 -->
<g id="edge12" class="edge">
<title>Node7&#45;&gt;Node8</title>
<path fill="none" stroke="midnightblue" d="M273.29,-285.98C274.56,-277.58 276.54,-264.48 278.18,-253.66"/>
<polygon fill="midnightblue" stroke="midnightblue" points="281.68,-253.92 279.71,-243.51 274.76,-252.87 281.68,-253.92"/>
</g>
<!-- Node11 -->
<g id="node11" class="node">
<title>Node11</title>
<g id="a_node11"><a xlink:title=" ">
<polygon fill="white" stroke="#bfbfbf" points="393,-168.5 393,-187.5 491,-187.5 491,-168.5 393,-168.5"/>
<text text-anchor="middle" x="442" y="-175.5" font-family="Helvetica,sans-Serif" font-size="10.00">nlohmann/json.hpp</text>
</a>
</g>
</g>
<!-- Node7&#45;&gt;Node11 -->
<g id="edge19" class="edge">
<title>Node7&#45;&gt;Node11</title>
<path fill="none" stroke="midnightblue" d="M284.78,-285.82C313.82,-266.09 385.04,-217.7 420.8,-193.41"/>
<polygon fill="midnightblue" stroke="midnightblue" points="422.77,-196.3 429.07,-187.78 418.84,-190.51 422.77,-196.3"/>
</g>
<!-- Node8&#45;&gt;Node2 -->
<g id="edge13" class="edge">
<title>Node8&#45;&gt;Node2</title>
<path fill="none" stroke="midnightblue" d="M264.13,-224.32C247.29,-215.66 221.19,-202.24 201.76,-192.25"/>
<polygon fill="midnightblue" stroke="midnightblue" points="203.32,-189.12 192.83,-187.65 200.12,-195.34 203.32,-189.12"/>
</g>
<!-- Node8&#45;&gt;Node6 -->
<g id="edge14" class="edge">
<title>Node8&#45;&gt;Node6</title>
<path fill="none" stroke="midnightblue" d="M283.24,-224.14C286.08,-210.76 289.36,-185.14 278,-168 263.94,-146.78 236.93,-135.29 215.46,-129.25"/>
<polygon fill="midnightblue" stroke="midnightblue" points="216.31,-125.85 205.75,-126.77 214.58,-132.63 216.31,-125.85"/>
</g>
<!-- Node9 -->
<g id="node9" class="node">
<title>Node9</title>
<g id="a_node9"><a xlink:href="Scope_8h.html" target="_top" xlink:title=" ">
<polygon fill="white" stroke="black" points="215.5,-168.5 215.5,-187.5 268.5,-187.5 268.5,-168.5 215.5,-168.5"/>
<text text-anchor="middle" x="242" y="-175.5" font-family="Helvetica,sans-Serif" font-size="10.00">Scope.h</text>
</a>
</g>
</g>
<!-- Node8&#45;&gt;Node9 -->
<g id="edge15" class="edge">
<title>Node8&#45;&gt;Node9</title>
<path fill="none" stroke="midnightblue" d="M274.56,-224.08C269.05,-216.46 260.97,-205.26 254.24,-195.94"/>
<polygon fill="midnightblue" stroke="midnightblue" points="257.01,-193.81 248.32,-187.75 251.34,-197.91 257.01,-193.81"/>
</g>
<!-- Node10 -->
<g id="node10" class="node">
<title>Node10</title>
<g id="a_node10"><a xlink:title=" ">
<polygon fill="white" stroke="#bfbfbf" points="325.5,-168.5 325.5,-187.5 374.5,-187.5 374.5,-168.5 325.5,-168.5"/>
<text text-anchor="middle" x="350" y="-175.5" font-family="Helvetica,sans-Serif" font-size="10.00">string.h</text>
</a>
</g>
</g>
<!-- Node8&#45;&gt;Node10 -->
<g id="edge17" class="edge">
<title>Node8&#45;&gt;Node10</title>
<path fill="none" stroke="midnightblue" d="M292.09,-224.32C302.49,-216.18 318.26,-203.84 330.72,-194.09"/>
<polygon fill="midnightblue" stroke="midnightblue" points="332.99,-196.75 338.71,-187.83 328.68,-191.24 332.99,-196.75"/>
</g>
<!-- Node8&#45;&gt;Node11 -->
<g id="edge18" class="edge">
<title>Node8&#45;&gt;Node11</title>
<path fill="none" stroke="midnightblue" d="M306.51,-224.44C333.6,-215.36 376.59,-200.94 406.87,-190.78"/>
<polygon fill="midnightblue" stroke="midnightblue" points="408.24,-194.01 416.61,-187.52 406.01,-187.38 408.24,-194.01"/>
</g>
<!-- Node9&#45;&gt;Node6 -->
<g id="edge16" class="edge">
<title>Node9&#45;&gt;Node6</title>
<path fill="none" stroke="midnightblue" d="M232.68,-168.32C224.11,-160.34 211.19,-148.31 200.81,-138.65"/>
<polygon fill="midnightblue" stroke="midnightblue" points="203.19,-136.09 193.49,-131.83 198.42,-141.21 203.19,-136.09"/>
</g>
</g>
</svg>
        <g id="navigator" transform="translate(0 0)" fill="#404254">
                <rect fill="#f2f5e9" fill-opacity="0.5" stroke="#606060" stroke-width=".5" x="0" y="0" width="60" height="60"/>
                <use id="zoomplus" xlink:href="#zoomPlus" x="17" y="9" onmousedown="handleZoom(evt,'in')"/>
                <use id="zoomminus" xlink:href="#zoomMin" x="42" y="9" onmousedown="handleZoom(evt,'out')"/>
                <use id="reset" xlink:href="#resetDef" x="30" y="36" onmousedown="handleReset()"/>
                <g id="arrowUp" xlink:href="#dirArrow" transform="translate(30 24)" onmousedown="handlePan(0,-1)">
                  <use xlink:href="#rim" fill="#404040">
                        <set attributeName="fill" to="#808080" begin="arrowUp.mouseover" end="arrowUp.mouseout"/>
                  </use>
                  <path fill="none" stroke="white" stroke-width="1.5" d="M0,-3.0v7 M-2.5,-0.5L0,-3.0L2.5,-0.5"/>
                </g>
                <g id="arrowRight" xlink:href="#dirArrow" transform="rotate(90) translate(36 -43)" onmousedown="handlePan(1,0)">
                  <use xlink:href="#rim" fill="#404040">
                        <set attributeName="fill" to="#808080" begin="arrowRight.mouseover" end="arrowRight.mouseout"/>
                  </use>
                  <path fill="none" stroke="white" stroke-width="1.5" d="M0,-3.0v7 M-2.5,-0.5L0,-3.0L2.5,-0.5"/>
                </g>
                <g id="arrowDown" xlink:href="#dirArrow" transform="rotate(180) translate(-30 -48)" onmousedown="handlePan(0,1)">
                  <use xlink:href="#rim" fill="#404040">
                        <set attributeName="fill" to="#808080" begin="arrowDown.mouseover" end="arrowDown.mouseout"/>
                  </use>
                  <path fill="none" stroke="white" stroke-width="1.5" d="M0,-3.0v7 M-2.5,-0.5L0,-3.0L2.5,-0.5"/>
                </g>
                <g id="arrowLeft" xlink:href="#dirArrow" transform="rotate(270) translate(-36 17)" onmousedown="handlePan(-1,0)">
                  <use xlink:href="#rim" fill="#404040">
                        <set attributeName="fill" to="#808080" begin="arrowLeft.mouseover" end="arrowLeft.mouseout"/>
                  </use>
                  <path fill="none" stroke="white" stroke-width="1.5" d="M0,-3.0v7 M-2.5,-0.5L0,-3.0L2.5,-0.5"/>
                </g>
        </g>
        <svg viewBox="0 0 15 15" width="100%" height="30px" preserveAspectRatio="xMaxYMin meet">
         <g id="arrow_out" transform="scale(0.3 0.3)">
          <a xlink:href="Gcollector_8cpp__incl_org.svg" target="_base">
           <rect id="button" ry="5" rx="5" y="6" x="6" height="38" width="38"
                fill="#f2f5e9" fill-opacity="0.5" stroke="#606060" stroke-width="1.0"/>
           <path id="arrow"
             d="M 11.500037,31.436501 C 11.940474,20.09759 22.043105,11.32322 32.158766,21.979434 L 37.068811,17.246167 C 37.068811,17.246167 37.088388,32 37.088388,32 L 22.160133,31.978069 C 22.160133,31.978069 26.997745,27.140456 26.997745,27.140456 C 18.528582,18.264221 13.291696,25.230495 11.500037,31.436501 z"
             style="fill:#404040;"/>
          </a>
         </g>
        </svg>
</svg>
