<?xml version="1.0" encoding="UTF-8" standalone="no"?>
<!DOCTYPE svg PUBLIC "-//W3C//DTD SVG 1.1//EN"
 "http://www.w3.org/Graphics/SVG/1.1/DTD/svg11.dtd">
<!-- Generated by graphviz version 2.47.1 (20210417.1919)
 -->
<!-- Title: InterfaceC!/Interface/Json_parser.cpp Pages: 1 -->
<svg width="362pt" height="151pt"
 viewBox="0.00 0.00 362.45 151.00" xmlns="http://www.w3.org/2000/svg" xmlns:xlink="http://www.w3.org/1999/xlink">
<g id="graph0" class="graph" transform="scale(1 1) rotate(0) translate(4 147)">
<title>InterfaceC!/Interface/Json_parser.cpp</title>
<polygon fill="white" stroke="transparent" points="-4,4 -4,-147 358.45,-147 358.45,4 -4,4"/>
<!-- Node1 -->
<g id="node1" class="node">
<title>Node1</title>
<g id="a_node1"><a xlink:title=" ">
<polygon fill="#bfbfbf" stroke="black" points="146,-112.5 146,-142.5 248,-142.5 248,-112.5 146,-112.5"/>
<text text-anchor="start" x="154" y="-130.5" font-family="Helvetica,sans-Serif" font-size="10.00">InterfaceC!/Interface</text>
<text text-anchor="middle" x="197" y="-119.5" font-family="Helvetica,sans-Serif" font-size="10.00">/Json_parser.cpp</text>
</a>
</g>
</g>
<!-- Node2 -->
<g id="node2" class="node">
<title>Node2</title>
<g id="a_node2"><a xlink:title=" ">
<polygon fill="white" stroke="#bfbfbf" points="0,-0.5 0,-19.5 74,-19.5 74,-0.5 0,-0.5"/>
<text text-anchor="middle" x="37" y="-7.5" font-family="Helvetica,sans-Serif" font-size="10.00">QTextStream</text>
</a>
</g>
</g>
<!-- Node1&#45;&gt;Node2 -->
<g id="edge1" class="edge">
<title>Node1&#45;&gt;Node2</title>
<path fill="none" stroke="midnightblue" d="M145.69,-119.87C115.73,-113.43 79.36,-100.79 56,-76 44.29,-63.58 39.76,-44.34 38.02,-30.01"/>
<polygon fill="midnightblue" stroke="midnightblue" points="41.48,-29.46 37.14,-19.8 34.51,-30.06 41.48,-29.46"/>
</g>
<!-- Node3 -->
<g id="node3" class="node">
<title>Node3</title>
<g id="a_node3"><a xlink:title=" ">
<polygon fill="white" stroke="#bfbfbf" points="250,-0.5 250,-19.5 296,-19.5 296,-0.5 250,-0.5"/>
<text text-anchor="middle" x="273" y="-7.5" font-family="Helvetica,sans-Serif" font-size="10.00">cstring</text>
</a>
</g>
</g>
<!-- Node1&#45;&gt;Node3 -->
<g id="edge2" class="edge">
<title>Node1&#45;&gt;Node3</title>
<path fill="none" stroke="midnightblue" d="M248.27,-124.39C283.14,-119.95 326.97,-107.85 350,-76 366.14,-53.68 333.3,-34.23 305.63,-22.56"/>
<polygon fill="midnightblue" stroke="midnightblue" points="306.73,-19.23 296.14,-18.77 304.13,-25.73 306.73,-19.23"/>
</g>
<!-- Node4 -->
<g id="node4" class="node">
<title>Node4</title>
<g id="a_node4"><a xlink:title=" ">
<polygon fill="white" stroke="#bfbfbf" points="160.5,-56.5 160.5,-75.5 233.5,-75.5 233.5,-56.5 160.5,-56.5"/>
<text text-anchor="middle" x="197" y="-63.5" font-family="Helvetica,sans-Serif" font-size="10.00">QJsonObject</text>
</a>
</g>
</g>
<!-- Node1&#45;&gt;Node4 -->
<g id="edge3" class="edge">
<title>Node1&#45;&gt;Node4</title>
<path fill="none" stroke="midnightblue" d="M197,-112.4C197,-104.47 197,-94.46 197,-85.86"/>
<polygon fill="midnightblue" stroke="midnightblue" points="200.5,-85.66 197,-75.66 193.5,-85.66 200.5,-85.66"/>
</g>
<!-- Node5 -->
<g id="node5" class="node">
<title>Node5</title>
<g id="a_node5"><a xlink:title=" ">
<polygon fill="white" stroke="#bfbfbf" points="251.5,-56.5 251.5,-75.5 340.5,-75.5 340.5,-56.5 251.5,-56.5"/>
<text text-anchor="middle" x="296" y="-63.5" font-family="Helvetica,sans-Serif" font-size="10.00">QJsonDocument</text>
</a>
</g>
</g>
<!-- Node1&#45;&gt;Node5 -->
<g id="edge4" class="edge">
<title>Node1&#45;&gt;Node5</title>
<path fill="none" stroke="midnightblue" d="M220.46,-112.4C236.33,-102.86 257.19,-90.32 272.97,-80.84"/>
<polygon fill="midnightblue" stroke="midnightblue" points="274.83,-83.81 281.59,-75.66 271.22,-77.81 274.83,-83.81"/>
</g>
<!-- Node6 -->
<g id="node6" class="node">
<title>Node6</title>
<g id="a_node6"><a xlink:href="Json__parser_8h.html" target="_top" xlink:title=" ">
<polygon fill="white" stroke="black" points="65.5,-56.5 65.5,-75.5 142.5,-75.5 142.5,-56.5 65.5,-56.5"/>
<text text-anchor="middle" x="104" y="-63.5" font-family="Helvetica,sans-Serif" font-size="10.00">Json_parser.h</text>
</a>
</g>
</g>
<!-- Node1&#45;&gt;Node6 -->
<g id="edge5" class="edge">
<title>Node1&#45;&gt;Node6</title>
<path fill="none" stroke="midnightblue" d="M174.96,-112.4C160.19,-102.95 140.82,-90.56 126.05,-81.11"/>
<polygon fill="midnightblue" stroke="midnightblue" points="127.84,-78.1 117.53,-75.66 124.07,-84 127.84,-78.1"/>
</g>
<!-- Node6&#45;&gt;Node2 -->
<g id="edge6" class="edge">
<title>Node6&#45;&gt;Node2</title>
<path fill="none" stroke="midnightblue" d="M93.24,-56.32C83.23,-48.26 68.11,-36.08 56.07,-26.37"/>
<polygon fill="midnightblue" stroke="midnightblue" points="57.94,-23.38 47.96,-19.83 53.55,-28.83 57.94,-23.38"/>
</g>
<!-- Node6&#45;&gt;Node3 -->
<g id="edge7" class="edge">
<title>Node6&#45;&gt;Node3</title>
<path fill="none" stroke="midnightblue" d="M130.78,-56.44C160.42,-46.97 208.23,-31.7 240.12,-21.5"/>
<polygon fill="midnightblue" stroke="midnightblue" points="241.42,-24.77 249.88,-18.39 239.29,-18.1 241.42,-24.77"/>
</g>
<!-- Node7 -->
<g id="node7" class="node">
<title>Node7</title>
<g id="a_node7"><a xlink:title=" ">
<polygon fill="white" stroke="#bfbfbf" points="92,-0.5 92,-19.5 136,-19.5 136,-0.5 92,-0.5"/>
<text text-anchor="middle" x="114" y="-7.5" font-family="Helvetica,sans-Serif" font-size="10.00">zmq.h</text>
</a>
</g>
</g>
<!-- Node6&#45;&gt;Node7 -->
<g id="edge8" class="edge">
<title>Node6&#45;&gt;Node7</title>
<path fill="none" stroke="midnightblue" d="M105.65,-56.08C106.98,-48.93 108.88,-38.64 110.54,-29.69"/>
<polygon fill="midnightblue" stroke="midnightblue" points="114,-30.22 112.38,-19.75 107.12,-28.95 114,-30.22"/>
</g>
</g>
</svg>
