<?xml version="1.0" encoding="UTF-8" standalone="no"?>
<!DOCTYPE svg PUBLIC "-//W3C//DTD SVG 1.1//EN"
 "http://www.w3.org/Graphics/SVG/1.1/DTD/svg11.dtd">
<!-- Generated by graphviz version 2.47.1 (20210417.1919)
 -->
<!-- Title: InterfaceC!/Interface/Json_parser.h Pages: 1 -->
<svg width="466pt" height="184pt"
 viewBox="0.00 0.00 466.00 184.00" xmlns="http://www.w3.org/2000/svg" xmlns:xlink="http://www.w3.org/1999/xlink">
<g id="graph0" class="graph" transform="scale(1 1) rotate(0) translate(4 180)">
<title>InterfaceC!/Interface/Json_parser.h</title>
<polygon fill="white" stroke="transparent" points="-4,4 -4,-180 462,-180 462,4 -4,4"/>
<!-- Node1 -->
<g id="node1" class="node">
<title>Node1</title>
<g id="a_node1"><a xlink:title=" ">
<polygon fill="#bfbfbf" stroke="black" points="79,-145.5 79,-175.5 181,-175.5 181,-145.5 79,-145.5"/>
<text text-anchor="start" x="87" y="-163.5" font-family="Helvetica,sans-Serif" font-size="10.00">InterfaceC!/Interface</text>
<text text-anchor="middle" x="130" y="-152.5" font-family="Helvetica,sans-Serif" font-size="10.00">/Json_parser.h</text>
</a>
</g>
</g>
<!-- Node2 -->
<g id="node2" class="node">
<title>Node2</title>
<g id="a_node2"><a xlink:href="Json__parser_8cpp.html" target="_top" xlink:title=" ">
<polygon fill="white" stroke="black" points="0,-78.5 0,-108.5 102,-108.5 102,-78.5 0,-78.5"/>
<text text-anchor="start" x="8" y="-96.5" font-family="Helvetica,sans-Serif" font-size="10.00">InterfaceC!/Interface</text>
<text text-anchor="middle" x="51" y="-85.5" font-family="Helvetica,sans-Serif" font-size="10.00">/Json_parser.cpp</text>
</a>
</g>
</g>
<!-- Node1&#45;&gt;Node2 -->
<g id="edge1" class="edge">
<title>Node1&#45;&gt;Node2</title>
<path fill="none" stroke="midnightblue" d="M104.94,-138.88C92.94,-129.01 78.87,-117.43 68.11,-108.58"/>
<polygon fill="midnightblue" stroke="midnightblue" points="102.91,-141.75 112.86,-145.4 107.36,-136.34 102.91,-141.75"/>
</g>
<!-- Node3 -->
<g id="node3" class="node">
<title>Node3</title>
<g id="a_node3"><a xlink:href="mainwindow_8cpp.html" target="_top" xlink:title=" ">
<polygon fill="white" stroke="black" points="62,-6 62,-36 164,-36 164,-6 62,-6"/>
<text text-anchor="start" x="70" y="-24" font-family="Helvetica,sans-Serif" font-size="10.00">InterfaceC!/Interface</text>
<text text-anchor="middle" x="113" y="-13" font-family="Helvetica,sans-Serif" font-size="10.00">/mainwindow.cpp</text>
</a>
</g>
</g>
<!-- Node1&#45;&gt;Node3 -->
<g id="edge2" class="edge">
<title>Node1&#45;&gt;Node3</title>
<path fill="none" stroke="midnightblue" d="M127.01,-135.29C123.46,-106.61 117.67,-59.78 114.77,-36.33"/>
<polygon fill="midnightblue" stroke="midnightblue" points="123.54,-135.81 128.24,-145.3 130.49,-134.95 123.54,-135.81"/>
</g>
<!-- Node4 -->
<g id="node4" class="node">
<title>Node4</title>
<g id="a_node4"><a xlink:href="mainwindow_8h.html" target="_top" xlink:title=" ">
<polygon fill="white" stroke="black" points="192,-78.5 192,-108.5 294,-108.5 294,-78.5 192,-78.5"/>
<text text-anchor="start" x="200" y="-96.5" font-family="Helvetica,sans-Serif" font-size="10.00">InterfaceC!/Interface</text>
<text text-anchor="middle" x="243" y="-85.5" font-family="Helvetica,sans-Serif" font-size="10.00">/mainwindow.h</text>
</a>
</g>
</g>
<!-- Node1&#45;&gt;Node4 -->
<g id="edge3" class="edge">
<title>Node1&#45;&gt;Node4</title>
<path fill="none" stroke="midnightblue" d="M163.39,-140.3C181.07,-130.12 202.4,-117.85 218.53,-108.58"/>
<polygon fill="midnightblue" stroke="midnightblue" points="161.44,-137.38 154.52,-145.4 164.93,-143.44 161.44,-137.38"/>
</g>
<!-- Node4&#45;&gt;Node3 -->
<g id="edge6" class="edge">
<title>Node4&#45;&gt;Node3</title>
<path fill="none" stroke="midnightblue" d="M208.07,-73.56C186.31,-61.76 158.78,-46.83 138.95,-36.07"/>
<polygon fill="midnightblue" stroke="midnightblue" points="206.55,-76.71 217.01,-78.4 209.88,-70.56 206.55,-76.71"/>
</g>
<!-- Node5 -->
<g id="node5" class="node">
<title>Node5</title>
<g id="a_node5"><a xlink:href="moc__mainwindow_8cpp.html" target="_top" xlink:title=" ">
<polygon fill="white" stroke="black" points="182.5,-0.5 182.5,-41.5 337.5,-41.5 337.5,-0.5 182.5,-0.5"/>
<text text-anchor="start" x="190.5" y="-29.5" font-family="Helvetica,sans-Serif" font-size="10.00">InterfaceC!/build&#45;Interface</text>
<text text-anchor="start" x="190.5" y="-18.5" font-family="Helvetica,sans-Serif" font-size="10.00">&#45;Desktop_Qt_5_9_1_GCC_64bit</text>
<text text-anchor="middle" x="260" y="-7.5" font-family="Helvetica,sans-Serif" font-size="10.00">&#45;Debug/moc_mainwindow.cpp</text>
</a>
</g>
</g>
<!-- Node4&#45;&gt;Node5 -->
<g id="edge4" class="edge">
<title>Node4&#45;&gt;Node5</title>
<path fill="none" stroke="midnightblue" d="M248.84,-68.27C250.94,-59.56 253.28,-49.85 255.28,-41.59"/>
<polygon fill="midnightblue" stroke="midnightblue" points="245.38,-67.69 246.44,-78.23 252.19,-69.33 245.38,-67.69"/>
</g>
<!-- Node6 -->
<g id="node6" class="node">
<title>Node6</title>
<g id="a_node6"><a xlink:href="main_8cpp.html" target="_top" xlink:title=" ">
<polygon fill="white" stroke="black" points="356,-6 356,-36 458,-36 458,-6 356,-6"/>
<text text-anchor="start" x="364" y="-24" font-family="Helvetica,sans-Serif" font-size="10.00">InterfaceC!/Interface</text>
<text text-anchor="middle" x="407" y="-13" font-family="Helvetica,sans-Serif" font-size="10.00">/main.cpp</text>
</a>
</g>
</g>
<!-- Node4&#45;&gt;Node6 -->
<g id="edge5" class="edge">
<title>Node4&#45;&gt;Node6</title>
<path fill="none" stroke="midnightblue" d="M285.24,-74.34C312.96,-62.42 348.69,-47.07 374.26,-36.07"/>
<polygon fill="midnightblue" stroke="midnightblue" points="283.6,-71.24 275.79,-78.4 286.36,-77.67 283.6,-71.24"/>
</g>
</g>
</svg>
