<?xml version="1.0" encoding="UTF-8" standalone="no"?>
<!DOCTYPE svg PUBLIC "-//W3C//DTD SVG 1.1//EN"
 "http://www.w3.org/Graphics/SVG/1.1/DTD/svg11.dtd">
<!-- Generated by graphviz version 2.47.1 (20210417.1919)
 -->
<!-- Title: Server/Llist.h Pages: 1 -->
<svg width="663pt" height="252pt"
 viewBox="0.00 0.00 663.00 252.00" xmlns="http://www.w3.org/2000/svg" xmlns:xlink="http://www.w3.org/1999/xlink">
<g id="graph0" class="graph" transform="scale(1 1) rotate(0) translate(4 248)">
<title>Server/Llist.h</title>
<polygon fill="white" stroke="transparent" points="-4,4 -4,-248 659,-248 659,4 -4,4"/>
<!-- Node1 -->
<g id="node1" class="node">
<title>Node1</title>
<g id="a_node1"><a xlink:title=" ">
<polygon fill="#bfbfbf" stroke="black" points="190.5,-224.5 190.5,-243.5 263.5,-243.5 263.5,-224.5 190.5,-224.5"/>
<text text-anchor="middle" x="227" y="-231.5" font-family="Helvetica,sans-Serif" font-size="10.00">Server/Llist.h</text>
</a>
</g>
</g>
<!-- Node2 -->
<g id="node2" class="node">
<title>Node2</title>
<g id="a_node2"><a xlink:href="Gcollector_8cpp.html" target="_top" xlink:title=" ">
<polygon fill="white" stroke="black" points="157,-0.5 157,-19.5 267,-19.5 267,-0.5 157,-0.5"/>
<text text-anchor="middle" x="212" y="-7.5" font-family="Helvetica,sans-Serif" font-size="10.00">Server/Gcollector.cpp</text>
</a>
</g>
</g>
<!-- Node1&#45;&gt;Node2 -->
<g id="edge1" class="edge">
<title>Node1&#45;&gt;Node2</title>
<path fill="none" stroke="midnightblue" d="M206.94,-218.17C174.96,-193.12 113.72,-138.94 91,-76 79.26,-43.48 119.64,-26.94 156.86,-18.72"/>
<polygon fill="midnightblue" stroke="midnightblue" points="205.06,-221.15 215.12,-224.45 209.32,-215.59 205.06,-221.15"/>
</g>
<!-- Node3 -->
<g id="node3" class="node">
<title>Node3</title>
<g id="a_node3"><a xlink:href="Gcollector_8h.html" target="_top" xlink:title=" ">
<polygon fill="white" stroke="black" points="177.5,-112.5 177.5,-131.5 276.5,-131.5 276.5,-112.5 177.5,-112.5"/>
<text text-anchor="middle" x="227" y="-119.5" font-family="Helvetica,sans-Serif" font-size="10.00">Server/Gcollector.h</text>
</a>
</g>
</g>
<!-- Node1&#45;&gt;Node3 -->
<g id="edge2" class="edge">
<title>Node1&#45;&gt;Node3</title>
<path fill="none" stroke="midnightblue" d="M227,-214.35C227,-190.25 227,-149.31 227,-131.59"/>
<polygon fill="midnightblue" stroke="midnightblue" points="223.5,-214.37 227,-224.37 230.5,-214.37 223.5,-214.37"/>
</g>
<!-- Node4 -->
<g id="node4" class="node">
<title>Node4</title>
<g id="a_node4"><a xlink:href="Llist_8cpp.html" target="_top" xlink:title=" ">
<polygon fill="white" stroke="black" points="100.5,-56.5 100.5,-75.5 183.5,-75.5 183.5,-56.5 100.5,-56.5"/>
<text text-anchor="middle" x="142" y="-63.5" font-family="Helvetica,sans-Serif" font-size="10.00">Server/Llist.cpp</text>
</a>
</g>
</g>
<!-- Node1&#45;&gt;Node4 -->
<g id="edge7" class="edge">
<title>Node1&#45;&gt;Node4</title>
<path fill="none" stroke="midnightblue" d="M215.9,-215.81C203.39,-196.05 182.87,-162.42 168,-132 158.39,-112.34 149.44,-88.19 144.97,-75.59"/>
<polygon fill="midnightblue" stroke="midnightblue" points="213.01,-217.78 221.34,-224.33 218.9,-214.01 213.01,-217.78"/>
</g>
<!-- Node7 -->
<g id="node7" class="node">
<title>Node7</title>
<g id="a_node7"><a xlink:href="Main_01Server_8cpp.html" target="_top" xlink:title=" ">
<polygon fill="white" stroke="black" points="0,-0.5 0,-19.5 116,-19.5 116,-0.5 0,-0.5"/>
<text text-anchor="middle" x="58" y="-7.5" font-family="Helvetica,sans-Serif" font-size="10.00">Server/Main Server.cpp</text>
</a>
</g>
</g>
<!-- Node1&#45;&gt;Node7 -->
<g id="edge8" class="edge">
<title>Node1&#45;&gt;Node7</title>
<path fill="none" stroke="midnightblue" d="M198.56,-219.93C182.98,-211.98 163.87,-200.89 149,-188 93.12,-139.57 67.07,-48.42 60.03,-19.82"/>
<polygon fill="midnightblue" stroke="midnightblue" points="197.22,-223.17 207.73,-224.46 200.31,-216.89 197.22,-223.17"/>
</g>
<!-- Node8 -->
<g id="node8" class="node">
<title>Node8</title>
<g id="a_node8"><a xlink:href="MemoryController_8h.html" target="_top" xlink:title=" ">
<polygon fill="white" stroke="black" points="396.5,-112.5 396.5,-131.5 527.5,-131.5 527.5,-112.5 396.5,-112.5"/>
<text text-anchor="middle" x="462" y="-119.5" font-family="Helvetica,sans-Serif" font-size="10.00">Server/MemoryController.h</text>
</a>
</g>
</g>
<!-- Node1&#45;&gt;Node8 -->
<g id="edge9" class="edge">
<title>Node1&#45;&gt;Node8</title>
<path fill="none" stroke="midnightblue" d="M273.56,-224.57C305.34,-217.62 347.73,-205.95 382,-188 411.17,-172.72 439.74,-145.83 453.5,-131.91"/>
<polygon fill="midnightblue" stroke="midnightblue" points="272.7,-221.18 263.64,-226.67 274.15,-228.03 272.7,-221.18"/>
</g>
<!-- Node11 -->
<g id="node11" class="node">
<title>Node11</title>
<g id="a_node11"><a xlink:href="Parser_8h.html" target="_top" xlink:title=" ">
<polygon fill="white" stroke="black" points="389.5,-56.5 389.5,-75.5 472.5,-75.5 472.5,-56.5 389.5,-56.5"/>
<text text-anchor="middle" x="431" y="-63.5" font-family="Helvetica,sans-Serif" font-size="10.00">Server/Parser.h</text>
</a>
</g>
</g>
<!-- Node1&#45;&gt;Node11 -->
<g id="edge19" class="edge">
<title>Node1&#45;&gt;Node11</title>
<path fill="none" stroke="midnightblue" d="M273.55,-224.23C298.01,-217.66 327.16,-206.51 348,-188 376.38,-162.78 364.81,-142.81 387,-112 397.09,-97.99 411.48,-84.13 421.03,-75.58"/>
<polygon fill="midnightblue" stroke="midnightblue" points="272.58,-220.86 263.74,-226.69 274.29,-227.65 272.58,-220.86"/>
</g>
<!-- Node12 -->
<g id="node12" class="node">
<title>Node12</title>
<g id="a_node12"><a xlink:href="Scope_8h.html" target="_top" xlink:title=" ">
<polygon fill="white" stroke="black" points="256.5,-168.5 256.5,-187.5 339.5,-187.5 339.5,-168.5 256.5,-168.5"/>
<text text-anchor="middle" x="298" y="-175.5" font-family="Helvetica,sans-Serif" font-size="10.00">Server/Scope.h</text>
</a>
</g>
</g>
<!-- Node1&#45;&gt;Node12 -->
<g id="edge20" class="edge">
<title>Node1&#45;&gt;Node12</title>
<path fill="none" stroke="midnightblue" d="M246.59,-218.1C259.37,-208.38 275.61,-196.03 286.39,-187.83"/>
<polygon fill="midnightblue" stroke="midnightblue" points="244.25,-215.48 238.41,-224.32 248.49,-221.06 244.25,-215.48"/>
</g>
<!-- Node3&#45;&gt;Node2 -->
<g id="edge3" class="edge">
<title>Node3&#45;&gt;Node2</title>
<path fill="none" stroke="midnightblue" d="M224.46,-102.35C221.17,-78.25 215.59,-37.31 213.17,-19.59"/>
<polygon fill="midnightblue" stroke="midnightblue" points="221,-102.93 225.82,-112.37 227.94,-101.99 221,-102.93"/>
</g>
<!-- Node3&#45;&gt;Node4 -->
<g id="edge4" class="edge">
<title>Node3&#45;&gt;Node4</title>
<path fill="none" stroke="midnightblue" d="M204.81,-106.9C189.22,-97 168.87,-84.07 155.62,-75.65"/>
<polygon fill="midnightblue" stroke="midnightblue" points="203.03,-109.92 213.34,-112.32 206.78,-104.01 203.03,-109.92"/>
</g>
<!-- Node5 -->
<g id="node5" class="node">
<title>Node5</title>
<g id="a_node5"><a xlink:href="MemoryController_8cpp.html" target="_top" xlink:title=" ">
<polygon fill="white" stroke="black" points="360,-0.5 360,-19.5 502,-19.5 502,-0.5 360,-0.5"/>
<text text-anchor="middle" x="431" y="-7.5" font-family="Helvetica,sans-Serif" font-size="10.00">Server/MemoryController.cpp</text>
</a>
</g>
</g>
<!-- Node3&#45;&gt;Node5 -->
<g id="edge5" class="edge">
<title>Node3&#45;&gt;Node5</title>
<path fill="none" stroke="midnightblue" d="M234.33,-102.84C241.19,-88.11 252.8,-67.91 269,-56 295.34,-36.63 329.64,-25.6 359.89,-19.31"/>
<polygon fill="midnightblue" stroke="midnightblue" points="230.96,-101.83 230.19,-112.4 237.38,-104.62 230.96,-101.83"/>
</g>
<!-- Node6 -->
<g id="node6" class="node">
<title>Node6</title>
<g id="a_node6"><a xlink:href="Scope_8cpp.html" target="_top" xlink:title=" ">
<polygon fill="white" stroke="black" points="278.5,-56.5 278.5,-75.5 371.5,-75.5 371.5,-56.5 278.5,-56.5"/>
<text text-anchor="middle" x="325" y="-63.5" font-family="Helvetica,sans-Serif" font-size="10.00">Server/Scope.cpp</text>
</a>
</g>
</g>
<!-- Node3&#45;&gt;Node6 -->
<g id="edge6" class="edge">
<title>Node3&#45;&gt;Node6</title>
<path fill="none" stroke="midnightblue" d="M251.59,-107.45C269.68,-97.48 293.73,-84.23 309.29,-75.65"/>
<polygon fill="midnightblue" stroke="midnightblue" points="249.81,-104.43 242.75,-112.32 253.19,-110.56 249.81,-104.43"/>
</g>
<!-- Node8&#45;&gt;Node5 -->
<g id="edge11" class="edge">
<title>Node8&#45;&gt;Node5</title>
<path fill="none" stroke="midnightblue" d="M532.16,-110.35C573.71,-100.92 614.41,-84.16 593,-56 580.19,-39.15 529.92,-26.95 488.74,-19.54"/>
<polygon fill="midnightblue" stroke="midnightblue" points="531.24,-106.97 522.19,-112.48 532.7,-113.82 531.24,-106.97"/>
</g>
<!-- Node8&#45;&gt;Node6 -->
<g id="edge18" class="edge">
<title>Node8&#45;&gt;Node6</title>
<path fill="none" stroke="midnightblue" d="M430.98,-108.77C405.24,-98.63 369.31,-84.47 346.61,-75.52"/>
<polygon fill="midnightblue" stroke="midnightblue" points="429.71,-112.03 440.29,-112.44 432.27,-105.52 429.71,-112.03"/>
</g>
<!-- Node9 -->
<g id="node9" class="node">
<title>Node9</title>
<g id="a_node9"><a xlink:href="LNode_8cpp.html" target="_top" xlink:title=" ">
<polygon fill="white" stroke="black" points="490.5,-56.5 490.5,-75.5 583.5,-75.5 583.5,-56.5 490.5,-56.5"/>
<text text-anchor="middle" x="537" y="-63.5" font-family="Helvetica,sans-Serif" font-size="10.00">Server/LNode.cpp</text>
</a>
</g>
</g>
<!-- Node8&#45;&gt;Node9 -->
<g id="edge10" class="edge">
<title>Node8&#45;&gt;Node9</title>
<path fill="none" stroke="midnightblue" d="M482.31,-106.38C495.86,-96.62 513.24,-84.11 524.73,-75.83"/>
<polygon fill="midnightblue" stroke="midnightblue" points="480.12,-103.64 474.05,-112.32 484.21,-109.32 480.12,-103.64"/>
</g>
<!-- Node10 -->
<g id="node10" class="node">
<title>Node10</title>
<g id="a_node10"><a xlink:href="Parser_8cpp.html" target="_top" xlink:title=" ">
<polygon fill="white" stroke="black" points="561,-0.5 561,-19.5 655,-19.5 655,-0.5 561,-0.5"/>
<text text-anchor="middle" x="608" y="-7.5" font-family="Helvetica,sans-Serif" font-size="10.00">Server/Parser.cpp</text>
</a>
</g>
</g>
<!-- Node8&#45;&gt;Node10 -->
<g id="edge12" class="edge">
<title>Node8&#45;&gt;Node10</title>
<path fill="none" stroke="midnightblue" d="M537.63,-116.03C564.56,-110.17 592.32,-98.55 609,-76 621.35,-59.3 615.43,-33.03 611.12,-19.57"/>
<polygon fill="midnightblue" stroke="midnightblue" points="536.92,-112.6 527.77,-117.94 538.25,-119.48 536.92,-112.6"/>
</g>
<!-- Node8&#45;&gt;Node11 -->
<g id="edge13" class="edge">
<title>Node8&#45;&gt;Node11</title>
<path fill="none" stroke="midnightblue" d="M451.82,-103.27C446.53,-94.05 440.28,-83.17 436.02,-75.75"/>
<polygon fill="midnightblue" stroke="midnightblue" points="448.87,-105.15 456.88,-112.08 454.94,-101.67 448.87,-105.15"/>
</g>
<!-- Node11&#45;&gt;Node2 -->
<g id="edge14" class="edge">
<title>Node11&#45;&gt;Node2</title>
<path fill="none" stroke="midnightblue" d="M386.49,-54.02C345.12,-43.82 284.36,-28.84 246.54,-19.52"/>
<polygon fill="midnightblue" stroke="midnightblue" points="385.75,-57.45 396.3,-56.44 387.43,-50.65 385.75,-57.45"/>
</g>
<!-- Node11&#45;&gt;Node5 -->
<g id="edge16" class="edge">
<title>Node11&#45;&gt;Node5</title>
<path fill="none" stroke="midnightblue" d="M431,-45.8C431,-36.91 431,-26.78 431,-19.75"/>
<polygon fill="midnightblue" stroke="midnightblue" points="427.5,-46.08 431,-56.08 434.5,-46.08 427.5,-46.08"/>
</g>
<!-- Node11&#45;&gt;Node7 -->
<g id="edge15" class="edge">
<title>Node11&#45;&gt;Node7</title>
<path fill="none" stroke="midnightblue" d="M379.17,-55.92C280.94,-40.5 178.69,-26.69 116.26,-18.5"/>
<polygon fill="midnightblue" stroke="midnightblue" points="378.85,-59.41 389.27,-57.51 379.94,-52.5 378.85,-59.41"/>
</g>
<!-- Node11&#45;&gt;Node10 -->
<g id="edge17" class="edge">
<title>Node11&#45;&gt;Node10</title>
<path fill="none" stroke="midnightblue" d="M468.9,-53.44C502.28,-43.26 550.1,-28.66 580.09,-19.52"/>
<polygon fill="midnightblue" stroke="midnightblue" points="467.59,-50.18 459.05,-56.44 469.63,-56.87 467.59,-50.18"/>
</g>
<!-- Node12&#45;&gt;Node6 -->
<g id="edge22" class="edge">
<title>Node12&#45;&gt;Node6</title>
<path fill="none" stroke="midnightblue" d="M302.58,-158.35C308.49,-134.25 318.54,-93.31 322.89,-75.59"/>
<polygon fill="midnightblue" stroke="midnightblue" points="299.1,-157.82 300.12,-168.37 305.9,-159.49 299.1,-157.82"/>
</g>
<!-- Node12&#45;&gt;Node8 -->
<g id="edge21" class="edge">
<title>Node12&#45;&gt;Node8</title>
<path fill="none" stroke="midnightblue" d="M333.52,-165.3C364.42,-155.13 408.47,-140.62 436.14,-131.52"/>
<polygon fill="midnightblue" stroke="midnightblue" points="332.39,-161.99 323.99,-168.44 334.58,-168.64 332.39,-161.99"/>
</g>
</g>
</svg>
