<?xml version="1.0" encoding="UTF-8" standalone="no"?>
<!DOCTYPE svg PUBLIC "-//W3C//DTD SVG 1.1//EN"
 "http://www.w3.org/Graphics/SVG/1.1/DTD/svg11.dtd">
<!-- Generated by graphviz version 2.47.1 (20210417.1919)
 -->
<!-- Title: Server/Llist.cpp Pages: 1 -->
<svg width="116pt" height="252pt"
 viewBox="0.00 0.00 116.00 252.00" xmlns="http://www.w3.org/2000/svg" xmlns:xlink="http://www.w3.org/1999/xlink">
<g id="graph0" class="graph" transform="scale(1 1) rotate(0) translate(4 248)">
<title>Server/Llist.cpp</title>
<polygon fill="white" stroke="transparent" points="-4,4 -4,-248 112,-248 112,4 -4,4"/>
<!-- Node1 -->
<g id="node1" class="node">
<title>Node1</title>
<g id="a_node1"><a xlink:title=" ">
<polygon fill="#bfbfbf" stroke="black" points="0,-224.5 0,-243.5 83,-243.5 83,-224.5 0,-224.5"/>
<text text-anchor="middle" x="41.5" y="-231.5" font-family="Helvetica,sans-Serif" font-size="10.00">Server/Llist.cpp</text>
</a>
</g>
</g>
<!-- Node2 -->
<g id="node2" class="node">
<title>Node2</title>
<g id="a_node2"><a xlink:href="Llist_8h.html" target="_top" xlink:title=" ">
<polygon fill="white" stroke="black" points="2,-112.5 2,-131.5 45,-131.5 45,-112.5 2,-112.5"/>
<text text-anchor="middle" x="23.5" y="-119.5" font-family="Helvetica,sans-Serif" font-size="10.00">Llist.h</text>
</a>
</g>
</g>
<!-- Node1&#45;&gt;Node2 -->
<g id="edge1" class="edge">
<title>Node1&#45;&gt;Node2</title>
<path fill="none" stroke="midnightblue" d="M39.05,-224.44C36.56,-215.44 32.75,-200.83 30.5,-188 27.8,-172.61 25.98,-154.97 24.88,-141.96"/>
<polygon fill="midnightblue" stroke="midnightblue" points="28.36,-141.58 24.08,-131.88 21.38,-142.13 28.36,-141.58"/>
</g>
<!-- Node5 -->
<g id="node5" class="node">
<title>Node5</title>
<g id="a_node5"><a xlink:href="Gcollector_8h.html" target="_top" xlink:title=" ">
<polygon fill="white" stroke="black" points="39,-168.5 39,-187.5 108,-187.5 108,-168.5 39,-168.5"/>
<text text-anchor="middle" x="73.5" y="-175.5" font-family="Helvetica,sans-Serif" font-size="10.00">Gcollector.h</text>
</a>
</g>
</g>
<!-- Node1&#45;&gt;Node5 -->
<g id="edge4" class="edge">
<title>Node1&#45;&gt;Node5</title>
<path fill="none" stroke="midnightblue" d="M46.78,-224.08C51.21,-216.61 57.66,-205.72 63.12,-196.52"/>
<polygon fill="midnightblue" stroke="midnightblue" points="66.23,-198.14 68.31,-187.75 60.21,-194.57 66.23,-198.14"/>
</g>
<!-- Node3 -->
<g id="node3" class="node">
<title>Node3</title>
<g id="a_node3"><a xlink:href="LNode_8h.html" target="_top" xlink:title=" ">
<polygon fill="white" stroke="black" points="22,-56.5 22,-75.5 75,-75.5 75,-56.5 22,-56.5"/>
<text text-anchor="middle" x="48.5" y="-63.5" font-family="Helvetica,sans-Serif" font-size="10.00">LNode.h</text>
</a>
</g>
</g>
<!-- Node2&#45;&gt;Node3 -->
<g id="edge2" class="edge">
<title>Node2&#45;&gt;Node3</title>
<path fill="none" stroke="midnightblue" d="M27.63,-112.08C31.01,-104.77 35.92,-94.18 40.12,-85.1"/>
<polygon fill="midnightblue" stroke="midnightblue" points="43.42,-86.3 44.45,-75.75 37.07,-83.36 43.42,-86.3"/>
</g>
<!-- Node4 -->
<g id="node4" class="node">
<title>Node4</title>
<g id="a_node4"><a xlink:title=" ">
<polygon fill="white" stroke="#bfbfbf" points="28,-0.5 28,-19.5 69,-19.5 69,-0.5 28,-0.5"/>
<text text-anchor="middle" x="48.5" y="-7.5" font-family="Helvetica,sans-Serif" font-size="10.00">string</text>
</a>
</g>
</g>
<!-- Node3&#45;&gt;Node4 -->
<g id="edge3" class="edge">
<title>Node3&#45;&gt;Node4</title>
<path fill="none" stroke="midnightblue" d="M48.5,-56.08C48.5,-49.01 48.5,-38.86 48.5,-29.99"/>
<polygon fill="midnightblue" stroke="midnightblue" points="52,-29.75 48.5,-19.75 45,-29.75 52,-29.75"/>
</g>
<!-- Node5&#45;&gt;Node2 -->
<g id="edge6" class="edge">
<title>Node5&#45;&gt;Node2</title>
<path fill="none" stroke="midnightblue" d="M65.24,-168.08C58.04,-160.3 47.39,-148.8 38.65,-139.37"/>
<polygon fill="midnightblue" stroke="midnightblue" points="40.97,-136.71 31.6,-131.75 35.83,-141.47 40.97,-136.71"/>
</g>
<!-- Node5&#45;&gt;Node3 -->
<g id="edge5" class="edge">
<title>Node5&#45;&gt;Node3</title>
<path fill="none" stroke="midnightblue" d="M71.54,-168.37C67.5,-150.62 58.2,-109.67 52.73,-85.6"/>
<polygon fill="midnightblue" stroke="midnightblue" points="56.08,-84.57 50.45,-75.59 49.26,-86.12 56.08,-84.57"/>
</g>
</g>
</svg>
