<?xml version="1.0" encoding="UTF-8" standalone="no"?>
<!DOCTYPE svg PUBLIC "-//W3C//DTD SVG 1.1//EN"
 "http://www.w3.org/Graphics/SVG/1.1/DTD/svg11.dtd">
<!-- Generated by graphviz version 2.47.1 (20210417.1919)
 -->
<!-- Title: Server/LNode.h Pages: 1 -->
<svg width="597pt" height="308pt"
 viewBox="0.00 0.00 597.00 308.00" xmlns="http://www.w3.org/2000/svg" xmlns:xlink="http://www.w3.org/1999/xlink">
<g id="graph0" class="graph" transform="scale(1 1) rotate(0) translate(4 304)">
<title>Server/LNode.h</title>
<polygon fill="white" stroke="transparent" points="-4,4 -4,-304 593,-304 593,4 -4,4"/>
<!-- Node1 -->
<g id="node1" class="node">
<title>Node1</title>
<g id="a_node1"><a xlink:title=" ">
<polygon fill="#bfbfbf" stroke="black" points="264.5,-280.5 264.5,-299.5 347.5,-299.5 347.5,-280.5 264.5,-280.5"/>
<text text-anchor="middle" x="306" y="-287.5" font-family="Helvetica,sans-Serif" font-size="10.00">Server/LNode.h</text>
</a>
</g>
</g>
<!-- Node2 -->
<g id="node2" class="node">
<title>Node2</title>
<g id="a_node2"><a xlink:href="Gcollector_8cpp.html" target="_top" xlink:title=" ">
<polygon fill="white" stroke="black" points="2,-0.5 2,-19.5 112,-19.5 112,-0.5 2,-0.5"/>
<text text-anchor="middle" x="57" y="-7.5" font-family="Helvetica,sans-Serif" font-size="10.00">Server/Gcollector.cpp</text>
</a>
</g>
</g>
<!-- Node1&#45;&gt;Node2 -->
<g id="edge1" class="edge">
<title>Node1&#45;&gt;Node2</title>
<path fill="none" stroke="midnightblue" d="M254.45,-281.36C167.24,-266.97 0,-232.42 0,-179 0,-179 0,-179 0,-121 0,-79.06 33.07,-37.19 48.83,-19.62"/>
<polygon fill="midnightblue" stroke="midnightblue" points="253.98,-284.83 264.41,-282.98 255.1,-277.92 253.98,-284.83"/>
</g>
<!-- Node3 -->
<g id="node3" class="node">
<title>Node3</title>
<g id="a_node3"><a xlink:href="Gcollector_8h.html" target="_top" xlink:title=" ">
<polygon fill="white" stroke="black" points="103.5,-168.5 103.5,-187.5 202.5,-187.5 202.5,-168.5 103.5,-168.5"/>
<text text-anchor="middle" x="153" y="-175.5" font-family="Helvetica,sans-Serif" font-size="10.00">Server/Gcollector.h</text>
</a>
</g>
</g>
<!-- Node1&#45;&gt;Node3 -->
<g id="edge2" class="edge">
<title>Node1&#45;&gt;Node3</title>
<path fill="none" stroke="midnightblue" d="M285.72,-274.42C253.36,-251.15 191.04,-206.35 164.95,-187.59"/>
<polygon fill="midnightblue" stroke="midnightblue" points="283.83,-277.37 293.99,-280.37 287.92,-271.69 283.83,-277.37"/>
</g>
<!-- Node7 -->
<g id="node7" class="node">
<title>Node7</title>
<g id="a_node7"><a xlink:href="Llist_8h.html" target="_top" xlink:title=" ">
<polygon fill="white" stroke="black" points="269.5,-224.5 269.5,-243.5 342.5,-243.5 342.5,-224.5 269.5,-224.5"/>
<text text-anchor="middle" x="306" y="-231.5" font-family="Helvetica,sans-Serif" font-size="10.00">Server/Llist.h</text>
</a>
</g>
</g>
<!-- Node1&#45;&gt;Node7 -->
<g id="edge7" class="edge">
<title>Node1&#45;&gt;Node7</title>
<path fill="none" stroke="midnightblue" d="M306,-269.8C306,-260.91 306,-250.78 306,-243.75"/>
<polygon fill="midnightblue" stroke="midnightblue" points="302.5,-270.08 306,-280.08 309.5,-270.08 302.5,-270.08"/>
</g>
<!-- Node10 -->
<g id="node10" class="node">
<title>Node10</title>
<g id="a_node10"><a xlink:href="LNode_8cpp.html" target="_top" xlink:title=" ">
<polygon fill="white" stroke="black" points="438.5,-56.5 438.5,-75.5 531.5,-75.5 531.5,-56.5 438.5,-56.5"/>
<text text-anchor="middle" x="485" y="-63.5" font-family="Helvetica,sans-Serif" font-size="10.00">Server/LNode.cpp</text>
</a>
</g>
</g>
<!-- Node1&#45;&gt;Node10 -->
<g id="edge26" class="edge">
<title>Node1&#45;&gt;Node10</title>
<path fill="none" stroke="midnightblue" d="M342.49,-277.07C363.27,-269.36 389.21,-258.13 410,-244 439.11,-224.22 445.84,-216.85 466,-188 486.45,-158.74 494.75,-147.59 492,-112 491.01,-99.23 488.47,-84.6 486.74,-75.58"/>
<polygon fill="midnightblue" stroke="midnightblue" points="341.28,-273.79 333.05,-280.47 343.65,-280.38 341.28,-273.79"/>
</g>
<!-- Node12 -->
<g id="node12" class="node">
<title>Node12</title>
<g id="a_node12"><a xlink:href="Parser_8h.html" target="_top" xlink:title=" ">
<polygon fill="white" stroke="black" points="337.5,-56.5 337.5,-75.5 420.5,-75.5 420.5,-56.5 337.5,-56.5"/>
<text text-anchor="middle" x="379" y="-63.5" font-family="Helvetica,sans-Serif" font-size="10.00">Server/Parser.h</text>
</a>
</g>
</g>
<!-- Node1&#45;&gt;Node12 -->
<g id="edge27" class="edge">
<title>Node1&#45;&gt;Node12</title>
<path fill="none" stroke="midnightblue" d="M332.63,-275.54C374.07,-252.74 451.76,-202.1 476,-132 478.91,-123.6 480.78,-119.49 476,-112 463.81,-92.91 441.21,-81.8 420.89,-75.39"/>
<polygon fill="midnightblue" stroke="midnightblue" points="330.8,-272.54 323.64,-280.35 334.11,-278.71 330.8,-272.54"/>
</g>
<!-- Node3&#45;&gt;Node2 -->
<g id="edge3" class="edge">
<title>Node3&#45;&gt;Node2</title>
<path fill="none" stroke="midnightblue" d="M142.77,-159.31C122.3,-123.92 76.99,-45.56 61.96,-19.57"/>
<polygon fill="midnightblue" stroke="midnightblue" points="139.8,-161.17 147.84,-168.08 145.86,-157.67 139.8,-161.17"/>
</g>
<!-- Node4 -->
<g id="node4" class="node">
<title>Node4</title>
<g id="a_node4"><a xlink:href="Llist_8cpp.html" target="_top" xlink:title=" ">
<polygon fill="white" stroke="black" points="180.5,-112.5 180.5,-131.5 263.5,-131.5 263.5,-112.5 180.5,-112.5"/>
<text text-anchor="middle" x="222" y="-119.5" font-family="Helvetica,sans-Serif" font-size="10.00">Server/Llist.cpp</text>
</a>
</g>
</g>
<!-- Node3&#45;&gt;Node4 -->
<g id="edge4" class="edge">
<title>Node3&#45;&gt;Node4</title>
<path fill="none" stroke="midnightblue" d="M172.04,-162.1C184.46,-152.38 200.24,-140.03 210.71,-131.83"/>
<polygon fill="midnightblue" stroke="midnightblue" points="169.8,-159.4 164.09,-168.32 174.12,-164.92 169.8,-159.4"/>
</g>
<!-- Node5 -->
<g id="node5" class="node">
<title>Node5</title>
<g id="a_node5"><a xlink:href="MemoryController_8cpp.html" target="_top" xlink:title=" ">
<polygon fill="white" stroke="black" points="172,-0.5 172,-19.5 314,-19.5 314,-0.5 172,-0.5"/>
<text text-anchor="middle" x="243" y="-7.5" font-family="Helvetica,sans-Serif" font-size="10.00">Server/MemoryController.cpp</text>
</a>
</g>
</g>
<!-- Node3&#45;&gt;Node5 -->
<g id="edge5" class="edge">
<title>Node3&#45;&gt;Node5</title>
<path fill="none" stroke="midnightblue" d="M144.31,-158.75C133.68,-133.48 119.45,-87.4 140,-56 152.45,-36.98 174.9,-25.95 195.67,-19.58"/>
<polygon fill="midnightblue" stroke="midnightblue" points="141.26,-160.5 148.54,-168.2 147.65,-157.65 141.26,-160.5"/>
</g>
<!-- Node6 -->
<g id="node6" class="node">
<title>Node6</title>
<g id="a_node6"><a xlink:href="Scope_8cpp.html" target="_top" xlink:title=" ">
<polygon fill="white" stroke="black" points="149.5,-56.5 149.5,-75.5 242.5,-75.5 242.5,-56.5 149.5,-56.5"/>
<text text-anchor="middle" x="196" y="-63.5" font-family="Helvetica,sans-Serif" font-size="10.00">Server/Scope.cpp</text>
</a>
</g>
</g>
<!-- Node3&#45;&gt;Node6 -->
<g id="edge6" class="edge">
<title>Node3&#45;&gt;Node6</title>
<path fill="none" stroke="midnightblue" d="M156.87,-158.58C159.94,-145.35 164.76,-127.24 171,-112 176.42,-98.77 184.83,-84.5 190.38,-75.66"/>
<polygon fill="midnightblue" stroke="midnightblue" points="153.45,-157.85 154.71,-168.37 160.28,-159.36 153.45,-157.85"/>
</g>
<!-- Node7&#45;&gt;Node2 -->
<g id="edge8" class="edge">
<title>Node7&#45;&gt;Node2</title>
<path fill="none" stroke="midnightblue" d="M258.9,-228.94C203.65,-223.2 116.71,-210.78 94,-188 46.57,-140.42 52.58,-48.7 55.83,-19.89"/>
<polygon fill="midnightblue" stroke="midnightblue" points="258.86,-232.46 269.16,-229.97 259.56,-225.49 258.86,-232.46"/>
</g>
<!-- Node7&#45;&gt;Node3 -->
<g id="edge9" class="edge">
<title>Node7&#45;&gt;Node3</title>
<path fill="none" stroke="midnightblue" d="M272.11,-221.04C243.32,-210.88 202.71,-196.55 177.13,-187.52"/>
<polygon fill="midnightblue" stroke="midnightblue" points="271.16,-224.42 281.76,-224.44 273.49,-217.81 271.16,-224.42"/>
</g>
<!-- Node7&#45;&gt;Node4 -->
<g id="edge10" class="edge">
<title>Node7&#45;&gt;Node4</title>
<path fill="none" stroke="midnightblue" d="M285.93,-218.26C275.79,-210.12 263.81,-199.38 255,-188 240.9,-169.79 230.17,-144.62 225.14,-131.59"/>
<polygon fill="midnightblue" stroke="midnightblue" points="283.85,-221.07 293.9,-224.43 288.13,-215.54 283.85,-221.07"/>
</g>
<!-- Node8 -->
<g id="node8" class="node">
<title>Node8</title>
<g id="a_node8"><a xlink:href="Main_01Server_8cpp.html" target="_top" xlink:title=" ">
<polygon fill="white" stroke="black" points="473,-0.5 473,-19.5 589,-19.5 589,-0.5 473,-0.5"/>
<text text-anchor="middle" x="531" y="-7.5" font-family="Helvetica,sans-Serif" font-size="10.00">Server/Main Server.cpp</text>
</a>
</g>
</g>
<!-- Node7&#45;&gt;Node8 -->
<g id="edge11" class="edge">
<title>Node7&#45;&gt;Node8</title>
<path fill="none" stroke="midnightblue" d="M352.67,-221.85C377.48,-214.6 407.78,-203.56 432,-188 490.44,-150.46 514.85,-140.35 541,-76 548.74,-56.96 540.65,-32.56 535.17,-19.75"/>
<polygon fill="midnightblue" stroke="midnightblue" points="351.44,-218.56 342.75,-224.63 353.33,-225.3 351.44,-218.56"/>
</g>
<!-- Node9 -->
<g id="node9" class="node">
<title>Node9</title>
<g id="a_node9"><a xlink:href="MemoryController_8h.html" target="_top" xlink:title=" ">
<polygon fill="white" stroke="black" points="320.5,-112.5 320.5,-131.5 451.5,-131.5 451.5,-112.5 320.5,-112.5"/>
<text text-anchor="middle" x="386" y="-119.5" font-family="Helvetica,sans-Serif" font-size="10.00">Server/MemoryController.h</text>
</a>
</g>
</g>
<!-- Node7&#45;&gt;Node9 -->
<g id="edge12" class="edge">
<title>Node7&#45;&gt;Node9</title>
<path fill="none" stroke="midnightblue" d="M326.14,-218.08C336.05,-209.99 347.64,-199.34 356,-188 369.42,-169.79 378.92,-144.62 383.29,-131.59"/>
<polygon fill="midnightblue" stroke="midnightblue" points="323.69,-215.55 317.98,-224.48 328.01,-221.06 323.69,-215.55"/>
</g>
<!-- Node7&#45;&gt;Node12 -->
<g id="edge22" class="edge">
<title>Node7&#45;&gt;Node12</title>
<path fill="none" stroke="midnightblue" d="M342.51,-220.87C379.74,-206.31 435.42,-177.93 460,-132 474.17,-105.53 435.64,-86 406.97,-75.57"/>
<polygon fill="midnightblue" stroke="midnightblue" points="341.13,-217.65 333.01,-224.45 343.6,-224.2 341.13,-217.65"/>
</g>
<!-- Node13 -->
<g id="node13" class="node">
<title>Node13</title>
<g id="a_node13"><a xlink:href="Scope_8h.html" target="_top" xlink:title=" ">
<polygon fill="white" stroke="black" points="264.5,-168.5 264.5,-187.5 347.5,-187.5 347.5,-168.5 264.5,-168.5"/>
<text text-anchor="middle" x="306" y="-175.5" font-family="Helvetica,sans-Serif" font-size="10.00">Server/Scope.h</text>
</a>
</g>
</g>
<!-- Node7&#45;&gt;Node13 -->
<g id="edge23" class="edge">
<title>Node7&#45;&gt;Node13</title>
<path fill="none" stroke="midnightblue" d="M306,-213.8C306,-204.91 306,-194.78 306,-187.75"/>
<polygon fill="midnightblue" stroke="midnightblue" points="302.5,-214.08 306,-224.08 309.5,-214.08 302.5,-214.08"/>
</g>
<!-- Node9&#45;&gt;Node5 -->
<g id="edge14" class="edge">
<title>Node9&#45;&gt;Node5</title>
<path fill="none" stroke="midnightblue" d="M364.6,-106.55C352.02,-97.91 335.91,-86.59 322,-76 296.56,-56.64 267.84,-32.37 253.03,-19.66"/>
<polygon fill="midnightblue" stroke="midnightblue" points="362.81,-109.57 373.05,-112.32 366.76,-103.79 362.81,-109.57"/>
</g>
<!-- Node9&#45;&gt;Node6 -->
<g id="edge21" class="edge">
<title>Node9&#45;&gt;Node6</title>
<path fill="none" stroke="midnightblue" d="M346.24,-109.7C310.38,-99.51 258.43,-84.74 225.97,-75.52"/>
<polygon fill="midnightblue" stroke="midnightblue" points="345.32,-113.08 355.89,-112.44 347.23,-106.34 345.32,-113.08"/>
</g>
<!-- Node9&#45;&gt;Node10 -->
<g id="edge13" class="edge">
<title>Node9&#45;&gt;Node10</title>
<path fill="none" stroke="midnightblue" d="M410.84,-107.45C429.11,-97.48 453.42,-84.23 469.13,-75.65"/>
<polygon fill="midnightblue" stroke="midnightblue" points="409.01,-104.46 401.91,-112.32 412.36,-110.61 409.01,-104.46"/>
</g>
<!-- Node11 -->
<g id="node11" class="node">
<title>Node11</title>
<g id="a_node11"><a xlink:href="Parser_8cpp.html" target="_top" xlink:title=" ">
<polygon fill="white" stroke="black" points="332,-0.5 332,-19.5 426,-19.5 426,-0.5 332,-0.5"/>
<text text-anchor="middle" x="379" y="-7.5" font-family="Helvetica,sans-Serif" font-size="10.00">Server/Parser.cpp</text>
</a>
</g>
</g>
<!-- Node9&#45;&gt;Node11 -->
<g id="edge15" class="edge">
<title>Node9&#45;&gt;Node11</title>
<path fill="none" stroke="midnightblue" d="M358.87,-107.32C347.1,-99.82 334.52,-89.32 328,-76 316.96,-53.46 344.84,-31.36 363.6,-19.63"/>
<polygon fill="midnightblue" stroke="midnightblue" points="357.22,-110.41 367.61,-112.47 360.77,-104.38 357.22,-110.41"/>
</g>
<!-- Node9&#45;&gt;Node12 -->
<g id="edge16" class="edge">
<title>Node9&#45;&gt;Node12</title>
<path fill="none" stroke="midnightblue" d="M383.55,-102.1C382.39,-93.14 381.06,-82.86 380.13,-75.75"/>
<polygon fill="midnightblue" stroke="midnightblue" points="380.09,-102.62 384.84,-112.08 387.03,-101.72 380.09,-102.62"/>
</g>
<!-- Node12&#45;&gt;Node2 -->
<g id="edge17" class="edge">
<title>Node12&#45;&gt;Node2</title>
<path fill="none" stroke="midnightblue" d="M327.16,-56.31C266.75,-46.18 167.61,-29.55 107.7,-19.5"/>
<polygon fill="midnightblue" stroke="midnightblue" points="326.79,-59.79 337.23,-58 327.95,-52.89 326.79,-59.79"/>
</g>
<!-- Node12&#45;&gt;Node5 -->
<g id="edge19" class="edge">
<title>Node12&#45;&gt;Node5</title>
<path fill="none" stroke="midnightblue" d="M347.87,-52.64C322.34,-42.5 286.89,-28.43 264.45,-19.52"/>
<polygon fill="midnightblue" stroke="midnightblue" points="346.86,-56.01 357.45,-56.44 349.45,-49.5 346.86,-56.01"/>
</g>
<!-- Node12&#45;&gt;Node8 -->
<g id="edge18" class="edge">
<title>Node12&#45;&gt;Node8</title>
<path fill="none" stroke="midnightblue" d="M412.67,-53.04C441.27,-42.88 481.61,-28.55 507.03,-19.52"/>
<polygon fill="midnightblue" stroke="midnightblue" points="411.34,-49.8 403.08,-56.44 413.68,-56.39 411.34,-49.8"/>
</g>
<!-- Node12&#45;&gt;Node11 -->
<g id="edge20" class="edge">
<title>Node12&#45;&gt;Node11</title>
<path fill="none" stroke="midnightblue" d="M379,-45.8C379,-36.91 379,-26.78 379,-19.75"/>
<polygon fill="midnightblue" stroke="midnightblue" points="375.5,-46.08 379,-56.08 382.5,-46.08 375.5,-46.08"/>
</g>
<!-- Node13&#45;&gt;Node6 -->
<g id="edge25" class="edge">
<title>Node13&#45;&gt;Node6</title>
<path fill="none" stroke="midnightblue" d="M299.54,-158.5C293.93,-144.48 284.71,-125.4 272,-112 256.49,-95.65 233.73,-83.24 217.16,-75.63"/>
<polygon fill="midnightblue" stroke="midnightblue" points="296.33,-159.92 303.12,-168.06 302.89,-157.47 296.33,-159.92"/>
</g>
<!-- Node13&#45;&gt;Node9 -->
<g id="edge24" class="edge">
<title>Node13&#45;&gt;Node9</title>
<path fill="none" stroke="midnightblue" d="M327.3,-162.62C341.92,-152.76 360.83,-139.99 373.18,-131.65"/>
<polygon fill="midnightblue" stroke="midnightblue" points="325.18,-159.83 318.85,-168.32 329.1,-165.63 325.18,-159.83"/>
</g>
</g>
</svg>
