<?xml version="1.0" encoding="UTF-8" standalone="no"?>
<!DOCTYPE svg PUBLIC "-//W3C//DTD SVG 1.1//EN"
 "http://www.w3.org/Graphics/SVG/1.1/DTD/svg11.dtd">
<!-- Generated by graphviz version 2.47.1 (20210417.1919)
 -->
<!-- Title: Server/LNode.cpp Pages: 1 -->
<svg width="370pt" height="308pt"
 viewBox="0.00 0.00 369.50 308.00" xmlns="http://www.w3.org/2000/svg" xmlns:xlink="http://www.w3.org/1999/xlink">
<g id="graph0" class="graph" transform="scale(1 1) rotate(0) translate(4 304)">
<title>Server/LNode.cpp</title>
<polygon fill="white" stroke="transparent" points="-4,4 -4,-304 365.5,-304 365.5,4 -4,4"/>
<!-- Node1 -->
<g id="node1" class="node">
<title>Node1</title>
<g id="a_node1"><a xlink:title=" ">
<polygon fill="#bfbfbf" stroke="black" points="0,-280.5 0,-299.5 93,-299.5 93,-280.5 0,-280.5"/>
<text text-anchor="middle" x="46.5" y="-287.5" font-family="Helvetica,sans-Serif" font-size="10.00">Server/LNode.cpp</text>
</a>
</g>
</g>
<!-- Node2 -->
<g id="node2" class="node">
<title>Node2</title>
<g id="a_node2"><a xlink:href="LNode_8h.html" target="_top" xlink:title=" ">
<polygon fill="white" stroke="black" points="20,-56.5 20,-75.5 73,-75.5 73,-56.5 20,-56.5"/>
<text text-anchor="middle" x="46.5" y="-63.5" font-family="Helvetica,sans-Serif" font-size="10.00">LNode.h</text>
</a>
</g>
</g>
<!-- Node1&#45;&gt;Node2 -->
<g id="edge1" class="edge">
<title>Node1&#45;&gt;Node2</title>
<path fill="none" stroke="midnightblue" d="M41.78,-280.32C31.61,-260.62 9.07,-210.89 15.5,-168 19.97,-138.17 31.49,-104.99 39.16,-85.07"/>
<polygon fill="midnightblue" stroke="midnightblue" points="42.44,-86.3 42.85,-75.71 35.93,-83.73 42.44,-86.3"/>
</g>
<!-- Node4 -->
<g id="node4" class="node">
<title>Node4</title>
<g id="a_node4"><a xlink:href="MemoryController_8h.html" target="_top" xlink:title=" ">
<polygon fill="white" stroke="black" points="73,-224.5 73,-243.5 174,-243.5 174,-224.5 73,-224.5"/>
<text text-anchor="middle" x="123.5" y="-231.5" font-family="Helvetica,sans-Serif" font-size="10.00">MemoryController.h</text>
</a>
</g>
</g>
<!-- Node1&#45;&gt;Node4 -->
<g id="edge3" class="edge">
<title>Node1&#45;&gt;Node4</title>
<path fill="none" stroke="midnightblue" d="M58.87,-280.32C70.66,-272.06 88.63,-259.45 102.64,-249.63"/>
<polygon fill="midnightblue" stroke="midnightblue" points="104.98,-252.26 111.16,-243.65 100.96,-246.53 104.98,-252.26"/>
</g>
<!-- Node3 -->
<g id="node3" class="node">
<title>Node3</title>
<g id="a_node3"><a xlink:title=" ">
<polygon fill="white" stroke="#bfbfbf" points="26,-0.5 26,-19.5 67,-19.5 67,-0.5 26,-0.5"/>
<text text-anchor="middle" x="46.5" y="-7.5" font-family="Helvetica,sans-Serif" font-size="10.00">string</text>
</a>
</g>
</g>
<!-- Node2&#45;&gt;Node3 -->
<g id="edge2" class="edge">
<title>Node2&#45;&gt;Node3</title>
<path fill="none" stroke="midnightblue" d="M46.5,-56.08C46.5,-49.01 46.5,-38.86 46.5,-29.99"/>
<polygon fill="midnightblue" stroke="midnightblue" points="50,-29.75 46.5,-19.75 43,-29.75 50,-29.75"/>
</g>
<!-- Node5 -->
<g id="node5" class="node">
<title>Node5</title>
<g id="a_node5"><a xlink:title=" ">
<polygon fill="white" stroke="#bfbfbf" points="25,-168.5 25,-187.5 68,-187.5 68,-168.5 25,-168.5"/>
<text text-anchor="middle" x="46.5" y="-175.5" font-family="Helvetica,sans-Serif" font-size="10.00">cstdio</text>
</a>
</g>
</g>
<!-- Node4&#45;&gt;Node5 -->
<g id="edge4" class="edge">
<title>Node4&#45;&gt;Node5</title>
<path fill="none" stroke="midnightblue" d="M111.13,-224.32C99.34,-216.06 81.37,-203.45 67.36,-193.63"/>
<polygon fill="midnightblue" stroke="midnightblue" points="69.04,-190.53 58.84,-187.65 65.02,-196.26 69.04,-190.53"/>
</g>
<!-- Node6 -->
<g id="node6" class="node">
<title>Node6</title>
<g id="a_node6"><a xlink:href="Llist_8h.html" target="_top" xlink:title=" ">
<polygon fill="white" stroke="black" points="75,-112.5 75,-131.5 118,-131.5 118,-112.5 75,-112.5"/>
<text text-anchor="middle" x="96.5" y="-119.5" font-family="Helvetica,sans-Serif" font-size="10.00">Llist.h</text>
</a>
</g>
</g>
<!-- Node4&#45;&gt;Node6 -->
<g id="edge5" class="edge">
<title>Node4&#45;&gt;Node6</title>
<path fill="none" stroke="midnightblue" d="M121.38,-224.37C117.02,-206.62 106.97,-165.67 101.06,-141.6"/>
<polygon fill="midnightblue" stroke="midnightblue" points="104.39,-140.47 98.61,-131.59 97.59,-142.14 104.39,-140.47"/>
</g>
<!-- Node7 -->
<g id="node7" class="node">
<title>Node7</title>
<g id="a_node7"><a xlink:href="Scope_8h.html" target="_top" xlink:title=" ">
<polygon fill="white" stroke="black" points="125,-168.5 125,-187.5 178,-187.5 178,-168.5 125,-168.5"/>
<text text-anchor="middle" x="151.5" y="-175.5" font-family="Helvetica,sans-Serif" font-size="10.00">Scope.h</text>
</a>
</g>
</g>
<!-- Node4&#45;&gt;Node7 -->
<g id="edge7" class="edge">
<title>Node4&#45;&gt;Node7</title>
<path fill="none" stroke="midnightblue" d="M128.12,-224.08C131.96,-216.69 137.52,-205.95 142.26,-196.81"/>
<polygon fill="midnightblue" stroke="midnightblue" points="145.47,-198.24 146.96,-187.75 139.25,-195.02 145.47,-198.24"/>
</g>
<!-- Node8 -->
<g id="node8" class="node">
<title>Node8</title>
<g id="a_node8"><a xlink:title=" ">
<polygon fill="white" stroke="#bfbfbf" points="196,-168.5 196,-187.5 245,-187.5 245,-168.5 196,-168.5"/>
<text text-anchor="middle" x="220.5" y="-175.5" font-family="Helvetica,sans-Serif" font-size="10.00">string.h</text>
</a>
</g>
</g>
<!-- Node4&#45;&gt;Node8 -->
<g id="edge9" class="edge">
<title>Node4&#45;&gt;Node8</title>
<path fill="none" stroke="midnightblue" d="M139.08,-224.32C154.5,-215.74 178.31,-202.49 196.21,-192.52"/>
<polygon fill="midnightblue" stroke="midnightblue" points="197.92,-195.58 204.95,-187.65 194.51,-189.46 197.92,-195.58"/>
</g>
<!-- Node9 -->
<g id="node9" class="node">
<title>Node9</title>
<g id="a_node9"><a xlink:title=" ">
<polygon fill="white" stroke="#bfbfbf" points="263.5,-168.5 263.5,-187.5 361.5,-187.5 361.5,-168.5 263.5,-168.5"/>
<text text-anchor="middle" x="312.5" y="-175.5" font-family="Helvetica,sans-Serif" font-size="10.00">nlohmann/json.hpp</text>
</a>
</g>
</g>
<!-- Node4&#45;&gt;Node9 -->
<g id="edge10" class="edge">
<title>Node4&#45;&gt;Node9</title>
<path fill="none" stroke="midnightblue" d="M153.45,-224.44C185.66,-215.24 237.03,-200.56 272.64,-190.39"/>
<polygon fill="midnightblue" stroke="midnightblue" points="274.04,-193.63 282.69,-187.52 272.12,-186.9 274.04,-193.63"/>
</g>
<!-- Node6&#45;&gt;Node2 -->
<g id="edge6" class="edge">
<title>Node6&#45;&gt;Node2</title>
<path fill="none" stroke="midnightblue" d="M88.24,-112.08C81.04,-104.3 70.39,-92.8 61.65,-83.37"/>
<polygon fill="midnightblue" stroke="midnightblue" points="63.97,-80.71 54.6,-75.75 58.83,-85.47 63.97,-80.71"/>
</g>
<!-- Node7&#45;&gt;Node6 -->
<g id="edge8" class="edge">
<title>Node7&#45;&gt;Node6</title>
<path fill="none" stroke="midnightblue" d="M142.42,-168.08C134.33,-160.14 122.3,-148.34 112.59,-138.8"/>
<polygon fill="midnightblue" stroke="midnightblue" points="115,-136.26 105.41,-131.75 110.1,-141.25 115,-136.26"/>
</g>
</g>
</svg>
