<?xml version="1.0" encoding="UTF-8" standalone="no"?>
<!DOCTYPE svg PUBLIC "-//W3C//DTD SVG 1.1//EN"
 "http://www.w3.org/Graphics/SVG/1.1/DTD/svg11.dtd">
<!-- Generated by graphviz version 2.47.1 (20210417.1919)
 -->
<!-- Title: Client/loggerC.cpp Pages: 1 -->
<svg width="1815pt" height="162pt"
 viewBox="0.00 0.00 1815.00 162.00" xmlns="http://www.w3.org/2000/svg" xmlns:xlink="http://www.w3.org/1999/xlink">
<g id="graph0" class="graph" transform="scale(1 1) rotate(0) translate(4 158)">
<title>Client/loggerC.cpp</title>
<polygon fill="white" stroke="transparent" points="-4,4 -4,-158 1811,-158 1811,4 -4,4"/>
<!-- Node1 -->
<g id="node1" class="node">
<title>Node1</title>
<g id="a_node1"><a xlink:title=" ">
<polygon fill="#bfbfbf" stroke="black" points="866,-134.5 866,-153.5 962,-153.5 962,-134.5 866,-134.5"/>
<text text-anchor="middle" x="914" y="-141.5" font-family="Helvetica,sans-Serif" font-size="10.00">Client/loggerC.cpp</text>
</a>
</g>
</g>
<!-- Node2 -->
<g id="node2" class="node">
<title>Node2</title>
<g id="a_node2"><a xlink:href="loggerC_8h.html" target="_top" xlink:title=" ">
<polygon fill="white" stroke="black" points="78,-73 78,-92 136,-92 136,-73 78,-73"/>
<text text-anchor="middle" x="107" y="-80" font-family="Helvetica,sans-Serif" font-size="10.00">loggerC.h</text>
</a>
</g>
</g>
<!-- Node1&#45;&gt;Node2 -->
<g id="edge1" class="edge">
<title>Node1&#45;&gt;Node2</title>
<path fill="none" stroke="midnightblue" d="M865.76,-142.04C719.8,-138.86 284.46,-127.11 146,-98 142.75,-97.32 139.41,-96.41 136.11,-95.38"/>
<polygon fill="midnightblue" stroke="midnightblue" points="137.1,-92.02 126.5,-92.04 134.8,-98.63 137.1,-92.02"/>
</g>
<!-- Node3 -->
<g id="node3" class="node">
<title>Node3</title>
<g id="a_node3"><a xlink:title=" ">
<polygon fill="white" stroke="#bfbfbf" points="0,-6 0,-25 100,-25 100,-6 0,-6"/>
<text text-anchor="middle" x="50" y="-13" font-family="Helvetica,sans-Serif" font-size="10.00">boost/log/trivial.hpp</text>
</a>
</g>
</g>
<!-- Node1&#45;&gt;Node3 -->
<g id="edge11" class="edge">
<title>Node1&#45;&gt;Node3</title>
<path fill="none" stroke="midnightblue" d="M865.7,-142.02C690.87,-138.27 99.68,-123.71 69,-98 50.93,-82.86 48.13,-54.17 48.51,-35.19"/>
<polygon fill="midnightblue" stroke="midnightblue" points="52.01,-35.24 49.02,-25.08 45.02,-34.89 52.01,-35.24"/>
</g>
<!-- Node5 -->
<g id="node5" class="node">
<title>Node5</title>
<g id="a_node5"><a xlink:title=" ">
<polygon fill="white" stroke="#bfbfbf" points="154.5,-73 154.5,-92 273.5,-92 273.5,-73 154.5,-73"/>
<text text-anchor="middle" x="214" y="-80" font-family="Helvetica,sans-Serif" font-size="10.00">boost/log/core/core.hpp</text>
</a>
</g>
</g>
<!-- Node1&#45;&gt;Node5 -->
<g id="edge4" class="edge">
<title>Node1&#45;&gt;Node5</title>
<path fill="none" stroke="midnightblue" d="M865.88,-141.8C760.02,-138.67 499.17,-128.28 283,-98 275.5,-96.95 267.59,-95.56 259.91,-94.06"/>
<polygon fill="midnightblue" stroke="midnightblue" points="260.5,-90.6 250.01,-92.03 259.1,-97.46 260.5,-90.6"/>
</g>
<!-- Node6 -->
<g id="node6" class="node">
<title>Node6</title>
<g id="a_node6"><a xlink:title=" ">
<polygon fill="white" stroke="#bfbfbf" points="292,-67.5 292,-97.5 420,-97.5 420,-67.5 292,-67.5"/>
<text text-anchor="start" x="300" y="-85.5" font-family="Helvetica,sans-Serif" font-size="10.00">boost/log/expressions</text>
<text text-anchor="middle" x="356" y="-74.5" font-family="Helvetica,sans-Serif" font-size="10.00">/formatters/date_time.hpp</text>
</a>
</g>
</g>
<!-- Node1&#45;&gt;Node6 -->
<g id="edge5" class="edge">
<title>Node1&#45;&gt;Node6</title>
<path fill="none" stroke="midnightblue" d="M865.72,-140.13C778.44,-134.58 588.7,-120.87 430,-98 429.9,-97.99 429.8,-97.97 429.7,-97.96"/>
<polygon fill="midnightblue" stroke="midnightblue" points="430.53,-94.54 420.11,-96.47 429.45,-101.46 430.53,-94.54"/>
</g>
<!-- Node7 -->
<g id="node7" class="node">
<title>Node7</title>
<g id="a_node7"><a xlink:title=" ">
<polygon fill="white" stroke="#bfbfbf" points="438.5,-73 438.5,-92 569.5,-92 569.5,-73 438.5,-73"/>
<text text-anchor="middle" x="504" y="-80" font-family="Helvetica,sans-Serif" font-size="10.00">boost/log/expressions.hpp</text>
</a>
</g>
</g>
<!-- Node1&#45;&gt;Node7 -->
<g id="edge6" class="edge">
<title>Node1&#45;&gt;Node7</title>
<path fill="none" stroke="midnightblue" d="M865.88,-137.42C800.7,-129.65 680.78,-114.66 579,-98 571.54,-96.78 563.68,-95.38 555.97,-93.95"/>
<polygon fill="midnightblue" stroke="midnightblue" points="556.45,-90.48 545.97,-92.06 555.15,-97.35 556.45,-90.48"/>
</g>
<!-- Node8 -->
<g id="node8" class="node">
<title>Node8</title>
<g id="a_node8"><a xlink:title=" ">
<polygon fill="white" stroke="#bfbfbf" points="587.5,-67.5 587.5,-97.5 694.5,-97.5 694.5,-67.5 587.5,-67.5"/>
<text text-anchor="start" x="595.5" y="-85.5" font-family="Helvetica,sans-Serif" font-size="10.00">boost/log/sinks/sync</text>
<text text-anchor="middle" x="641" y="-74.5" font-family="Helvetica,sans-Serif" font-size="10.00">_frontend.hpp</text>
</a>
</g>
</g>
<!-- Node1&#45;&gt;Node8 -->
<g id="edge7" class="edge">
<title>Node1&#45;&gt;Node8</title>
<path fill="none" stroke="midnightblue" d="M873.31,-134.47C833.04,-125.99 769.38,-112.46 704.59,-98.11"/>
<polygon fill="midnightblue" stroke="midnightblue" points="705.12,-94.65 694.6,-95.9 703.61,-101.48 705.12,-94.65"/>
</g>
<!-- Node9 -->
<g id="node9" class="node">
<title>Node9</title>
<g id="a_node9"><a xlink:title=" ">
<polygon fill="white" stroke="#bfbfbf" points="713,-67.5 713,-97.5 831,-97.5 831,-67.5 713,-67.5"/>
<text text-anchor="start" x="721" y="-85.5" font-family="Helvetica,sans-Serif" font-size="10.00">boost/log/sinks/text</text>
<text text-anchor="middle" x="772" y="-74.5" font-family="Helvetica,sans-Serif" font-size="10.00">_ostream_backend.hpp</text>
</a>
</g>
</g>
<!-- Node1&#45;&gt;Node9 -->
<g id="edge8" class="edge">
<title>Node1&#45;&gt;Node9</title>
<path fill="none" stroke="midnightblue" d="M893.65,-134.48C873.16,-125.89 840.93,-112.38 814.79,-101.43"/>
<polygon fill="midnightblue" stroke="midnightblue" points="816.04,-98.16 805.47,-97.52 813.34,-104.62 816.04,-98.16"/>
</g>
<!-- Node10 -->
<g id="node10" class="node">
<title>Node10</title>
<g id="a_node10"><a xlink:title=" ">
<polygon fill="white" stroke="#bfbfbf" points="849,-67.5 849,-97.5 979,-97.5 979,-67.5 849,-67.5"/>
<text text-anchor="start" x="857" y="-85.5" font-family="Helvetica,sans-Serif" font-size="10.00">boost/log/sources/severity</text>
<text text-anchor="middle" x="914" y="-74.5" font-family="Helvetica,sans-Serif" font-size="10.00">_logger.hpp</text>
</a>
</g>
</g>
<!-- Node1&#45;&gt;Node10 -->
<g id="edge9" class="edge">
<title>Node1&#45;&gt;Node10</title>
<path fill="none" stroke="midnightblue" d="M914,-134.48C914,-127.47 914,-117.19 914,-107.7"/>
<polygon fill="midnightblue" stroke="midnightblue" points="917.5,-107.52 914,-97.52 910.5,-107.52 917.5,-107.52"/>
</g>
<!-- Node11 -->
<g id="node11" class="node">
<title>Node11</title>
<g id="a_node11"><a xlink:title=" ">
<polygon fill="white" stroke="#bfbfbf" points="997.5,-67.5 997.5,-97.5 1110.5,-97.5 1110.5,-67.5 997.5,-67.5"/>
<text text-anchor="start" x="1005.5" y="-85.5" font-family="Helvetica,sans-Serif" font-size="10.00">boost/log/support/date</text>
<text text-anchor="middle" x="1054" y="-74.5" font-family="Helvetica,sans-Serif" font-size="10.00">_time.hpp</text>
</a>
</g>
</g>
<!-- Node1&#45;&gt;Node11 -->
<g id="edge10" class="edge">
<title>Node1&#45;&gt;Node11</title>
<path fill="none" stroke="midnightblue" d="M934.06,-134.48C954.17,-125.93 985.76,-112.5 1011.47,-101.57"/>
<polygon fill="midnightblue" stroke="midnightblue" points="1013.17,-104.66 1021,-97.52 1010.43,-98.21 1013.17,-104.66"/>
</g>
<!-- Node12 -->
<g id="node12" class="node">
<title>Node12</title>
<g id="a_node12"><a xlink:title=" ">
<polygon fill="white" stroke="#bfbfbf" points="1129,-73 1129,-92 1263,-92 1263,-73 1129,-73"/>
<text text-anchor="middle" x="1196" y="-80" font-family="Helvetica,sans-Serif" font-size="10.00">boost/core/null_deleter.hpp</text>
</a>
</g>
</g>
<!-- Node1&#45;&gt;Node12 -->
<g id="edge12" class="edge">
<title>Node1&#45;&gt;Node12</title>
<path fill="none" stroke="midnightblue" d="M954.4,-134.48C1004.87,-123.83 1091.21,-105.61 1145.85,-94.08"/>
<polygon fill="midnightblue" stroke="midnightblue" points="1146.61,-97.5 1155.67,-92.01 1145.16,-90.65 1146.61,-97.5"/>
</g>
<!-- Node13 -->
<g id="node13" class="node">
<title>Node13</title>
<g id="a_node13"><a xlink:title=" ">
<polygon fill="white" stroke="#bfbfbf" points="1281,-67.5 1281,-97.5 1403,-97.5 1403,-67.5 1281,-67.5"/>
<text text-anchor="start" x="1289" y="-85.5" font-family="Helvetica,sans-Serif" font-size="10.00">boost/log/utility/setup</text>
<text text-anchor="middle" x="1342" y="-74.5" font-family="Helvetica,sans-Serif" font-size="10.00">/common_attributes.hpp</text>
</a>
</g>
</g>
<!-- Node1&#45;&gt;Node13 -->
<g id="edge13" class="edge">
<title>Node1&#45;&gt;Node13</title>
<path fill="none" stroke="midnightblue" d="M962.24,-138.16C1029.21,-131.18 1154.35,-117.15 1270.81,-98.12"/>
<polygon fill="midnightblue" stroke="midnightblue" points="1271.67,-101.52 1280.97,-96.44 1270.53,-94.61 1271.67,-101.52"/>
</g>
<!-- Node14 -->
<g id="node14" class="node">
<title>Node14</title>
<g id="a_node14"><a xlink:title=" ">
<polygon fill="white" stroke="#bfbfbf" points="1421.5,-73 1421.5,-92 1542.5,-92 1542.5,-73 1421.5,-73"/>
<text text-anchor="middle" x="1482" y="-80" font-family="Helvetica,sans-Serif" font-size="10.00">boost/make_shared.hpp</text>
</a>
</g>
</g>
<!-- Node1&#45;&gt;Node14 -->
<g id="edge14" class="edge">
<title>Node1&#45;&gt;Node14</title>
<path fill="none" stroke="midnightblue" d="M962.29,-140.47C1051.5,-135.4 1247.98,-122.32 1412,-98 1419.43,-96.9 1427.25,-95.51 1434.87,-94.03"/>
<polygon fill="midnightblue" stroke="midnightblue" points="1435.61,-97.45 1444.72,-92.04 1434.23,-90.59 1435.61,-97.45"/>
</g>
<!-- Node15 -->
<g id="node15" class="node">
<title>Node15</title>
<g id="a_node15"><a xlink:title=" ">
<polygon fill="white" stroke="#bfbfbf" points="1561,-73 1561,-92 1669,-92 1669,-73 1561,-73"/>
<text text-anchor="middle" x="1615" y="-80" font-family="Helvetica,sans-Serif" font-size="10.00">boost/shared_ptr.hpp</text>
</a>
</g>
</g>
<!-- Node1&#45;&gt;Node15 -->
<g id="edge15" class="edge">
<title>Node1&#45;&gt;Node15</title>
<path fill="none" stroke="midnightblue" d="M962.3,-142.16C1069.16,-139.73 1333.46,-130.65 1552,-98 1558.71,-97 1565.77,-95.66 1572.63,-94.2"/>
<polygon fill="midnightblue" stroke="midnightblue" points="1573.49,-97.59 1582.49,-92 1571.96,-90.76 1573.49,-97.59"/>
</g>
<!-- Node16 -->
<g id="node16" class="node">
<title>Node16</title>
<g id="a_node16"><a xlink:title=" ">
<polygon fill="white" stroke="#bfbfbf" points="1687.5,-73 1687.5,-92 1736.5,-92 1736.5,-73 1687.5,-73"/>
<text text-anchor="middle" x="1712" y="-80" font-family="Helvetica,sans-Serif" font-size="10.00">fstream</text>
</a>
</g>
</g>
<!-- Node1&#45;&gt;Node16 -->
<g id="edge16" class="edge">
<title>Node1&#45;&gt;Node16</title>
<path fill="none" stroke="midnightblue" d="M962.06,-142.32C1107.44,-139.93 1540.98,-130.22 1678,-98 1680.51,-97.41 1683.08,-96.64 1685.61,-95.78"/>
<polygon fill="midnightblue" stroke="midnightblue" points="1687.06,-98.97 1695.09,-92.06 1684.51,-92.45 1687.06,-98.97"/>
</g>
<!-- Node17 -->
<g id="node17" class="node">
<title>Node17</title>
<g id="a_node17"><a xlink:title=" ">
<polygon fill="white" stroke="#bfbfbf" points="1755,-73 1755,-92 1807,-92 1807,-73 1755,-73"/>
<text text-anchor="middle" x="1781" y="-80" font-family="Helvetica,sans-Serif" font-size="10.00">ostream</text>
</a>
</g>
</g>
<!-- Node1&#45;&gt;Node17 -->
<g id="edge17" class="edge">
<title>Node1&#45;&gt;Node17</title>
<path fill="none" stroke="midnightblue" d="M962.19,-142.53C1116.2,-140.68 1595.24,-132.25 1746,-98 1748.67,-97.39 1751.4,-96.6 1754.1,-95.69"/>
<polygon fill="midnightblue" stroke="midnightblue" points="1755.48,-98.91 1763.58,-92.08 1752.99,-92.37 1755.48,-98.91"/>
</g>
<!-- Node2&#45;&gt;Node3 -->
<g id="edge2" class="edge">
<title>Node2&#45;&gt;Node3</title>
<path fill="none" stroke="midnightblue" d="M99.31,-72.73C90.34,-62.5 75.31,-45.36 64.2,-32.69"/>
<polygon fill="midnightblue" stroke="midnightblue" points="66.79,-30.34 57.57,-25.13 61.53,-34.95 66.79,-30.34"/>
</g>
<!-- Node4 -->
<g id="node4" class="node">
<title>Node4</title>
<g id="a_node4"><a xlink:title=" ">
<polygon fill="white" stroke="#bfbfbf" points="118,-0.5 118,-30.5 240,-30.5 240,-0.5 118,-0.5"/>
<text text-anchor="start" x="126" y="-18.5" font-family="Helvetica,sans-Serif" font-size="10.00">boost/log/sources/global</text>
<text text-anchor="middle" x="179" y="-7.5" font-family="Helvetica,sans-Serif" font-size="10.00">_logger_storage.hpp</text>
</a>
</g>
</g>
<!-- Node2&#45;&gt;Node4 -->
<g id="edge3" class="edge">
<title>Node2&#45;&gt;Node4</title>
<path fill="none" stroke="midnightblue" d="M116.71,-72.73C126.72,-63.7 142.7,-49.27 155.96,-37.3"/>
<polygon fill="midnightblue" stroke="midnightblue" points="158.32,-39.89 163.39,-30.59 153.63,-34.69 158.32,-39.89"/>
</g>
</g>
</svg>
