<?xml version="1.0" encoding="UTF-8" standalone="no"?>
<!DOCTYPE svg PUBLIC "-//W3C//DTD SVG 1.1//EN"
 "http://www.w3.org/Graphics/SVG/1.1/DTD/svg11.dtd">
<!-- Generated by graphviz version 2.47.1 (20210417.1919)
 -->
<!-- Title: Server/loggerS.cpp Pages: 1 -->
<svg width="1793pt" height="162pt"
 viewBox="0.00 0.00 1793.00 162.00" xmlns="http://www.w3.org/2000/svg" xmlns:xlink="http://www.w3.org/1999/xlink">
<g id="graph0" class="graph" transform="scale(1 1) rotate(0) translate(4 158)">
<title>Server/loggerS.cpp</title>
<polygon fill="white" stroke="transparent" points="-4,4 -4,-158 1789,-158 1789,4 -4,4"/>
<!-- Node1 -->
<g id="node1" class="node">
<title>Node1</title>
<g id="a_node1"><a xlink:title=" ">
<polygon fill="#bfbfbf" stroke="black" points="833,-134.5 833,-153.5 931,-153.5 931,-134.5 833,-134.5"/>
<text text-anchor="middle" x="882" y="-141.5" font-family="Helvetica,sans-Serif" font-size="10.00">Server/loggerS.cpp</text>
</a>
</g>
</g>
<!-- Node2 -->
<g id="node2" class="node">
<title>Node2</title>
<g id="a_node2"><a xlink:href="loggerS_8h.html" target="_top" xlink:title=" ">
<polygon fill="white" stroke="black" points="150,-73 150,-92 208,-92 208,-73 150,-73"/>
<text text-anchor="middle" x="179" y="-80" font-family="Helvetica,sans-Serif" font-size="10.00">loggerS.h</text>
</a>
</g>
</g>
<!-- Node1&#45;&gt;Node2 -->
<g id="edge1" class="edge">
<title>Node1&#45;&gt;Node2</title>
<path fill="none" stroke="midnightblue" d="M832.97,-141.29C700.76,-136.42 339,-121.31 222,-98 218.31,-97.26 214.49,-96.3 210.73,-95.21"/>
<polygon fill="midnightblue" stroke="midnightblue" points="211.61,-91.82 201.02,-92.14 209.5,-98.49 211.61,-91.82"/>
</g>
<!-- Node3 -->
<g id="node3" class="node">
<title>Node3</title>
<g id="a_node3"><a xlink:title=" ">
<polygon fill="white" stroke="#bfbfbf" points="0,-6 0,-25 100,-25 100,-6 0,-6"/>
<text text-anchor="middle" x="50" y="-13" font-family="Helvetica,sans-Serif" font-size="10.00">boost/log/trivial.hpp</text>
</a>
</g>
</g>
<!-- Node1&#45;&gt;Node3 -->
<g id="edge12" class="edge">
<title>Node1&#45;&gt;Node3</title>
<path fill="none" stroke="midnightblue" d="M832.76,-141.88C677.47,-138.1 204.48,-124.5 141,-98 107.74,-84.11 78.53,-52.74 62.65,-33.22"/>
<polygon fill="midnightblue" stroke="midnightblue" points="65.27,-30.88 56.33,-25.19 59.77,-35.21 65.27,-30.88"/>
</g>
<!-- Node5 -->
<g id="node5" class="node">
<title>Node5</title>
<g id="a_node5"><a xlink:title=" ">
<polygon fill="white" stroke="#bfbfbf" points="258.5,-0.5 258.5,-30.5 371.5,-30.5 371.5,-0.5 258.5,-0.5"/>
<text text-anchor="start" x="266.5" y="-18.5" font-family="Helvetica,sans-Serif" font-size="10.00">boost/log/support/date</text>
<text text-anchor="middle" x="315" y="-7.5" font-family="Helvetica,sans-Serif" font-size="10.00">_time.hpp</text>
</a>
</g>
</g>
<!-- Node1&#45;&gt;Node5 -->
<g id="edge11" class="edge">
<title>Node1&#45;&gt;Node5</title>
<path fill="none" stroke="midnightblue" d="M832.91,-143.22C692.19,-143.34 295.02,-139.92 256,-98 237.98,-78.64 261.91,-53.67 284.48,-36.5"/>
<polygon fill="midnightblue" stroke="midnightblue" points="286.62,-39.27 292.65,-30.55 282.5,-33.61 286.62,-39.27"/>
</g>
<!-- Node6 -->
<g id="node6" class="node">
<title>Node6</title>
<g id="a_node6"><a xlink:title=" ">
<polygon fill="white" stroke="#bfbfbf" points="264.5,-73 264.5,-92 383.5,-92 383.5,-73 264.5,-73"/>
<text text-anchor="middle" x="324" y="-80" font-family="Helvetica,sans-Serif" font-size="10.00">boost/log/core/core.hpp</text>
</a>
</g>
</g>
<!-- Node1&#45;&gt;Node6 -->
<g id="edge5" class="edge">
<title>Node1&#45;&gt;Node6</title>
<path fill="none" stroke="midnightblue" d="M832.84,-140.36C744.45,-135.19 552.97,-122.09 393,-98 385.76,-96.91 378.14,-95.54 370.7,-94.07"/>
<polygon fill="midnightblue" stroke="midnightblue" points="371.24,-90.61 360.74,-92.04 369.84,-97.47 371.24,-90.61"/>
</g>
<!-- Node7 -->
<g id="node7" class="node">
<title>Node7</title>
<g id="a_node7"><a xlink:title=" ">
<polygon fill="white" stroke="#bfbfbf" points="402,-67.5 402,-97.5 530,-97.5 530,-67.5 402,-67.5"/>
<text text-anchor="start" x="410" y="-85.5" font-family="Helvetica,sans-Serif" font-size="10.00">boost/log/expressions</text>
<text text-anchor="middle" x="466" y="-74.5" font-family="Helvetica,sans-Serif" font-size="10.00">/formatters/date_time.hpp</text>
</a>
</g>
</g>
<!-- Node1&#45;&gt;Node7 -->
<g id="edge6" class="edge">
<title>Node1&#45;&gt;Node7</title>
<path fill="none" stroke="midnightblue" d="M832.87,-137.52C766.31,-129.86 643.87,-114.99 540,-98 539.9,-97.98 539.8,-97.97 539.7,-97.95"/>
<polygon fill="midnightblue" stroke="midnightblue" points="540.58,-94.55 530.13,-96.32 539.4,-101.45 540.58,-94.55"/>
</g>
<!-- Node8 -->
<g id="node8" class="node">
<title>Node8</title>
<g id="a_node8"><a xlink:title=" ">
<polygon fill="white" stroke="#bfbfbf" points="548.5,-73 548.5,-92 679.5,-92 679.5,-73 548.5,-73"/>
<text text-anchor="middle" x="614" y="-80" font-family="Helvetica,sans-Serif" font-size="10.00">boost/log/expressions.hpp</text>
</a>
</g>
</g>
<!-- Node1&#45;&gt;Node8 -->
<g id="edge7" class="edge">
<title>Node1&#45;&gt;Node8</title>
<path fill="none" stroke="midnightblue" d="M843.6,-134.48C795.84,-123.87 714.26,-105.76 662.3,-94.22"/>
<polygon fill="midnightblue" stroke="midnightblue" points="662.85,-90.76 652.33,-92.01 661.33,-97.59 662.85,-90.76"/>
</g>
<!-- Node9 -->
<g id="node9" class="node">
<title>Node9</title>
<g id="a_node9"><a xlink:title=" ">
<polygon fill="white" stroke="#bfbfbf" points="697.5,-67.5 697.5,-97.5 804.5,-97.5 804.5,-67.5 697.5,-67.5"/>
<text text-anchor="start" x="705.5" y="-85.5" font-family="Helvetica,sans-Serif" font-size="10.00">boost/log/sinks/sync</text>
<text text-anchor="middle" x="751" y="-74.5" font-family="Helvetica,sans-Serif" font-size="10.00">_frontend.hpp</text>
</a>
</g>
</g>
<!-- Node1&#45;&gt;Node9 -->
<g id="edge8" class="edge">
<title>Node1&#45;&gt;Node9</title>
<path fill="none" stroke="midnightblue" d="M863.23,-134.48C844.49,-125.96 815.11,-112.62 791.11,-101.72"/>
<polygon fill="midnightblue" stroke="midnightblue" points="792.43,-98.47 781.87,-97.52 789.53,-104.85 792.43,-98.47"/>
</g>
<!-- Node10 -->
<g id="node10" class="node">
<title>Node10</title>
<g id="a_node10"><a xlink:title=" ">
<polygon fill="white" stroke="#bfbfbf" points="823,-67.5 823,-97.5 941,-97.5 941,-67.5 823,-67.5"/>
<text text-anchor="start" x="831" y="-85.5" font-family="Helvetica,sans-Serif" font-size="10.00">boost/log/sinks/text</text>
<text text-anchor="middle" x="882" y="-74.5" font-family="Helvetica,sans-Serif" font-size="10.00">_ostream_backend.hpp</text>
</a>
</g>
</g>
<!-- Node1&#45;&gt;Node10 -->
<g id="edge9" class="edge">
<title>Node1&#45;&gt;Node10</title>
<path fill="none" stroke="midnightblue" d="M882,-134.48C882,-127.47 882,-117.19 882,-107.7"/>
<polygon fill="midnightblue" stroke="midnightblue" points="885.5,-107.52 882,-97.52 878.5,-107.52 885.5,-107.52"/>
</g>
<!-- Node11 -->
<g id="node11" class="node">
<title>Node11</title>
<g id="a_node11"><a xlink:title=" ">
<polygon fill="white" stroke="#bfbfbf" points="959,-67.5 959,-97.5 1089,-97.5 1089,-67.5 959,-67.5"/>
<text text-anchor="start" x="967" y="-85.5" font-family="Helvetica,sans-Serif" font-size="10.00">boost/log/sources/severity</text>
<text text-anchor="middle" x="1024" y="-74.5" font-family="Helvetica,sans-Serif" font-size="10.00">_logger.hpp</text>
</a>
</g>
</g>
<!-- Node1&#45;&gt;Node11 -->
<g id="edge10" class="edge">
<title>Node1&#45;&gt;Node11</title>
<path fill="none" stroke="midnightblue" d="M902.35,-134.48C922.84,-125.89 955.07,-112.38 981.21,-101.43"/>
<polygon fill="midnightblue" stroke="midnightblue" points="982.66,-104.62 990.53,-97.52 979.96,-98.16 982.66,-104.62"/>
</g>
<!-- Node12 -->
<g id="node12" class="node">
<title>Node12</title>
<g id="a_node12"><a xlink:title=" ">
<polygon fill="white" stroke="#bfbfbf" points="1107,-73 1107,-92 1241,-92 1241,-73 1107,-73"/>
<text text-anchor="middle" x="1174" y="-80" font-family="Helvetica,sans-Serif" font-size="10.00">boost/core/null_deleter.hpp</text>
</a>
</g>
</g>
<!-- Node1&#45;&gt;Node12 -->
<g id="edge13" class="edge">
<title>Node1&#45;&gt;Node12</title>
<path fill="none" stroke="midnightblue" d="M923.84,-134.48C976.2,-123.8 1065.87,-105.53 1122.43,-94.01"/>
<polygon fill="midnightblue" stroke="midnightblue" points="1123.14,-97.44 1132.24,-92.01 1121.74,-90.58 1123.14,-97.44"/>
</g>
<!-- Node13 -->
<g id="node13" class="node">
<title>Node13</title>
<g id="a_node13"><a xlink:title=" ">
<polygon fill="white" stroke="#bfbfbf" points="1259,-67.5 1259,-97.5 1381,-97.5 1381,-67.5 1259,-67.5"/>
<text text-anchor="start" x="1267" y="-85.5" font-family="Helvetica,sans-Serif" font-size="10.00">boost/log/utility/setup</text>
<text text-anchor="middle" x="1320" y="-74.5" font-family="Helvetica,sans-Serif" font-size="10.00">/common_attributes.hpp</text>
</a>
</g>
</g>
<!-- Node1&#45;&gt;Node13 -->
<g id="edge14" class="edge">
<title>Node1&#45;&gt;Node13</title>
<path fill="none" stroke="midnightblue" d="M931.29,-138.28C1000.13,-131.4 1129.17,-117.46 1248.9,-98.1"/>
<polygon fill="midnightblue" stroke="midnightblue" points="1249.67,-101.52 1258.97,-96.45 1248.54,-94.61 1249.67,-101.52"/>
</g>
<!-- Node14 -->
<g id="node14" class="node">
<title>Node14</title>
<g id="a_node14"><a xlink:title=" ">
<polygon fill="white" stroke="#bfbfbf" points="1399.5,-73 1399.5,-92 1520.5,-92 1520.5,-73 1399.5,-73"/>
<text text-anchor="middle" x="1460" y="-80" font-family="Helvetica,sans-Serif" font-size="10.00">boost/make_shared.hpp</text>
</a>
</g>
</g>
<!-- Node1&#45;&gt;Node14 -->
<g id="edge15" class="edge">
<title>Node1&#45;&gt;Node14</title>
<path fill="none" stroke="midnightblue" d="M931.26,-140.54C1022.26,-135.57 1222.7,-122.65 1390,-98 1397.43,-96.91 1405.25,-95.52 1412.87,-94.04"/>
<polygon fill="midnightblue" stroke="midnightblue" points="1413.61,-97.46 1422.72,-92.06 1412.23,-90.6 1413.61,-97.46"/>
</g>
<!-- Node15 -->
<g id="node15" class="node">
<title>Node15</title>
<g id="a_node15"><a xlink:title=" ">
<polygon fill="white" stroke="#bfbfbf" points="1539,-73 1539,-92 1647,-92 1647,-73 1539,-73"/>
<text text-anchor="middle" x="1593" y="-80" font-family="Helvetica,sans-Serif" font-size="10.00">boost/shared_ptr.hpp</text>
</a>
</g>
</g>
<!-- Node1&#45;&gt;Node15 -->
<g id="edge16" class="edge">
<title>Node1&#45;&gt;Node15</title>
<path fill="none" stroke="midnightblue" d="M931.06,-142.22C1039.59,-139.91 1308.03,-131.04 1530,-98 1536.71,-97 1543.77,-95.66 1550.63,-94.21"/>
<polygon fill="midnightblue" stroke="midnightblue" points="1551.49,-97.6 1560.49,-92.01 1549.97,-90.77 1551.49,-97.6"/>
</g>
<!-- Node16 -->
<g id="node16" class="node">
<title>Node16</title>
<g id="a_node16"><a xlink:title=" ">
<polygon fill="white" stroke="#bfbfbf" points="1665.5,-73 1665.5,-92 1714.5,-92 1714.5,-73 1665.5,-73"/>
<text text-anchor="middle" x="1690" y="-80" font-family="Helvetica,sans-Serif" font-size="10.00">fstream</text>
</a>
</g>
</g>
<!-- Node1&#45;&gt;Node16 -->
<g id="edge17" class="edge">
<title>Node1&#45;&gt;Node16</title>
<path fill="none" stroke="midnightblue" d="M931.21,-142.35C1079,-140.04 1517.34,-130.55 1656,-98 1658.51,-97.41 1661.08,-96.65 1663.62,-95.78"/>
<polygon fill="midnightblue" stroke="midnightblue" points="1665.06,-98.97 1673.09,-92.07 1662.51,-92.46 1665.06,-98.97"/>
</g>
<!-- Node17 -->
<g id="node17" class="node">
<title>Node17</title>
<g id="a_node17"><a xlink:title=" ">
<polygon fill="white" stroke="#bfbfbf" points="1733,-73 1733,-92 1785,-92 1785,-73 1733,-73"/>
<text text-anchor="middle" x="1759" y="-80" font-family="Helvetica,sans-Serif" font-size="10.00">ostream</text>
</a>
</g>
</g>
<!-- Node1&#45;&gt;Node17 -->
<g id="edge18" class="edge">
<title>Node1&#45;&gt;Node17</title>
<path fill="none" stroke="midnightblue" d="M931.04,-142.55C1087.2,-140.79 1571.51,-132.59 1724,-98 1726.67,-97.39 1729.41,-96.6 1732.1,-95.7"/>
<polygon fill="midnightblue" stroke="midnightblue" points="1733.48,-98.92 1741.58,-92.08 1730.99,-92.38 1733.48,-98.92"/>
</g>
<!-- Node2&#45;&gt;Node3 -->
<g id="edge2" class="edge">
<title>Node2&#45;&gt;Node3</title>
<path fill="none" stroke="midnightblue" d="M161.87,-72.87C139.99,-61.84 101.91,-42.66 76.33,-29.77"/>
<polygon fill="midnightblue" stroke="midnightblue" points="77.71,-26.54 67.2,-25.17 74.56,-32.79 77.71,-26.54"/>
</g>
<!-- Node4 -->
<g id="node4" class="node">
<title>Node4</title>
<g id="a_node4"><a xlink:title=" ">
<polygon fill="white" stroke="#bfbfbf" points="118,-0.5 118,-30.5 240,-30.5 240,-0.5 118,-0.5"/>
<text text-anchor="start" x="126" y="-18.5" font-family="Helvetica,sans-Serif" font-size="10.00">boost/log/sources/global</text>
<text text-anchor="middle" x="179" y="-7.5" font-family="Helvetica,sans-Serif" font-size="10.00">_logger_storage.hpp</text>
</a>
</g>
</g>
<!-- Node2&#45;&gt;Node4 -->
<g id="edge3" class="edge">
<title>Node2&#45;&gt;Node4</title>
<path fill="none" stroke="midnightblue" d="M179,-72.73C179,-64.54 179,-51.92 179,-40.71"/>
<polygon fill="midnightblue" stroke="midnightblue" points="182.5,-40.59 179,-30.59 175.5,-40.59 182.5,-40.59"/>
</g>
<!-- Node2&#45;&gt;Node5 -->
<g id="edge4" class="edge">
<title>Node2&#45;&gt;Node5</title>
<path fill="none" stroke="midnightblue" d="M197.06,-72.87C217.2,-63.24 250.37,-47.39 276.41,-34.94"/>
<polygon fill="midnightblue" stroke="midnightblue" points="278.14,-38 285.65,-30.53 275.12,-31.68 278.14,-38"/>
</g>
</g>
</svg>
