<?xml version="1.0" encoding="UTF-8" standalone="no"?>
<!DOCTYPE svg PUBLIC "-//W3C//DTD SVG 1.1//EN"
 "http://www.w3.org/Graphics/SVG/1.1/DTD/svg11.dtd">
<!-- Generated by graphviz version 2.47.1 (20210417.1919)
 -->
<!-- Title: InterfaceC!/Interface/loggerI.cpp Pages: 1 -->
<svg width="1810pt" height="173pt"
 viewBox="0.00 0.00 1810.00 173.00" xmlns="http://www.w3.org/2000/svg" xmlns:xlink="http://www.w3.org/1999/xlink">
<g id="graph0" class="graph" transform="scale(1 1) rotate(0) translate(4 169)">
<title>InterfaceC!/Interface/loggerI.cpp</title>
<polygon fill="white" stroke="transparent" points="-4,4 -4,-169 1806,-169 1806,4 -4,4"/>
<!-- Node1 -->
<g id="node1" class="node">
<title>Node1</title>
<g id="a_node1"><a xlink:title=" ">
<polygon fill="#bfbfbf" stroke="black" points="858,-134.5 858,-164.5 960,-164.5 960,-134.5 858,-134.5"/>
<text text-anchor="start" x="866" y="-152.5" font-family="Helvetica,sans-Serif" font-size="10.00">InterfaceC!/Interface</text>
<text text-anchor="middle" x="909" y="-141.5" font-family="Helvetica,sans-Serif" font-size="10.00">/loggerI.cpp</text>
</a>
</g>
</g>
<!-- Node2 -->
<g id="node2" class="node">
<title>Node2</title>
<g id="a_node2"><a xlink:href="loggerI_8h.html" target="_top" xlink:title=" ">
<polygon fill="white" stroke="black" points="78.5,-73 78.5,-92 131.5,-92 131.5,-73 78.5,-73"/>
<text text-anchor="middle" x="105" y="-80" font-family="Helvetica,sans-Serif" font-size="10.00">loggerI.h</text>
</a>
</g>
</g>
<!-- Node1&#45;&gt;Node2 -->
<g id="edge1" class="edge">
<title>Node1&#45;&gt;Node2</title>
<path fill="none" stroke="midnightblue" d="M857.84,-147.25C709,-143.26 278.11,-129.28 141,-98 138.17,-97.35 135.27,-96.51 132.4,-95.56"/>
<polygon fill="midnightblue" stroke="midnightblue" points="133.55,-92.25 122.95,-92.03 131.09,-98.81 133.55,-92.25"/>
</g>
<!-- Node3 -->
<g id="node3" class="node">
<title>Node3</title>
<g id="a_node3"><a xlink:title=" ">
<polygon fill="white" stroke="#bfbfbf" points="0,-6 0,-25 100,-25 100,-6 0,-6"/>
<text text-anchor="middle" x="50" y="-13" font-family="Helvetica,sans-Serif" font-size="10.00">boost/log/trivial.hpp</text>
</a>
</g>
</g>
<!-- Node1&#45;&gt;Node3 -->
<g id="edge11" class="edge">
<title>Node1&#45;&gt;Node3</title>
<path fill="none" stroke="midnightblue" d="M857.7,-148.92C684.56,-149.85 129.22,-148.82 69,-98 50.98,-82.8 48.17,-54.13 48.53,-35.17"/>
<polygon fill="midnightblue" stroke="midnightblue" points="52.03,-35.23 49.03,-25.06 45.04,-34.88 52.03,-35.23"/>
</g>
<!-- Node5 -->
<g id="node5" class="node">
<title>Node5</title>
<g id="a_node5"><a xlink:title=" ">
<polygon fill="white" stroke="#bfbfbf" points="149.5,-73 149.5,-92 268.5,-92 268.5,-73 149.5,-73"/>
<text text-anchor="middle" x="209" y="-80" font-family="Helvetica,sans-Serif" font-size="10.00">boost/log/core/core.hpp</text>
</a>
</g>
</g>
<!-- Node1&#45;&gt;Node5 -->
<g id="edge4" class="edge">
<title>Node1&#45;&gt;Node5</title>
<path fill="none" stroke="midnightblue" d="M857.63,-146.61C749.78,-142.14 492,-128.92 278,-98 270.59,-96.93 262.78,-95.54 255.18,-94.05"/>
<polygon fill="midnightblue" stroke="midnightblue" points="255.87,-90.62 245.37,-92.05 254.47,-97.48 255.87,-90.62"/>
</g>
<!-- Node6 -->
<g id="node6" class="node">
<title>Node6</title>
<g id="a_node6"><a xlink:title=" ">
<polygon fill="white" stroke="#bfbfbf" points="287,-67.5 287,-97.5 415,-97.5 415,-67.5 287,-67.5"/>
<text text-anchor="start" x="295" y="-85.5" font-family="Helvetica,sans-Serif" font-size="10.00">boost/log/expressions</text>
<text text-anchor="middle" x="351" y="-74.5" font-family="Helvetica,sans-Serif" font-size="10.00">/formatters/date_time.hpp</text>
</a>
</g>
</g>
<!-- Node1&#45;&gt;Node6 -->
<g id="edge5" class="edge">
<title>Node1&#45;&gt;Node6</title>
<path fill="none" stroke="midnightblue" d="M857.94,-144.69C769.47,-137.74 582.08,-121.54 425,-98 424.9,-97.98 424.8,-97.97 424.7,-97.95"/>
<polygon fill="midnightblue" stroke="midnightblue" points="425.54,-94.54 415.11,-96.43 424.44,-101.46 425.54,-94.54"/>
</g>
<!-- Node7 -->
<g id="node7" class="node">
<title>Node7</title>
<g id="a_node7"><a xlink:title=" ">
<polygon fill="white" stroke="#bfbfbf" points="433.5,-73 433.5,-92 564.5,-92 564.5,-73 433.5,-73"/>
<text text-anchor="middle" x="499" y="-80" font-family="Helvetica,sans-Serif" font-size="10.00">boost/log/expressions.hpp</text>
</a>
</g>
</g>
<!-- Node1&#45;&gt;Node7 -->
<g id="edge6" class="edge">
<title>Node1&#45;&gt;Node7</title>
<path fill="none" stroke="midnightblue" d="M857.82,-141.46C792.01,-132.24 674.28,-115.24 574,-98 566.64,-96.73 558.89,-95.32 551.27,-93.89"/>
<polygon fill="midnightblue" stroke="midnightblue" points="551.86,-90.44 541.38,-92.01 550.55,-97.32 551.86,-90.44"/>
</g>
<!-- Node8 -->
<g id="node8" class="node">
<title>Node8</title>
<g id="a_node8"><a xlink:title=" ">
<polygon fill="white" stroke="#bfbfbf" points="582.5,-67.5 582.5,-97.5 689.5,-97.5 689.5,-67.5 582.5,-67.5"/>
<text text-anchor="start" x="590.5" y="-85.5" font-family="Helvetica,sans-Serif" font-size="10.00">boost/log/sinks/sync</text>
<text text-anchor="middle" x="636" y="-74.5" font-family="Helvetica,sans-Serif" font-size="10.00">_frontend.hpp</text>
</a>
</g>
</g>
<!-- Node1&#45;&gt;Node8 -->
<g id="edge7" class="edge">
<title>Node1&#45;&gt;Node8</title>
<path fill="none" stroke="midnightblue" d="M857.97,-136.35C813.16,-125.68 747.79,-110.12 699.59,-98.64"/>
<polygon fill="midnightblue" stroke="midnightblue" points="700.12,-95.17 689.58,-96.26 698.5,-101.98 700.12,-95.17"/>
</g>
<!-- Node9 -->
<g id="node9" class="node">
<title>Node9</title>
<g id="a_node9"><a xlink:title=" ">
<polygon fill="white" stroke="#bfbfbf" points="708,-67.5 708,-97.5 826,-97.5 826,-67.5 708,-67.5"/>
<text text-anchor="start" x="716" y="-85.5" font-family="Helvetica,sans-Serif" font-size="10.00">boost/log/sinks/text</text>
<text text-anchor="middle" x="767" y="-74.5" font-family="Helvetica,sans-Serif" font-size="10.00">_ostream_backend.hpp</text>
</a>
</g>
</g>
<!-- Node1&#45;&gt;Node9 -->
<g id="edge8" class="edge">
<title>Node1&#45;&gt;Node9</title>
<path fill="none" stroke="midnightblue" d="M878.19,-134.4C857.35,-124.86 829.62,-112.16 807.07,-101.84"/>
<polygon fill="midnightblue" stroke="midnightblue" points="808.3,-98.56 797.75,-97.58 805.39,-104.92 808.3,-98.56"/>
</g>
<!-- Node10 -->
<g id="node10" class="node">
<title>Node10</title>
<g id="a_node10"><a xlink:title=" ">
<polygon fill="white" stroke="#bfbfbf" points="844,-67.5 844,-97.5 974,-97.5 974,-67.5 844,-67.5"/>
<text text-anchor="start" x="852" y="-85.5" font-family="Helvetica,sans-Serif" font-size="10.00">boost/log/sources/severity</text>
<text text-anchor="middle" x="909" y="-74.5" font-family="Helvetica,sans-Serif" font-size="10.00">_logger.hpp</text>
</a>
</g>
</g>
<!-- Node1&#45;&gt;Node10 -->
<g id="edge9" class="edge">
<title>Node1&#45;&gt;Node10</title>
<path fill="none" stroke="midnightblue" d="M909,-134.4C909,-126.64 909,-116.81 909,-107.86"/>
<polygon fill="midnightblue" stroke="midnightblue" points="912.5,-107.58 909,-97.58 905.5,-107.58 912.5,-107.58"/>
</g>
<!-- Node11 -->
<g id="node11" class="node">
<title>Node11</title>
<g id="a_node11"><a xlink:title=" ">
<polygon fill="white" stroke="#bfbfbf" points="992.5,-67.5 992.5,-97.5 1105.5,-97.5 1105.5,-67.5 992.5,-67.5"/>
<text text-anchor="start" x="1000.5" y="-85.5" font-family="Helvetica,sans-Serif" font-size="10.00">boost/log/support/date</text>
<text text-anchor="middle" x="1049" y="-74.5" font-family="Helvetica,sans-Serif" font-size="10.00">_time.hpp</text>
</a>
</g>
</g>
<!-- Node1&#45;&gt;Node11 -->
<g id="edge10" class="edge">
<title>Node1&#45;&gt;Node11</title>
<path fill="none" stroke="midnightblue" d="M939.38,-134.4C959.93,-124.86 987.26,-112.16 1009.5,-101.84"/>
<polygon fill="midnightblue" stroke="midnightblue" points="1011.09,-104.96 1018.68,-97.58 1008.14,-98.61 1011.09,-104.96"/>
</g>
<!-- Node12 -->
<g id="node12" class="node">
<title>Node12</title>
<g id="a_node12"><a xlink:title=" ">
<polygon fill="white" stroke="#bfbfbf" points="1124,-73 1124,-92 1258,-92 1258,-73 1124,-73"/>
<text text-anchor="middle" x="1191" y="-80" font-family="Helvetica,sans-Serif" font-size="10.00">boost/core/null_deleter.hpp</text>
</a>
</g>
</g>
<!-- Node1&#45;&gt;Node12 -->
<g id="edge12" class="edge">
<title>Node1&#45;&gt;Node12</title>
<path fill="none" stroke="midnightblue" d="M960.07,-136.73C1012.45,-124.66 1093.24,-106.03 1144.06,-94.32"/>
<polygon fill="midnightblue" stroke="midnightblue" points="1144.85,-97.73 1153.81,-92.07 1143.28,-90.91 1144.85,-97.73"/>
</g>
<!-- Node13 -->
<g id="node13" class="node">
<title>Node13</title>
<g id="a_node13"><a xlink:title=" ">
<polygon fill="white" stroke="#bfbfbf" points="1276,-67.5 1276,-97.5 1398,-97.5 1398,-67.5 1276,-67.5"/>
<text text-anchor="start" x="1284" y="-85.5" font-family="Helvetica,sans-Serif" font-size="10.00">boost/log/utility/setup</text>
<text text-anchor="middle" x="1337" y="-74.5" font-family="Helvetica,sans-Serif" font-size="10.00">/common_attributes.hpp</text>
</a>
</g>
</g>
<!-- Node1&#45;&gt;Node13 -->
<g id="edge13" class="edge">
<title>Node1&#45;&gt;Node13</title>
<path fill="none" stroke="midnightblue" d="M960.15,-142.33C1027.79,-133.94 1150.94,-117.87 1265.93,-98.12"/>
<polygon fill="midnightblue" stroke="midnightblue" points="1266.7,-101.54 1275.96,-96.38 1265.51,-94.64 1266.7,-101.54"/>
</g>
<!-- Node14 -->
<g id="node14" class="node">
<title>Node14</title>
<g id="a_node14"><a xlink:title=" ">
<polygon fill="white" stroke="#bfbfbf" points="1416.5,-73 1416.5,-92 1537.5,-92 1537.5,-73 1416.5,-73"/>
<text text-anchor="middle" x="1477" y="-80" font-family="Helvetica,sans-Serif" font-size="10.00">boost/make_shared.hpp</text>
</a>
</g>
</g>
<!-- Node1&#45;&gt;Node14 -->
<g id="edge14" class="edge">
<title>Node1&#45;&gt;Node14</title>
<path fill="none" stroke="midnightblue" d="M960.12,-145.07C1050.59,-138.6 1244.67,-122.98 1407,-98 1414.25,-96.88 1421.89,-95.51 1429.34,-94.06"/>
<polygon fill="midnightblue" stroke="midnightblue" points="1430.24,-97.45 1439.35,-92.04 1428.85,-90.59 1430.24,-97.45"/>
</g>
<!-- Node15 -->
<g id="node15" class="node">
<title>Node15</title>
<g id="a_node15"><a xlink:title=" ">
<polygon fill="white" stroke="#bfbfbf" points="1556,-73 1556,-92 1664,-92 1664,-73 1556,-73"/>
<text text-anchor="middle" x="1610" y="-80" font-family="Helvetica,sans-Serif" font-size="10.00">boost/shared_ptr.hpp</text>
</a>
</g>
</g>
<!-- Node1&#45;&gt;Node15 -->
<g id="edge15" class="edge">
<title>Node1&#45;&gt;Node15</title>
<path fill="none" stroke="midnightblue" d="M960.16,-147.01C1068.81,-143.27 1330.38,-131.32 1547,-98 1553.48,-97 1560.28,-95.71 1566.92,-94.3"/>
<polygon fill="midnightblue" stroke="midnightblue" points="1568.15,-97.61 1577.15,-92.02 1566.63,-90.78 1568.15,-97.61"/>
</g>
<!-- Node16 -->
<g id="node16" class="node">
<title>Node16</title>
<g id="a_node16"><a xlink:title=" ">
<polygon fill="white" stroke="#bfbfbf" points="1682.5,-73 1682.5,-92 1731.5,-92 1731.5,-73 1682.5,-73"/>
<text text-anchor="middle" x="1707" y="-80" font-family="Helvetica,sans-Serif" font-size="10.00">fstream</text>
</a>
</g>
</g>
<!-- Node1&#45;&gt;Node16 -->
<g id="edge16" class="edge">
<title>Node1&#45;&gt;Node16</title>
<path fill="none" stroke="midnightblue" d="M960.19,-147.36C1108.58,-143.69 1537,-130.5 1673,-98 1675.51,-97.4 1678.07,-96.63 1680.61,-95.76"/>
<polygon fill="midnightblue" stroke="midnightblue" points="1682.06,-98.95 1690.09,-92.04 1679.5,-92.43 1682.06,-98.95"/>
</g>
<!-- Node17 -->
<g id="node17" class="node">
<title>Node17</title>
<g id="a_node17"><a xlink:title=" ">
<polygon fill="white" stroke="#bfbfbf" points="1750,-73 1750,-92 1802,-92 1802,-73 1750,-73"/>
<text text-anchor="middle" x="1776" y="-80" font-family="Helvetica,sans-Serif" font-size="10.00">ostream</text>
</a>
</g>
</g>
<!-- Node1&#45;&gt;Node17 -->
<g id="edge17" class="edge">
<title>Node1&#45;&gt;Node17</title>
<path fill="none" stroke="midnightblue" d="M960.2,-147.61C1117.37,-144.53 1591.27,-132.54 1741,-98 1743.67,-97.38 1746.4,-96.58 1749.1,-95.68"/>
<polygon fill="midnightblue" stroke="midnightblue" points="1750.48,-98.89 1758.57,-92.05 1747.98,-92.36 1750.48,-98.89"/>
</g>
<!-- Node2&#45;&gt;Node3 -->
<g id="edge2" class="edge">
<title>Node2&#45;&gt;Node3</title>
<path fill="none" stroke="midnightblue" d="M97.58,-72.73C89.01,-62.6 74.7,-45.69 64.01,-33.06"/>
<polygon fill="midnightblue" stroke="midnightblue" points="66.43,-30.5 57.3,-25.13 61.09,-35.02 66.43,-30.5"/>
</g>
<!-- Node4 -->
<g id="node4" class="node">
<title>Node4</title>
<g id="a_node4"><a xlink:title=" ">
<polygon fill="white" stroke="#bfbfbf" points="118,-0.5 118,-30.5 240,-30.5 240,-0.5 118,-0.5"/>
<text text-anchor="start" x="126" y="-18.5" font-family="Helvetica,sans-Serif" font-size="10.00">boost/log/sources/global</text>
<text text-anchor="middle" x="179" y="-7.5" font-family="Helvetica,sans-Serif" font-size="10.00">_logger_storage.hpp</text>
</a>
</g>
</g>
<!-- Node2&#45;&gt;Node4 -->
<g id="edge3" class="edge">
<title>Node2&#45;&gt;Node4</title>
<path fill="none" stroke="midnightblue" d="M114.98,-72.73C125.27,-63.7 141.69,-49.27 155.32,-37.3"/>
<polygon fill="midnightblue" stroke="midnightblue" points="157.76,-39.82 162.96,-30.59 153.14,-34.56 157.76,-39.82"/>
</g>
</g>
</svg>
