<?xml version="1.0" encoding="UTF-8" standalone="no"?>
<!DOCTYPE svg PUBLIC "-//W3C//DTD SVG 1.1//EN"
 "http://www.w3.org/Graphics/SVG/1.1/DTD/svg11.dtd">
<!-- Generated by graphviz version 2.47.1 (20210417.1919)
 -->
<!-- Title: Server/loggerS.h Pages: 1 -->
<svg width="240pt" height="84pt"
 viewBox="0.00 0.00 240.00 84.00" xmlns="http://www.w3.org/2000/svg" xmlns:xlink="http://www.w3.org/1999/xlink">
<g id="graph0" class="graph" transform="scale(1 1) rotate(0) translate(4 80)">
<title>Server/loggerS.h</title>
<polygon fill="white" stroke="transparent" points="-4,4 -4,-80 236,-80 236,4 -4,4"/>
<!-- Node1 -->
<g id="node1" class="node">
<title>Node1</title>
<g id="a_node1"><a xlink:title=" ">
<polygon fill="#bfbfbf" stroke="black" points="67,-56.5 67,-75.5 155,-75.5 155,-56.5 67,-56.5"/>
<text text-anchor="middle" x="111" y="-63.5" font-family="Helvetica,sans-Serif" font-size="10.00">Server/loggerS.h</text>
</a>
</g>
</g>
<!-- Node2 -->
<g id="node2" class="node">
<title>Node2</title>
<g id="a_node2"><a xlink:href="loggerS_8cpp.html" target="_top" xlink:title=" ">
<polygon fill="white" stroke="black" points="0,-0.5 0,-19.5 98,-19.5 98,-0.5 0,-0.5"/>
<text text-anchor="middle" x="49" y="-7.5" font-family="Helvetica,sans-Serif" font-size="10.00">Server/loggerS.cpp</text>
</a>
</g>
</g>
<!-- Node1&#45;&gt;Node2 -->
<g id="edge1" class="edge">
<title>Node1&#45;&gt;Node2</title>
<path fill="none" stroke="midnightblue" d="M93.25,-49.54C82.19,-39.91 68.37,-27.87 59.14,-19.83"/>
<polygon fill="midnightblue" stroke="midnightblue" points="91.2,-52.4 101.04,-56.32 95.8,-47.12 91.2,-52.4"/>
</g>
<!-- Node3 -->
<g id="node3" class="node">
<title>Node3</title>
<g id="a_node3"><a xlink:href="Main_01Server_8cpp.html" target="_top" xlink:title=" ">
<polygon fill="white" stroke="black" points="116,-0.5 116,-19.5 232,-19.5 232,-0.5 116,-0.5"/>
<text text-anchor="middle" x="174" y="-7.5" font-family="Helvetica,sans-Serif" font-size="10.00">Server/Main Server.cpp</text>
</a>
</g>
</g>
<!-- Node1&#45;&gt;Node3 -->
<g id="edge2" class="edge">
<title>Node1&#45;&gt;Node3</title>
<path fill="none" stroke="midnightblue" d="M129.04,-49.54C140.27,-39.91 154.32,-27.87 163.69,-19.83"/>
<polygon fill="midnightblue" stroke="midnightblue" points="126.44,-47.16 121.12,-56.32 130.99,-52.47 126.44,-47.16"/>
</g>
</g>
</svg>
