<?xml version="1.0" encoding="UTF-8" standalone="no"?>
<!DOCTYPE svg PUBLIC "-//W3C//DTD SVG 1.1//EN"
 "http://www.w3.org/Graphics/SVG/1.1/DTD/svg11.dtd">
<!-- Generated by graphviz version 2.47.1 (20210417.1919)
 -->
<!-- Title: main Pages: 1 -->
<svg width="215pt" height="104pt"
 viewBox="0.00 0.00 215.00 104.00" xmlns="http://www.w3.org/2000/svg" xmlns:xlink="http://www.w3.org/1999/xlink">
<g id="graph0" class="graph" transform="scale(1 1) rotate(0) translate(4 100)">
<title>main</title>
<polygon fill="white" stroke="transparent" points="-4,4 -4,-100 211,-100 211,4 -4,4"/>
<!-- Node1 -->
<g id="node1" class="node">
<title>Node1</title>
<g id="a_node1"><a xlink:title="Main of the server recieve from a Reply socket, do thing that are in the string and reply a json whit...">
<polygon fill="#bfbfbf" stroke="black" points="0,-38.5 0,-57.5 38,-57.5 38,-38.5 0,-38.5"/>
<text text-anchor="middle" x="19" y="-45.5" font-family="Helvetica,sans-Serif" font-size="10.00">main</text>
</a>
</g>
</g>
<!-- Node2 -->
<g id="node2" class="node">
<title>Node2</title>
<g id="a_node2"><a xlink:href="classParser.html#ad688233ebb4852441c56454924e3bf8b" target="_top" xlink:title="Recursive function that determine what to do with the instruction.">
<polygon fill="white" stroke="black" points="74,-76.5 74,-95.5 207,-95.5 207,-76.5 74,-76.5"/>
<text text-anchor="middle" x="140.5" y="-83.5" font-family="Helvetica,sans-Serif" font-size="10.00">Parser::Extract_instruction</text>
</a>
</g>
</g>
<!-- Node1&#45;&gt;Node2 -->
<g id="edge1" class="edge">
<title>Node1&#45;&gt;Node2</title>
<path fill="none" stroke="midnightblue" d="M38.41,-54.76C48.81,-58.51 62.08,-63.18 74,-67 80.98,-69.24 88.41,-71.5 95.66,-73.65"/>
<polygon fill="midnightblue" stroke="midnightblue" points="94.81,-77.05 105.39,-76.5 96.78,-70.33 94.81,-77.05"/>
</g>
<!-- Node3 -->
<g id="node3" class="node">
<title>Node3</title>
<g id="a_node3"><a xlink:href="classParser.html#a9de7bca0c2661317746895bea32bbe7d" target="_top" xlink:title=" ">
<polygon fill="white" stroke="black" points="82.5,-38.5 82.5,-57.5 198.5,-57.5 198.5,-38.5 82.5,-38.5"/>
<text text-anchor="middle" x="140.5" y="-45.5" font-family="Helvetica,sans-Serif" font-size="10.00">Parser::Generate_Json</text>
</a>
</g>
</g>
<!-- Node1&#45;&gt;Node3 -->
<g id="edge2" class="edge">
<title>Node1&#45;&gt;Node3</title>
<path fill="none" stroke="midnightblue" d="M38.15,-48C47.53,-48 59.62,-48 72.16,-48"/>
<polygon fill="midnightblue" stroke="midnightblue" points="72.27,-51.5 82.27,-48 72.27,-44.5 72.27,-51.5"/>
</g>
<!-- Node4 -->
<g id="node4" class="node">
<title>Node4</title>
<g id="a_node4"><a xlink:href="Main_01Server_8cpp.html#ae1a3968e7947464bee7714f6d43b7002" target="_top" xlink:title=" ">
<polygon fill="white" stroke="black" points="124,-0.5 124,-19.5 157,-19.5 157,-0.5 124,-0.5"/>
<text text-anchor="middle" x="140.5" y="-7.5" font-family="Helvetica,sans-Serif" font-size="10.00">test</text>
</a>
</g>
</g>
<!-- Node1&#45;&gt;Node4 -->
<g id="edge3" class="edge">
<title>Node1&#45;&gt;Node4</title>
<path fill="none" stroke="midnightblue" d="M38.41,-41.24C48.81,-37.49 62.08,-32.82 74,-29 87.08,-24.81 101.76,-20.51 113.9,-17.07"/>
<polygon fill="midnightblue" stroke="midnightblue" points="115.13,-20.36 123.81,-14.29 113.24,-13.62 115.13,-20.36"/>
</g>
</g>
</svg>
