<?xml version="1.0" encoding="UTF-8" standalone="no"?>
<!DOCTYPE svg PUBLIC "-//W3C//DTD SVG 1.1//EN"
 "http://www.w3.org/Graphics/SVG/1.1/DTD/svg11.dtd">
<!-- Generated by graphviz version 2.47.1 (20210417.1919)
 -->
<!-- Title: Server/Main Server.cpp Pages: 1 -->
<!--zoomable 386 -->
<svg id="main" version="1.1" xmlns="http://www.w3.org/2000/svg" xmlns:xlink="http://www.w3.org/1999/xlink" xml:space="preserve" onload="init(evt)">
<style type="text/css"><![CDATA[
.edge:hover path { stroke: red; }
.edge:hover polygon { stroke: red; fill: red; }
]]></style>
<script type="text/javascript"><![CDATA[
var edges = document.getElementsByTagName('g');
if (edges && edges.length) {
  for (var i=0;i<edges.length;i++) {
    if (edges[i].id.substr(0,4)=='edge') {
      edges[i].setAttribute('class','edge');
    }
  }
}
]]></script>
        <defs>
                <circle id="rim" cx="0" cy="0" r="7"/>
                <circle id="rim2" cx="0" cy="0" r="3.5"/>
                <g id="zoomPlus">
                        <use xlink:href="#rim" fill="#404040">
                                <set attributeName="fill" to="#808080" begin="zoomplus.mouseover" end="zoomplus.mouseout"/>
                        </use>
                        <path d="M-4,0h8M0,-4v8" fill="none" stroke="white" stroke-width="1.5" pointer-events="none"/>
                </g>
                <g id="zoomMin">
                        <use xlink:href="#rim" fill="#404040">
                                <set attributeName="fill" to="#808080" begin="zoomminus.mouseover" end="zoomminus.mouseout"/>
                        </use>
                        <path d="M-4,0h8" fill="none" stroke="white" stroke-width="1.5" pointer-events="none"/>
                </g>
                <g id="dirArrow">
                        <path fill="none" stroke="white" stroke-width="1.5" d="M0,-3.0v7 M-2.5,-0.5L0,-3.0L2.5,-0.5"/>
                </g>
               <g id="resetDef">
                       <use xlink:href="#rim2" fill="#404040">
                               <set attributeName="fill" to="#808080" begin="reset.mouseover" end="reset.mouseout"/>
                       </use>
               </g>
        </defs>

<script type="text/javascript">
var viewWidth = 1480;
var viewHeight = 386;
var sectionId = 'dynsection-0';
</script>
<script xlink:href="svgpan.js"/>
<svg id="graph" class="graph">
<g id="viewport">
<title>Server/Main Server.cpp</title>
<polygon fill="white" stroke="transparent" points="-4,4 -4,-382 1475.5,-382 1475.5,4 -4,4"/>
<!-- Node1 -->
<g id="node1" class="node">
<title>Node1</title>
<g id="a_node1"><a xlink:title=" ">
<polygon fill="#bfbfbf" stroke="black" points="573.5,-358.5 573.5,-377.5 689.5,-377.5 689.5,-358.5 573.5,-358.5"/>
<text text-anchor="middle" x="631.5" y="-365.5" font-family="Helvetica,sans-Serif" font-size="10.00">Server/Main Server.cpp</text>
</a>
</g>
</g>
<!-- Node2 -->
<g id="node2" class="node">
<title>Node2</title>
<g id="a_node2"><a xlink:title=" ">
<polygon fill="white" stroke="#bfbfbf" points="0,-297 0,-316 97,-316 97,-297 0,-297"/>
<text text-anchor="middle" x="48.5" y="-304" font-family="Helvetica,sans-Serif" font-size="10.00">zmqpp/socket.hpp</text>
</a>
</g>
</g>
<!-- Node1&#45;&gt;Node2 -->
<g id="edge1" class="edge">
<title>Node1&#45;&gt;Node2</title>
<path fill="none" stroke="midnightblue" d="M573.25,-365.04C475.97,-361.09 274.56,-350.03 106.5,-322 100.66,-321.03 94.55,-319.77 88.57,-318.4"/>
<polygon fill="midnightblue" stroke="midnightblue" points="89.25,-314.96 78.71,-316.02 87.61,-321.77 89.25,-314.96"/>
</g>
<!-- Node3 -->
<g id="node3" class="node">
<title>Node3</title>
<g id="a_node3"><a xlink:title=" ">
<polygon fill="white" stroke="#bfbfbf" points="115.5,-297 115.5,-316 215.5,-316 215.5,-297 115.5,-297"/>
<text text-anchor="middle" x="165.5" y="-304" font-family="Helvetica,sans-Serif" font-size="10.00">zmqpp/context.hpp</text>
</a>
</g>
</g>
<!-- Node1&#45;&gt;Node3 -->
<g id="edge2" class="edge">
<title>Node1&#45;&gt;Node3</title>
<path fill="none" stroke="midnightblue" d="M573.2,-362.97C493.87,-356.93 347.7,-343.85 224.5,-322 218.71,-320.97 212.65,-319.71 206.7,-318.35"/>
<polygon fill="midnightblue" stroke="midnightblue" points="207.41,-314.92 196.88,-316.02 205.8,-321.73 207.41,-314.92"/>
</g>
<!-- Node4 -->
<g id="node4" class="node">
<title>Node4</title>
<g id="a_node4"><a xlink:title=" ">
<polygon fill="white" stroke="#bfbfbf" points="234,-297 234,-316 341,-316 341,-297 234,-297"/>
<text text-anchor="middle" x="287.5" y="-304" font-family="Helvetica,sans-Serif" font-size="10.00">zmqpp/message.hpp</text>
</a>
</g>
</g>
<!-- Node1&#45;&gt;Node4 -->
<g id="edge3" class="edge">
<title>Node1&#45;&gt;Node4</title>
<path fill="none" stroke="midnightblue" d="M574.27,-358.5C518.35,-349.99 430.89,-336.17 355.5,-322 349.19,-320.81 342.57,-319.5 336.04,-318.15"/>
<polygon fill="midnightblue" stroke="midnightblue" points="336.42,-314.65 325.91,-316.03 334.98,-321.51 336.42,-314.65"/>
</g>
<!-- Node5 -->
<g id="node5" class="node">
<title>Node5</title>
<g id="a_node5"><a xlink:href="Llist_8h.html" target="_top" xlink:title=" ">
<polygon fill="white" stroke="black" points="441,-112.5 441,-131.5 484,-131.5 484,-112.5 441,-112.5"/>
<text text-anchor="middle" x="462.5" y="-119.5" font-family="Helvetica,sans-Serif" font-size="10.00">Llist.h</text>
</a>
</g>
</g>
<!-- Node1&#45;&gt;Node5 -->
<g id="edge4" class="edge">
<title>Node1&#45;&gt;Node5</title>
<path fill="none" stroke="midnightblue" d="M573.27,-364.53C509,-360.43 411.55,-349.71 388.5,-322 364.34,-292.96 360.84,-269.65 417.5,-168 423.84,-156.62 433.89,-146.18 442.88,-138.22"/>
<polygon fill="midnightblue" stroke="midnightblue" points="445.29,-140.77 450.71,-131.66 440.79,-135.4 445.29,-140.77"/>
</g>
<!-- Node8 -->
<g id="node8" class="node">
<title>Node8</title>
<g id="a_node8"><a xlink:href="Parser_8h.html" target="_top" xlink:title=" ">
<polygon fill="white" stroke="black" points="398,-297 398,-316 451,-316 451,-297 398,-297"/>
<text text-anchor="middle" x="424.5" y="-304" font-family="Helvetica,sans-Serif" font-size="10.00">Parser.h</text>
</a>
</g>
</g>
<!-- Node1&#45;&gt;Node8 -->
<g id="edge7" class="edge">
<title>Node1&#45;&gt;Node8</title>
<path fill="none" stroke="midnightblue" d="M596.95,-358.44C563.22,-349.9 510.54,-336.05 465.5,-322 462.89,-321.19 460.19,-320.31 457.49,-319.41"/>
<polygon fill="midnightblue" stroke="midnightblue" points="458.41,-316.02 447.81,-316.09 456.14,-322.64 458.41,-316.02"/>
</g>
<!-- Node14 -->
<g id="node14" class="node">
<title>Node14</title>
<g id="a_node14"><a xlink:title=" ">
<polygon fill="white" stroke="#bfbfbf" points="964.5,-230 964.5,-249 1064.5,-249 1064.5,-230 964.5,-230"/>
<text text-anchor="middle" x="1014.5" y="-237" font-family="Helvetica,sans-Serif" font-size="10.00">boost/log/trivial.hpp</text>
</a>
</g>
</g>
<!-- Node1&#45;&gt;Node14 -->
<g id="edge18" class="edge">
<title>Node1&#45;&gt;Node14</title>
<path fill="none" stroke="midnightblue" d="M586.71,-358.47C537.15,-347.15 468.04,-324.59 498.5,-291 506.1,-282.62 819.9,-256.27 954.36,-245.33"/>
<polygon fill="midnightblue" stroke="midnightblue" points="954.81,-248.8 964.49,-244.51 954.24,-241.83 954.81,-248.8"/>
</g>
<!-- Node15 -->
<g id="node15" class="node">
<title>Node15</title>
<g id="a_node15"><a xlink:title=" ">
<polygon fill="white" stroke="#bfbfbf" points="507.5,-291.5 507.5,-321.5 617.5,-321.5 617.5,-291.5 507.5,-291.5"/>
<text text-anchor="start" x="515.5" y="-309.5" font-family="Helvetica,sans-Serif" font-size="10.00">boost/log/utility/setup</text>
<text text-anchor="middle" x="562.5" y="-298.5" font-family="Helvetica,sans-Serif" font-size="10.00">/file.hpp</text>
</a>
</g>
</g>
<!-- Node1&#45;&gt;Node15 -->
<g id="edge19" class="edge">
<title>Node1&#45;&gt;Node15</title>
<path fill="none" stroke="midnightblue" d="M621.61,-358.48C612.44,-350.57 598.43,-338.48 586.35,-328.07"/>
<polygon fill="midnightblue" stroke="midnightblue" points="588.62,-325.4 578.76,-321.52 584.05,-330.7 588.62,-325.4"/>
</g>
<!-- Node16 -->
<g id="node16" class="node">
<title>Node16</title>
<g id="a_node16"><a xlink:title=" ">
<polygon fill="white" stroke="#bfbfbf" points="636,-297 636,-316 767,-316 767,-297 636,-297"/>
<text text-anchor="middle" x="701.5" y="-304" font-family="Helvetica,sans-Serif" font-size="10.00">boost/log/expressions.hpp</text>
</a>
</g>
</g>
<!-- Node1&#45;&gt;Node16 -->
<g id="edge20" class="edge">
<title>Node1&#45;&gt;Node16</title>
<path fill="none" stroke="midnightblue" d="M641.53,-358.48C652.55,-349.11 670.46,-333.88 683.84,-322.51"/>
<polygon fill="midnightblue" stroke="midnightblue" points="686.14,-325.15 691.49,-316.01 681.6,-319.82 686.14,-325.15"/>
</g>
<!-- Node17 -->
<g id="node17" class="node">
<title>Node17</title>
<g id="a_node17"><a xlink:title=" ">
<polygon fill="white" stroke="#bfbfbf" points="785.5,-297 785.5,-316 927.5,-316 927.5,-297 785.5,-297"/>
<text text-anchor="middle" x="856.5" y="-304" font-family="Helvetica,sans-Serif" font-size="10.00">boost/log/sources/logger.hpp</text>
</a>
</g>
</g>
<!-- Node1&#45;&gt;Node17 -->
<g id="edge21" class="edge">
<title>Node1&#45;&gt;Node17</title>
<path fill="none" stroke="midnightblue" d="M663.74,-358.48C703.42,-347.98 770.9,-330.14 814.57,-318.59"/>
<polygon fill="midnightblue" stroke="midnightblue" points="815.55,-321.95 824.32,-316.01 813.76,-315.18 815.55,-321.95"/>
</g>
<!-- Node18 -->
<g id="node18" class="node">
<title>Node18</title>
<g id="a_node18"><a xlink:title=" ">
<polygon fill="white" stroke="#bfbfbf" points="946,-297 946,-316 1043,-316 1043,-297 946,-297"/>
<text text-anchor="middle" x="994.5" y="-304" font-family="Helvetica,sans-Serif" font-size="10.00">boost/log/core.hpp</text>
</a>
</g>
</g>
<!-- Node1&#45;&gt;Node18 -->
<g id="edge22" class="edge">
<title>Node1&#45;&gt;Node18</title>
<path fill="none" stroke="midnightblue" d="M689.69,-360.15C751.29,-352.49 851.18,-338.92 936.5,-322 941.85,-320.94 947.44,-319.71 952.95,-318.41"/>
<polygon fill="midnightblue" stroke="midnightblue" points="953.82,-321.8 962.72,-316.04 952.17,-315 953.82,-321.8"/>
</g>
<!-- Node19 -->
<g id="node19" class="node">
<title>Node19</title>
<g id="a_node19"><a xlink:title=" ">
<polygon fill="white" stroke="#bfbfbf" points="1061,-297 1061,-316 1166,-316 1166,-297 1061,-297"/>
<text text-anchor="middle" x="1113.5" y="-304" font-family="Helvetica,sans-Serif" font-size="10.00">boost/date_time.hpp</text>
</a>
</g>
</g>
<!-- Node1&#45;&gt;Node19 -->
<g id="edge23" class="edge">
<title>Node1&#45;&gt;Node19</title>
<path fill="none" stroke="midnightblue" d="M689.56,-363.05C770.88,-357 923.17,-343.8 1051.5,-322 1057.72,-320.94 1064.25,-319.64 1070.64,-318.24"/>
<polygon fill="midnightblue" stroke="midnightblue" points="1071.53,-321.63 1080.51,-316.01 1069.98,-314.8 1071.53,-321.63"/>
</g>
<!-- Node20 -->
<g id="node20" class="node">
<title>Node20</title>
<g id="a_node20"><a xlink:title=" ">
<polygon fill="white" stroke="#bfbfbf" points="1184.5,-291.5 1184.5,-321.5 1306.5,-321.5 1306.5,-291.5 1184.5,-291.5"/>
<text text-anchor="start" x="1192.5" y="-309.5" font-family="Helvetica,sans-Serif" font-size="10.00">boost/log/utility/setup</text>
<text text-anchor="middle" x="1245.5" y="-298.5" font-family="Helvetica,sans-Serif" font-size="10.00">/common_attributes.hpp</text>
</a>
</g>
</g>
<!-- Node1&#45;&gt;Node20 -->
<g id="edge24" class="edge">
<title>Node1&#45;&gt;Node20</title>
<path fill="none" stroke="midnightblue" d="M689.61,-364.45C789.25,-359.58 998.92,-347.11 1174.5,-322 1174.6,-321.99 1174.7,-321.97 1174.8,-321.96"/>
<polygon fill="midnightblue" stroke="midnightblue" points="1175.05,-325.46 1184.39,-320.46 1173.97,-318.54 1175.05,-325.46"/>
</g>
<!-- Node21 -->
<g id="node21" class="node">
<title>Node21</title>
<g id="a_node21"><a xlink:title=" ">
<polygon fill="white" stroke="#bfbfbf" points="1349.5,-224.5 1349.5,-254.5 1471.5,-254.5 1471.5,-224.5 1349.5,-224.5"/>
<text text-anchor="start" x="1357.5" y="-242.5" font-family="Helvetica,sans-Serif" font-size="10.00">boost/log/sources/global</text>
<text text-anchor="middle" x="1410.5" y="-231.5" font-family="Helvetica,sans-Serif" font-size="10.00">_logger_storage.hpp</text>
</a>
</g>
</g>
<!-- Node1&#45;&gt;Node21 -->
<g id="edge25" class="edge">
<title>Node1&#45;&gt;Node21</title>
<path fill="none" stroke="midnightblue" d="M689.65,-367.49C858.17,-368.36 1338.29,-366.86 1391.5,-322 1407.84,-308.22 1411.68,-283.36 1411.98,-264.71"/>
<polygon fill="midnightblue" stroke="midnightblue" points="1415.48,-264.52 1411.82,-254.57 1408.48,-264.63 1415.48,-264.52"/>
</g>
<!-- Node22 -->
<g id="node22" class="node">
<title>Node22</title>
<g id="a_node22"><a xlink:href="loggerS_8h.html" target="_top" xlink:title=" ">
<polygon fill="white" stroke="black" points="1324.5,-297 1324.5,-316 1382.5,-316 1382.5,-297 1324.5,-297"/>
<text text-anchor="middle" x="1353.5" y="-304" font-family="Helvetica,sans-Serif" font-size="10.00">loggerS.h</text>
</a>
</g>
</g>
<!-- Node1&#45;&gt;Node22 -->
<g id="edge26" class="edge">
<title>Node1&#45;&gt;Node22</title>
<path fill="none" stroke="midnightblue" d="M689.76,-365.4C832.53,-361.12 1196.84,-347.93 1315.5,-322 1318.57,-321.33 1321.73,-320.45 1324.84,-319.46"/>
<polygon fill="midnightblue" stroke="midnightblue" points="1326.26,-322.67 1334.51,-316.02 1323.91,-316.08 1326.26,-322.67"/>
</g>
<!-- Node6 -->
<g id="node6" class="node">
<title>Node6</title>
<g id="a_node6"><a xlink:href="LNode_8h.html" target="_top" xlink:title=" ">
<polygon fill="white" stroke="black" points="605,-56.5 605,-75.5 658,-75.5 658,-56.5 605,-56.5"/>
<text text-anchor="middle" x="631.5" y="-63.5" font-family="Helvetica,sans-Serif" font-size="10.00">LNode.h</text>
</a>
</g>
</g>
<!-- Node5&#45;&gt;Node6 -->
<g id="edge5" class="edge">
<title>Node5&#45;&gt;Node6</title>
<path fill="none" stroke="midnightblue" d="M484.25,-114.05C512.2,-105.12 561.15,-89.48 594.89,-78.7"/>
<polygon fill="midnightblue" stroke="midnightblue" points="596.37,-81.9 604.83,-75.52 594.24,-75.23 596.37,-81.9"/>
</g>
<!-- Node7 -->
<g id="node7" class="node">
<title>Node7</title>
<g id="a_node7"><a xlink:title=" ">
<polygon fill="white" stroke="#bfbfbf" points="611,-0.5 611,-19.5 652,-19.5 652,-0.5 611,-0.5"/>
<text text-anchor="middle" x="631.5" y="-7.5" font-family="Helvetica,sans-Serif" font-size="10.00">string</text>
</a>
</g>
</g>
<!-- Node6&#45;&gt;Node7 -->
<g id="edge6" class="edge">
<title>Node6&#45;&gt;Node7</title>
<path fill="none" stroke="midnightblue" d="M631.5,-56.08C631.5,-49.01 631.5,-38.86 631.5,-29.99"/>
<polygon fill="midnightblue" stroke="midnightblue" points="635,-29.75 631.5,-19.75 628,-29.75 635,-29.75"/>
</g>
<!-- Node8&#45;&gt;Node5 -->
<g id="edge8" class="edge">
<title>Node8&#45;&gt;Node5</title>
<path fill="none" stroke="midnightblue" d="M422.74,-296.79C418.63,-274.53 409.96,-214.06 426.5,-168 430.45,-156.98 438.31,-146.64 445.68,-138.65"/>
<polygon fill="midnightblue" stroke="midnightblue" points="448.19,-141.09 452.73,-131.51 443.21,-136.17 448.19,-141.09"/>
</g>
<!-- Node8&#45;&gt;Node6 -->
<g id="edge9" class="edge">
<title>Node8&#45;&gt;Node6</title>
<path fill="none" stroke="midnightblue" d="M451.27,-299.34C509.58,-285.91 642.93,-255.2 643.5,-255 707.79,-232.31 745.32,-245.79 781.5,-188 814.26,-135.67 721.87,-95.92 667.72,-77.8"/>
<polygon fill="midnightblue" stroke="midnightblue" points="668.68,-74.43 658.09,-74.66 666.52,-81.09 668.68,-74.43"/>
</g>
<!-- Node9 -->
<g id="node9" class="node">
<title>Node9</title>
<g id="a_node9"><a xlink:href="MemoryController_8h.html" target="_top" xlink:title=" ">
<polygon fill="white" stroke="black" points="492,-230 492,-249 593,-249 593,-230 492,-230"/>
<text text-anchor="middle" x="542.5" y="-237" font-family="Helvetica,sans-Serif" font-size="10.00">MemoryController.h</text>
</a>
</g>
</g>
<!-- Node8&#45;&gt;Node9 -->
<g id="edge10" class="edge">
<title>Node8&#45;&gt;Node9</title>
<path fill="none" stroke="midnightblue" d="M440.41,-296.73C460.32,-285.77 494.61,-266.88 517.9,-254.05"/>
<polygon fill="midnightblue" stroke="midnightblue" points="519.77,-257.02 526.84,-249.13 516.39,-250.89 519.77,-257.02"/>
</g>
<!-- Node13 -->
<g id="node13" class="node">
<title>Node13</title>
<g id="a_node13"><a xlink:title=" ">
<polygon fill="white" stroke="#bfbfbf" points="674.5,-168.5 674.5,-187.5 772.5,-187.5 772.5,-168.5 674.5,-168.5"/>
<text text-anchor="middle" x="723.5" y="-175.5" font-family="Helvetica,sans-Serif" font-size="10.00">nlohmann/json.hpp</text>
</a>
</g>
</g>
<!-- Node8&#45;&gt;Node13 -->
<g id="edge17" class="edge">
<title>Node8&#45;&gt;Node13</title>
<path fill="none" stroke="midnightblue" d="M447.81,-296.89C453.56,-294.87 459.73,-292.78 465.5,-291 525.25,-272.56 544.1,-279.81 601.5,-255 640.12,-238.31 680.8,-210.63 704.06,-193.68"/>
<polygon fill="midnightblue" stroke="midnightblue" points="706.4,-196.31 712.36,-187.55 702.24,-190.68 706.4,-196.31"/>
</g>
<!-- Node9&#45;&gt;Node5 -->
<g id="edge12" class="edge">
<title>Node9&#45;&gt;Node5</title>
<path fill="none" stroke="midnightblue" d="M537.21,-229.65C529.05,-216.12 512.74,-189.59 497.5,-168 490.72,-158.4 482.7,-148.02 476.05,-139.65"/>
<polygon fill="midnightblue" stroke="midnightblue" points="478.71,-137.38 469.72,-131.78 473.26,-141.77 478.71,-137.38"/>
</g>
<!-- Node10 -->
<g id="node10" class="node">
<title>Node10</title>
<g id="a_node10"><a xlink:title=" ">
<polygon fill="white" stroke="#bfbfbf" points="546,-168.5 546,-187.5 589,-187.5 589,-168.5 546,-168.5"/>
<text text-anchor="middle" x="567.5" y="-175.5" font-family="Helvetica,sans-Serif" font-size="10.00">cstdio</text>
</a>
</g>
</g>
<!-- Node9&#45;&gt;Node10 -->
<g id="edge11" class="edge">
<title>Node9&#45;&gt;Node10</title>
<path fill="none" stroke="midnightblue" d="M546.08,-229.98C549.68,-221.4 555.35,-207.93 559.94,-196.98"/>
<polygon fill="midnightblue" stroke="midnightblue" points="563.28,-198.08 563.92,-187.51 556.82,-195.37 563.28,-198.08"/>
</g>
<!-- Node11 -->
<g id="node11" class="node">
<title>Node11</title>
<g id="a_node11"><a xlink:href="Scope_8h.html" target="_top" xlink:title=" ">
<polygon fill="white" stroke="black" points="436,-168.5 436,-187.5 489,-187.5 489,-168.5 436,-168.5"/>
<text text-anchor="middle" x="462.5" y="-175.5" font-family="Helvetica,sans-Serif" font-size="10.00">Scope.h</text>
</a>
</g>
</g>
<!-- Node9&#45;&gt;Node11 -->
<g id="edge13" class="edge">
<title>Node9&#45;&gt;Node11</title>
<path fill="none" stroke="midnightblue" d="M531.04,-229.98C518.33,-220.52 497.59,-205.1 482.25,-193.69"/>
<polygon fill="midnightblue" stroke="midnightblue" points="484.05,-190.67 473.94,-187.51 479.88,-196.29 484.05,-190.67"/>
</g>
<!-- Node12 -->
<g id="node12" class="node">
<title>Node12</title>
<g id="a_node12"><a xlink:title=" ">
<polygon fill="white" stroke="#bfbfbf" points="607,-168.5 607,-187.5 656,-187.5 656,-168.5 607,-168.5"/>
<text text-anchor="middle" x="631.5" y="-175.5" font-family="Helvetica,sans-Serif" font-size="10.00">string.h</text>
</a>
</g>
</g>
<!-- Node9&#45;&gt;Node12 -->
<g id="edge15" class="edge">
<title>Node9&#45;&gt;Node12</title>
<path fill="none" stroke="midnightblue" d="M555.25,-229.98C569.53,-220.43 592.9,-204.81 610.01,-193.37"/>
<polygon fill="midnightblue" stroke="midnightblue" points="612.4,-195.98 618.77,-187.51 608.51,-190.16 612.4,-195.98"/>
</g>
<!-- Node9&#45;&gt;Node13 -->
<g id="edge16" class="edge">
<title>Node9&#45;&gt;Node13</title>
<path fill="none" stroke="midnightblue" d="M568.43,-229.98C599.75,-219.68 652.59,-202.31 687.76,-190.75"/>
<polygon fill="midnightblue" stroke="midnightblue" points="689.21,-193.96 697.62,-187.51 687.02,-187.31 689.21,-193.96"/>
</g>
<!-- Node11&#45;&gt;Node5 -->
<g id="edge14" class="edge">
<title>Node11&#45;&gt;Node5</title>
<path fill="none" stroke="midnightblue" d="M462.5,-168.08C462.5,-161.01 462.5,-150.86 462.5,-141.99"/>
<polygon fill="midnightblue" stroke="midnightblue" points="466,-141.75 462.5,-131.75 459,-141.75 466,-141.75"/>
</g>
<!-- Node22&#45;&gt;Node14 -->
<g id="edge27" class="edge">
<title>Node22&#45;&gt;Node14</title>
<path fill="none" stroke="midnightblue" d="M1333.24,-296.92C1327.57,-294.75 1321.36,-292.59 1315.5,-291 1233.57,-268.73 1136.28,-254.56 1074.96,-247.07"/>
<polygon fill="midnightblue" stroke="midnightblue" points="1075.03,-243.55 1064.69,-245.83 1074.2,-250.5 1075.03,-243.55"/>
</g>
<!-- Node22&#45;&gt;Node21 -->
<g id="edge28" class="edge">
<title>Node22&#45;&gt;Node21</title>
<path fill="none" stroke="midnightblue" d="M1361.19,-296.73C1368.89,-287.95 1381.05,-274.08 1391.37,-262.31"/>
<polygon fill="midnightblue" stroke="midnightblue" points="1394.18,-264.42 1398.15,-254.59 1388.92,-259.8 1394.18,-264.42"/>
</g>
<!-- Node23 -->
<g id="node23" class="node">
<title>Node23</title>
<g id="a_node23"><a xlink:title=" ">
<polygon fill="white" stroke="#bfbfbf" points="1218,-224.5 1218,-254.5 1331,-254.5 1331,-224.5 1218,-224.5"/>
<text text-anchor="start" x="1226" y="-242.5" font-family="Helvetica,sans-Serif" font-size="10.00">boost/log/support/date</text>
<text text-anchor="middle" x="1274.5" y="-231.5" font-family="Helvetica,sans-Serif" font-size="10.00">_time.hpp</text>
</a>
</g>
</g>
<!-- Node22&#45;&gt;Node23 -->
<g id="edge29" class="edge">
<title>Node22&#45;&gt;Node23</title>
<path fill="none" stroke="midnightblue" d="M1342.85,-296.73C1331.76,-287.61 1314,-273 1299.37,-260.96"/>
<polygon fill="midnightblue" stroke="midnightblue" points="1301.57,-258.24 1291.62,-254.59 1297.12,-263.65 1301.57,-258.24"/>
</g>
</g>
</svg>
        <g id="navigator" transform="translate(0 0)" fill="#404254">
                <rect fill="#f2f5e9" fill-opacity="0.5" stroke="#606060" stroke-width=".5" x="0" y="0" width="60" height="60"/>
                <use id="zoomplus" xlink:href="#zoomPlus" x="17" y="9" onmousedown="handleZoom(evt,'in')"/>
                <use id="zoomminus" xlink:href="#zoomMin" x="42" y="9" onmousedown="handleZoom(evt,'out')"/>
                <use id="reset" xlink:href="#resetDef" x="30" y="36" onmousedown="handleReset()"/>
                <g id="arrowUp" xlink:href="#dirArrow" transform="translate(30 24)" onmousedown="handlePan(0,-1)">
                  <use xlink:href="#rim" fill="#404040">
                        <set attributeName="fill" to="#808080" begin="arrowUp.mouseover" end="arrowUp.mouseout"/>
                  </use>
                  <path fill="none" stroke="white" stroke-width="1.5" d="M0,-3.0v7 M-2.5,-0.5L0,-3.0L2.5,-0.5"/>
                </g>
                <g id="arrowRight" xlink:href="#dirArrow" transform="rotate(90) translate(36 -43)" onmousedown="handlePan(1,0)">
                  <use xlink:href="#rim" fill="#404040">
                        <set attributeName="fill" to="#808080" begin="arrowRight.mouseover" end="arrowRight.mouseout"/>
                  </use>
                  <path fill="none" stroke="white" stroke-width="1.5" d="M0,-3.0v7 M-2.5,-0.5L0,-3.0L2.5,-0.5"/>
                </g>
                <g id="arrowDown" xlink:href="#dirArrow" transform="rotate(180) translate(-30 -48)" onmousedown="handlePan(0,1)">
                  <use xlink:href="#rim" fill="#404040">
                        <set attributeName="fill" to="#808080" begin="arrowDown.mouseover" end="arrowDown.mouseout"/>
                  </use>
                  <path fill="none" stroke="white" stroke-width="1.5" d="M0,-3.0v7 M-2.5,-0.5L0,-3.0L2.5,-0.5"/>
                </g>
                <g id="arrowLeft" xlink:href="#dirArrow" transform="rotate(270) translate(-36 17)" onmousedown="handlePan(-1,0)">
                  <use xlink:href="#rim" fill="#404040">
                        <set attributeName="fill" to="#808080" begin="arrowLeft.mouseover" end="arrowLeft.mouseout"/>
                  </use>
                  <path fill="none" stroke="white" stroke-width="1.5" d="M0,-3.0v7 M-2.5,-0.5L0,-3.0L2.5,-0.5"/>
                </g>
        </g>
        <svg viewBox="0 0 15 15" width="100%" height="30px" preserveAspectRatio="xMaxYMin meet">
         <g id="arrow_out" transform="scale(0.3 0.3)">
          <a xlink:href="Main_01Server_8cpp__incl_org.svg" target="_base">
           <rect id="button" ry="5" rx="5" y="6" x="6" height="38" width="38"
                fill="#f2f5e9" fill-opacity="0.5" stroke="#606060" stroke-width="1.0"/>
           <path id="arrow"
             d="M 11.500037,31.436501 C 11.940474,20.09759 22.043105,11.32322 32.158766,21.979434 L 37.068811,17.246167 C 37.068811,17.246167 37.088388,32 37.088388,32 L 22.160133,31.978069 C 22.160133,31.978069 26.997745,27.140456 26.997745,27.140456 C 18.528582,18.264221 13.291696,25.230495 11.500037,31.436501 z"
             style="fill:#404040;"/>
          </a>
         </g>
        </svg>
</svg>
