<?xml version="1.0" encoding="UTF-8" standalone="no"?>
<!DOCTYPE svg PUBLIC "-//W3C//DTD SVG 1.1//EN"
 "http://www.w3.org/Graphics/SVG/1.1/DTD/svg11.dtd">
<!-- Generated by graphviz version 2.47.1 (20210417.1919)
 -->
<!-- Title: InterfaceC!/Interface/mainwindow.cpp Pages: 1 -->
<!--zoomable 207 -->
<svg id="main" version="1.1" xmlns="http://www.w3.org/2000/svg" xmlns:xlink="http://www.w3.org/1999/xlink" xml:space="preserve" onload="init(evt)">
<style type="text/css"><![CDATA[
.edge:hover path { stroke: red; }
.edge:hover polygon { stroke: red; fill: red; }
]]></style>
<script type="text/javascript"><![CDATA[
var edges = document.getElementsByTagName('g');
if (edges && edges.length) {
  for (var i=0;i<edges.length;i++) {
    if (edges[i].id.substr(0,4)=='edge') {
      edges[i].setAttribute('class','edge');
    }
  }
}
]]></script>
        <defs>
                <circle id="rim" cx="0" cy="0" r="7"/>
                <circle id="rim2" cx="0" cy="0" r="3.5"/>
                <g id="zoomPlus">
                        <use xlink:href="#rim" fill="#404040">
                                <set attributeName="fill" to="#808080" begin="zoomplus.mouseover" end="zoomplus.mouseout"/>
                        </use>
                        <path d="M-4,0h8M0,-4v8" fill="none" stroke="white" stroke-width="1.5" pointer-events="none"/>
                </g>
                <g id="zoomMin">
                        <use xlink:href="#rim" fill="#404040">
                                <set attributeName="fill" to="#808080" begin="zoomminus.mouseover" end="zoomminus.mouseout"/>
                        </use>
                        <path d="M-4,0h8" fill="none" stroke="white" stroke-width="1.5" pointer-events="none"/>
                </g>
                <g id="dirArrow">
                        <path fill="none" stroke="white" stroke-width="1.5" d="M0,-3.0v7 M-2.5,-0.5L0,-3.0L2.5,-0.5"/>
                </g>
               <g id="resetDef">
                       <use xlink:href="#rim2" fill="#404040">
                               <set attributeName="fill" to="#808080" begin="reset.mouseover" end="reset.mouseout"/>
                       </use>
               </g>
        </defs>

<script type="text/javascript">
var viewWidth = 1882;
var viewHeight = 207;
var sectionId = 'dynsection-0';
</script>
<script xlink:href="svgpan.js"/>
<svg id="graph" class="graph">
<g id="viewport">
<title>InterfaceC!/Interface/mainwindow.cpp</title>
<polygon fill="white" stroke="transparent" points="-4,4 -4,-203 1877.5,-203 1877.5,4 -4,4"/>
<!-- Node1 -->
<g id="node1" class="node">
<title>Node1</title>
<g id="a_node1"><a xlink:title=" ">
<polygon fill="#bfbfbf" stroke="black" points="480.5,-168.5 480.5,-198.5 582.5,-198.5 582.5,-168.5 480.5,-168.5"/>
<text text-anchor="start" x="488.5" y="-186.5" font-family="Helvetica,sans-Serif" font-size="10.00">InterfaceC!/Interface</text>
<text text-anchor="middle" x="531.5" y="-175.5" font-family="Helvetica,sans-Serif" font-size="10.00">/mainwindow.cpp</text>
</a>
</g>
</g>
<!-- Node2 -->
<g id="node2" class="node">
<title>Node2</title>
<g id="a_node2"><a xlink:href="mainwindow_8h.html" target="_top" xlink:title=" ">
<polygon fill="white" stroke="black" points="378,-112.5 378,-131.5 455,-131.5 455,-112.5 378,-112.5"/>
<text text-anchor="middle" x="416.5" y="-119.5" font-family="Helvetica,sans-Serif" font-size="10.00">mainwindow.h</text>
</a>
</g>
</g>
<!-- Node1&#45;&gt;Node2 -->
<g id="edge1" class="edge">
<title>Node1&#45;&gt;Node2</title>
<path fill="none" stroke="midnightblue" d="M504.25,-168.4C485.47,-158.68 460.67,-145.86 442.23,-136.31"/>
<polygon fill="midnightblue" stroke="midnightblue" points="443.72,-133.14 433.23,-131.66 440.51,-139.36 443.72,-133.14"/>
</g>
<!-- Node4 -->
<g id="node4" class="node">
<title>Node4</title>
<g id="a_node4"><a xlink:href="socket__client_8h.html" target="_top" xlink:title=" ">
<polygon fill="white" stroke="black" points="237,-56.5 237,-75.5 320,-75.5 320,-56.5 237,-56.5"/>
<text text-anchor="middle" x="278.5" y="-63.5" font-family="Helvetica,sans-Serif" font-size="10.00">socket_client.h</text>
</a>
</g>
</g>
<!-- Node1&#45;&gt;Node4 -->
<g id="edge26" class="edge">
<title>Node1&#45;&gt;Node4</title>
<path fill="none" stroke="midnightblue" d="M480.29,-171.2C447.34,-162.83 404.15,-149.8 368.5,-132 341.23,-118.39 313.31,-96.79 295.95,-82.27"/>
<polygon fill="midnightblue" stroke="midnightblue" points="298.21,-79.59 288.32,-75.77 293.67,-84.92 298.21,-79.59"/>
</g>
<!-- Node9 -->
<g id="node9" class="node">
<title>Node9</title>
<g id="a_node9"><a xlink:href="Json__parser_8h.html" target="_top" xlink:title=" ">
<polygon fill="white" stroke="black" points="446,-56.5 446,-75.5 523,-75.5 523,-56.5 446,-56.5"/>
<text text-anchor="middle" x="484.5" y="-63.5" font-family="Helvetica,sans-Serif" font-size="10.00">Json_parser.h</text>
</a>
</g>
</g>
<!-- Node1&#45;&gt;Node9 -->
<g id="edge25" class="edge">
<title>Node1&#45;&gt;Node9</title>
<path fill="none" stroke="midnightblue" d="M525.74,-168.34C517.19,-147.34 501.17,-107.96 491.81,-84.96"/>
<polygon fill="midnightblue" stroke="midnightblue" points="495.04,-83.61 488.03,-75.67 488.56,-86.25 495.04,-83.61"/>
</g>
<!-- Node10 -->
<g id="node10" class="node">
<title>Node10</title>
<g id="a_node10"><a xlink:title=" ">
<polygon fill="white" stroke="#bfbfbf" points="534.5,-0.5 534.5,-19.5 608.5,-19.5 608.5,-0.5 534.5,-0.5"/>
<text text-anchor="middle" x="571.5" y="-7.5" font-family="Helvetica,sans-Serif" font-size="10.00">QTextStream</text>
</a>
</g>
</g>
<!-- Node1&#45;&gt;Node10 -->
<g id="edge23" class="edge">
<title>Node1&#45;&gt;Node10</title>
<path fill="none" stroke="midnightblue" d="M534.77,-168.47C541.95,-137.7 559.06,-64.33 567.14,-29.7"/>
<polygon fill="midnightblue" stroke="midnightblue" points="570.64,-30.09 569.5,-19.56 563.82,-28.5 570.64,-30.09"/>
</g>
<!-- Node13 -->
<g id="node13" class="node">
<title>Node13</title>
<g id="a_node13"><a xlink:href="ui__mainwindow_8h.html" target="_top" xlink:title=" ">
<polygon fill="white" stroke="black" points="1070.5,-112.5 1070.5,-131.5 1160.5,-131.5 1160.5,-112.5 1070.5,-112.5"/>
<text text-anchor="middle" x="1115.5" y="-119.5" font-family="Helvetica,sans-Serif" font-size="10.00">ui_mainwindow.h</text>
</a>
</g>
</g>
<!-- Node1&#45;&gt;Node13 -->
<g id="edge12" class="edge">
<title>Node1&#45;&gt;Node13</title>
<path fill="none" stroke="midnightblue" d="M582.56,-177.3C691.71,-166.18 946.99,-140.17 1059.99,-128.66"/>
<polygon fill="midnightblue" stroke="midnightblue" points="1060.55,-132.12 1070.15,-127.62 1059.85,-125.15 1060.55,-132.12"/>
</g>
<!-- Node24 -->
<g id="node24" class="node">
<title>Node24</title>
<g id="a_node24"><a xlink:title=" ">
<polygon fill="white" stroke="#bfbfbf" points="1178.5,-112.5 1178.5,-131.5 1232.5,-131.5 1232.5,-112.5 1178.5,-112.5"/>
<text text-anchor="middle" x="1205.5" y="-119.5" font-family="Helvetica,sans-Serif" font-size="10.00">iostream</text>
</a>
</g>
</g>
<!-- Node1&#45;&gt;Node24 -->
<g id="edge24" class="edge">
<title>Node1&#45;&gt;Node24</title>
<path fill="none" stroke="midnightblue" d="M582.71,-181.33C689.86,-178.25 945.57,-167.66 1168.55,-131.88"/>
<polygon fill="midnightblue" stroke="midnightblue" points="1169.16,-135.33 1178.47,-130.27 1168.04,-128.42 1169.16,-135.33"/>
</g>
<!-- Node3 -->
<g id="node3" class="node">
<title>Node3</title>
<g id="a_node3"><a xlink:title=" ">
<polygon fill="white" stroke="#bfbfbf" points="347.5,-56.5 347.5,-75.5 427.5,-75.5 427.5,-56.5 347.5,-56.5"/>
<text text-anchor="middle" x="387.5" y="-63.5" font-family="Helvetica,sans-Serif" font-size="10.00">QMainWindow</text>
</a>
</g>
</g>
<!-- Node2&#45;&gt;Node3 -->
<g id="edge2" class="edge">
<title>Node2&#45;&gt;Node3</title>
<path fill="none" stroke="midnightblue" d="M411.71,-112.08C407.74,-104.69 401.97,-93.95 397.07,-84.81"/>
<polygon fill="midnightblue" stroke="midnightblue" points="400.01,-82.91 392.2,-75.75 393.85,-86.22 400.01,-82.91"/>
</g>
<!-- Node2&#45;&gt;Node4 -->
<g id="edge3" class="edge">
<title>Node2&#45;&gt;Node4</title>
<path fill="none" stroke="midnightblue" d="M394.63,-112.44C371.72,-103.48 335.52,-89.31 309.63,-79.18"/>
<polygon fill="midnightblue" stroke="midnightblue" points="310.85,-75.9 300.26,-75.52 308.3,-82.42 310.85,-75.9"/>
</g>
<!-- Node2&#45;&gt;Node9 -->
<g id="edge8" class="edge">
<title>Node2&#45;&gt;Node9</title>
<path fill="none" stroke="midnightblue" d="M427.43,-112.32C437.67,-104.18 453.22,-91.84 465.5,-82.09"/>
<polygon fill="midnightblue" stroke="midnightblue" points="467.72,-84.79 473.38,-75.83 463.37,-79.31 467.72,-84.79"/>
</g>
<!-- Node5 -->
<g id="node5" class="node">
<title>Node5</title>
<g id="a_node5"><a xlink:title=" ">
<polygon fill="white" stroke="#bfbfbf" points="107,-0.5 107,-19.5 204,-19.5 204,-0.5 107,-0.5"/>
<text text-anchor="middle" x="155.5" y="-7.5" font-family="Helvetica,sans-Serif" font-size="10.00">zmqpp/zmqpp.hpp</text>
</a>
</g>
</g>
<!-- Node4&#45;&gt;Node5 -->
<g id="edge4" class="edge">
<title>Node4&#45;&gt;Node5</title>
<path fill="none" stroke="midnightblue" d="M259.01,-56.44C238.86,-47.6 207.18,-33.69 184.17,-23.59"/>
<polygon fill="midnightblue" stroke="midnightblue" points="185.46,-20.33 174.9,-19.52 182.65,-26.74 185.46,-20.33"/>
</g>
<!-- Node6 -->
<g id="node6" class="node">
<title>Node6</title>
<g id="a_node6"><a xlink:title=" ">
<polygon fill="white" stroke="#bfbfbf" points="222.5,-0.5 222.5,-19.5 298.5,-19.5 298.5,-0.5 222.5,-0.5"/>
<text text-anchor="middle" x="260.5" y="-7.5" font-family="Helvetica,sans-Serif" font-size="10.00">QStringLiteral</text>
</a>
</g>
</g>
<!-- Node4&#45;&gt;Node6 -->
<g id="edge5" class="edge">
<title>Node4&#45;&gt;Node6</title>
<path fill="none" stroke="midnightblue" d="M275.53,-56.08C273.12,-48.85 269.64,-38.41 266.63,-29.4"/>
<polygon fill="midnightblue" stroke="midnightblue" points="269.9,-28.13 263.42,-19.75 263.26,-30.34 269.9,-28.13"/>
</g>
<!-- Node7 -->
<g id="node7" class="node">
<title>Node7</title>
<g id="a_node7"><a xlink:title=" ">
<polygon fill="white" stroke="#bfbfbf" points="317,-0.5 317,-19.5 390,-19.5 390,-0.5 317,-0.5"/>
<text text-anchor="middle" x="353.5" y="-7.5" font-family="Helvetica,sans-Serif" font-size="10.00">QJsonObject</text>
</a>
</g>
</g>
<!-- Node4&#45;&gt;Node7 -->
<g id="edge6" class="edge">
<title>Node4&#45;&gt;Node7</title>
<path fill="none" stroke="midnightblue" d="M290.55,-56.32C301.96,-48.11 319.33,-35.6 332.93,-25.81"/>
<polygon fill="midnightblue" stroke="midnightblue" points="335.16,-28.52 341.23,-19.83 331.07,-22.84 335.16,-28.52"/>
</g>
<!-- Node8 -->
<g id="node8" class="node">
<title>Node8</title>
<g id="a_node8"><a xlink:title=" ">
<polygon fill="white" stroke="#bfbfbf" points="0,-0.5 0,-19.5 89,-19.5 89,-0.5 0,-0.5"/>
<text text-anchor="middle" x="44.5" y="-7.5" font-family="Helvetica,sans-Serif" font-size="10.00">QJsonDocument</text>
</a>
</g>
</g>
<!-- Node4&#45;&gt;Node8 -->
<g id="edge7" class="edge">
<title>Node4&#45;&gt;Node8</title>
<path fill="none" stroke="midnightblue" d="M241.42,-56.44C200.77,-47.06 135.47,-31.99 91.32,-21.8"/>
<polygon fill="midnightblue" stroke="midnightblue" points="91.94,-18.35 81.4,-19.52 90.36,-25.18 91.94,-18.35"/>
</g>
<!-- Node9&#45;&gt;Node10 -->
<g id="edge9" class="edge">
<title>Node9&#45;&gt;Node10</title>
<path fill="none" stroke="midnightblue" d="M498.48,-56.32C512.05,-47.9 532.88,-34.97 548.82,-25.07"/>
<polygon fill="midnightblue" stroke="midnightblue" points="550.91,-27.9 557.56,-19.65 547.21,-21.95 550.91,-27.9"/>
</g>
<!-- Node11 -->
<g id="node11" class="node">
<title>Node11</title>
<g id="a_node11"><a xlink:title=" ">
<polygon fill="white" stroke="#bfbfbf" points="470.5,-0.5 470.5,-19.5 516.5,-19.5 516.5,-0.5 470.5,-0.5"/>
<text text-anchor="middle" x="493.5" y="-7.5" font-family="Helvetica,sans-Serif" font-size="10.00">cstring</text>
</a>
</g>
</g>
<!-- Node9&#45;&gt;Node11 -->
<g id="edge10" class="edge">
<title>Node9&#45;&gt;Node11</title>
<path fill="none" stroke="midnightblue" d="M485.99,-56.08C487.18,-48.93 488.89,-38.64 490.38,-29.69"/>
<polygon fill="midnightblue" stroke="midnightblue" points="493.85,-30.19 492.04,-19.75 486.95,-29.04 493.85,-30.19"/>
</g>
<!-- Node12 -->
<g id="node12" class="node">
<title>Node12</title>
<g id="a_node12"><a xlink:title=" ">
<polygon fill="white" stroke="#bfbfbf" points="408.5,-0.5 408.5,-19.5 452.5,-19.5 452.5,-0.5 408.5,-0.5"/>
<text text-anchor="middle" x="430.5" y="-7.5" font-family="Helvetica,sans-Serif" font-size="10.00">zmq.h</text>
</a>
</g>
</g>
<!-- Node9&#45;&gt;Node12 -->
<g id="edge11" class="edge">
<title>Node9&#45;&gt;Node12</title>
<path fill="none" stroke="midnightblue" d="M475.58,-56.08C467.72,-48.22 456.07,-36.57 446.58,-27.08"/>
<polygon fill="midnightblue" stroke="midnightblue" points="448.8,-24.35 439.25,-19.75 443.85,-29.3 448.8,-24.35"/>
</g>
<!-- Node14 -->
<g id="node14" class="node">
<title>Node14</title>
<g id="a_node14"><a xlink:title=" ">
<polygon fill="white" stroke="#bfbfbf" points="1379,-56.5 1379,-75.5 1468,-75.5 1468,-56.5 1379,-56.5"/>
<text text-anchor="middle" x="1423.5" y="-63.5" font-family="Helvetica,sans-Serif" font-size="10.00">QtCore/QVariant</text>
</a>
</g>
</g>
<!-- Node13&#45;&gt;Node14 -->
<g id="edge13" class="edge">
<title>Node13&#45;&gt;Node14</title>
<path fill="none" stroke="midnightblue" d="M1160.62,-113.09C1215.9,-103.4 1309.51,-86.99 1368.83,-76.59"/>
<polygon fill="midnightblue" stroke="midnightblue" points="1369.52,-80.02 1378.76,-74.84 1368.31,-73.12 1369.52,-80.02"/>
</g>
<!-- Node15 -->
<g id="node15" class="node">
<title>Node15</title>
<g id="a_node15"><a xlink:title=" ">
<polygon fill="white" stroke="#bfbfbf" points="1486,-56.5 1486,-75.5 1587,-75.5 1587,-56.5 1486,-56.5"/>
<text text-anchor="middle" x="1536.5" y="-63.5" font-family="Helvetica,sans-Serif" font-size="10.00">QtWidgets/QAction</text>
</a>
</g>
</g>
<!-- Node13&#45;&gt;Node15 -->
<g id="edge14" class="edge">
<title>Node13&#45;&gt;Node15</title>
<path fill="none" stroke="midnightblue" d="M1160.56,-113.32C1163.58,-112.86 1166.58,-112.41 1169.5,-112 1302.76,-93.12 1339.22,-94.32 1475.96,-76.17"/>
<polygon fill="midnightblue" stroke="midnightblue" points="1476.54,-79.62 1485.99,-74.82 1475.61,-72.68 1476.54,-79.62"/>
</g>
<!-- Node16 -->
<g id="node16" class="node">
<title>Node16</title>
<g id="a_node16"><a xlink:title=" ">
<polygon fill="white" stroke="#bfbfbf" points="1605.5,-56.5 1605.5,-75.5 1727.5,-75.5 1727.5,-56.5 1605.5,-56.5"/>
<text text-anchor="middle" x="1666.5" y="-63.5" font-family="Helvetica,sans-Serif" font-size="10.00">QtWidgets/QApplication</text>
</a>
</g>
</g>
<!-- Node13&#45;&gt;Node16 -->
<g id="edge15" class="edge">
<title>Node13&#45;&gt;Node16</title>
<path fill="none" stroke="midnightblue" d="M1160.54,-113.21C1163.57,-112.78 1166.58,-112.37 1169.5,-112 1355.24,-88.73 1405.41,-95.89 1595.4,-76.07"/>
<polygon fill="midnightblue" stroke="midnightblue" points="1595.86,-79.54 1605.44,-75.01 1595.12,-72.58 1595.86,-79.54"/>
</g>
<!-- Node17 -->
<g id="node17" class="node">
<title>Node17</title>
<g id="a_node17"><a xlink:title=" ">
<polygon fill="white" stroke="#bfbfbf" points="1745.5,-56.5 1745.5,-75.5 1873.5,-75.5 1873.5,-56.5 1745.5,-56.5"/>
<text text-anchor="middle" x="1809.5" y="-63.5" font-family="Helvetica,sans-Serif" font-size="10.00">QtWidgets/QButtonGroup</text>
</a>
</g>
</g>
<!-- Node13&#45;&gt;Node17 -->
<g id="edge16" class="edge">
<title>Node13&#45;&gt;Node17</title>
<path fill="none" stroke="midnightblue" d="M1160.53,-113.14C1163.56,-112.72 1166.57,-112.34 1169.5,-112 1417.05,-83.59 1483.35,-99.04 1735.23,-76.06"/>
<polygon fill="midnightblue" stroke="midnightblue" points="1735.79,-79.52 1745.43,-75.12 1735.15,-72.55 1735.79,-79.52"/>
</g>
<!-- Node18 -->
<g id="node18" class="node">
<title>Node18</title>
<g id="a_node18"><a xlink:title=" ">
<polygon fill="white" stroke="#bfbfbf" points="580,-56.5 580,-75.5 705,-75.5 705,-56.5 580,-56.5"/>
<text text-anchor="middle" x="642.5" y="-63.5" font-family="Helvetica,sans-Serif" font-size="10.00">QtWidgets/QHeaderView</text>
</a>
</g>
</g>
<!-- Node13&#45;&gt;Node18 -->
<g id="edge17" class="edge">
<title>Node13&#45;&gt;Node18</title>
<path fill="none" stroke="midnightblue" d="M1070.26,-116.15C997.64,-108.33 850.28,-92.25 715.32,-76.2"/>
<polygon fill="midnightblue" stroke="midnightblue" points="715.56,-72.71 705.21,-75 714.73,-79.66 715.56,-72.71"/>
</g>
<!-- Node19 -->
<g id="node19" class="node">
<title>Node19</title>
<g id="a_node19"><a xlink:title=" ">
<polygon fill="white" stroke="#bfbfbf" points="723,-56.5 723,-75.5 820,-75.5 820,-56.5 723,-56.5"/>
<text text-anchor="middle" x="771.5" y="-63.5" font-family="Helvetica,sans-Serif" font-size="10.00">QtWidgets/QLabel</text>
</a>
</g>
</g>
<!-- Node13&#45;&gt;Node19 -->
<g id="edge18" class="edge">
<title>Node13&#45;&gt;Node19</title>
<path fill="none" stroke="midnightblue" d="M1070.26,-113.92C1015.7,-105.38 920.91,-90.53 829.94,-76.22"/>
<polygon fill="midnightblue" stroke="midnightblue" points="830.43,-72.76 820.01,-74.66 829.34,-79.67 830.43,-72.76"/>
</g>
<!-- Node20 -->
<g id="node20" class="node">
<title>Node20</title>
<g id="a_node20"><a xlink:title=" ">
<polygon fill="white" stroke="#bfbfbf" points="838,-56.5 838,-75.5 967,-75.5 967,-56.5 838,-56.5"/>
<text text-anchor="middle" x="902.5" y="-63.5" font-family="Helvetica,sans-Serif" font-size="10.00">QtWidgets/QMainWindow</text>
</a>
</g>
</g>
<!-- Node13&#45;&gt;Node20 -->
<g id="edge19" class="edge">
<title>Node13&#45;&gt;Node20</title>
<path fill="none" stroke="midnightblue" d="M1081.75,-112.44C1044.98,-103.12 986.05,-88.18 945.88,-78"/>
<polygon fill="midnightblue" stroke="midnightblue" points="946.65,-74.58 936.09,-75.52 944.93,-81.37 946.65,-74.58"/>
</g>
<!-- Node21 -->
<g id="node21" class="node">
<title>Node21</title>
<g id="a_node21"><a xlink:title=" ">
<polygon fill="white" stroke="#bfbfbf" points="985,-56.5 985,-75.5 1110,-75.5 1110,-56.5 985,-56.5"/>
<text text-anchor="middle" x="1047.5" y="-63.5" font-family="Helvetica,sans-Serif" font-size="10.00">QtWidgets/QPushButton</text>
</a>
</g>
</g>
<!-- Node13&#45;&gt;Node21 -->
<g id="edge20" class="edge">
<title>Node13&#45;&gt;Node21</title>
<path fill="none" stroke="midnightblue" d="M1104.57,-112.32C1094.33,-104.18 1078.78,-91.84 1066.5,-82.09"/>
<polygon fill="midnightblue" stroke="midnightblue" points="1068.63,-79.31 1058.62,-75.83 1064.28,-84.79 1068.63,-79.31"/>
</g>
<!-- Node22 -->
<g id="node22" class="node">
<title>Node22</title>
<g id="a_node22"><a xlink:title=" ">
<polygon fill="white" stroke="#bfbfbf" points="1128.5,-56.5 1128.5,-75.5 1238.5,-75.5 1238.5,-56.5 1128.5,-56.5"/>
<text text-anchor="middle" x="1183.5" y="-63.5" font-family="Helvetica,sans-Serif" font-size="10.00">QtWidgets/QTextEdit</text>
</a>
</g>
</g>
<!-- Node13&#45;&gt;Node22 -->
<g id="edge21" class="edge">
<title>Node13&#45;&gt;Node22</title>
<path fill="none" stroke="midnightblue" d="M1126.43,-112.32C1136.67,-104.18 1152.22,-91.84 1164.5,-82.09"/>
<polygon fill="midnightblue" stroke="midnightblue" points="1166.72,-84.79 1172.38,-75.83 1162.37,-79.31 1166.72,-84.79"/>
</g>
<!-- Node23 -->
<g id="node23" class="node">
<title>Node23</title>
<g id="a_node23"><a xlink:title=" ">
<polygon fill="white" stroke="#bfbfbf" points="1256.5,-56.5 1256.5,-75.5 1360.5,-75.5 1360.5,-56.5 1256.5,-56.5"/>
<text text-anchor="middle" x="1308.5" y="-63.5" font-family="Helvetica,sans-Serif" font-size="10.00">QtWidgets/QWidget</text>
</a>
</g>
</g>
<!-- Node13&#45;&gt;Node23 -->
<g id="edge22" class="edge">
<title>Node13&#45;&gt;Node23</title>
<path fill="none" stroke="midnightblue" d="M1146.08,-112.44C1179.11,-103.2 1231.89,-88.44 1268.27,-78.26"/>
<polygon fill="midnightblue" stroke="midnightblue" points="1269.37,-81.58 1278.06,-75.52 1267.49,-74.84 1269.37,-81.58"/>
</g>
</g>
</svg>
        <g id="navigator" transform="translate(0 0)" fill="#404254">
                <rect fill="#f2f5e9" fill-opacity="0.5" stroke="#606060" stroke-width=".5" x="0" y="0" width="60" height="60"/>
                <use id="zoomplus" xlink:href="#zoomPlus" x="17" y="9" onmousedown="handleZoom(evt,'in')"/>
                <use id="zoomminus" xlink:href="#zoomMin" x="42" y="9" onmousedown="handleZoom(evt,'out')"/>
                <use id="reset" xlink:href="#resetDef" x="30" y="36" onmousedown="handleReset()"/>
                <g id="arrowUp" xlink:href="#dirArrow" transform="translate(30 24)" onmousedown="handlePan(0,-1)">
                  <use xlink:href="#rim" fill="#404040">
                        <set attributeName="fill" to="#808080" begin="arrowUp.mouseover" end="arrowUp.mouseout"/>
                  </use>
                  <path fill="none" stroke="white" stroke-width="1.5" d="M0,-3.0v7 M-2.5,-0.5L0,-3.0L2.5,-0.5"/>
                </g>
                <g id="arrowRight" xlink:href="#dirArrow" transform="rotate(90) translate(36 -43)" onmousedown="handlePan(1,0)">
                  <use xlink:href="#rim" fill="#404040">
                        <set attributeName="fill" to="#808080" begin="arrowRight.mouseover" end="arrowRight.mouseout"/>
                  </use>
                  <path fill="none" stroke="white" stroke-width="1.5" d="M0,-3.0v7 M-2.5,-0.5L0,-3.0L2.5,-0.5"/>
                </g>
                <g id="arrowDown" xlink:href="#dirArrow" transform="rotate(180) translate(-30 -48)" onmousedown="handlePan(0,1)">
                  <use xlink:href="#rim" fill="#404040">
                        <set attributeName="fill" to="#808080" begin="arrowDown.mouseover" end="arrowDown.mouseout"/>
                  </use>
                  <path fill="none" stroke="white" stroke-width="1.5" d="M0,-3.0v7 M-2.5,-0.5L0,-3.0L2.5,-0.5"/>
                </g>
                <g id="arrowLeft" xlink:href="#dirArrow" transform="rotate(270) translate(-36 17)" onmousedown="handlePan(-1,0)">
                  <use xlink:href="#rim" fill="#404040">
                        <set attributeName="fill" to="#808080" begin="arrowLeft.mouseover" end="arrowLeft.mouseout"/>
                  </use>
                  <path fill="none" stroke="white" stroke-width="1.5" d="M0,-3.0v7 M-2.5,-0.5L0,-3.0L2.5,-0.5"/>
                </g>
        </g>
        <svg viewBox="0 0 15 15" width="100%" height="30px" preserveAspectRatio="xMaxYMin meet">
         <g id="arrow_out" transform="scale(0.3 0.3)">
          <a xlink:href="mainwindow_8cpp__incl_org.svg" target="_base">
           <rect id="button" ry="5" rx="5" y="6" x="6" height="38" width="38"
                fill="#f2f5e9" fill-opacity="0.5" stroke="#606060" stroke-width="1.0"/>
           <path id="arrow"
             d="M 11.500037,31.436501 C 11.940474,20.09759 22.043105,11.32322 32.158766,21.979434 L 37.068811,17.246167 C 37.068811,17.246167 37.088388,32 37.088388,32 L 22.160133,31.978069 C 22.160133,31.978069 26.997745,27.140456 26.997745,27.140456 C 18.528582,18.264221 13.291696,25.230495 11.500037,31.436501 z"
             style="fill:#404040;"/>
          </a>
         </g>
        </svg>
</svg>
