<?xml version="1.0" encoding="UTF-8" standalone="no"?>
<!DOCTYPE svg PUBLIC "-//W3C//DTD SVG 1.1//EN"
 "http://www.w3.org/Graphics/SVG/1.1/DTD/svg11.dtd">
<!-- Generated by graphviz version 2.47.1 (20210417.1919)
 -->
<!-- Title: Client/Main Client.cpp Pages: 1 -->
<svg width="363pt" height="84pt"
 viewBox="0.00 0.00 362.50 84.00" xmlns="http://www.w3.org/2000/svg" xmlns:xlink="http://www.w3.org/1999/xlink">
<g id="graph0" class="graph" transform="scale(1 1) rotate(0) translate(4 80)">
<title>Client/Main Client.cpp</title>
<polygon fill="white" stroke="transparent" points="-4,4 -4,-80 358.5,-80 358.5,4 -4,4"/>
<!-- Node1 -->
<g id="node1" class="node">
<title>Node1</title>
<g id="a_node1"><a xlink:title=" ">
<polygon fill="#bfbfbf" stroke="black" points="145.5,-56.5 145.5,-75.5 257.5,-75.5 257.5,-56.5 145.5,-56.5"/>
<text text-anchor="middle" x="201.5" y="-63.5" font-family="Helvetica,sans-Serif" font-size="10.00">Client/Main Client.cpp</text>
</a>
</g>
</g>
<!-- Node2 -->
<g id="node2" class="node">
<title>Node2</title>
<g id="a_node2"><a xlink:title=" ">
<polygon fill="white" stroke="#bfbfbf" points="0,-0.5 0,-19.5 97,-19.5 97,-0.5 0,-0.5"/>
<text text-anchor="middle" x="48.5" y="-7.5" font-family="Helvetica,sans-Serif" font-size="10.00">zmqpp/zmqpp.hpp</text>
</a>
</g>
</g>
<!-- Node1&#45;&gt;Node2 -->
<g id="edge1" class="edge">
<title>Node1&#45;&gt;Node2</title>
<path fill="none" stroke="midnightblue" d="M177.26,-56.44C151.63,-47.4 111.01,-33.06 82.26,-22.92"/>
<polygon fill="midnightblue" stroke="midnightblue" points="83.22,-19.54 72.63,-19.52 80.89,-26.15 83.22,-19.54"/>
</g>
<!-- Node3 -->
<g id="node3" class="node">
<title>Node3</title>
<g id="a_node3"><a xlink:title=" ">
<polygon fill="white" stroke="#bfbfbf" points="115,-0.5 115,-19.5 156,-19.5 156,-0.5 115,-0.5"/>
<text text-anchor="middle" x="135.5" y="-7.5" font-family="Helvetica,sans-Serif" font-size="10.00">string</text>
</a>
</g>
</g>
<!-- Node1&#45;&gt;Node3 -->
<g id="edge2" class="edge">
<title>Node1&#45;&gt;Node3</title>
<path fill="none" stroke="midnightblue" d="M190.9,-56.32C181.04,-48.26 166.15,-36.08 154.28,-26.37"/>
<polygon fill="midnightblue" stroke="midnightblue" points="156.25,-23.46 146.3,-19.83 151.82,-28.88 156.25,-23.46"/>
</g>
<!-- Node4 -->
<g id="node4" class="node">
<title>Node4</title>
<g id="a_node4"><a xlink:title=" ">
<polygon fill="white" stroke="#bfbfbf" points="174.5,-0.5 174.5,-19.5 228.5,-19.5 228.5,-0.5 174.5,-0.5"/>
<text text-anchor="middle" x="201.5" y="-7.5" font-family="Helvetica,sans-Serif" font-size="10.00">iostream</text>
</a>
</g>
</g>
<!-- Node1&#45;&gt;Node4 -->
<g id="edge3" class="edge">
<title>Node1&#45;&gt;Node4</title>
<path fill="none" stroke="midnightblue" d="M201.5,-56.08C201.5,-49.01 201.5,-38.86 201.5,-29.99"/>
<polygon fill="midnightblue" stroke="midnightblue" points="205,-29.75 201.5,-19.75 198,-29.75 205,-29.75"/>
</g>
<!-- Node5 -->
<g id="node5" class="node">
<title>Node5</title>
<g id="a_node5"><a xlink:title=" ">
<polygon fill="white" stroke="#bfbfbf" points="246.5,-0.5 246.5,-19.5 292.5,-19.5 292.5,-0.5 246.5,-0.5"/>
<text text-anchor="middle" x="269.5" y="-7.5" font-family="Helvetica,sans-Serif" font-size="10.00">chrono</text>
</a>
</g>
</g>
<!-- Node1&#45;&gt;Node5 -->
<g id="edge4" class="edge">
<title>Node1&#45;&gt;Node5</title>
<path fill="none" stroke="midnightblue" d="M212.43,-56.32C222.67,-48.18 238.22,-35.84 250.5,-26.09"/>
<polygon fill="midnightblue" stroke="midnightblue" points="252.72,-28.79 258.38,-19.83 248.37,-23.31 252.72,-28.79"/>
</g>
<!-- Node6 -->
<g id="node6" class="node">
<title>Node6</title>
<g id="a_node6"><a xlink:title=" ">
<polygon fill="white" stroke="#bfbfbf" points="310.5,-0.5 310.5,-19.5 354.5,-19.5 354.5,-0.5 310.5,-0.5"/>
<text text-anchor="middle" x="332.5" y="-7.5" font-family="Helvetica,sans-Serif" font-size="10.00">thread</text>
</a>
</g>
</g>
<!-- Node1&#45;&gt;Node6 -->
<g id="edge5" class="edge">
<title>Node1&#45;&gt;Node6</title>
<path fill="none" stroke="midnightblue" d="M222.26,-56.44C243.82,-47.56 277.76,-33.56 302.29,-23.45"/>
<polygon fill="midnightblue" stroke="midnightblue" points="303.93,-26.56 311.84,-19.52 301.26,-20.09 303.93,-26.56"/>
</g>
</g>
</svg>
