<?xml version="1.0" encoding="UTF-8" standalone="no"?>
<!DOCTYPE svg PUBLIC "-//W3C//DTD SVG 1.1//EN"
 "http://www.w3.org/Graphics/SVG/1.1/DTD/svg11.dtd">
<!-- Generated by graphviz version 2.47.1 (20210417.1919)
 -->
<!-- Title: Server/MemoryController.h Pages: 1 -->
<svg width="524pt" height="140pt"
 viewBox="0.00 0.00 524.00 140.00" xmlns="http://www.w3.org/2000/svg" xmlns:xlink="http://www.w3.org/1999/xlink">
<g id="graph0" class="graph" transform="scale(1 1) rotate(0) translate(4 136)">
<title>Server/MemoryController.h</title>
<polygon fill="white" stroke="transparent" points="-4,4 -4,-136 520,-136 520,4 -4,4"/>
<!-- Node1 -->
<g id="node1" class="node">
<title>Node1</title>
<g id="a_node1"><a xlink:title=" ">
<polygon fill="#bfbfbf" stroke="black" points="106.5,-112.5 106.5,-131.5 237.5,-131.5 237.5,-112.5 106.5,-112.5"/>
<text text-anchor="middle" x="172" y="-119.5" font-family="Helvetica,sans-Serif" font-size="10.00">Server/MemoryController.h</text>
</a>
</g>
</g>
<!-- Node2 -->
<g id="node2" class="node">
<title>Node2</title>
<g id="a_node2"><a xlink:href="LNode_8cpp.html" target="_top" xlink:title=" ">
<polygon fill="white" stroke="black" points="12.5,-56.5 12.5,-75.5 105.5,-75.5 105.5,-56.5 12.5,-56.5"/>
<text text-anchor="middle" x="59" y="-63.5" font-family="Helvetica,sans-Serif" font-size="10.00">Server/LNode.cpp</text>
</a>
</g>
</g>
<!-- Node1&#45;&gt;Node2 -->
<g id="edge1" class="edge">
<title>Node1&#45;&gt;Node2</title>
<path fill="none" stroke="midnightblue" d="M145,-108.1C123.89,-98.01 95.14,-84.27 76.82,-75.52"/>
<polygon fill="midnightblue" stroke="midnightblue" points="143.56,-111.29 154.09,-112.44 146.58,-104.97 143.56,-111.29"/>
</g>
<!-- Node3 -->
<g id="node3" class="node">
<title>Node3</title>
<g id="a_node3"><a xlink:href="MemoryController_8cpp.html" target="_top" xlink:title=" ">
<polygon fill="white" stroke="black" points="0,-0.5 0,-19.5 142,-19.5 142,-0.5 0,-0.5"/>
<text text-anchor="middle" x="71" y="-7.5" font-family="Helvetica,sans-Serif" font-size="10.00">Server/MemoryController.cpp</text>
</a>
</g>
</g>
<!-- Node1&#45;&gt;Node3 -->
<g id="edge2" class="edge">
<title>Node1&#45;&gt;Node3</title>
<path fill="none" stroke="midnightblue" d="M157.38,-104.3C145.74,-91.09 128.98,-72.22 114,-56 102.12,-43.14 88.06,-28.54 79.33,-19.54"/>
<polygon fill="midnightblue" stroke="midnightblue" points="154.99,-106.88 164.21,-112.08 160.24,-102.26 154.99,-106.88"/>
</g>
<!-- Node4 -->
<g id="node4" class="node">
<title>Node4</title>
<g id="a_node4"><a xlink:href="Parser_8cpp.html" target="_top" xlink:title=" ">
<polygon fill="white" stroke="black" points="160,-0.5 160,-19.5 254,-19.5 254,-0.5 160,-0.5"/>
<text text-anchor="middle" x="207" y="-7.5" font-family="Helvetica,sans-Serif" font-size="10.00">Server/Parser.cpp</text>
</a>
</g>
</g>
<!-- Node1&#45;&gt;Node4 -->
<g id="edge3" class="edge">
<title>Node1&#45;&gt;Node4</title>
<path fill="none" stroke="midnightblue" d="M177.12,-102.44C180.79,-89.39 185.97,-71.56 191,-56 195.14,-43.22 200.44,-28.59 203.79,-19.58"/>
<polygon fill="midnightblue" stroke="midnightblue" points="173.74,-101.55 174.42,-112.12 180.48,-103.43 173.74,-101.55"/>
</g>
<!-- Node5 -->
<g id="node5" class="node">
<title>Node5</title>
<g id="a_node5"><a xlink:href="Parser_8h.html" target="_top" xlink:title=" ">
<polygon fill="white" stroke="black" points="200.5,-56.5 200.5,-75.5 283.5,-75.5 283.5,-56.5 200.5,-56.5"/>
<text text-anchor="middle" x="242" y="-63.5" font-family="Helvetica,sans-Serif" font-size="10.00">Server/Parser.h</text>
</a>
</g>
</g>
<!-- Node1&#45;&gt;Node5 -->
<g id="edge4" class="edge">
<title>Node1&#45;&gt;Node5</title>
<path fill="none" stroke="midnightblue" d="M191.31,-106.1C203.91,-96.38 219.93,-84.03 230.55,-75.83"/>
<polygon fill="midnightblue" stroke="midnightblue" points="189.03,-103.44 183.25,-112.32 193.3,-108.99 189.03,-103.44"/>
</g>
<!-- Node8 -->
<g id="node8" class="node">
<title>Node8</title>
<g id="a_node8"><a xlink:href="Scope_8cpp.html" target="_top" xlink:title=" ">
<polygon fill="white" stroke="black" points="301.5,-56.5 301.5,-75.5 394.5,-75.5 394.5,-56.5 301.5,-56.5"/>
<text text-anchor="middle" x="348" y="-63.5" font-family="Helvetica,sans-Serif" font-size="10.00">Server/Scope.cpp</text>
</a>
</g>
</g>
<!-- Node1&#45;&gt;Node8 -->
<g id="edge9" class="edge">
<title>Node1&#45;&gt;Node8</title>
<path fill="none" stroke="midnightblue" d="M209.69,-109.44C242.87,-99.26 290.43,-84.66 320.24,-75.52"/>
<polygon fill="midnightblue" stroke="midnightblue" points="208.42,-106.16 199.89,-112.44 210.47,-112.86 208.42,-106.16"/>
</g>
<!-- Node5&#45;&gt;Node3 -->
<g id="edge7" class="edge">
<title>Node5&#45;&gt;Node3</title>
<path fill="none" stroke="midnightblue" d="M204.96,-53.3C172.74,-43.13 126.81,-28.62 97.97,-19.52"/>
<polygon fill="midnightblue" stroke="midnightblue" points="204.31,-56.77 214.9,-56.44 206.42,-50.09 204.31,-56.77"/>
</g>
<!-- Node5&#45;&gt;Node4 -->
<g id="edge8" class="edge">
<title>Node5&#45;&gt;Node4</title>
<path fill="none" stroke="midnightblue" d="M230.7,-47.57C224.68,-38.27 217.53,-27.25 212.67,-19.75"/>
<polygon fill="midnightblue" stroke="midnightblue" points="227.84,-49.6 236.22,-56.08 233.72,-45.79 227.84,-49.6"/>
</g>
<!-- Node6 -->
<g id="node6" class="node">
<title>Node6</title>
<g id="a_node6"><a xlink:href="Gcollector_8cpp.html" target="_top" xlink:title=" ">
<polygon fill="white" stroke="black" points="272,-0.5 272,-19.5 382,-19.5 382,-0.5 272,-0.5"/>
<text text-anchor="middle" x="327" y="-7.5" font-family="Helvetica,sans-Serif" font-size="10.00">Server/Gcollector.cpp</text>
</a>
</g>
</g>
<!-- Node5&#45;&gt;Node6 -->
<g id="edge5" class="edge">
<title>Node5&#45;&gt;Node6</title>
<path fill="none" stroke="midnightblue" d="M264.19,-50.9C279.78,-41 300.13,-28.07 313.38,-19.65"/>
<polygon fill="midnightblue" stroke="midnightblue" points="262.22,-48.01 255.66,-56.32 265.97,-53.92 262.22,-48.01"/>
</g>
<!-- Node7 -->
<g id="node7" class="node">
<title>Node7</title>
<g id="a_node7"><a xlink:href="Main_01Server_8cpp.html" target="_top" xlink:title=" ">
<polygon fill="white" stroke="black" points="400,-0.5 400,-19.5 516,-19.5 516,-0.5 400,-0.5"/>
<text text-anchor="middle" x="458" y="-7.5" font-family="Helvetica,sans-Serif" font-size="10.00">Server/Main Server.cpp</text>
</a>
</g>
</g>
<!-- Node5&#45;&gt;Node7 -->
<g id="edge6" class="edge">
<title>Node5&#45;&gt;Node7</title>
<path fill="none" stroke="midnightblue" d="M286.16,-53.96C326.96,-43.76 386.71,-28.82 423.93,-19.52"/>
<polygon fill="midnightblue" stroke="midnightblue" points="285.08,-50.62 276.23,-56.44 286.78,-57.41 285.08,-50.62"/>
</g>
</g>
</svg>
