<?xml version="1.0" encoding="UTF-8" standalone="no"?>
<!DOCTYPE svg PUBLIC "-//W3C//DTD SVG 1.1//EN"
 "http://www.w3.org/Graphics/SVG/1.1/DTD/svg11.dtd">
<!-- Generated by graphviz version 2.47.1 (20210417.1919)
 -->
<!-- Title: Server/MemoryController.h Pages: 1 -->
<svg width="345pt" height="252pt"
 viewBox="0.00 0.00 344.50 252.00" xmlns="http://www.w3.org/2000/svg" xmlns:xlink="http://www.w3.org/1999/xlink">
<g id="graph0" class="graph" transform="scale(1 1) rotate(0) translate(4 248)">
<title>Server/MemoryController.h</title>
<polygon fill="white" stroke="transparent" points="-4,4 -4,-248 340.5,-248 340.5,4 -4,4"/>
<!-- Node1 -->
<g id="node1" class="node">
<title>Node1</title>
<g id="a_node1"><a xlink:title=" ">
<polygon fill="#bfbfbf" stroke="black" points="61,-224.5 61,-243.5 192,-243.5 192,-224.5 61,-224.5"/>
<text text-anchor="middle" x="126.5" y="-231.5" font-family="Helvetica,sans-Serif" font-size="10.00">Server/MemoryController.h</text>
</a>
</g>
</g>
<!-- Node2 -->
<g id="node2" class="node">
<title>Node2</title>
<g id="a_node2"><a xlink:title=" ">
<polygon fill="white" stroke="#bfbfbf" points="0,-168.5 0,-187.5 43,-187.5 43,-168.5 0,-168.5"/>
<text text-anchor="middle" x="21.5" y="-175.5" font-family="Helvetica,sans-Serif" font-size="10.00">cstdio</text>
</a>
</g>
</g>
<!-- Node1&#45;&gt;Node2 -->
<g id="edge1" class="edge">
<title>Node1&#45;&gt;Node2</title>
<path fill="none" stroke="midnightblue" d="M109.63,-224.32C92.79,-215.66 66.69,-202.24 47.26,-192.25"/>
<polygon fill="midnightblue" stroke="midnightblue" points="48.82,-189.12 38.33,-187.65 45.62,-195.34 48.82,-189.12"/>
</g>
<!-- Node3 -->
<g id="node3" class="node">
<title>Node3</title>
<g id="a_node3"><a xlink:href="Llist_8h.html" target="_top" xlink:title=" ">
<polygon fill="white" stroke="black" points="77,-112.5 77,-131.5 120,-131.5 120,-112.5 77,-112.5"/>
<text text-anchor="middle" x="98.5" y="-119.5" font-family="Helvetica,sans-Serif" font-size="10.00">Llist.h</text>
</a>
</g>
</g>
<!-- Node1&#45;&gt;Node3 -->
<g id="edge2" class="edge">
<title>Node1&#45;&gt;Node3</title>
<path fill="none" stroke="midnightblue" d="M116.94,-224.45C108.41,-216.12 96.51,-202.6 91.5,-188 86.32,-172.9 88.94,-154.78 92.36,-141.51"/>
<polygon fill="midnightblue" stroke="midnightblue" points="95.79,-142.26 95.26,-131.68 89.07,-140.28 95.79,-142.26"/>
</g>
<!-- Node6 -->
<g id="node6" class="node">
<title>Node6</title>
<g id="a_node6"><a xlink:href="Scope_8h.html" target="_top" xlink:title=" ">
<polygon fill="white" stroke="black" points="100,-168.5 100,-187.5 153,-187.5 153,-168.5 100,-168.5"/>
<text text-anchor="middle" x="126.5" y="-175.5" font-family="Helvetica,sans-Serif" font-size="10.00">Scope.h</text>
</a>
</g>
</g>
<!-- Node1&#45;&gt;Node6 -->
<g id="edge5" class="edge">
<title>Node1&#45;&gt;Node6</title>
<path fill="none" stroke="midnightblue" d="M126.5,-224.08C126.5,-217.01 126.5,-206.86 126.5,-197.99"/>
<polygon fill="midnightblue" stroke="midnightblue" points="130,-197.75 126.5,-187.75 123,-197.75 130,-197.75"/>
</g>
<!-- Node7 -->
<g id="node7" class="node">
<title>Node7</title>
<g id="a_node7"><a xlink:title=" ">
<polygon fill="white" stroke="#bfbfbf" points="171,-168.5 171,-187.5 220,-187.5 220,-168.5 171,-168.5"/>
<text text-anchor="middle" x="195.5" y="-175.5" font-family="Helvetica,sans-Serif" font-size="10.00">string.h</text>
</a>
</g>
</g>
<!-- Node1&#45;&gt;Node7 -->
<g id="edge7" class="edge">
<title>Node1&#45;&gt;Node7</title>
<path fill="none" stroke="midnightblue" d="M137.59,-224.32C147.99,-216.18 163.76,-203.84 176.22,-194.09"/>
<polygon fill="midnightblue" stroke="midnightblue" points="178.49,-196.75 184.21,-187.83 174.18,-191.24 178.49,-196.75"/>
</g>
<!-- Node8 -->
<g id="node8" class="node">
<title>Node8</title>
<g id="a_node8"><a xlink:title=" ">
<polygon fill="white" stroke="#bfbfbf" points="238.5,-168.5 238.5,-187.5 336.5,-187.5 336.5,-168.5 238.5,-168.5"/>
<text text-anchor="middle" x="287.5" y="-175.5" font-family="Helvetica,sans-Serif" font-size="10.00">nlohmann/json.hpp</text>
</a>
</g>
</g>
<!-- Node1&#45;&gt;Node8 -->
<g id="edge8" class="edge">
<title>Node1&#45;&gt;Node8</title>
<path fill="none" stroke="midnightblue" d="M152.01,-224.44C179.1,-215.36 222.09,-200.94 252.37,-190.78"/>
<polygon fill="midnightblue" stroke="midnightblue" points="253.74,-194.01 262.11,-187.52 251.51,-187.38 253.74,-194.01"/>
</g>
<!-- Node4 -->
<g id="node4" class="node">
<title>Node4</title>
<g id="a_node4"><a xlink:href="LNode_8h.html" target="_top" xlink:title=" ">
<polygon fill="white" stroke="black" points="72,-56.5 72,-75.5 125,-75.5 125,-56.5 72,-56.5"/>
<text text-anchor="middle" x="98.5" y="-63.5" font-family="Helvetica,sans-Serif" font-size="10.00">LNode.h</text>
</a>
</g>
</g>
<!-- Node3&#45;&gt;Node4 -->
<g id="edge3" class="edge">
<title>Node3&#45;&gt;Node4</title>
<path fill="none" stroke="midnightblue" d="M98.5,-112.08C98.5,-105.01 98.5,-94.86 98.5,-85.99"/>
<polygon fill="midnightblue" stroke="midnightblue" points="102,-85.75 98.5,-75.75 95,-85.75 102,-85.75"/>
</g>
<!-- Node5 -->
<g id="node5" class="node">
<title>Node5</title>
<g id="a_node5"><a xlink:title=" ">
<polygon fill="white" stroke="#bfbfbf" points="78,-0.5 78,-19.5 119,-19.5 119,-0.5 78,-0.5"/>
<text text-anchor="middle" x="98.5" y="-7.5" font-family="Helvetica,sans-Serif" font-size="10.00">string</text>
</a>
</g>
</g>
<!-- Node4&#45;&gt;Node5 -->
<g id="edge4" class="edge">
<title>Node4&#45;&gt;Node5</title>
<path fill="none" stroke="midnightblue" d="M98.5,-56.08C98.5,-49.01 98.5,-38.86 98.5,-29.99"/>
<polygon fill="midnightblue" stroke="midnightblue" points="102,-29.75 98.5,-19.75 95,-29.75 102,-29.75"/>
</g>
<!-- Node6&#45;&gt;Node3 -->
<g id="edge6" class="edge">
<title>Node6&#45;&gt;Node3</title>
<path fill="none" stroke="midnightblue" d="M121.88,-168.08C118.04,-160.69 112.48,-149.95 107.74,-140.81"/>
<polygon fill="midnightblue" stroke="midnightblue" points="110.75,-139.02 103.04,-131.75 104.53,-142.24 110.75,-139.02"/>
</g>
</g>
</svg>
