<?xml version="1.0" encoding="UTF-8" standalone="no"?>
<!DOCTYPE svg PUBLIC "-//W3C//DTD SVG 1.1//EN"
 "http://www.w3.org/Graphics/SVG/1.1/DTD/svg11.dtd">
<!-- Generated by graphviz version 2.47.1 (20210417.1919)
 -->
<!-- Title: Server/MemoryController.cpp Pages: 1 -->
<svg width="1495pt" height="375pt"
 viewBox="0.00 0.00 1495.00 375.00" xmlns="http://www.w3.org/2000/svg" xmlns:xlink="http://www.w3.org/1999/xlink">
<g id="graph0" class="graph" transform="scale(1 1) rotate(0) translate(4 371)">
<title>Server/MemoryController.cpp</title>
<polygon fill="white" stroke="transparent" points="-4,4 -4,-371 1491,-371 1491,4 -4,4"/>
<!-- Node1 -->
<g id="node1" class="node">
<title>Node1</title>
<g id="a_node1"><a xlink:title=" ">
<polygon fill="#bfbfbf" stroke="black" points="532,-347.5 532,-366.5 674,-366.5 674,-347.5 532,-347.5"/>
<text text-anchor="middle" x="603" y="-354.5" font-family="Helvetica,sans-Serif" font-size="10.00">Server/MemoryController.cpp</text>
</a>
</g>
</g>
<!-- Node2 -->
<g id="node2" class="node">
<title>Node2</title>
<g id="a_node2"><a xlink:title=" ">
<polygon fill="white" stroke="#bfbfbf" points="0,-286 0,-305 54,-305 54,-286 0,-286"/>
<text text-anchor="middle" x="27" y="-293" font-family="Helvetica,sans-Serif" font-size="10.00">iostream</text>
</a>
</g>
</g>
<!-- Node1&#45;&gt;Node2 -->
<g id="edge1" class="edge">
<title>Node1&#45;&gt;Node2</title>
<path fill="none" stroke="midnightblue" d="M531.62,-355.77C428.24,-354.13 231.34,-346.14 68,-311 64.57,-310.26 61.04,-309.32 57.56,-308.26"/>
<polygon fill="midnightblue" stroke="midnightblue" points="58.57,-304.91 47.98,-305.08 56.37,-311.55 58.57,-304.91"/>
</g>
<!-- Node3 -->
<g id="node3" class="node">
<title>Node3</title>
<g id="a_node3"><a xlink:href="MemoryController_8h.html" target="_top" xlink:title=" ">
<polygon fill="white" stroke="black" points="282.5,-224.5 282.5,-243.5 383.5,-243.5 383.5,-224.5 282.5,-224.5"/>
<text text-anchor="middle" x="333" y="-231.5" font-family="Helvetica,sans-Serif" font-size="10.00">MemoryController.h</text>
</a>
</g>
</g>
<!-- Node1&#45;&gt;Node3 -->
<g id="edge2" class="edge">
<title>Node1&#45;&gt;Node3</title>
<path fill="none" stroke="midnightblue" d="M531.86,-354.22C487.12,-350.11 429.96,-339.1 387,-311 365.26,-296.78 349.55,-270.52 340.86,-252.9"/>
<polygon fill="midnightblue" stroke="midnightblue" points="343.96,-251.27 336.56,-243.69 337.62,-254.23 343.96,-251.27"/>
</g>
<!-- Node10 -->
<g id="node10" class="node">
<title>Node10</title>
<g id="a_node10"><a xlink:title=" ">
<polygon fill="white" stroke="#bfbfbf" points="128,-168.5 128,-187.5 226,-187.5 226,-168.5 128,-168.5"/>
<text text-anchor="middle" x="177" y="-175.5" font-family="Helvetica,sans-Serif" font-size="10.00">nlohmann/json.hpp</text>
</a>
</g>
</g>
<!-- Node1&#45;&gt;Node10 -->
<g id="edge20" class="edge">
<title>Node1&#45;&gt;Node10</title>
<path fill="none" stroke="midnightblue" d="M531.63,-356.68C433.63,-356.13 264.27,-349.42 218,-311 184.1,-282.85 177.74,-227.17 176.85,-197.94"/>
<polygon fill="midnightblue" stroke="midnightblue" points="180.35,-197.78 176.73,-187.82 173.35,-197.86 180.35,-197.78"/>
</g>
<!-- Node11 -->
<g id="node11" class="node">
<title>Node11</title>
<g id="a_node11"><a xlink:href="Gcollector_8h.html" target="_top" xlink:title=" ">
<polygon fill="white" stroke="black" points="520.5,-168.5 520.5,-187.5 589.5,-187.5 589.5,-168.5 520.5,-168.5"/>
<text text-anchor="middle" x="555" y="-175.5" font-family="Helvetica,sans-Serif" font-size="10.00">Gcollector.h</text>
</a>
</g>
</g>
<!-- Node1&#45;&gt;Node11 -->
<g id="edge11" class="edge">
<title>Node1&#45;&gt;Node11</title>
<path fill="none" stroke="midnightblue" d="M531.95,-347.48C487.03,-340.46 434.89,-328.75 421,-311 382.99,-262.45 473.96,-213.7 524.31,-191.47"/>
<polygon fill="midnightblue" stroke="midnightblue" points="525.7,-194.68 533.5,-187.5 522.93,-188.25 525.7,-194.68"/>
</g>
<!-- Node12 -->
<g id="node12" class="node">
<title>Node12</title>
<g id="a_node12"><a xlink:href="Parser_8h.html" target="_top" xlink:title=" ">
<polygon fill="white" stroke="black" points="227.5,-286 227.5,-305 280.5,-305 280.5,-286 227.5,-286"/>
<text text-anchor="middle" x="254" y="-293" font-family="Helvetica,sans-Serif" font-size="10.00">Parser.h</text>
</a>
</g>
</g>
<!-- Node1&#45;&gt;Node12 -->
<g id="edge14" class="edge">
<title>Node1&#45;&gt;Node12</title>
<path fill="none" stroke="midnightblue" d="M548.34,-347.49C492.98,-338.76 404.93,-324.57 329,-311 316.45,-308.76 302.76,-306.16 290.55,-303.78"/>
<polygon fill="midnightblue" stroke="midnightblue" points="291.18,-300.34 280.69,-301.85 289.83,-307.21 291.18,-300.34"/>
</g>
<!-- Node13 -->
<g id="node13" class="node">
<title>Node13</title>
<g id="a_node13"><a xlink:title=" ">
<polygon fill="white" stroke="#bfbfbf" points="429.5,-286 429.5,-305 534.5,-305 534.5,-286 429.5,-286"/>
<text text-anchor="middle" x="482" y="-293" font-family="Helvetica,sans-Serif" font-size="10.00">boost/date_time.hpp</text>
</a>
</g>
</g>
<!-- Node1&#45;&gt;Node13 -->
<g id="edge19" class="edge">
<title>Node1&#45;&gt;Node13</title>
<path fill="none" stroke="midnightblue" d="M585.66,-347.48C565.45,-337.53 531.81,-320.99 508.36,-309.46"/>
<polygon fill="midnightblue" stroke="midnightblue" points="509.82,-306.28 499.3,-305.01 506.73,-312.56 509.82,-306.28"/>
</g>
<!-- Node14 -->
<g id="node14" class="node">
<title>Node14</title>
<g id="a_node14"><a xlink:title=" ">
<polygon fill="white" stroke="#bfbfbf" points="553,-286 553,-305 653,-305 653,-286 553,-286"/>
<text text-anchor="middle" x="603" y="-293" font-family="Helvetica,sans-Serif" font-size="10.00">boost/log/trivial.hpp</text>
</a>
</g>
</g>
<!-- Node1&#45;&gt;Node14 -->
<g id="edge21" class="edge">
<title>Node1&#45;&gt;Node14</title>
<path fill="none" stroke="midnightblue" d="M603,-347.48C603,-339.08 603,-325.98 603,-315.16"/>
<polygon fill="midnightblue" stroke="midnightblue" points="606.5,-315.01 603,-305.01 599.5,-315.01 606.5,-315.01"/>
</g>
<!-- Node15 -->
<g id="node15" class="node">
<title>Node15</title>
<g id="a_node15"><a xlink:title=" ">
<polygon fill="white" stroke="#bfbfbf" points="671,-280.5 671,-310.5 781,-310.5 781,-280.5 671,-280.5"/>
<text text-anchor="start" x="679" y="-298.5" font-family="Helvetica,sans-Serif" font-size="10.00">boost/log/utility/setup</text>
<text text-anchor="middle" x="726" y="-287.5" font-family="Helvetica,sans-Serif" font-size="10.00">/file.hpp</text>
</a>
</g>
</g>
<!-- Node1&#45;&gt;Node15 -->
<g id="edge22" class="edge">
<title>Node1&#45;&gt;Node15</title>
<path fill="none" stroke="midnightblue" d="M620.62,-347.48C638.06,-339.04 665.32,-325.86 687.74,-315.01"/>
<polygon fill="midnightblue" stroke="midnightblue" points="689.53,-318.03 697.01,-310.52 686.49,-311.73 689.53,-318.03"/>
</g>
<!-- Node16 -->
<g id="node16" class="node">
<title>Node16</title>
<g id="a_node16"><a xlink:title=" ">
<polygon fill="white" stroke="#bfbfbf" points="799.5,-286 799.5,-305 930.5,-305 930.5,-286 799.5,-286"/>
<text text-anchor="middle" x="865" y="-293" font-family="Helvetica,sans-Serif" font-size="10.00">boost/log/expressions.hpp</text>
</a>
</g>
</g>
<!-- Node1&#45;&gt;Node16 -->
<g id="edge23" class="edge">
<title>Node1&#45;&gt;Node16</title>
<path fill="none" stroke="midnightblue" d="M640.54,-347.48C687.23,-336.87 766.98,-318.76 817.78,-307.22"/>
<polygon fill="midnightblue" stroke="midnightblue" points="818.55,-310.64 827.53,-305.01 817,-303.81 818.55,-310.64"/>
</g>
<!-- Node17 -->
<g id="node17" class="node">
<title>Node17</title>
<g id="a_node17"><a xlink:title=" ">
<polygon fill="white" stroke="#bfbfbf" points="949,-286 949,-305 1091,-305 1091,-286 949,-286"/>
<text text-anchor="middle" x="1020" y="-293" font-family="Helvetica,sans-Serif" font-size="10.00">boost/log/sources/logger.hpp</text>
</a>
</g>
</g>
<!-- Node1&#45;&gt;Node17 -->
<g id="edge24" class="edge">
<title>Node1&#45;&gt;Node17</title>
<path fill="none" stroke="midnightblue" d="M674.14,-347.48C742.44,-339.06 848.45,-325.4 940,-311 948.03,-309.74 956.49,-308.31 964.79,-306.85"/>
<polygon fill="midnightblue" stroke="midnightblue" points="965.56,-310.27 974.79,-305.07 964.33,-303.38 965.56,-310.27"/>
</g>
<!-- Node18 -->
<g id="node18" class="node">
<title>Node18</title>
<g id="a_node18"><a xlink:title=" ">
<polygon fill="white" stroke="#bfbfbf" points="1109.5,-286 1109.5,-305 1206.5,-305 1206.5,-286 1109.5,-286"/>
<text text-anchor="middle" x="1158" y="-293" font-family="Helvetica,sans-Serif" font-size="10.00">boost/log/core.hpp</text>
</a>
</g>
</g>
<!-- Node1&#45;&gt;Node18 -->
<g id="edge25" class="edge">
<title>Node1&#45;&gt;Node18</title>
<path fill="none" stroke="midnightblue" d="M674.22,-353.02C771.12,-348.17 949.66,-336.44 1100,-311 1105.77,-310.02 1111.81,-308.77 1117.72,-307.42"/>
<polygon fill="midnightblue" stroke="midnightblue" points="1118.58,-310.81 1127.48,-305.07 1116.94,-304.01 1118.58,-310.81"/>
</g>
<!-- Node19 -->
<g id="node19" class="node">
<title>Node19</title>
<g id="a_node19"><a xlink:title=" ">
<polygon fill="white" stroke="#bfbfbf" points="1225,-280.5 1225,-310.5 1347,-310.5 1347,-280.5 1225,-280.5"/>
<text text-anchor="start" x="1233" y="-298.5" font-family="Helvetica,sans-Serif" font-size="10.00">boost/log/utility/setup</text>
<text text-anchor="middle" x="1286" y="-287.5" font-family="Helvetica,sans-Serif" font-size="10.00">/common_attributes.hpp</text>
</a>
</g>
</g>
<!-- Node1&#45;&gt;Node19 -->
<g id="edge26" class="edge">
<title>Node1&#45;&gt;Node19</title>
<path fill="none" stroke="midnightblue" d="M674.11,-353.8C786.78,-349.66 1013.33,-338.61 1214.82,-311.04"/>
<polygon fill="midnightblue" stroke="midnightblue" points="1215.57,-314.47 1225,-309.63 1214.61,-307.53 1215.57,-314.47"/>
</g>
<!-- Node20 -->
<g id="node20" class="node">
<title>Node20</title>
<g id="a_node20"><a xlink:title=" ">
<polygon fill="white" stroke="#bfbfbf" points="1365,-280.5 1365,-310.5 1487,-310.5 1487,-280.5 1365,-280.5"/>
<text text-anchor="start" x="1373" y="-298.5" font-family="Helvetica,sans-Serif" font-size="10.00">boost/log/sources/global</text>
<text text-anchor="middle" x="1426" y="-287.5" font-family="Helvetica,sans-Serif" font-size="10.00">_logger_storage.hpp</text>
</a>
</g>
</g>
<!-- Node1&#45;&gt;Node20 -->
<g id="edge27" class="edge">
<title>Node1&#45;&gt;Node20</title>
<path fill="none" stroke="midnightblue" d="M674.18,-355.17C806.43,-352.88 1099.05,-344.3 1354.41,-311.08"/>
<polygon fill="midnightblue" stroke="midnightblue" points="1355.17,-314.51 1364.63,-309.74 1354.25,-307.57 1355.17,-314.51"/>
</g>
<!-- Node4 -->
<g id="node4" class="node">
<title>Node4</title>
<g id="a_node4"><a xlink:title=" ">
<polygon fill="white" stroke="#bfbfbf" points="420.5,-168.5 420.5,-187.5 463.5,-187.5 463.5,-168.5 420.5,-168.5"/>
<text text-anchor="middle" x="442" y="-175.5" font-family="Helvetica,sans-Serif" font-size="10.00">cstdio</text>
</a>
</g>
</g>
<!-- Node3&#45;&gt;Node4 -->
<g id="edge3" class="edge">
<title>Node3&#45;&gt;Node4</title>
<path fill="none" stroke="midnightblue" d="M350.51,-224.32C368.07,-215.62 395.33,-202.12 415.53,-192.11"/>
<polygon fill="midnightblue" stroke="midnightblue" points="417.12,-195.23 424.53,-187.65 414.02,-188.96 417.12,-195.23"/>
</g>
<!-- Node5 -->
<g id="node5" class="node">
<title>Node5</title>
<g id="a_node5"><a xlink:href="Llist_8h.html" target="_top" xlink:title=" ">
<polygon fill="white" stroke="black" points="336.5,-112.5 336.5,-131.5 379.5,-131.5 379.5,-112.5 336.5,-112.5"/>
<text text-anchor="middle" x="358" y="-119.5" font-family="Helvetica,sans-Serif" font-size="10.00">Llist.h</text>
</a>
</g>
</g>
<!-- Node3&#45;&gt;Node5 -->
<g id="edge4" class="edge">
<title>Node3&#45;&gt;Node5</title>
<path fill="none" stroke="midnightblue" d="M378.24,-224.44C414.67,-216.52 461.61,-203.63 473,-188 497.16,-154.86 431.44,-136.3 389.63,-128.12"/>
<polygon fill="midnightblue" stroke="midnightblue" points="390.05,-124.64 379.58,-126.26 388.78,-131.52 390.05,-124.64"/>
</g>
<!-- Node8 -->
<g id="node8" class="node">
<title>Node8</title>
<g id="a_node8"><a xlink:href="Scope_8h.html" target="_top" xlink:title=" ">
<polygon fill="white" stroke="black" points="282.5,-168.5 282.5,-187.5 335.5,-187.5 335.5,-168.5 282.5,-168.5"/>
<text text-anchor="middle" x="309" y="-175.5" font-family="Helvetica,sans-Serif" font-size="10.00">Scope.h</text>
</a>
</g>
</g>
<!-- Node3&#45;&gt;Node8 -->
<g id="edge7" class="edge">
<title>Node3&#45;&gt;Node8</title>
<path fill="none" stroke="midnightblue" d="M329.04,-224.08C325.79,-216.77 321.08,-206.18 317.05,-197.1"/>
<polygon fill="midnightblue" stroke="midnightblue" points="320.15,-195.47 312.89,-187.75 313.75,-198.31 320.15,-195.47"/>
</g>
<!-- Node9 -->
<g id="node9" class="node">
<title>Node9</title>
<g id="a_node9"><a xlink:title=" ">
<polygon fill="white" stroke="#bfbfbf" points="353.5,-168.5 353.5,-187.5 402.5,-187.5 402.5,-168.5 353.5,-168.5"/>
<text text-anchor="middle" x="378" y="-175.5" font-family="Helvetica,sans-Serif" font-size="10.00">string.h</text>
</a>
</g>
</g>
<!-- Node3&#45;&gt;Node9 -->
<g id="edge9" class="edge">
<title>Node3&#45;&gt;Node9</title>
<path fill="none" stroke="midnightblue" d="M340.43,-224.08C346.85,-216.38 356.31,-205.03 364.12,-195.65"/>
<polygon fill="midnightblue" stroke="midnightblue" points="366.99,-197.67 370.71,-187.75 361.62,-193.19 366.99,-197.67"/>
</g>
<!-- Node3&#45;&gt;Node10 -->
<g id="edge10" class="edge">
<title>Node3&#45;&gt;Node10</title>
<path fill="none" stroke="midnightblue" d="M308.28,-224.44C282.15,-215.4 240.74,-201.06 211.42,-190.92"/>
<polygon fill="midnightblue" stroke="midnightblue" points="212.2,-187.48 201.6,-187.52 209.91,-194.1 212.2,-187.48"/>
</g>
<!-- Node6 -->
<g id="node6" class="node">
<title>Node6</title>
<g id="a_node6"><a xlink:href="LNode_8h.html" target="_top" xlink:title=" ">
<polygon fill="white" stroke="black" points="331.5,-56.5 331.5,-75.5 384.5,-75.5 384.5,-56.5 331.5,-56.5"/>
<text text-anchor="middle" x="358" y="-63.5" font-family="Helvetica,sans-Serif" font-size="10.00">LNode.h</text>
</a>
</g>
</g>
<!-- Node5&#45;&gt;Node6 -->
<g id="edge5" class="edge">
<title>Node5&#45;&gt;Node6</title>
<path fill="none" stroke="midnightblue" d="M358,-112.08C358,-105.01 358,-94.86 358,-85.99"/>
<polygon fill="midnightblue" stroke="midnightblue" points="361.5,-85.75 358,-75.75 354.5,-85.75 361.5,-85.75"/>
</g>
<!-- Node7 -->
<g id="node7" class="node">
<title>Node7</title>
<g id="a_node7"><a xlink:title=" ">
<polygon fill="white" stroke="#bfbfbf" points="337.5,-0.5 337.5,-19.5 378.5,-19.5 378.5,-0.5 337.5,-0.5"/>
<text text-anchor="middle" x="358" y="-7.5" font-family="Helvetica,sans-Serif" font-size="10.00">string</text>
</a>
</g>
</g>
<!-- Node6&#45;&gt;Node7 -->
<g id="edge6" class="edge">
<title>Node6&#45;&gt;Node7</title>
<path fill="none" stroke="midnightblue" d="M358,-56.08C358,-49.01 358,-38.86 358,-29.99"/>
<polygon fill="midnightblue" stroke="midnightblue" points="361.5,-29.75 358,-19.75 354.5,-29.75 361.5,-29.75"/>
</g>
<!-- Node8&#45;&gt;Node5 -->
<g id="edge8" class="edge">
<title>Node8&#45;&gt;Node5</title>
<path fill="none" stroke="midnightblue" d="M317.09,-168.08C324.16,-160.3 334.59,-148.8 343.15,-139.37"/>
<polygon fill="midnightblue" stroke="midnightblue" points="345.93,-141.51 350.06,-131.75 340.75,-136.8 345.93,-141.51"/>
</g>
<!-- Node11&#45;&gt;Node5 -->
<g id="edge13" class="edge">
<title>Node11&#45;&gt;Node5</title>
<path fill="none" stroke="midnightblue" d="M523.78,-168.44C486.99,-158.36 426.21,-141.7 389.36,-131.6"/>
<polygon fill="midnightblue" stroke="midnightblue" points="390.21,-128.2 379.64,-128.93 388.36,-134.95 390.21,-128.2"/>
</g>
<!-- Node11&#45;&gt;Node6 -->
<g id="edge12" class="edge">
<title>Node11&#45;&gt;Node6</title>
<path fill="none" stroke="midnightblue" d="M539.54,-168.37C505.38,-149.29 423.23,-103.42 382.19,-80.51"/>
<polygon fill="midnightblue" stroke="midnightblue" points="383.82,-77.41 373.39,-75.59 380.41,-83.52 383.82,-77.41"/>
</g>
<!-- Node12&#45;&gt;Node3 -->
<g id="edge17" class="edge">
<title>Node12&#45;&gt;Node3</title>
<path fill="none" stroke="midnightblue" d="M265.32,-285.98C277.87,-276.52 298.35,-261.1 313.5,-249.69"/>
<polygon fill="midnightblue" stroke="midnightblue" points="315.82,-252.32 321.7,-243.51 311.61,-246.73 315.82,-252.32"/>
</g>
<!-- Node12&#45;&gt;Node5 -->
<g id="edge15" class="edge">
<title>Node12&#45;&gt;Node5</title>
<path fill="none" stroke="midnightblue" d="M252.92,-285.86C250.65,-263.92 247.59,-205.15 274,-168 286.62,-150.25 308.46,-138.86 326.72,-131.98"/>
<polygon fill="midnightblue" stroke="midnightblue" points="328.11,-135.2 336.41,-128.61 325.81,-128.58 328.11,-135.2"/>
</g>
<!-- Node12&#45;&gt;Node6 -->
<g id="edge16" class="edge">
<title>Node12&#45;&gt;Node6</title>
<path fill="none" stroke="midnightblue" d="M230.58,-285.98C183.33,-267.45 83.95,-220.87 119,-168 164.37,-99.58 266.27,-77.39 321.22,-70.28"/>
<polygon fill="midnightblue" stroke="midnightblue" points="321.72,-73.75 331.23,-69.09 320.89,-66.8 321.72,-73.75"/>
</g>
<!-- Node12&#45;&gt;Node10 -->
<g id="edge18" class="edge">
<title>Node12&#45;&gt;Node10</title>
<path fill="none" stroke="midnightblue" d="M248.21,-285.82C235.56,-266.84 205.23,-221.35 188.53,-196.29"/>
<polygon fill="midnightblue" stroke="midnightblue" points="191.31,-194.16 182.85,-187.78 185.49,-198.04 191.31,-194.16"/>
</g>
</g>
</svg>
