<?xml version="1.0" encoding="UTF-8" standalone="no"?>
<!DOCTYPE svg PUBLIC "-//W3C//DTD SVG 1.1//EN"
 "http://www.w3.org/Graphics/SVG/1.1/DTD/svg11.dtd">
<!-- Generated by graphviz version 2.47.1 (20210417.1919)
 -->
<!-- Title: Server/Parser.cpp Pages: 1 -->
<svg width="412pt" height="364pt"
 viewBox="0.00 0.00 411.50 364.00" xmlns="http://www.w3.org/2000/svg" xmlns:xlink="http://www.w3.org/1999/xlink">
<g id="graph0" class="graph" transform="scale(1 1) rotate(0) translate(4 360)">
<title>Server/Parser.cpp</title>
<polygon fill="white" stroke="transparent" points="-4,4 -4,-360 407.5,-360 407.5,4 -4,4"/>
<!-- Node1 -->
<g id="node1" class="node">
<title>Node1</title>
<g id="a_node1"><a xlink:title=" ">
<polygon fill="#bfbfbf" stroke="black" points="237.5,-336.5 237.5,-355.5 331.5,-355.5 331.5,-336.5 237.5,-336.5"/>
<text text-anchor="middle" x="284.5" y="-343.5" font-family="Helvetica,sans-Serif" font-size="10.00">Server/Parser.cpp</text>
</a>
</g>
</g>
<!-- Node2 -->
<g id="node2" class="node">
<title>Node2</title>
<g id="a_node2"><a xlink:href="Parser_8h.html" target="_top" xlink:title=" ">
<polygon fill="white" stroke="black" points="172,-280.5 172,-299.5 225,-299.5 225,-280.5 172,-280.5"/>
<text text-anchor="middle" x="198.5" y="-287.5" font-family="Helvetica,sans-Serif" font-size="10.00">Parser.h</text>
</a>
</g>
</g>
<!-- Node1&#45;&gt;Node2 -->
<g id="edge1" class="edge">
<title>Node1&#45;&gt;Node2</title>
<path fill="none" stroke="midnightblue" d="M270.68,-336.32C257.27,-327.9 236.68,-314.97 220.91,-305.07"/>
<polygon fill="midnightblue" stroke="midnightblue" points="222.61,-302.01 212.28,-299.65 218.89,-307.94 222.61,-302.01"/>
</g>
<!-- Node6 -->
<g id="node6" class="node">
<title>Node6</title>
<g id="a_node6"><a xlink:href="MemoryController_8h.html" target="_top" xlink:title=" ">
<polygon fill="white" stroke="black" points="148,-224.5 148,-243.5 249,-243.5 249,-224.5 148,-224.5"/>
<text text-anchor="middle" x="198.5" y="-231.5" font-family="Helvetica,sans-Serif" font-size="10.00">MemoryController.h</text>
</a>
</g>
</g>
<!-- Node1&#45;&gt;Node6 -->
<g id="edge15" class="edge">
<title>Node1&#45;&gt;Node6</title>
<path fill="none" stroke="midnightblue" d="M277.75,-336.37C263.5,-318.14 230.11,-275.43 211.54,-251.68"/>
<polygon fill="midnightblue" stroke="midnightblue" points="214.13,-249.31 205.22,-243.59 208.62,-253.63 214.13,-249.31"/>
</g>
<!-- Node10 -->
<g id="node10" class="node">
<title>Node10</title>
<g id="a_node10"><a xlink:title=" ">
<polygon fill="white" stroke="#bfbfbf" points="305.5,-168.5 305.5,-187.5 403.5,-187.5 403.5,-168.5 305.5,-168.5"/>
<text text-anchor="middle" x="354.5" y="-175.5" font-family="Helvetica,sans-Serif" font-size="10.00">nlohmann/json.hpp</text>
</a>
</g>
</g>
<!-- Node1&#45;&gt;Node10 -->
<g id="edge16" class="edge">
<title>Node1&#45;&gt;Node10</title>
<path fill="none" stroke="midnightblue" d="M288.26,-336.08C299.33,-309.83 331.92,-232.55 346.86,-197.12"/>
<polygon fill="midnightblue" stroke="midnightblue" points="350.23,-198.14 350.89,-187.57 343.78,-195.42 350.23,-198.14"/>
</g>
<!-- Node11 -->
<g id="node11" class="node">
<title>Node11</title>
<g id="a_node11"><a xlink:title=" ">
<polygon fill="white" stroke="#bfbfbf" points="343.5,-280.5 343.5,-299.5 397.5,-299.5 397.5,-280.5 343.5,-280.5"/>
<text text-anchor="middle" x="370.5" y="-287.5" font-family="Helvetica,sans-Serif" font-size="10.00">iostream</text>
</a>
</g>
</g>
<!-- Node1&#45;&gt;Node11 -->
<g id="edge14" class="edge">
<title>Node1&#45;&gt;Node11</title>
<path fill="none" stroke="midnightblue" d="M298.32,-336.32C311.73,-327.9 332.32,-314.97 348.09,-305.07"/>
<polygon fill="midnightblue" stroke="midnightblue" points="350.11,-307.94 356.72,-299.65 346.39,-302.01 350.11,-307.94"/>
</g>
<!-- Node3 -->
<g id="node3" class="node">
<title>Node3</title>
<g id="a_node3"><a xlink:href="Llist_8h.html" target="_top" xlink:title=" ">
<polygon fill="white" stroke="black" points="43,-112.5 43,-131.5 86,-131.5 86,-112.5 43,-112.5"/>
<text text-anchor="middle" x="64.5" y="-119.5" font-family="Helvetica,sans-Serif" font-size="10.00">Llist.h</text>
</a>
</g>
</g>
<!-- Node2&#45;&gt;Node3 -->
<g id="edge2" class="edge">
<title>Node2&#45;&gt;Node3</title>
<path fill="none" stroke="midnightblue" d="M182.1,-280.36C155.51,-265.41 103.49,-232.05 78.5,-188 70.4,-173.72 66.98,-155.25 65.54,-141.65"/>
<polygon fill="midnightblue" stroke="midnightblue" points="69.02,-141.26 64.73,-131.57 62.04,-141.82 69.02,-141.26"/>
</g>
<!-- Node4 -->
<g id="node4" class="node">
<title>Node4</title>
<g id="a_node4"><a xlink:href="LNode_8h.html" target="_top" xlink:title=" ">
<polygon fill="white" stroke="black" points="0,-56.5 0,-75.5 53,-75.5 53,-56.5 0,-56.5"/>
<text text-anchor="middle" x="26.5" y="-63.5" font-family="Helvetica,sans-Serif" font-size="10.00">LNode.h</text>
</a>
</g>
</g>
<!-- Node2&#45;&gt;Node4 -->
<g id="edge5" class="edge">
<title>Node2&#45;&gt;Node4</title>
<path fill="none" stroke="midnightblue" d="M171.96,-280.68C151.81,-273.38 124.28,-261.23 104.5,-244 60.06,-205.28 52.4,-187.82 33.5,-132 28.43,-117.03 26.81,-99.12 26.38,-85.89"/>
<polygon fill="midnightblue" stroke="midnightblue" points="29.87,-85.62 26.25,-75.67 22.88,-85.71 29.87,-85.62"/>
</g>
<!-- Node2&#45;&gt;Node6 -->
<g id="edge6" class="edge">
<title>Node2&#45;&gt;Node6</title>
<path fill="none" stroke="midnightblue" d="M198.5,-280.08C198.5,-273.01 198.5,-262.86 198.5,-253.99"/>
<polygon fill="midnightblue" stroke="midnightblue" points="202,-253.75 198.5,-243.75 195,-253.75 202,-253.75"/>
</g>
<!-- Node2&#45;&gt;Node10 -->
<g id="edge13" class="edge">
<title>Node2&#45;&gt;Node10</title>
<path fill="none" stroke="midnightblue" d="M210.74,-280.37C237.4,-261.57 300.94,-216.77 333.89,-193.53"/>
<polygon fill="midnightblue" stroke="midnightblue" points="336.16,-196.21 342.32,-187.59 332.13,-190.49 336.16,-196.21"/>
</g>
<!-- Node3&#45;&gt;Node4 -->
<g id="edge3" class="edge">
<title>Node3&#45;&gt;Node4</title>
<path fill="none" stroke="midnightblue" d="M58.23,-112.08C52.86,-104.46 44.98,-93.26 38.42,-83.94"/>
<polygon fill="midnightblue" stroke="midnightblue" points="41.28,-81.91 32.66,-75.75 35.55,-85.94 41.28,-81.91"/>
</g>
<!-- Node5 -->
<g id="node5" class="node">
<title>Node5</title>
<g id="a_node5"><a xlink:title=" ">
<polygon fill="white" stroke="#bfbfbf" points="6,-0.5 6,-19.5 47,-19.5 47,-0.5 6,-0.5"/>
<text text-anchor="middle" x="26.5" y="-7.5" font-family="Helvetica,sans-Serif" font-size="10.00">string</text>
</a>
</g>
</g>
<!-- Node4&#45;&gt;Node5 -->
<g id="edge4" class="edge">
<title>Node4&#45;&gt;Node5</title>
<path fill="none" stroke="midnightblue" d="M26.5,-56.08C26.5,-49.01 26.5,-38.86 26.5,-29.99"/>
<polygon fill="midnightblue" stroke="midnightblue" points="30,-29.75 26.5,-19.75 23,-29.75 30,-29.75"/>
</g>
<!-- Node6&#45;&gt;Node3 -->
<g id="edge8" class="edge">
<title>Node6&#45;&gt;Node3</title>
<path fill="none" stroke="midnightblue" d="M164.32,-224.46C142.69,-217.61 115.36,-206.08 96.5,-188 83.19,-175.24 74.63,-155.77 69.74,-141.47"/>
<polygon fill="midnightblue" stroke="midnightblue" points="73.03,-140.24 66.71,-131.73 66.34,-142.32 73.03,-140.24"/>
</g>
<!-- Node7 -->
<g id="node7" class="node">
<title>Node7</title>
<g id="a_node7"><a xlink:title=" ">
<polygon fill="white" stroke="#bfbfbf" points="177,-168.5 177,-187.5 220,-187.5 220,-168.5 177,-168.5"/>
<text text-anchor="middle" x="198.5" y="-175.5" font-family="Helvetica,sans-Serif" font-size="10.00">cstdio</text>
</a>
</g>
</g>
<!-- Node6&#45;&gt;Node7 -->
<g id="edge7" class="edge">
<title>Node6&#45;&gt;Node7</title>
<path fill="none" stroke="midnightblue" d="M198.5,-224.08C198.5,-217.01 198.5,-206.86 198.5,-197.99"/>
<polygon fill="midnightblue" stroke="midnightblue" points="202,-197.75 198.5,-187.75 195,-197.75 202,-197.75"/>
</g>
<!-- Node8 -->
<g id="node8" class="node">
<title>Node8</title>
<g id="a_node8"><a xlink:href="Scope_8h.html" target="_top" xlink:title=" ">
<polygon fill="white" stroke="black" points="106,-168.5 106,-187.5 159,-187.5 159,-168.5 106,-168.5"/>
<text text-anchor="middle" x="132.5" y="-175.5" font-family="Helvetica,sans-Serif" font-size="10.00">Scope.h</text>
</a>
</g>
</g>
<!-- Node6&#45;&gt;Node8 -->
<g id="edge9" class="edge">
<title>Node6&#45;&gt;Node8</title>
<path fill="none" stroke="midnightblue" d="M187.9,-224.32C178.04,-216.26 163.15,-204.08 151.28,-194.37"/>
<polygon fill="midnightblue" stroke="midnightblue" points="153.25,-191.46 143.3,-187.83 148.82,-196.88 153.25,-191.46"/>
</g>
<!-- Node9 -->
<g id="node9" class="node">
<title>Node9</title>
<g id="a_node9"><a xlink:title=" ">
<polygon fill="white" stroke="#bfbfbf" points="238,-168.5 238,-187.5 287,-187.5 287,-168.5 238,-168.5"/>
<text text-anchor="middle" x="262.5" y="-175.5" font-family="Helvetica,sans-Serif" font-size="10.00">string.h</text>
</a>
</g>
</g>
<!-- Node6&#45;&gt;Node9 -->
<g id="edge11" class="edge">
<title>Node6&#45;&gt;Node9</title>
<path fill="none" stroke="midnightblue" d="M208.78,-224.32C218.34,-216.26 232.78,-204.08 244.28,-194.37"/>
<polygon fill="midnightblue" stroke="midnightblue" points="246.64,-196.96 252.03,-187.83 242.13,-191.61 246.64,-196.96"/>
</g>
<!-- Node6&#45;&gt;Node10 -->
<g id="edge12" class="edge">
<title>Node6&#45;&gt;Node10</title>
<path fill="none" stroke="midnightblue" d="M223.22,-224.44C249.35,-215.4 290.76,-201.06 320.08,-190.92"/>
<polygon fill="midnightblue" stroke="midnightblue" points="321.59,-194.1 329.9,-187.52 319.3,-187.48 321.59,-194.1"/>
</g>
<!-- Node8&#45;&gt;Node3 -->
<g id="edge10" class="edge">
<title>Node8&#45;&gt;Node3</title>
<path fill="none" stroke="midnightblue" d="M121.57,-168.32C111.33,-160.18 95.78,-147.84 83.5,-138.09"/>
<polygon fill="midnightblue" stroke="midnightblue" points="85.63,-135.31 75.62,-131.83 81.28,-140.79 85.63,-135.31"/>
</g>
</g>
</svg>
