<?xml version="1.0" encoding="UTF-8" standalone="no"?>
<!DOCTYPE svg PUBLIC "-//W3C//DTD SVG 1.1//EN"
 "http://www.w3.org/Graphics/SVG/1.1/DTD/svg11.dtd">
<!-- Generated by graphviz version 2.47.1 (20210417.1919)
 -->
<!-- Title: Server/Parser.h Pages: 1 -->
<svg width="392pt" height="308pt"
 viewBox="0.00 0.00 391.89 308.00" xmlns="http://www.w3.org/2000/svg" xmlns:xlink="http://www.w3.org/1999/xlink">
<g id="graph0" class="graph" transform="scale(1 1) rotate(0) translate(4 304)">
<title>Server/Parser.h</title>
<polygon fill="white" stroke="transparent" points="-4,4 -4,-304 387.89,-304 387.89,4 -4,4"/>
<!-- Node1 -->
<g id="node1" class="node">
<title>Node1</title>
<g id="a_node1"><a xlink:title=" ">
<polygon fill="#bfbfbf" stroke="black" points="216,-280.5 216,-299.5 299,-299.5 299,-280.5 216,-280.5"/>
<text text-anchor="middle" x="257.5" y="-287.5" font-family="Helvetica,sans-Serif" font-size="10.00">Server/Parser.h</text>
</a>
</g>
</g>
<!-- Node2 -->
<g id="node2" class="node">
<title>Node2</title>
<g id="a_node2"><a xlink:href="Llist_8h.html" target="_top" xlink:title=" ">
<polygon fill="white" stroke="black" points="85,-112.5 85,-131.5 128,-131.5 128,-112.5 85,-112.5"/>
<text text-anchor="middle" x="106.5" y="-119.5" font-family="Helvetica,sans-Serif" font-size="10.00">Llist.h</text>
</a>
</g>
</g>
<!-- Node1&#45;&gt;Node2 -->
<g id="edge1" class="edge">
<title>Node1&#45;&gt;Node2</title>
<path fill="none" stroke="midnightblue" d="M277.58,-280.42C320.07,-261.13 412.15,-212.5 374.5,-168 344.61,-132.68 203.18,-125.06 138.69,-123.44"/>
<polygon fill="midnightblue" stroke="midnightblue" points="138.38,-119.93 128.31,-123.21 138.23,-126.93 138.38,-119.93"/>
</g>
<!-- Node3 -->
<g id="node3" class="node">
<title>Node3</title>
<g id="a_node3"><a xlink:href="LNode_8h.html" target="_top" xlink:title=" ">
<polygon fill="white" stroke="black" points="0,-56.5 0,-75.5 53,-75.5 53,-56.5 0,-56.5"/>
<text text-anchor="middle" x="26.5" y="-63.5" font-family="Helvetica,sans-Serif" font-size="10.00">LNode.h</text>
</a>
</g>
</g>
<!-- Node1&#45;&gt;Node3 -->
<g id="edge4" class="edge">
<title>Node1&#45;&gt;Node3</title>
<path fill="none" stroke="midnightblue" d="M215.72,-282.14C166.45,-271.56 86.79,-246.02 51.5,-188 31.97,-155.88 27.46,-111.03 26.56,-85.94"/>
<polygon fill="midnightblue" stroke="midnightblue" points="30.06,-85.56 26.36,-75.63 23.06,-85.69 30.06,-85.56"/>
</g>
<!-- Node5 -->
<g id="node5" class="node">
<title>Node5</title>
<g id="a_node5"><a xlink:href="MemoryController_8h.html" target="_top" xlink:title=" ">
<polygon fill="white" stroke="black" points="130,-224.5 130,-243.5 231,-243.5 231,-224.5 130,-224.5"/>
<text text-anchor="middle" x="180.5" y="-231.5" font-family="Helvetica,sans-Serif" font-size="10.00">MemoryController.h</text>
</a>
</g>
</g>
<!-- Node1&#45;&gt;Node5 -->
<g id="edge5" class="edge">
<title>Node1&#45;&gt;Node5</title>
<path fill="none" stroke="midnightblue" d="M245.13,-280.32C233.34,-272.06 215.37,-259.45 201.36,-249.63"/>
<polygon fill="midnightblue" stroke="midnightblue" points="203.04,-246.53 192.84,-243.65 199.02,-252.26 203.04,-246.53"/>
</g>
<!-- Node9 -->
<g id="node9" class="node">
<title>Node9</title>
<g id="a_node9"><a xlink:title=" ">
<polygon fill="white" stroke="#bfbfbf" points="267.5,-168.5 267.5,-187.5 365.5,-187.5 365.5,-168.5 267.5,-168.5"/>
<text text-anchor="middle" x="316.5" y="-175.5" font-family="Helvetica,sans-Serif" font-size="10.00">nlohmann/json.hpp</text>
</a>
</g>
</g>
<!-- Node1&#45;&gt;Node9 -->
<g id="edge12" class="edge">
<title>Node1&#45;&gt;Node9</title>
<path fill="none" stroke="midnightblue" d="M262.13,-280.37C271.78,-262.38 294.21,-220.55 307.05,-196.63"/>
<polygon fill="midnightblue" stroke="midnightblue" points="310.25,-198.06 311.89,-187.59 304.08,-194.75 310.25,-198.06"/>
</g>
<!-- Node2&#45;&gt;Node3 -->
<g id="edge2" class="edge">
<title>Node2&#45;&gt;Node3</title>
<path fill="none" stroke="midnightblue" d="M93.65,-112.32C81.28,-103.98 62.37,-91.21 47.76,-81.35"/>
<polygon fill="midnightblue" stroke="midnightblue" points="49.57,-78.35 39.32,-75.65 45.65,-84.15 49.57,-78.35"/>
</g>
<!-- Node4 -->
<g id="node4" class="node">
<title>Node4</title>
<g id="a_node4"><a xlink:title=" ">
<polygon fill="white" stroke="#bfbfbf" points="6,-0.5 6,-19.5 47,-19.5 47,-0.5 6,-0.5"/>
<text text-anchor="middle" x="26.5" y="-7.5" font-family="Helvetica,sans-Serif" font-size="10.00">string</text>
</a>
</g>
</g>
<!-- Node3&#45;&gt;Node4 -->
<g id="edge3" class="edge">
<title>Node3&#45;&gt;Node4</title>
<path fill="none" stroke="midnightblue" d="M26.5,-56.08C26.5,-49.01 26.5,-38.86 26.5,-29.99"/>
<polygon fill="midnightblue" stroke="midnightblue" points="30,-29.75 26.5,-19.75 23,-29.75 30,-29.75"/>
</g>
<!-- Node5&#45;&gt;Node2 -->
<g id="edge7" class="edge">
<title>Node5&#45;&gt;Node2</title>
<path fill="none" stroke="midnightblue" d="M129.72,-227.83C103.87,-222.33 74.57,-211.06 58.5,-188 46.16,-170.3 65.98,-150.4 83.77,-137.34"/>
<polygon fill="midnightblue" stroke="midnightblue" points="85.95,-140.08 92.19,-131.51 81.97,-134.32 85.95,-140.08"/>
</g>
<!-- Node6 -->
<g id="node6" class="node">
<title>Node6</title>
<g id="a_node6"><a xlink:title=" ">
<polygon fill="white" stroke="#bfbfbf" points="206,-168.5 206,-187.5 249,-187.5 249,-168.5 206,-168.5"/>
<text text-anchor="middle" x="227.5" y="-175.5" font-family="Helvetica,sans-Serif" font-size="10.00">cstdio</text>
</a>
</g>
</g>
<!-- Node5&#45;&gt;Node6 -->
<g id="edge6" class="edge">
<title>Node5&#45;&gt;Node6</title>
<path fill="none" stroke="midnightblue" d="M188.26,-224.08C195.04,-216.3 205.04,-204.8 213.26,-195.37"/>
<polygon fill="midnightblue" stroke="midnightblue" points="215.96,-197.59 219.88,-187.75 210.68,-193 215.96,-197.59"/>
</g>
<!-- Node7 -->
<g id="node7" class="node">
<title>Node7</title>
<g id="a_node7"><a xlink:href="Scope_8h.html" target="_top" xlink:title=" ">
<polygon fill="white" stroke="black" points="135,-168.5 135,-187.5 188,-187.5 188,-168.5 135,-168.5"/>
<text text-anchor="middle" x="161.5" y="-175.5" font-family="Helvetica,sans-Serif" font-size="10.00">Scope.h</text>
</a>
</g>
</g>
<!-- Node5&#45;&gt;Node7 -->
<g id="edge8" class="edge">
<title>Node5&#45;&gt;Node7</title>
<path fill="none" stroke="midnightblue" d="M177.36,-224.08C174.82,-216.85 171.14,-206.41 167.97,-197.4"/>
<polygon fill="midnightblue" stroke="midnightblue" points="171.2,-196.02 164.58,-187.75 164.6,-198.35 171.2,-196.02"/>
</g>
<!-- Node8 -->
<g id="node8" class="node">
<title>Node8</title>
<g id="a_node8"><a xlink:title=" ">
<polygon fill="white" stroke="#bfbfbf" points="68,-168.5 68,-187.5 117,-187.5 117,-168.5 68,-168.5"/>
<text text-anchor="middle" x="92.5" y="-175.5" font-family="Helvetica,sans-Serif" font-size="10.00">string.h</text>
</a>
</g>
</g>
<!-- Node5&#45;&gt;Node8 -->
<g id="edge10" class="edge">
<title>Node5&#45;&gt;Node8</title>
<path fill="none" stroke="midnightblue" d="M166.36,-224.32C152.63,-215.9 131.56,-202.97 115.44,-193.07"/>
<polygon fill="midnightblue" stroke="midnightblue" points="116.96,-189.9 106.6,-187.65 113.3,-195.87 116.96,-189.9"/>
</g>
<!-- Node5&#45;&gt;Node9 -->
<g id="edge11" class="edge">
<title>Node5&#45;&gt;Node9</title>
<path fill="none" stroke="midnightblue" d="M202.05,-224.44C224.53,-215.52 259.99,-201.44 285.48,-191.32"/>
<polygon fill="midnightblue" stroke="midnightblue" points="287.05,-194.46 295.05,-187.52 284.47,-187.95 287.05,-194.46"/>
</g>
<!-- Node7&#45;&gt;Node2 -->
<g id="edge9" class="edge">
<title>Node7&#45;&gt;Node2</title>
<path fill="none" stroke="midnightblue" d="M152.42,-168.08C144.33,-160.14 132.3,-148.34 122.59,-138.8"/>
<polygon fill="midnightblue" stroke="midnightblue" points="125,-136.26 115.41,-131.75 120.1,-141.25 125,-136.26"/>
</g>
</g>
</svg>
