<?xml version="1.0" encoding="UTF-8" standalone="no"?>
<!DOCTYPE svg PUBLIC "-//W3C//DTD SVG 1.1//EN"
 "http://www.w3.org/Graphics/SVG/1.1/DTD/svg11.dtd">
<!-- Generated by graphviz version 2.47.1 (20210417.1919)
 -->
<!-- Title: Server/Scope.cpp Pages: 1 -->
<svg width="432pt" height="308pt"
 viewBox="0.00 0.00 432.00 308.00" xmlns="http://www.w3.org/2000/svg" xmlns:xlink="http://www.w3.org/1999/xlink">
<g id="graph0" class="graph" transform="scale(1 1) rotate(0) translate(4 304)">
<title>Server/Scope.cpp</title>
<polygon fill="white" stroke="transparent" points="-4,4 -4,-304 428,-304 428,4 -4,4"/>
<!-- Node1 -->
<g id="node1" class="node">
<title>Node1</title>
<g id="a_node1"><a xlink:title=" ">
<polygon fill="#bfbfbf" stroke="black" points="127,-280.5 127,-299.5 220,-299.5 220,-280.5 127,-280.5"/>
<text text-anchor="middle" x="173.5" y="-287.5" font-family="Helvetica,sans-Serif" font-size="10.00">Server/Scope.cpp</text>
</a>
</g>
</g>
<!-- Node2 -->
<g id="node2" class="node">
<title>Node2</title>
<g id="a_node2"><a xlink:href="Scope_8h.html" target="_top" xlink:title=" ">
<polygon fill="white" stroke="black" points="0,-168.5 0,-187.5 53,-187.5 53,-168.5 0,-168.5"/>
<text text-anchor="middle" x="26.5" y="-175.5" font-family="Helvetica,sans-Serif" font-size="10.00">Scope.h</text>
</a>
</g>
</g>
<!-- Node1&#45;&gt;Node2 -->
<g id="edge1" class="edge">
<title>Node1&#45;&gt;Node2</title>
<path fill="none" stroke="midnightblue" d="M144.93,-280.37C123.91,-273.04 95.48,-260.99 74.5,-244 58.2,-230.8 44.57,-210.85 36.05,-196.54"/>
<polygon fill="midnightblue" stroke="midnightblue" points="38.99,-194.63 30.99,-187.68 32.91,-198.1 38.99,-194.63"/>
</g>
<!-- Node6 -->
<g id="node6" class="node">
<title>Node6</title>
<g id="a_node6"><a xlink:href="Gcollector_8h.html" target="_top" xlink:title=" ">
<polygon fill="white" stroke="black" points="355,-168.5 355,-187.5 424,-187.5 424,-168.5 355,-168.5"/>
<text text-anchor="middle" x="389.5" y="-175.5" font-family="Helvetica,sans-Serif" font-size="10.00">Gcollector.h</text>
</a>
</g>
</g>
<!-- Node1&#45;&gt;Node6 -->
<g id="edge5" class="edge">
<title>Node1&#45;&gt;Node6</title>
<path fill="none" stroke="midnightblue" d="M178.92,-280.44C188.19,-266.5 208.43,-238.97 232.5,-224 251.27,-212.32 305.42,-198.18 344.89,-188.9"/>
<polygon fill="midnightblue" stroke="midnightblue" points="345.88,-192.26 354.83,-186.59 344.3,-185.45 345.88,-192.26"/>
</g>
<!-- Node7 -->
<g id="node7" class="node">
<title>Node7</title>
<g id="a_node7"><a xlink:href="MemoryController_8h.html" target="_top" xlink:title=" ">
<polygon fill="white" stroke="black" points="84,-224.5 84,-243.5 185,-243.5 185,-224.5 84,-224.5"/>
<text text-anchor="middle" x="134.5" y="-231.5" font-family="Helvetica,sans-Serif" font-size="10.00">MemoryController.h</text>
</a>
</g>
</g>
<!-- Node1&#45;&gt;Node7 -->
<g id="edge8" class="edge">
<title>Node1&#45;&gt;Node7</title>
<path fill="none" stroke="midnightblue" d="M167.06,-280.08C161.55,-272.46 153.47,-261.26 146.74,-251.94"/>
<polygon fill="midnightblue" stroke="midnightblue" points="149.51,-249.81 140.82,-243.75 143.84,-253.91 149.51,-249.81"/>
</g>
<!-- Node11 -->
<g id="node11" class="node">
<title>Node11</title>
<g id="a_node11"><a xlink:title=" ">
<polygon fill="white" stroke="#bfbfbf" points="241.5,-224.5 241.5,-243.5 281.5,-243.5 281.5,-224.5 241.5,-224.5"/>
<text text-anchor="middle" x="261.5" y="-231.5" font-family="Helvetica,sans-Serif" font-size="10.00">utility</text>
</a>
</g>
</g>
<!-- Node1&#45;&gt;Node11 -->
<g id="edge14" class="edge">
<title>Node1&#45;&gt;Node11</title>
<path fill="none" stroke="midnightblue" d="M187.64,-280.32C201.37,-271.9 222.44,-258.97 238.56,-249.07"/>
<polygon fill="midnightblue" stroke="midnightblue" points="240.7,-251.87 247.4,-243.65 237.04,-245.9 240.7,-251.87"/>
</g>
<!-- Node3 -->
<g id="node3" class="node">
<title>Node3</title>
<g id="a_node3"><a xlink:href="Llist_8h.html" target="_top" xlink:title=" ">
<polygon fill="white" stroke="black" points="189,-112.5 189,-131.5 232,-131.5 232,-112.5 189,-112.5"/>
<text text-anchor="middle" x="210.5" y="-119.5" font-family="Helvetica,sans-Serif" font-size="10.00">Llist.h</text>
</a>
</g>
</g>
<!-- Node2&#45;&gt;Node3 -->
<g id="edge2" class="edge">
<title>Node2&#45;&gt;Node3</title>
<path fill="none" stroke="midnightblue" d="M53.26,-169.15C86.64,-159.35 143.64,-142.62 179.07,-132.22"/>
<polygon fill="midnightblue" stroke="midnightblue" points="180.28,-135.52 188.89,-129.34 178.3,-128.8 180.28,-135.52"/>
</g>
<!-- Node4 -->
<g id="node4" class="node">
<title>Node4</title>
<g id="a_node4"><a xlink:href="LNode_8h.html" target="_top" xlink:title=" ">
<polygon fill="white" stroke="black" points="209,-56.5 209,-75.5 262,-75.5 262,-56.5 209,-56.5"/>
<text text-anchor="middle" x="235.5" y="-63.5" font-family="Helvetica,sans-Serif" font-size="10.00">LNode.h</text>
</a>
</g>
</g>
<!-- Node3&#45;&gt;Node4 -->
<g id="edge3" class="edge">
<title>Node3&#45;&gt;Node4</title>
<path fill="none" stroke="midnightblue" d="M214.63,-112.08C218.01,-104.77 222.92,-94.18 227.12,-85.1"/>
<polygon fill="midnightblue" stroke="midnightblue" points="230.42,-86.3 231.45,-75.75 224.07,-83.36 230.42,-86.3"/>
</g>
<!-- Node5 -->
<g id="node5" class="node">
<title>Node5</title>
<g id="a_node5"><a xlink:title=" ">
<polygon fill="white" stroke="#bfbfbf" points="215,-0.5 215,-19.5 256,-19.5 256,-0.5 215,-0.5"/>
<text text-anchor="middle" x="235.5" y="-7.5" font-family="Helvetica,sans-Serif" font-size="10.00">string</text>
</a>
</g>
</g>
<!-- Node4&#45;&gt;Node5 -->
<g id="edge4" class="edge">
<title>Node4&#45;&gt;Node5</title>
<path fill="none" stroke="midnightblue" d="M235.5,-56.08C235.5,-49.01 235.5,-38.86 235.5,-29.99"/>
<polygon fill="midnightblue" stroke="midnightblue" points="239,-29.75 235.5,-19.75 232,-29.75 239,-29.75"/>
</g>
<!-- Node6&#45;&gt;Node3 -->
<g id="edge7" class="edge">
<title>Node6&#45;&gt;Node3</title>
<path fill="none" stroke="midnightblue" d="M361.14,-168.44C328.71,-158.66 275.76,-142.69 242.06,-132.52"/>
<polygon fill="midnightblue" stroke="midnightblue" points="242.84,-129.1 232.26,-129.56 240.82,-135.8 242.84,-129.1"/>
</g>
<!-- Node6&#45;&gt;Node4 -->
<g id="edge6" class="edge">
<title>Node6&#45;&gt;Node4</title>
<path fill="none" stroke="midnightblue" d="M377.42,-168.37C351.1,-149.57 288.38,-104.77 255.85,-81.53"/>
<polygon fill="midnightblue" stroke="midnightblue" points="257.7,-78.56 247.53,-75.59 253.63,-84.25 257.7,-78.56"/>
</g>
<!-- Node7&#45;&gt;Node2 -->
<g id="edge11" class="edge">
<title>Node7&#45;&gt;Node2</title>
<path fill="none" stroke="midnightblue" d="M117.15,-224.32C99.83,-215.66 72.98,-202.24 53,-192.25"/>
<polygon fill="midnightblue" stroke="midnightblue" points="54.32,-189 43.81,-187.65 51.19,-195.26 54.32,-189"/>
</g>
<!-- Node7&#45;&gt;Node3 -->
<g id="edge10" class="edge">
<title>Node7&#45;&gt;Node3</title>
<path fill="none" stroke="midnightblue" d="M123.91,-224.25C109.72,-211.44 87.72,-187.03 100.5,-168 117.79,-142.25 152.69,-131.23 178.56,-126.51"/>
<polygon fill="midnightblue" stroke="midnightblue" points="179.35,-129.93 188.68,-124.9 178.25,-123.02 179.35,-129.93"/>
</g>
<!-- Node8 -->
<g id="node8" class="node">
<title>Node8</title>
<g id="a_node8"><a xlink:title=" ">
<polygon fill="white" stroke="#bfbfbf" points="294,-168.5 294,-187.5 337,-187.5 337,-168.5 294,-168.5"/>
<text text-anchor="middle" x="315.5" y="-175.5" font-family="Helvetica,sans-Serif" font-size="10.00">cstdio</text>
</a>
</g>
</g>
<!-- Node7&#45;&gt;Node8 -->
<g id="edge9" class="edge">
<title>Node7&#45;&gt;Node8</title>
<path fill="none" stroke="midnightblue" d="M163.18,-224.44C196.06,-214.63 249.8,-198.6 283.87,-188.44"/>
<polygon fill="midnightblue" stroke="midnightblue" points="285.19,-191.7 293.77,-185.48 283.19,-184.99 285.19,-191.7"/>
</g>
<!-- Node9 -->
<g id="node9" class="node">
<title>Node9</title>
<g id="a_node9"><a xlink:title=" ">
<polygon fill="white" stroke="#bfbfbf" points="110,-168.5 110,-187.5 159,-187.5 159,-168.5 110,-168.5"/>
<text text-anchor="middle" x="134.5" y="-175.5" font-family="Helvetica,sans-Serif" font-size="10.00">string.h</text>
</a>
</g>
</g>
<!-- Node7&#45;&gt;Node9 -->
<g id="edge12" class="edge">
<title>Node7&#45;&gt;Node9</title>
<path fill="none" stroke="midnightblue" d="M134.5,-224.08C134.5,-217.01 134.5,-206.86 134.5,-197.99"/>
<polygon fill="midnightblue" stroke="midnightblue" points="138,-197.75 134.5,-187.75 131,-197.75 138,-197.75"/>
</g>
<!-- Node10 -->
<g id="node10" class="node">
<title>Node10</title>
<g id="a_node10"><a xlink:title=" ">
<polygon fill="white" stroke="#bfbfbf" points="177.5,-168.5 177.5,-187.5 275.5,-187.5 275.5,-168.5 177.5,-168.5"/>
<text text-anchor="middle" x="226.5" y="-175.5" font-family="Helvetica,sans-Serif" font-size="10.00">nlohmann/json.hpp</text>
</a>
</g>
</g>
<!-- Node7&#45;&gt;Node10 -->
<g id="edge13" class="edge">
<title>Node7&#45;&gt;Node10</title>
<path fill="none" stroke="midnightblue" d="M149.28,-224.32C163.77,-215.82 186.07,-202.73 202.99,-192.8"/>
<polygon fill="midnightblue" stroke="midnightblue" points="204.9,-195.74 211.76,-187.65 201.36,-189.7 204.9,-195.74"/>
</g>
</g>
</svg>
