<?xml version="1.0" encoding="UTF-8" standalone="no"?>
<!DOCTYPE svg PUBLIC "-//W3C//DTD SVG 1.1//EN"
 "http://www.w3.org/Graphics/SVG/1.1/DTD/svg11.dtd">
<!-- Generated by graphviz version 2.47.1 (20210417.1919)
 -->
<!-- Title: Server/Scope.h Pages: 1 -->
<svg width="528pt" height="196pt"
 viewBox="0.00 0.00 527.50 196.00" xmlns="http://www.w3.org/2000/svg" xmlns:xlink="http://www.w3.org/1999/xlink">
<g id="graph0" class="graph" transform="scale(1 1) rotate(0) translate(4 192)">
<title>Server/Scope.h</title>
<polygon fill="white" stroke="transparent" points="-4,4 -4,-192 523.5,-192 523.5,4 -4,4"/>
<!-- Node1 -->
<g id="node1" class="node">
<title>Node1</title>
<g id="a_node1"><a xlink:title=" ">
<polygon fill="#bfbfbf" stroke="black" points="356.5,-168.5 356.5,-187.5 439.5,-187.5 439.5,-168.5 356.5,-168.5"/>
<text text-anchor="middle" x="398" y="-175.5" font-family="Helvetica,sans-Serif" font-size="10.00">Server/Scope.h</text>
</a>
</g>
</g>
<!-- Node2 -->
<g id="node2" class="node">
<title>Node2</title>
<g id="a_node2"><a xlink:href="MemoryController_8h.html" target="_top" xlink:title=" ">
<polygon fill="white" stroke="black" points="285.5,-112.5 285.5,-131.5 416.5,-131.5 416.5,-112.5 285.5,-112.5"/>
<text text-anchor="middle" x="351" y="-119.5" font-family="Helvetica,sans-Serif" font-size="10.00">Server/MemoryController.h</text>
</a>
</g>
</g>
<!-- Node1&#45;&gt;Node2 -->
<g id="edge1" class="edge">
<title>Node1&#45;&gt;Node2</title>
<path fill="none" stroke="midnightblue" d="M383.58,-160.43C375.34,-150.97 365.35,-139.48 358.62,-131.75"/>
<polygon fill="midnightblue" stroke="midnightblue" points="381.03,-162.84 390.24,-168.08 386.31,-158.24 381.03,-162.84"/>
</g>
<!-- Node9 -->
<g id="node9" class="node">
<title>Node9</title>
<g id="a_node9"><a xlink:href="Scope_8cpp.html" target="_top" xlink:title=" ">
<polygon fill="white" stroke="black" points="426.5,-56.5 426.5,-75.5 519.5,-75.5 519.5,-56.5 426.5,-56.5"/>
<text text-anchor="middle" x="473" y="-63.5" font-family="Helvetica,sans-Serif" font-size="10.00">Server/Scope.cpp</text>
</a>
</g>
</g>
<!-- Node1&#45;&gt;Node9 -->
<g id="edge11" class="edge">
<title>Node1&#45;&gt;Node9</title>
<path fill="none" stroke="midnightblue" d="M409.62,-159.96C425.87,-136.12 454.79,-93.71 467.14,-75.59"/>
<polygon fill="midnightblue" stroke="midnightblue" points="406.63,-158.13 403.89,-168.37 412.41,-162.08 406.63,-158.13"/>
</g>
<!-- Node3 -->
<g id="node3" class="node">
<title>Node3</title>
<g id="a_node3"><a xlink:href="LNode_8cpp.html" target="_top" xlink:title=" ">
<polygon fill="white" stroke="black" points="276.5,-56.5 276.5,-75.5 369.5,-75.5 369.5,-56.5 276.5,-56.5"/>
<text text-anchor="middle" x="323" y="-63.5" font-family="Helvetica,sans-Serif" font-size="10.00">Server/LNode.cpp</text>
</a>
</g>
</g>
<!-- Node2&#45;&gt;Node3 -->
<g id="edge2" class="edge">
<title>Node2&#45;&gt;Node3</title>
<path fill="none" stroke="midnightblue" d="M341.66,-102.98C336.91,-93.82 331.34,-83.09 327.54,-75.75"/>
<polygon fill="midnightblue" stroke="midnightblue" points="338.67,-104.82 346.38,-112.08 344.88,-101.59 338.67,-104.82"/>
</g>
<!-- Node4 -->
<g id="node4" class="node">
<title>Node4</title>
<g id="a_node4"><a xlink:href="MemoryController_8cpp.html" target="_top" xlink:title=" ">
<polygon fill="white" stroke="black" points="374,-0.5 374,-19.5 516,-19.5 516,-0.5 374,-0.5"/>
<text text-anchor="middle" x="445" y="-7.5" font-family="Helvetica,sans-Serif" font-size="10.00">Server/MemoryController.cpp</text>
</a>
</g>
</g>
<!-- Node2&#45;&gt;Node4 -->
<g id="edge3" class="edge">
<title>Node2&#45;&gt;Node4</title>
<path fill="none" stroke="midnightblue" d="M365.03,-104.59C385.29,-80.87 422.04,-37.87 437.66,-19.59"/>
<polygon fill="midnightblue" stroke="midnightblue" points="362.21,-102.49 358.38,-112.37 367.53,-107.04 362.21,-102.49"/>
</g>
<!-- Node5 -->
<g id="node5" class="node">
<title>Node5</title>
<g id="a_node5"><a xlink:href="Parser_8cpp.html" target="_top" xlink:title=" ">
<polygon fill="white" stroke="black" points="0,-0.5 0,-19.5 94,-19.5 94,-0.5 0,-0.5"/>
<text text-anchor="middle" x="47" y="-7.5" font-family="Helvetica,sans-Serif" font-size="10.00">Server/Parser.cpp</text>
</a>
</g>
</g>
<!-- Node2&#45;&gt;Node5 -->
<g id="edge4" class="edge">
<title>Node2&#45;&gt;Node5</title>
<path fill="none" stroke="midnightblue" d="M290.78,-110.5C254,-103.08 206.43,-91.65 166,-76 125.39,-60.28 81.33,-33.34 60.01,-19.6"/>
<polygon fill="midnightblue" stroke="midnightblue" points="290.36,-113.98 300.85,-112.49 291.71,-107.12 290.36,-113.98"/>
</g>
<!-- Node6 -->
<g id="node6" class="node">
<title>Node6</title>
<g id="a_node6"><a xlink:href="Parser_8h.html" target="_top" xlink:title=" ">
<polygon fill="white" stroke="black" points="175.5,-56.5 175.5,-75.5 258.5,-75.5 258.5,-56.5 175.5,-56.5"/>
<text text-anchor="middle" x="217" y="-63.5" font-family="Helvetica,sans-Serif" font-size="10.00">Server/Parser.h</text>
</a>
</g>
</g>
<!-- Node2&#45;&gt;Node6 -->
<g id="edge5" class="edge">
<title>Node2&#45;&gt;Node6</title>
<path fill="none" stroke="midnightblue" d="M320.32,-108.64C295.18,-98.5 260.25,-84.43 238.13,-75.52"/>
<polygon fill="midnightblue" stroke="midnightblue" points="319.18,-111.95 329.77,-112.44 321.8,-105.46 319.18,-111.95"/>
</g>
<!-- Node2&#45;&gt;Node9 -->
<g id="edge10" class="edge">
<title>Node2&#45;&gt;Node9</title>
<path fill="none" stroke="midnightblue" d="M379.54,-108.37C402.39,-98.26 433.81,-84.35 453.76,-75.52"/>
<polygon fill="midnightblue" stroke="midnightblue" points="378.06,-105.2 370.33,-112.44 380.89,-111.6 378.06,-105.2"/>
</g>
<!-- Node6&#45;&gt;Node4 -->
<g id="edge8" class="edge">
<title>Node6&#45;&gt;Node4</title>
<path fill="none" stroke="midnightblue" d="M263.07,-54.09C306.15,-43.89 369.59,-28.86 409.04,-19.52"/>
<polygon fill="midnightblue" stroke="midnightblue" points="262.05,-50.73 253.13,-56.44 263.66,-57.54 262.05,-50.73"/>
</g>
<!-- Node6&#45;&gt;Node5 -->
<g id="edge9" class="edge">
<title>Node6&#45;&gt;Node5</title>
<path fill="none" stroke="midnightblue" d="M180.18,-53.3C148.15,-43.13 102.48,-28.62 73.81,-19.52"/>
<polygon fill="midnightblue" stroke="midnightblue" points="179.47,-56.75 190.06,-56.44 181.59,-50.08 179.47,-56.75"/>
</g>
<!-- Node7 -->
<g id="node7" class="node">
<title>Node7</title>
<g id="a_node7"><a xlink:href="Gcollector_8cpp.html" target="_top" xlink:title=" ">
<polygon fill="white" stroke="black" points="246,-0.5 246,-19.5 356,-19.5 356,-0.5 246,-0.5"/>
<text text-anchor="middle" x="301" y="-7.5" font-family="Helvetica,sans-Serif" font-size="10.00">Server/Gcollector.cpp</text>
</a>
</g>
</g>
<!-- Node6&#45;&gt;Node7 -->
<g id="edge6" class="edge">
<title>Node6&#45;&gt;Node7</title>
<path fill="none" stroke="midnightblue" d="M238.93,-50.9C254.34,-41 274.45,-28.07 287.54,-19.65"/>
<polygon fill="midnightblue" stroke="midnightblue" points="237.02,-47.97 230.5,-56.32 240.8,-53.86 237.02,-47.97"/>
</g>
<!-- Node8 -->
<g id="node8" class="node">
<title>Node8</title>
<g id="a_node8"><a xlink:href="Main_01Server_8cpp.html" target="_top" xlink:title=" ">
<polygon fill="white" stroke="black" points="112,-0.5 112,-19.5 228,-19.5 228,-0.5 112,-0.5"/>
<text text-anchor="middle" x="170" y="-7.5" font-family="Helvetica,sans-Serif" font-size="10.00">Server/Main Server.cpp</text>
</a>
</g>
</g>
<!-- Node6&#45;&gt;Node8 -->
<g id="edge7" class="edge">
<title>Node6&#45;&gt;Node8</title>
<path fill="none" stroke="midnightblue" d="M202.58,-48.43C194.34,-38.97 184.35,-27.48 177.62,-19.75"/>
<polygon fill="midnightblue" stroke="midnightblue" points="200.03,-50.84 209.24,-56.08 205.31,-46.24 200.03,-50.84"/>
</g>
</g>
</svg>
