<?xml version="1.0" encoding="UTF-8" standalone="no"?>
<!DOCTYPE svg PUBLIC "-//W3C//DTD SVG 1.1//EN"
 "http://www.w3.org/Graphics/SVG/1.1/DTD/svg11.dtd">
<!-- Generated by graphviz version 2.47.1 (20210417.1919)
 -->
<!-- Title: InterfaceC!/Interface/socket_client.h Pages: 1 -->
<svg width="398pt" height="95pt"
 viewBox="0.00 0.00 398.00 95.00" xmlns="http://www.w3.org/2000/svg" xmlns:xlink="http://www.w3.org/1999/xlink">
<g id="graph0" class="graph" transform="scale(1 1) rotate(0) translate(4 91)">
<title>InterfaceC!/Interface/socket_client.h</title>
<polygon fill="white" stroke="transparent" points="-4,4 -4,-91 394,-91 394,4 -4,4"/>
<!-- Node1 -->
<g id="node1" class="node">
<title>Node1</title>
<g id="a_node1"><a xlink:title=" ">
<polygon fill="#bfbfbf" stroke="black" points="148.5,-56.5 148.5,-86.5 250.5,-86.5 250.5,-56.5 148.5,-56.5"/>
<text text-anchor="start" x="156.5" y="-74.5" font-family="Helvetica,sans-Serif" font-size="10.00">InterfaceC!/Interface</text>
<text text-anchor="middle" x="199.5" y="-63.5" font-family="Helvetica,sans-Serif" font-size="10.00">/socket_client.h</text>
</a>
</g>
</g>
<!-- Node2 -->
<g id="node2" class="node">
<title>Node2</title>
<g id="a_node2"><a xlink:title=" ">
<polygon fill="white" stroke="#bfbfbf" points="0,-0.5 0,-19.5 97,-19.5 97,-0.5 0,-0.5"/>
<text text-anchor="middle" x="48.5" y="-7.5" font-family="Helvetica,sans-Serif" font-size="10.00">zmqpp/zmqpp.hpp</text>
</a>
</g>
</g>
<!-- Node1&#45;&gt;Node2 -->
<g id="edge1" class="edge">
<title>Node1&#45;&gt;Node2</title>
<path fill="none" stroke="midnightblue" d="M163.72,-56.4C138.27,-46.37 104.4,-33.03 79.98,-23.4"/>
<polygon fill="midnightblue" stroke="midnightblue" points="81.06,-20.07 70.47,-19.66 78.49,-26.58 81.06,-20.07"/>
</g>
<!-- Node3 -->
<g id="node3" class="node">
<title>Node3</title>
<g id="a_node3"><a xlink:title=" ">
<polygon fill="white" stroke="#bfbfbf" points="115.5,-0.5 115.5,-19.5 191.5,-19.5 191.5,-0.5 115.5,-0.5"/>
<text text-anchor="middle" x="153.5" y="-7.5" font-family="Helvetica,sans-Serif" font-size="10.00">QStringLiteral</text>
</a>
</g>
</g>
<!-- Node1&#45;&gt;Node3 -->
<g id="edge2" class="edge">
<title>Node1&#45;&gt;Node3</title>
<path fill="none" stroke="midnightblue" d="M188.6,-56.4C181.91,-47.75 173.32,-36.64 166.32,-27.58"/>
<polygon fill="midnightblue" stroke="midnightblue" points="169.08,-25.43 160.19,-19.66 163.54,-29.71 169.08,-25.43"/>
</g>
<!-- Node4 -->
<g id="node4" class="node">
<title>Node4</title>
<g id="a_node4"><a xlink:title=" ">
<polygon fill="white" stroke="#bfbfbf" points="210,-0.5 210,-19.5 283,-19.5 283,-0.5 210,-0.5"/>
<text text-anchor="middle" x="246.5" y="-7.5" font-family="Helvetica,sans-Serif" font-size="10.00">QJsonObject</text>
</a>
</g>
</g>
<!-- Node1&#45;&gt;Node4 -->
<g id="edge3" class="edge">
<title>Node1&#45;&gt;Node4</title>
<path fill="none" stroke="midnightblue" d="M210.64,-56.4C217.47,-47.75 226.24,-36.64 233.41,-27.58"/>
<polygon fill="midnightblue" stroke="midnightblue" points="236.21,-29.67 239.66,-19.66 230.72,-25.34 236.21,-29.67"/>
</g>
<!-- Node5 -->
<g id="node5" class="node">
<title>Node5</title>
<g id="a_node5"><a xlink:title=" ">
<polygon fill="white" stroke="#bfbfbf" points="301,-0.5 301,-19.5 390,-19.5 390,-0.5 301,-0.5"/>
<text text-anchor="middle" x="345.5" y="-7.5" font-family="Helvetica,sans-Serif" font-size="10.00">QJsonDocument</text>
</a>
</g>
</g>
<!-- Node1&#45;&gt;Node5 -->
<g id="edge4" class="edge">
<title>Node1&#45;&gt;Node5</title>
<path fill="none" stroke="midnightblue" d="M234.1,-56.4C258.6,-46.42 291.16,-33.15 314.75,-23.53"/>
<polygon fill="midnightblue" stroke="midnightblue" points="316.32,-26.67 324.26,-19.66 313.67,-20.19 316.32,-26.67"/>
</g>
</g>
</svg>
