<?xml version="1.0" encoding="UTF-8" standalone="no"?>
<!DOCTYPE svg PUBLIC "-//W3C//DTD SVG 1.1//EN"
 "http://www.w3.org/Graphics/SVG/1.1/DTD/svg11.dtd">
<!-- Generated by graphviz version 2.47.1 (20210417.1919)
 -->
<!-- Title: InterfaceC!/Interface/socket_client.cpp Pages: 1 -->
<svg width="398pt" height="151pt"
 viewBox="0.00 0.00 398.00 151.00" xmlns="http://www.w3.org/2000/svg" xmlns:xlink="http://www.w3.org/1999/xlink">
<g id="graph0" class="graph" transform="scale(1 1) rotate(0) translate(4 147)">
<title>InterfaceC!/Interface/socket_client.cpp</title>
<polygon fill="white" stroke="transparent" points="-4,4 -4,-147 394,-147 394,4 -4,4"/>
<!-- Node1 -->
<g id="node1" class="node">
<title>Node1</title>
<g id="a_node1"><a xlink:title=" ">
<polygon fill="#bfbfbf" stroke="black" points="160.5,-112.5 160.5,-142.5 262.5,-142.5 262.5,-112.5 160.5,-112.5"/>
<text text-anchor="start" x="168.5" y="-130.5" font-family="Helvetica,sans-Serif" font-size="10.00">InterfaceC!/Interface</text>
<text text-anchor="middle" x="211.5" y="-119.5" font-family="Helvetica,sans-Serif" font-size="10.00">/socket_client.cpp</text>
</a>
</g>
</g>
<!-- Node2 -->
<g id="node2" class="node">
<title>Node2</title>
<g id="a_node2"><a xlink:href="socket__client_8h.html" target="_top" xlink:title=" ">
<polygon fill="white" stroke="black" points="135,-56.5 135,-75.5 218,-75.5 218,-56.5 135,-56.5"/>
<text text-anchor="middle" x="176.5" y="-63.5" font-family="Helvetica,sans-Serif" font-size="10.00">socket_client.h</text>
</a>
</g>
</g>
<!-- Node1&#45;&gt;Node2 -->
<g id="edge1" class="edge">
<title>Node1&#45;&gt;Node2</title>
<path fill="none" stroke="midnightblue" d="M203.21,-112.4C198.28,-104.02 191.99,-93.33 186.75,-84.42"/>
<polygon fill="midnightblue" stroke="midnightblue" points="189.68,-82.5 181.59,-75.66 183.65,-86.05 189.68,-82.5"/>
</g>
<!-- Node3 -->
<g id="node3" class="node">
<title>Node3</title>
<g id="a_node3"><a xlink:title=" ">
<polygon fill="white" stroke="#bfbfbf" points="0,-0.5 0,-19.5 97,-19.5 97,-0.5 0,-0.5"/>
<text text-anchor="middle" x="48.5" y="-7.5" font-family="Helvetica,sans-Serif" font-size="10.00">zmqpp/zmqpp.hpp</text>
</a>
</g>
</g>
<!-- Node1&#45;&gt;Node3 -->
<g id="edge6" class="edge">
<title>Node1&#45;&gt;Node3</title>
<path fill="none" stroke="midnightblue" d="M184.81,-112.37C167.45,-102.81 144.58,-89.51 125.5,-76 103.57,-60.48 80.25,-40.19 65.09,-26.44"/>
<polygon fill="midnightblue" stroke="midnightblue" points="67.3,-23.72 57.57,-19.54 62.57,-28.88 67.3,-23.72"/>
</g>
<!-- Node5 -->
<g id="node5" class="node">
<title>Node5</title>
<g id="a_node5"><a xlink:title=" ">
<polygon fill="white" stroke="#bfbfbf" points="210,-0.5 210,-19.5 283,-19.5 283,-0.5 210,-0.5"/>
<text text-anchor="middle" x="246.5" y="-7.5" font-family="Helvetica,sans-Serif" font-size="10.00">QJsonObject</text>
</a>
</g>
</g>
<!-- Node1&#45;&gt;Node5 -->
<g id="edge7" class="edge">
<title>Node1&#45;&gt;Node5</title>
<path fill="none" stroke="midnightblue" d="M215.79,-112.34C222.13,-91.43 233.98,-52.31 240.96,-29.27"/>
<polygon fill="midnightblue" stroke="midnightblue" points="244.32,-30.25 243.87,-19.67 237.62,-28.22 244.32,-30.25"/>
</g>
<!-- Node6 -->
<g id="node6" class="node">
<title>Node6</title>
<g id="a_node6"><a xlink:title=" ">
<polygon fill="white" stroke="#bfbfbf" points="301,-0.5 301,-19.5 390,-19.5 390,-0.5 301,-0.5"/>
<text text-anchor="middle" x="345.5" y="-7.5" font-family="Helvetica,sans-Serif" font-size="10.00">QJsonDocument</text>
</a>
</g>
</g>
<!-- Node1&#45;&gt;Node6 -->
<g id="edge8" class="edge">
<title>Node1&#45;&gt;Node6</title>
<path fill="none" stroke="midnightblue" d="M227.93,-112.34C253.28,-90.49 301.72,-48.73 327.81,-26.24"/>
<polygon fill="midnightblue" stroke="midnightblue" points="330.15,-28.85 335.44,-19.67 325.58,-23.55 330.15,-28.85"/>
</g>
<!-- Node2&#45;&gt;Node3 -->
<g id="edge2" class="edge">
<title>Node2&#45;&gt;Node3</title>
<path fill="none" stroke="midnightblue" d="M156.22,-56.44C135.15,-47.56 101.98,-33.56 78.01,-23.45"/>
<polygon fill="midnightblue" stroke="midnightblue" points="79.26,-20.18 68.69,-19.52 76.54,-26.63 79.26,-20.18"/>
</g>
<!-- Node4 -->
<g id="node4" class="node">
<title>Node4</title>
<g id="a_node4"><a xlink:title=" ">
<polygon fill="white" stroke="#bfbfbf" points="115.5,-0.5 115.5,-19.5 191.5,-19.5 191.5,-0.5 115.5,-0.5"/>
<text text-anchor="middle" x="153.5" y="-7.5" font-family="Helvetica,sans-Serif" font-size="10.00">QStringLiteral</text>
</a>
</g>
</g>
<!-- Node2&#45;&gt;Node4 -->
<g id="edge3" class="edge">
<title>Node2&#45;&gt;Node4</title>
<path fill="none" stroke="midnightblue" d="M172.7,-56.08C169.59,-48.77 165.08,-38.18 161.21,-29.1"/>
<polygon fill="midnightblue" stroke="midnightblue" points="164.37,-27.58 157.23,-19.75 157.93,-30.32 164.37,-27.58"/>
</g>
<!-- Node2&#45;&gt;Node5 -->
<g id="edge4" class="edge">
<title>Node2&#45;&gt;Node5</title>
<path fill="none" stroke="midnightblue" d="M187.75,-56.32C198.3,-48.18 214.3,-35.84 226.94,-26.09"/>
<polygon fill="midnightblue" stroke="midnightblue" points="229.27,-28.71 235.05,-19.83 224.99,-23.17 229.27,-28.71"/>
</g>
<!-- Node2&#45;&gt;Node6 -->
<g id="edge5" class="edge">
<title>Node2&#45;&gt;Node6</title>
<path fill="none" stroke="midnightblue" d="M203.28,-56.44C231.83,-47.32 277.23,-32.81 309.04,-22.65"/>
<polygon fill="midnightblue" stroke="midnightblue" points="310.39,-25.89 318.85,-19.52 308.26,-19.23 310.39,-25.89"/>
</g>
</g>
</svg>
