<?xml version="1.0" encoding="UTF-8" standalone="no"?>
<!DOCTYPE svg PUBLIC "-//W3C//DTD SVG 1.1//EN"
 "http://www.w3.org/Graphics/SVG/1.1/DTD/svg11.dtd">
<!-- Generated by graphviz version 2.47.1 (20210417.1919)
 -->
<!-- Title: InterfaceC!/Interface/socket_client.h Pages: 1 -->
<svg width="404pt" height="184pt"
 viewBox="0.00 0.00 404.00 184.00" xmlns="http://www.w3.org/2000/svg" xmlns:xlink="http://www.w3.org/1999/xlink">
<g id="graph0" class="graph" transform="scale(1 1) rotate(0) translate(4 180)">
<title>InterfaceC!/Interface/socket_client.h</title>
<polygon fill="white" stroke="transparent" points="-4,4 -4,-180 400,-180 400,4 -4,4"/>
<!-- Node1 -->
<g id="node1" class="node">
<title>Node1</title>
<g id="a_node1"><a xlink:title=" ">
<polygon fill="#bfbfbf" stroke="black" points="130,-145.5 130,-175.5 232,-175.5 232,-145.5 130,-145.5"/>
<text text-anchor="start" x="138" y="-163.5" font-family="Helvetica,sans-Serif" font-size="10.00">InterfaceC!/Interface</text>
<text text-anchor="middle" x="181" y="-152.5" font-family="Helvetica,sans-Serif" font-size="10.00">/socket_client.h</text>
</a>
</g>
</g>
<!-- Node2 -->
<g id="node2" class="node">
<title>Node2</title>
<g id="a_node2"><a xlink:href="mainwindow_8cpp.html" target="_top" xlink:title=" ">
<polygon fill="white" stroke="black" points="0,-6 0,-36 102,-36 102,-6 0,-6"/>
<text text-anchor="start" x="8" y="-24" font-family="Helvetica,sans-Serif" font-size="10.00">InterfaceC!/Interface</text>
<text text-anchor="middle" x="51" y="-13" font-family="Helvetica,sans-Serif" font-size="10.00">/mainwindow.cpp</text>
</a>
</g>
</g>
<!-- Node1&#45;&gt;Node2 -->
<g id="edge1" class="edge">
<title>Node1&#45;&gt;Node2</title>
<path fill="none" stroke="midnightblue" d="M154.45,-139.01C143.65,-130.22 131.32,-119.55 121,-109 97.68,-85.16 74.1,-54.08 61.13,-36.25"/>
<polygon fill="midnightblue" stroke="midnightblue" points="152.35,-141.82 162.34,-145.34 156.73,-136.35 152.35,-141.82"/>
</g>
<!-- Node3 -->
<g id="node3" class="node">
<title>Node3</title>
<g id="a_node3"><a xlink:href="mainwindow_8h.html" target="_top" xlink:title=" ">
<polygon fill="white" stroke="black" points="130,-78.5 130,-108.5 232,-108.5 232,-78.5 130,-78.5"/>
<text text-anchor="start" x="138" y="-96.5" font-family="Helvetica,sans-Serif" font-size="10.00">InterfaceC!/Interface</text>
<text text-anchor="middle" x="181" y="-85.5" font-family="Helvetica,sans-Serif" font-size="10.00">/mainwindow.h</text>
</a>
</g>
</g>
<!-- Node1&#45;&gt;Node3 -->
<g id="edge2" class="edge">
<title>Node1&#45;&gt;Node3</title>
<path fill="none" stroke="midnightblue" d="M181,-135.11C181,-126.15 181,-116.32 181,-108.58"/>
<polygon fill="midnightblue" stroke="midnightblue" points="177.5,-135.4 181,-145.4 184.5,-135.4 177.5,-135.4"/>
</g>
<!-- Node6 -->
<g id="node6" class="node">
<title>Node6</title>
<g id="a_node6"><a xlink:href="socket__client_8cpp.html" target="_top" xlink:title=" ">
<polygon fill="white" stroke="black" points="250,-78.5 250,-108.5 352,-108.5 352,-78.5 250,-78.5"/>
<text text-anchor="start" x="258" y="-96.5" font-family="Helvetica,sans-Serif" font-size="10.00">InterfaceC!/Interface</text>
<text text-anchor="middle" x="301" y="-85.5" font-family="Helvetica,sans-Serif" font-size="10.00">/socket_client.cpp</text>
</a>
</g>
</g>
<!-- Node1&#45;&gt;Node6 -->
<g id="edge6" class="edge">
<title>Node1&#45;&gt;Node6</title>
<path fill="none" stroke="midnightblue" d="M215.94,-140.57C234.82,-130.35 257.73,-117.94 275.01,-108.58"/>
<polygon fill="midnightblue" stroke="midnightblue" points="214.16,-137.56 207.04,-145.4 217.5,-143.71 214.16,-137.56"/>
</g>
<!-- Node3&#45;&gt;Node2 -->
<g id="edge5" class="edge">
<title>Node3&#45;&gt;Node2</title>
<path fill="none" stroke="midnightblue" d="M146.07,-73.56C124.31,-61.76 96.78,-46.83 76.95,-36.07"/>
<polygon fill="midnightblue" stroke="midnightblue" points="144.55,-76.71 155.01,-78.4 147.88,-70.56 144.55,-76.71"/>
</g>
<!-- Node4 -->
<g id="node4" class="node">
<title>Node4</title>
<g id="a_node4"><a xlink:href="moc__mainwindow_8cpp.html" target="_top" xlink:title=" ">
<polygon fill="white" stroke="black" points="120.5,-0.5 120.5,-41.5 275.5,-41.5 275.5,-0.5 120.5,-0.5"/>
<text text-anchor="start" x="128.5" y="-29.5" font-family="Helvetica,sans-Serif" font-size="10.00">InterfaceC!/build&#45;Interface</text>
<text text-anchor="start" x="128.5" y="-18.5" font-family="Helvetica,sans-Serif" font-size="10.00">&#45;Desktop_Qt_5_9_1_GCC_64bit</text>
<text text-anchor="middle" x="198" y="-7.5" font-family="Helvetica,sans-Serif" font-size="10.00">&#45;Debug/moc_mainwindow.cpp</text>
</a>
</g>
</g>
<!-- Node3&#45;&gt;Node4 -->
<g id="edge3" class="edge">
<title>Node3&#45;&gt;Node4</title>
<path fill="none" stroke="midnightblue" d="M186.84,-68.27C188.94,-59.56 191.28,-49.85 193.28,-41.59"/>
<polygon fill="midnightblue" stroke="midnightblue" points="183.38,-67.69 184.44,-78.23 190.19,-69.33 183.38,-67.69"/>
</g>
<!-- Node5 -->
<g id="node5" class="node">
<title>Node5</title>
<g id="a_node5"><a xlink:href="main_8cpp.html" target="_top" xlink:title=" ">
<polygon fill="white" stroke="black" points="294,-6 294,-36 396,-36 396,-6 294,-6"/>
<text text-anchor="start" x="302" y="-24" font-family="Helvetica,sans-Serif" font-size="10.00">InterfaceC!/Interface</text>
<text text-anchor="middle" x="345" y="-13" font-family="Helvetica,sans-Serif" font-size="10.00">/main.cpp</text>
</a>
</g>
</g>
<!-- Node3&#45;&gt;Node5 -->
<g id="edge4" class="edge">
<title>Node3&#45;&gt;Node5</title>
<path fill="none" stroke="midnightblue" d="M223.24,-74.34C250.96,-62.42 286.69,-47.07 312.26,-36.07"/>
<polygon fill="midnightblue" stroke="midnightblue" points="221.6,-71.24 213.79,-78.4 224.36,-77.67 221.6,-71.24"/>
</g>
</g>
</svg>
