<?xml version="1.0" encoding="UTF-8" standalone="no"?>
<!DOCTYPE svg PUBLIC "-//W3C//DTD SVG 1.1//EN"
 "http://www.w3.org/Graphics/SVG/1.1/DTD/svg11.dtd">
<!-- Generated by graphviz version 2.47.1 (20210417.1919)
 -->
<!-- Title: InterfaceC!/build&#45;Interface&#45;Desktop_Qt_5_9_1_GCC_64bit&#45;Debug/ui_mainwindow.h Pages: 1 -->
<!--zoomable 106 -->
<svg id="main" version="1.1" xmlns="http://www.w3.org/2000/svg" xmlns:xlink="http://www.w3.org/1999/xlink" xml:space="preserve" onload="init(evt)">
<style type="text/css"><![CDATA[
.edge:hover path { stroke: red; }
.edge:hover polygon { stroke: red; fill: red; }
]]></style>
<script type="text/javascript"><![CDATA[
var edges = document.getElementsByTagName('g');
if (edges && edges.length) {
  for (var i=0;i<edges.length;i++) {
    if (edges[i].id.substr(0,4)=='edge') {
      edges[i].setAttribute('class','edge');
    }
  }
}
]]></script>
        <defs>
                <circle id="rim" cx="0" cy="0" r="7"/>
                <circle id="rim2" cx="0" cy="0" r="3.5"/>
                <g id="zoomPlus">
                        <use xlink:href="#rim" fill="#404040">
                                <set attributeName="fill" to="#808080" begin="zoomplus.mouseover" end="zoomplus.mouseout"/>
                        </use>
                        <path d="M-4,0h8M0,-4v8" fill="none" stroke="white" stroke-width="1.5" pointer-events="none"/>
                </g>
                <g id="zoomMin">
                        <use xlink:href="#rim" fill="#404040">
                                <set attributeName="fill" to="#808080" begin="zoomminus.mouseover" end="zoomminus.mouseout"/>
                        </use>
                        <path d="M-4,0h8" fill="none" stroke="white" stroke-width="1.5" pointer-events="none"/>
                </g>
                <g id="dirArrow">
                        <path fill="none" stroke="white" stroke-width="1.5" d="M0,-3.0v7 M-2.5,-0.5L0,-3.0L2.5,-0.5"/>
                </g>
               <g id="resetDef">
                       <use xlink:href="#rim2" fill="#404040">
                               <set attributeName="fill" to="#808080" begin="reset.mouseover" end="reset.mouseout"/>
                       </use>
               </g>
        </defs>

<script type="text/javascript">
var viewWidth = 1302;
var viewHeight = 106;
var sectionId = 'dynsection-0';
</script>
<script xlink:href="svgpan.js"/>
<svg id="graph" class="graph">
<g id="viewport">
<title>InterfaceC!/build&#45;Interface&#45;Desktop_Qt_5_9_1_GCC_64bit&#45;Debug/ui_mainwindow.h</title>
<polygon fill="white" stroke="transparent" points="-4,4 -4,-102 1297.5,-102 1297.5,4 -4,4"/>
<!-- Node1 -->
<g id="node1" class="node">
<title>Node1</title>
<g id="a_node1"><a xlink:title=" ">
<polygon fill="#bfbfbf" stroke="black" points="562,-56.5 562,-97.5 717,-97.5 717,-56.5 562,-56.5"/>
<text text-anchor="start" x="570" y="-85.5" font-family="Helvetica,sans-Serif" font-size="10.00">InterfaceC!/build&#45;Interface</text>
<text text-anchor="start" x="570" y="-74.5" font-family="Helvetica,sans-Serif" font-size="10.00">&#45;Desktop_Qt_5_9_1_GCC_64bit</text>
<text text-anchor="middle" x="639.5" y="-63.5" font-family="Helvetica,sans-Serif" font-size="10.00">&#45;Debug/ui_mainwindow.h</text>
</a>
</g>
</g>
<!-- Node2 -->
<g id="node2" class="node">
<title>Node2</title>
<g id="a_node2"><a xlink:title=" ">
<polygon fill="white" stroke="#bfbfbf" points="0,-0.5 0,-19.5 89,-19.5 89,-0.5 0,-0.5"/>
<text text-anchor="middle" x="44.5" y="-7.5" font-family="Helvetica,sans-Serif" font-size="10.00">QtCore/QVariant</text>
</a>
</g>
</g>
<!-- Node1&#45;&gt;Node2 -->
<g id="edge1" class="edge">
<title>Node1&#45;&gt;Node2</title>
<path fill="none" stroke="midnightblue" d="M561.67,-69.57C458.24,-60.66 269.59,-43.15 98.92,-20.12"/>
<polygon fill="midnightblue" stroke="midnightblue" points="99.38,-16.65 89,-18.77 98.44,-23.59 99.38,-16.65"/>
</g>
<!-- Node3 -->
<g id="node3" class="node">
<title>Node3</title>
<g id="a_node3"><a xlink:title=" ">
<polygon fill="white" stroke="#bfbfbf" points="107,-0.5 107,-19.5 208,-19.5 208,-0.5 107,-0.5"/>
<text text-anchor="middle" x="157.5" y="-7.5" font-family="Helvetica,sans-Serif" font-size="10.00">QtWidgets/QAction</text>
</a>
</g>
</g>
<!-- Node1&#45;&gt;Node3 -->
<g id="edge2" class="edge">
<title>Node1&#45;&gt;Node3</title>
<path fill="none" stroke="midnightblue" d="M561.67,-66.07C479.18,-55.46 344.83,-37.92 218.48,-20.12"/>
<polygon fill="midnightblue" stroke="midnightblue" points="218.62,-16.6 208.23,-18.67 217.64,-23.53 218.62,-16.6"/>
</g>
<!-- Node4 -->
<g id="node4" class="node">
<title>Node4</title>
<g id="a_node4"><a xlink:title=" ">
<polygon fill="white" stroke="#bfbfbf" points="226.5,-0.5 226.5,-19.5 348.5,-19.5 348.5,-0.5 226.5,-0.5"/>
<text text-anchor="middle" x="287.5" y="-7.5" font-family="Helvetica,sans-Serif" font-size="10.00">QtWidgets/QApplication</text>
</a>
</g>
</g>
<!-- Node1&#45;&gt;Node4 -->
<g id="edge3" class="edge">
<title>Node1&#45;&gt;Node4</title>
<path fill="none" stroke="midnightblue" d="M561.82,-61.66C495.79,-49.46 402.57,-32.25 343.6,-21.36"/>
<polygon fill="midnightblue" stroke="midnightblue" points="344.19,-17.91 333.72,-19.54 342.92,-24.79 344.19,-17.91"/>
</g>
<!-- Node5 -->
<g id="node5" class="node">
<title>Node5</title>
<g id="a_node5"><a xlink:title=" ">
<polygon fill="white" stroke="#bfbfbf" points="366.5,-0.5 366.5,-19.5 494.5,-19.5 494.5,-0.5 366.5,-0.5"/>
<text text-anchor="middle" x="430.5" y="-7.5" font-family="Helvetica,sans-Serif" font-size="10.00">QtWidgets/QButtonGroup</text>
</a>
</g>
</g>
<!-- Node1&#45;&gt;Node5 -->
<g id="edge4" class="edge">
<title>Node1&#45;&gt;Node5</title>
<path fill="none" stroke="midnightblue" d="M576.79,-56.5C541.25,-45.44 497.99,-31.99 467.77,-22.59"/>
<polygon fill="midnightblue" stroke="midnightblue" points="468.63,-19.19 458.05,-19.57 466.56,-25.88 468.63,-19.19"/>
</g>
<!-- Node6 -->
<g id="node6" class="node">
<title>Node6</title>
<g id="a_node6"><a xlink:title=" ">
<polygon fill="white" stroke="#bfbfbf" points="513,-0.5 513,-19.5 638,-19.5 638,-0.5 513,-0.5"/>
<text text-anchor="middle" x="575.5" y="-7.5" font-family="Helvetica,sans-Serif" font-size="10.00">QtWidgets/QHeaderView</text>
</a>
</g>
</g>
<!-- Node1&#45;&gt;Node6 -->
<g id="edge5" class="edge">
<title>Node1&#45;&gt;Node6</title>
<path fill="none" stroke="midnightblue" d="M620.3,-56.5C610.96,-47.01 599.87,-35.76 591.07,-26.81"/>
<polygon fill="midnightblue" stroke="midnightblue" points="593.53,-24.32 584.02,-19.65 588.54,-29.23 593.53,-24.32"/>
</g>
<!-- Node7 -->
<g id="node7" class="node">
<title>Node7</title>
<g id="a_node7"><a xlink:title=" ">
<polygon fill="white" stroke="#bfbfbf" points="656,-0.5 656,-19.5 753,-19.5 753,-0.5 656,-0.5"/>
<text text-anchor="middle" x="704.5" y="-7.5" font-family="Helvetica,sans-Serif" font-size="10.00">QtWidgets/QLabel</text>
</a>
</g>
</g>
<!-- Node1&#45;&gt;Node7 -->
<g id="edge6" class="edge">
<title>Node1&#45;&gt;Node7</title>
<path fill="none" stroke="midnightblue" d="M659,-56.5C668.49,-47.01 679.74,-35.76 688.69,-26.81"/>
<polygon fill="midnightblue" stroke="midnightblue" points="691.25,-29.2 695.85,-19.65 686.3,-24.25 691.25,-29.2"/>
</g>
<!-- Node8 -->
<g id="node8" class="node">
<title>Node8</title>
<g id="a_node8"><a xlink:title=" ">
<polygon fill="white" stroke="#bfbfbf" points="771,-0.5 771,-19.5 900,-19.5 900,-0.5 771,-0.5"/>
<text text-anchor="middle" x="835.5" y="-7.5" font-family="Helvetica,sans-Serif" font-size="10.00">QtWidgets/QMainWindow</text>
</a>
</g>
</g>
<!-- Node1&#45;&gt;Node8 -->
<g id="edge7" class="edge">
<title>Node1&#45;&gt;Node8</title>
<path fill="none" stroke="midnightblue" d="M698.31,-56.5C731.35,-45.54 771.5,-32.22 799.81,-22.84"/>
<polygon fill="midnightblue" stroke="midnightblue" points="801.28,-26.04 809.67,-19.57 799.07,-19.39 801.28,-26.04"/>
</g>
<!-- Node9 -->
<g id="node9" class="node">
<title>Node9</title>
<g id="a_node9"><a xlink:title=" ">
<polygon fill="white" stroke="#bfbfbf" points="918,-0.5 918,-19.5 1043,-19.5 1043,-0.5 918,-0.5"/>
<text text-anchor="middle" x="980.5" y="-7.5" font-family="Helvetica,sans-Serif" font-size="10.00">QtWidgets/QPushButton</text>
</a>
</g>
</g>
<!-- Node1&#45;&gt;Node9 -->
<g id="edge8" class="edge">
<title>Node1&#45;&gt;Node9</title>
<path fill="none" stroke="midnightblue" d="M717.3,-61.17C780.78,-49.07 868.87,-32.28 925.29,-21.52"/>
<polygon fill="midnightblue" stroke="midnightblue" points="926.27,-24.9 935.44,-19.59 924.96,-18.02 926.27,-24.9"/>
</g>
<!-- Node10 -->
<g id="node10" class="node">
<title>Node10</title>
<g id="a_node10"><a xlink:title=" ">
<polygon fill="white" stroke="#bfbfbf" points="1061.5,-0.5 1061.5,-19.5 1171.5,-19.5 1171.5,-0.5 1061.5,-0.5"/>
<text text-anchor="middle" x="1116.5" y="-7.5" font-family="Helvetica,sans-Serif" font-size="10.00">QtWidgets/QTextEdit</text>
</a>
</g>
</g>
<!-- Node1&#45;&gt;Node10 -->
<g id="edge9" class="edge">
<title>Node1&#45;&gt;Node10</title>
<path fill="none" stroke="midnightblue" d="M717.16,-65.59C797.99,-54.72 928.56,-37.1 1051.38,-20.15"/>
<polygon fill="midnightblue" stroke="midnightblue" points="1051.92,-23.61 1061.34,-18.77 1050.96,-16.67 1051.92,-23.61"/>
</g>
<!-- Node11 -->
<g id="node11" class="node">
<title>Node11</title>
<g id="a_node11"><a xlink:title=" ">
<polygon fill="white" stroke="#bfbfbf" points="1189.5,-0.5 1189.5,-19.5 1293.5,-19.5 1293.5,-0.5 1189.5,-0.5"/>
<text text-anchor="middle" x="1241.5" y="-7.5" font-family="Helvetica,sans-Serif" font-size="10.00">QtWidgets/QWidget</text>
</a>
</g>
</g>
<!-- Node1&#45;&gt;Node11 -->
<g id="edge10" class="edge">
<title>Node1&#45;&gt;Node11</title>
<path fill="none" stroke="midnightblue" d="M717.11,-69.03C820.28,-59.53 1008.5,-41.37 1179.35,-20.1"/>
<polygon fill="midnightblue" stroke="midnightblue" points="1179.79,-23.57 1189.28,-18.86 1178.92,-16.63 1179.79,-23.57"/>
</g>
</g>
</svg>
        <g id="navigator" transform="translate(0 0)" fill="#404254">
                <rect fill="#f2f5e9" fill-opacity="0.5" stroke="#606060" stroke-width=".5" x="0" y="0" width="60" height="60"/>
                <use id="zoomplus" xlink:href="#zoomPlus" x="17" y="9" onmousedown="handleZoom(evt,'in')"/>
                <use id="zoomminus" xlink:href="#zoomMin" x="42" y="9" onmousedown="handleZoom(evt,'out')"/>
                <use id="reset" xlink:href="#resetDef" x="30" y="36" onmousedown="handleReset()"/>
                <g id="arrowUp" xlink:href="#dirArrow" transform="translate(30 24)" onmousedown="handlePan(0,-1)">
                  <use xlink:href="#rim" fill="#404040">
                        <set attributeName="fill" to="#808080" begin="arrowUp.mouseover" end="arrowUp.mouseout"/>
                  </use>
                  <path fill="none" stroke="white" stroke-width="1.5" d="M0,-3.0v7 M-2.5,-0.5L0,-3.0L2.5,-0.5"/>
                </g>
                <g id="arrowRight" xlink:href="#dirArrow" transform="rotate(90) translate(36 -43)" onmousedown="handlePan(1,0)">
                  <use xlink:href="#rim" fill="#404040">
                        <set attributeName="fill" to="#808080" begin="arrowRight.mouseover" end="arrowRight.mouseout"/>
                  </use>
                  <path fill="none" stroke="white" stroke-width="1.5" d="M0,-3.0v7 M-2.5,-0.5L0,-3.0L2.5,-0.5"/>
                </g>
                <g id="arrowDown" xlink:href="#dirArrow" transform="rotate(180) translate(-30 -48)" onmousedown="handlePan(0,1)">
                  <use xlink:href="#rim" fill="#404040">
                        <set attributeName="fill" to="#808080" begin="arrowDown.mouseover" end="arrowDown.mouseout"/>
                  </use>
                  <path fill="none" stroke="white" stroke-width="1.5" d="M0,-3.0v7 M-2.5,-0.5L0,-3.0L2.5,-0.5"/>
                </g>
                <g id="arrowLeft" xlink:href="#dirArrow" transform="rotate(270) translate(-36 17)" onmousedown="handlePan(-1,0)">
                  <use xlink:href="#rim" fill="#404040">
                        <set attributeName="fill" to="#808080" begin="arrowLeft.mouseover" end="arrowLeft.mouseout"/>
                  </use>
                  <path fill="none" stroke="white" stroke-width="1.5" d="M0,-3.0v7 M-2.5,-0.5L0,-3.0L2.5,-0.5"/>
                </g>
        </g>
        <svg viewBox="0 0 15 15" width="100%" height="30px" preserveAspectRatio="xMaxYMin meet">
         <g id="arrow_out" transform="scale(0.3 0.3)">
          <a xlink:href="ui__mainwindow_8h__incl_org.svg" target="_base">
           <rect id="button" ry="5" rx="5" y="6" x="6" height="38" width="38"
                fill="#f2f5e9" fill-opacity="0.5" stroke="#606060" stroke-width="1.0"/>
           <path id="arrow"
             d="M 11.500037,31.436501 C 11.940474,20.09759 22.043105,11.32322 32.158766,21.979434 L 37.068811,17.246167 C 37.068811,17.246167 37.088388,32 37.088388,32 L 22.160133,31.978069 C 22.160133,31.978069 26.997745,27.140456 26.997745,27.140456 C 18.528582,18.264221 13.291696,25.230495 11.500037,31.436501 z"
             style="fill:#404040;"/>
          </a>
         </g>
        </svg>
</svg>
